<?xml version="1.0" encoding="utf-8"?>
<!-- Generator: Adobe Illustrator 16.0.0, SVG Export Plug-In . SVG Version: 6.00 Build 0)  -->
<!DOCTYPE svg PUBLIC "-//W3C//DTD SVG 1.1//EN" "http://www.w3.org/Graphics/SVG/1.1/DTD/svg11.dtd">
<svg version="1.1" id="Layer_1" xmlns="http://www.w3.org/2000/svg" xmlns:xlink="http://www.w3.org/1999/xlink" x="0px" y="0px"
	 width="16px" height="18px" viewBox="0 0 16 18" enable-background="new 0 0 16 18" xml:space="preserve">
<path fill="#5F666E" d="M3.534,2.067L3.196,3.023h0.661L3.534,2.067z M3.534,2.067L3.196,3.023L3.534,2.067z M14.123,0.591H2.113
	c-0.323,0-0.591,0.253-0.591,0.563v15.708c0,0.309,0.268,0.563,0.591,0.563h12.01c0.323,0,0.59-0.254,0.59-0.563V1.139
	C14.713,0.844,14.446,0.591,14.123,0.591z M4.167,3.938L3.998,3.431H3.056L2.873,3.938H2.31l0.914-2.419h0.605l0.914,2.419H4.167z
	 M6.74,12.347l1.378-2.109l1.378,2.109H6.74z M9.693,10.729c-0.746,0-1.378-0.478-1.575-1.125c-0.197,0.647-0.83,1.125-1.575,1.125
	c-0.914,0-1.646-0.703-1.646-1.561c0-0.858,0.731-1.547,1.646-1.547c0.028,0,0.056,0,0.099,0C6.599,7.495,6.585,7.354,6.585,7.214
	c0-0.773,0.661-1.392,1.477-1.392s1.477,0.633,1.477,1.392c0,0.155-0.028,0.295-0.07,0.422c0.07-0.014,0.155-0.014,0.226-0.014
	c0.914,0,1.645,0.703,1.645,1.547C11.338,10.041,10.607,10.729,9.693,10.729z M12.941,16.313h-0.604l-0.9-2.419h0.577l0.168,0.507
	h0.942l0.169-0.507h0.563L12.941,16.313z M12.646,15.764l0.337-0.956h-0.661L12.646,15.764z M6.74,12.347l1.378-2.109L6.74,12.347z
	 M12.646,15.764l0.337-0.956L12.646,15.764z M14.291,0H1.944C1.368,0,0.904,0.436,0.904,0.984v16.031
	C0.904,17.564,1.368,18,1.944,18h12.361c0.577,0,1.04-0.436,1.04-0.984V0.984C15.332,0.436,14.868,0,14.291,0z M15.037,17.016
	c0,0.394-0.338,0.703-0.746,0.703H1.944c-0.408,0-0.745-0.31-0.745-0.703V0.984c0-0.394,0.337-0.703,0.745-0.703h12.361
	c0.407,0,0.745,0.31,0.745,0.703v16.031H15.037z"/>
</svg>
