<?xml version="1.0" encoding="utf-8"?>
<!-- Generator: Adobe Illustrator 16.0.0, SVG Export Plug-In . SVG Version: 6.00 Build 0)  -->
<!DOCTYPE svg PUBLIC "-//W3C//DTD SVG 1.1//EN" "http://www.w3.org/Graphics/SVG/1.1/DTD/svg11.dtd">
<svg version="1.1" id="Layer_1" xmlns="http://www.w3.org/2000/svg" xmlns:xlink="http://www.w3.org/1999/xlink" x="0px" y="0px"
	 width="17px" height="17px" viewBox="-0.5 0.5 17 17" enable-background="new -0.5 0.5 17 17" xml:space="preserve">
<path fill="#5F666E" d="M3.84,2.529L3.524,3.421h0.617L3.84,2.529z M3.84,2.529L3.524,3.421L3.84,2.529z M13.724,1.151H2.514
	c-0.301,0-0.551,0.236-0.551,0.525v14.66c0,0.289,0.25,0.526,0.551,0.526h11.21c0.301,0,0.55-0.237,0.55-0.526V1.663
	C14.273,1.388,14.024,1.151,13.724,1.151z M4.431,4.275L4.273,3.802H3.394L3.223,4.275H2.698l0.853-2.258h0.565l0.853,2.258H4.431z
	 M6.833,12.124l1.286-1.969l1.286,1.969H6.833z M9.589,10.613c-0.696,0-1.287-0.445-1.47-1.05c-0.184,0.604-0.775,1.05-1.47,1.05
	c-0.853,0-1.536-0.656-1.536-1.457c0-0.801,0.682-1.444,1.536-1.444c0.026,0,0.052,0,0.092,0c-0.04-0.118-0.053-0.249-0.053-0.38
	c0-0.722,0.617-1.299,1.379-1.299s1.378,0.59,1.378,1.299c0,0.145-0.025,0.275-0.065,0.394c0.065-0.013,0.146-0.013,0.212-0.013
	c0.853,0,1.535,0.656,1.535,1.444C11.124,9.972,10.442,10.613,9.589,10.613z M12.62,15.825h-0.564l-0.839-2.257h0.538l0.156,0.472
	h0.88l0.157-0.472h0.525L12.62,15.825z M12.345,15.313l0.313-0.892h-0.616L12.345,15.313z M6.833,12.124l1.286-1.969L6.833,12.124z
	 M12.345,15.313l0.313-0.892L12.345,15.313z M13.88,0.6H2.356c-0.537,0-0.971,0.407-0.971,0.918v14.963
	c0,0.512,0.434,0.919,0.971,0.919h11.537c0.539,0,0.972-0.407,0.972-0.919V1.518C14.852,1.007,14.419,0.6,13.88,0.6z M14.576,16.481
	c0,0.368-0.315,0.656-0.696,0.656H2.356c-0.38,0-0.695-0.289-0.695-0.656V1.518c0-0.368,0.314-0.656,0.695-0.656h11.537
	c0.38,0,0.695,0.289,0.695,0.656v14.963H14.576L14.576,16.481z"/>
</svg>
