<?xml version="1.0" encoding="utf-8"?>
<!-- Generator: Adobe Illustrator 16.0.0, SVG Export Plug-In . SVG Version: 6.00 Build 0)  -->
<!DOCTYPE svg PUBLIC "-//W3C//DTD SVG 1.1//EN" "http://www.w3.org/Graphics/SVG/1.1/DTD/svg11.dtd">
<svg version="1.1" id="Layer_1" xmlns="http://www.w3.org/2000/svg" xmlns:xlink="http://www.w3.org/1999/xlink" x="0px" y="0px"
	 width="17px" height="17px" viewBox="2 -1.5 17 17" enable-background="new 2 -1.5 17 17" xml:space="preserve">
<path fill="#5F666E" d="M2.1,1.934v10.133h16.8V1.934H2.1z M2.546,11.659V9.73c1.023,0.117,1.837,0.918,1.956,1.929H2.546z
	 M2.546,4.27V2.341h1.956C4.384,3.351,3.57,4.152,2.546,4.27z M10.5,11.292c-1.509,0-2.73-1.864-2.73-4.174
	c0-2.31,1.221-4.174,2.73-4.174c1.51,0,2.73,1.864,2.73,4.174C13.23,9.428,12.01,11.292,10.5,11.292z M18.454,11.659h-1.956
	c0.118-1.011,0.932-1.812,1.956-1.929V11.659z M18.454,4.27c-1.024-0.118-1.838-0.919-1.956-1.929h1.956V4.27z M11.615,7.053
	c-0.157-0.118-0.445-0.25-0.892-0.407v-1.05c0.184,0.013,0.315,0.079,0.38,0.21c0.039,0.079,0.066,0.197,0.079,0.354h0.748
	c-0.013-0.446-0.171-0.761-0.485-0.958c-0.171-0.118-0.42-0.197-0.722-0.223V4.611h-0.276v0.367
	c-0.184,0.013-0.341,0.04-0.433,0.066C9.857,5.097,9.699,5.189,9.568,5.32C9.45,5.425,9.371,5.543,9.319,5.688
	C9.266,5.832,9.24,5.976,9.24,6.16c0,0.262,0.079,0.485,0.223,0.669c0.145,0.184,0.407,0.328,0.762,0.433l0.223,0.065V8.51
	c-0.21-0.04-0.354-0.118-0.433-0.236C9.962,8.194,9.936,8.037,9.909,7.801H9.148C9.135,8.313,9.306,8.667,9.621,8.89
	c0.184,0.118,0.459,0.197,0.827,0.236v0.552h0.276V9.1c0.289-0.025,0.539-0.092,0.761-0.223c0.354-0.21,0.525-0.552,0.525-1.011
	C11.996,7.512,11.865,7.236,11.615,7.053z M10.435,6.567c-0.131-0.04-0.236-0.092-0.302-0.145c-0.118-0.092-0.184-0.21-0.184-0.367
	c0-0.145,0.04-0.25,0.118-0.328c0.079-0.079,0.197-0.131,0.368-0.131V6.567z M11.038,8.392c-0.065,0.052-0.17,0.078-0.315,0.104
	V7.42c0.158,0.053,0.263,0.105,0.328,0.171c0.105,0.092,0.158,0.223,0.158,0.381C11.209,8.155,11.156,8.3,11.038,8.392z"/>
</svg>
