<svg width="21" height="14" viewBox="0 0 21 14" fill="none" xmlns="http://www.w3.org/2000/svg">
<path d="M0.125 0.96875V13.0312H20.125V0.96875H0.125ZM0.65625 12.5469V10.25C1.875 10.3906 2.84375 11.3438 2.98438 12.5469H0.65625ZM0.65625 3.75V1.45313H2.98438C2.84375 2.65625 1.875 3.60938 0.65625 3.75ZM10.125 12.1094C8.32812 12.1094 6.875 9.89062 6.875 7.14062C6.875 4.39062 8.32812 2.17187 10.125 2.17187C11.9219 2.17187 13.375 4.39062 13.375 7.14062C13.375 9.89062 11.9219 12.1094 10.125 12.1094ZM19.5938 12.5469H17.2656C17.4062 11.3438 18.375 10.3906 19.5938 10.25V12.5469ZM19.5938 3.75C18.375 3.60938 17.4062 2.65625 17.2656 1.45313H19.5938V3.75ZM11.4531 7.0625C11.2656 6.92188 10.9219 6.76563 10.3906 6.57812V5.32812C10.6094 5.34375 10.7656 5.42188 10.8438 5.57813C10.8906 5.67188 10.9219 5.8125 10.9375 6H11.8281C11.8125 5.46875 11.625 5.09375 11.25 4.85938C11.0469 4.71875 10.75 4.625 10.3906 4.59375V4.15625H10.0625V4.59375C9.84375 4.60937 9.65625 4.64062 9.54688 4.67187C9.35938 4.73437 9.17188 4.84375 9.01562 5C8.875 5.125 8.78125 5.26562 8.71875 5.4375C8.65625 5.60938 8.625 5.78125 8.625 6C8.625 6.3125 8.71875 6.57813 8.89062 6.79688C9.0625 7.01563 9.375 7.1875 9.79688 7.3125L10.0625 7.39062V8.79688C9.8125 8.75 9.64062 8.65625 9.54688 8.51562C9.48438 8.42187 9.45312 8.23437 9.42188 7.95312H8.51562C8.5 8.5625 8.70312 8.98438 9.07812 9.25C9.29688 9.39062 9.625 9.48437 10.0625 9.53125V10.1875H10.3906V9.5C10.7344 9.46875 11.0312 9.39062 11.2969 9.23438C11.7188 8.98438 11.9219 8.57812 11.9219 8.03125C11.9062 7.60937 11.75 7.28125 11.4531 7.0625ZM10.0469 6.48438C9.89062 6.4375 9.76562 6.375 9.6875 6.3125C9.54688 6.20312 9.46875 6.0625 9.46875 5.875C9.46875 5.70312 9.51562 5.57812 9.60938 5.48438C9.70312 5.39062 9.84375 5.32812 10.0469 5.32812V6.48438ZM10.7656 8.65625C10.6875 8.71875 10.5625 8.75 10.3906 8.78125V7.5C10.5781 7.5625 10.7031 7.625 10.7812 7.70312C10.9062 7.8125 10.9688 7.96875 10.9688 8.15625C10.9688 8.375 10.9062 8.54687 10.7656 8.65625Z" fill="#5F666E"/>
</svg>
