<svg width="17" height="18" viewBox="0 0 17 18" fill="none" xmlns="http://www.w3.org/2000/svg">
<path d="M16.0692 4.41018C16.0547 4.25895 16.0032 4.11399 15.9196 3.98886C15.836 3.86374 15.7229 3.76255 15.591 3.69476L8.61107 0.0951346C8.48986 0.0325726 8.35618 0 8.22063 0C8.08509 0 7.95141 0.0325726 7.83019 0.0951346L0.850217 3.69476C0.718708 3.76293 0.606016 3.86425 0.522587 3.98931C0.439157 4.11437 0.387692 4.25914 0.372961 4.41018C0.363364 4.50647 -0.465508 14.0995 7.86684 17.9214C7.97817 17.9732 8.09892 18 8.22107 18C8.34322 18 8.46397 17.9732 8.5753 17.9214C16.9076 14.0995 16.0788 4.50737 16.0692 4.41018ZM8.22107 16.1063V8.99971H2.55857C2.21979 7.72034 2.05996 6.39761 2.08393 5.07162L8.22107 1.90665V8.99971H13.8574C13.1952 11.4654 11.6779 14.3802 8.22107 16.1063Z" fill="#5F666E"/>
</svg>
