<svg width="16" height="18" viewBox="0 0 16 18" fill="none" xmlns="http://www.w3.org/2000/svg">
<path d="M15.9731 4.41018C15.9586 4.25895 15.9071 4.11399 15.8235 3.98886C15.7399 3.86374 15.6269 3.76255 15.495 3.69476L8.51501 0.0951346C8.39379 0.0325726 8.26011 0 8.12456 0C7.98902 0 7.85534 0.0325726 7.73412 0.0951346L0.754147 3.69476C0.622639 3.76293 0.509947 3.86425 0.426517 3.98931C0.343088 4.11437 0.291622 4.25914 0.276892 4.41018C0.267294 4.50647 -0.561578 14.0995 7.77077 17.9214C7.8821 17.9732 8.00285 18 8.125 18C8.24715 18 8.3679 17.9732 8.47923 17.9214C16.8116 14.0995 15.9827 4.50737 15.9731 4.41018ZM8.125 16.1063V8.99971H2.4625C2.12372 7.72034 1.96389 6.39761 1.98786 5.07162L8.125 1.90665V8.99971H13.7613C13.0991 11.4654 11.5818 14.3802 8.125 16.1063Z" fill="#5F666E"/>
</svg>
