<svg width="17" height="18" viewBox="0 0 17 18" fill="none" xmlns="http://www.w3.org/2000/svg">
<path d="M14.4813 3.14338C13.7146 2.37067 12.8023 1.75772 11.7972 1.34002C10.792 0.922316 9.71399 0.708168 8.62551 0.709972C7.53679 0.708269 6.45854 0.922456 5.45313 1.34014C4.44772 1.75783 3.53511 2.37073 2.76809 3.14338C-0.461272 6.37192 -0.461272 11.6272 2.76809 14.8566C3.53513 15.6294 4.44785 16.2424 5.45343 16.6601C6.45901 17.0778 7.53746 17.2919 8.62633 17.29C9.71476 17.2919 10.7928 17.0779 11.7979 16.6603C12.8031 16.2427 13.7154 15.6299 14.4821 14.8574C17.7115 11.6288 17.7115 6.37358 14.4813 3.14338ZM8.77459 2.37394H8.47725C8.52777 2.37311 8.57581 2.36648 8.62633 2.36648C8.67686 2.36648 8.72407 2.37311 8.77459 2.37394ZM13.7955 13.1412H11.9377L10.8958 15.2251C10.1689 15.4937 9.40038 15.6319 8.62551 15.6335C7.8492 15.632 7.07925 15.4935 6.35112 15.2243L5.31166 13.1495H3.46051C2.77756 12.3005 2.31571 11.2954 2.11626 10.2241L3.65515 8.17171L2.64799 6.15657C2.96936 5.47292 3.40618 4.84979 3.93924 4.31453C4.68532 3.56584 5.5998 3.00665 6.60622 2.6837L8.62468 4.03044L10.644 2.68453C11.6501 3.0077 12.5645 3.56655 13.3109 4.31453C13.8434 4.84915 14.2799 5.47141 14.6014 6.15409L13.5942 8.17171L15.1331 10.2241C14.9346 11.2919 14.475 12.294 13.7955 13.1412Z" fill="#5F666E"/>
</svg>
