<?xml version="1.0" encoding="utf-8"?>
<!-- Generator: Adobe Illustrator 16.0.0, SVG Export Plug-In . SVG Version: 6.00 Build 0)  -->
<!DOCTYPE svg PUBLIC "-//W3C//DTD SVG 1.1//EN" "http://www.w3.org/Graphics/SVG/1.1/DTD/svg11.dtd">
<svg version="1.1" id="Layer_1" xmlns="http://www.w3.org/2000/svg" xmlns:xlink="http://www.w3.org/1999/xlink" x="0px" y="0px"
	 width="17px" height="17px" viewBox="0 0.5 17 17" enable-background="new 0 0.5 17 17" xml:space="preserve">
<path fill="#5F666E" d="M15.477,4.92c-0.013-0.134-0.059-0.263-0.133-0.375c-0.074-0.111-0.176-0.201-0.293-0.261l-6.204-3.2
	C8.739,1.029,8.62,1,8.5,1C8.379,1,8.26,1.029,8.153,1.084l-6.205,3.2C1.832,4.345,1.731,4.435,1.657,4.546
	c-0.074,0.111-0.12,0.24-0.133,0.374c-0.009,0.086-0.745,8.613,6.661,12.011C8.284,16.976,8.392,17,8.5,17
	c0.109,0,0.216-0.024,0.314-0.069C16.223,13.533,15.484,5.006,15.477,4.92z M8.5,15.316V9H3.467
	C3.166,7.862,3.024,6.687,3.045,5.508L8.5,2.695V9h5.01C12.922,11.191,11.573,13.783,8.5,15.316z"/>
</svg>
