<svg width="534" height="533" viewBox="0 0 534 533" fill="none" xmlns="http://www.w3.org/2000/svg">
<path d="M266.98 12.1556C270.206 12.1556 272.821 9.54014 272.821 6.31378C272.821 3.08742 270.206 0.471924 266.98 0.471924C263.754 0.471924 261.139 3.08742 261.139 6.31378C261.139 9.54014 263.754 12.1556 266.98 12.1556Z" fill="url(#paint0_radial_534_286)"/>
<path d="M266.98 532.841C270.206 532.841 272.821 530.226 272.821 526.999C272.821 523.773 270.206 521.157 266.98 521.157C263.754 521.157 261.139 523.773 261.139 526.999C261.139 530.226 263.754 532.841 266.98 532.841Z" fill="url(#paint1_radial_534_286)"/>
<path d="M227.49 9.23494C228.04 12.4099 225.924 15.4578 222.749 16.0081C219.575 16.5584 216.527 14.4418 215.977 11.2669C215.427 8.09199 217.543 5.04408 220.717 4.49376C223.892 3.94344 226.94 6.06003 227.49 9.23494Z" fill="url(#paint2_radial_534_286)"/>
<path d="M317.984 522.046C318.534 525.221 316.418 528.269 313.244 528.82C310.069 529.37 307.022 527.253 306.471 524.078C305.921 520.903 308.037 517.855 311.212 517.305C314.386 516.755 317.434 518.871 317.984 522.046Z" fill="url(#paint3_radial_534_286)"/>
<path d="M183.385 20.0294C184.486 23.0773 182.92 26.4216 179.872 27.5222C176.825 28.6228 173.481 27.0565 172.38 24.0086C171.28 20.9607 172.846 17.6165 175.894 16.5158C178.941 15.4152 182.285 16.9815 183.385 20.0294Z" fill="url(#paint4_radial_534_286)"/>
<path d="M361.58 509.304C362.681 512.352 361.115 515.697 358.067 516.797C355.02 517.898 351.676 516.332 350.575 513.284C349.475 510.236 351.041 506.891 354.089 505.791C357.136 504.69 360.48 506.257 361.58 509.304Z" fill="url(#paint5_radial_534_286)"/>
<path d="M141.82 38.2747C143.429 41.0686 142.498 44.6668 139.662 46.2755C136.868 47.8841 133.27 46.9528 131.662 44.1165C130.054 41.2803 130.985 37.7244 133.821 36.1158C136.614 34.5071 140.212 35.4384 141.82 38.2747Z" fill="url(#paint6_radial_534_286)"/>
<path d="M402.256 489.197C403.865 491.99 402.934 495.589 400.098 497.197C397.304 498.806 393.706 497.875 392.098 495.038C390.49 492.244 391.421 488.646 394.257 487.038C397.05 485.429 400.648 486.36 402.256 489.197Z" fill="url(#paint7_radial_534_286)"/>
<path d="M104.023 63.4624C106.097 65.96 105.758 69.6429 103.303 71.7172C100.806 73.7915 97.1235 73.4528 95.0494 70.9975C92.9754 68.5422 93.314 64.817 95.769 62.7427C98.2663 60.6685 101.949 61.0071 104.023 63.4624Z" fill="url(#paint8_radial_534_286)"/>
<path d="M438.869 462.316C440.943 464.813 440.604 468.496 438.149 470.571C435.652 472.645 431.97 472.306 429.896 469.851C427.822 467.396 428.16 463.67 430.615 461.596C433.112 459.522 436.795 459.861 438.869 462.316Z" fill="url(#paint9_radial_534_286)"/>
<path d="M71.2196 94.8305C73.7169 96.9048 74.0132 100.588 71.9392 103.085C69.8652 105.583 66.1828 105.879 63.6855 103.805C61.1882 101.731 60.8919 98.0477 62.9659 95.5501C65.0399 93.0525 68.7224 92.7562 71.2196 94.8305Z" fill="url(#paint10_radial_534_286)"/>
<path d="M470.275 429.508C472.773 431.583 473.069 435.266 470.995 437.763C468.921 440.261 465.238 440.557 462.741 438.483C460.244 436.409 459.948 432.726 462.022 430.228C464.096 427.73 467.778 427.434 470.275 429.508Z" fill="url(#paint11_radial_534_286)"/>
<path d="M44.3422 131.405C47.1357 133.014 48.1092 136.612 46.5008 139.406C44.8924 142.2 41.2946 143.174 38.501 141.565C35.7075 139.957 34.734 136.358 36.3424 133.564C37.9508 130.771 41.5486 129.797 44.3422 131.405Z" fill="url(#paint12_radial_534_286)"/>
<path d="M495.46 391.748C498.253 393.357 499.227 396.955 497.619 399.749C496.01 402.543 492.412 403.516 489.619 401.908C486.825 400.299 485.852 396.701 487.46 393.907C489.069 391.113 492.666 390.139 495.46 391.748Z" fill="url(#paint13_radial_534_286)"/>
<path d="M24.1948 172.129C27.2423 173.229 28.8084 176.574 27.7079 179.622C26.6074 182.67 23.2212 184.236 20.216 183.135C17.2108 182.035 15.6024 178.69 16.7029 175.642C17.8034 172.594 21.1896 171.028 24.1948 172.129Z" fill="url(#paint14_radial_534_286)"/>
<path d="M513.745 350.178C516.792 351.279 518.358 354.623 517.258 357.671C516.157 360.719 512.771 362.285 509.766 361.184C506.719 360.084 505.152 356.739 506.253 353.692C507.353 350.644 510.74 349.077 513.745 350.178Z" fill="url(#paint15_radial_534_286)"/>
<path d="M11.4965 215.689C14.671 216.239 16.8297 219.287 16.2371 222.462C15.6868 225.637 12.6393 227.753 9.4648 227.203C6.2903 226.653 4.13166 223.605 4.72423 220.43C5.27448 217.255 8.32202 215.138 11.4965 215.689Z" fill="url(#paint16_radial_534_286)"/>
<path d="M524.496 306.11C527.67 306.66 529.829 309.708 529.236 312.883C528.686 316.058 525.639 318.175 522.464 317.624C519.29 317.074 517.131 314.026 517.723 310.851C518.274 307.676 521.321 305.56 524.496 306.11Z" fill="url(#paint17_radial_534_286)"/>
<path d="M6.50217 272.498C9.72811 272.498 12.3433 269.883 12.3433 266.656C12.3433 263.43 9.72811 260.815 6.50217 260.815C3.27623 260.815 0.661133 263.43 0.661133 266.656C0.661133 269.883 3.27623 272.498 6.50217 272.498Z" fill="url(#paint18_radial_534_286)"/>
<path d="M527.459 272.498C530.685 272.498 533.3 269.883 533.3 266.656C533.3 263.43 530.685 260.815 527.459 260.815C524.233 260.815 521.618 263.43 521.618 266.656C521.618 269.883 524.233 272.498 527.459 272.498Z" fill="url(#paint19_radial_534_286)"/>
<path d="M9.42279 306.11C12.5973 305.56 15.6448 307.676 16.1951 310.851C16.7453 314.026 14.629 317.074 11.4545 317.624C8.27995 318.175 5.23247 316.058 4.68223 312.883C4.13198 309.708 6.24829 306.66 9.42279 306.11Z" fill="url(#paint20_radial_534_286)"/>
<path d="M522.464 215.689C525.639 215.138 528.686 217.255 529.236 220.43C529.787 223.605 527.67 226.653 524.496 227.203C521.321 227.753 518.274 225.637 517.723 222.462C517.173 219.287 519.29 216.239 522.464 215.689Z" fill="url(#paint21_radial_534_286)"/>
<path d="M20.216 350.178C23.2635 349.077 26.6074 350.644 27.7079 353.692C28.8084 356.739 27.2423 360.084 24.1947 361.184C21.1472 362.285 17.8034 360.719 16.7029 357.671C15.6024 354.623 17.1685 351.279 20.216 350.178Z" fill="url(#paint22_radial_534_286)"/>
<path d="M509.724 172.129C512.771 171.028 516.115 172.594 517.216 175.642C518.316 178.69 516.75 182.035 513.702 183.135C510.655 184.236 507.311 182.67 506.211 179.622C505.11 176.574 506.676 173.229 509.724 172.129Z" fill="url(#paint23_radial_534_286)"/>
<path d="M38.4587 391.748C41.2523 390.139 44.8501 391.071 46.4585 393.907C48.0669 396.701 47.1357 400.299 44.2998 401.908C41.5063 403.516 37.9085 402.585 36.3001 399.749C34.6917 396.955 35.6229 393.357 38.4587 391.748Z" fill="url(#paint24_radial_534_286)"/>
<path d="M489.619 131.405C492.412 129.797 496.01 130.728 497.618 133.564C499.227 136.358 498.296 139.957 495.46 141.565C492.624 143.174 489.068 142.242 487.46 139.406C485.852 136.612 486.783 133.014 489.619 131.405Z" fill="url(#paint25_radial_534_286)"/>
<path d="M63.6855 429.508C66.1828 427.434 69.8652 427.773 71.9392 430.228C74.0132 432.726 73.6746 436.409 71.2197 438.483C68.7224 440.557 65.0399 440.218 62.9659 437.763C60.8919 435.266 61.2306 431.583 63.6855 429.508Z" fill="url(#paint26_radial_534_286)"/>
<path d="M462.741 94.8305C465.238 92.7562 468.921 93.0949 470.995 95.5501C473.069 98.0477 472.73 101.731 470.275 103.805C467.778 105.879 464.096 105.541 462.022 103.085C459.948 100.588 460.286 96.9048 462.741 94.8305Z" fill="url(#paint27_radial_534_286)"/>
<path d="M95.0494 462.316C97.1234 459.818 100.806 459.522 103.303 461.596C105.8 463.67 106.097 467.353 104.023 469.851C101.949 472.348 98.2662 472.645 95.769 470.571C93.2717 468.496 92.9754 464.813 95.0494 462.316Z" fill="url(#paint28_radial_534_286)"/>
<path d="M429.896 63.4624C431.97 60.9648 435.652 60.6684 438.149 62.7427C440.647 64.817 440.943 68.4999 438.869 70.9975C436.795 73.4951 433.112 73.7914 430.615 71.7172C428.118 69.6429 427.822 65.9599 429.896 63.4624Z" fill="url(#paint29_radial_534_286)"/>
<path d="M131.662 489.197C133.27 486.403 136.868 485.429 139.662 487.038C142.455 488.646 143.429 492.245 141.82 495.038C140.212 497.832 136.614 498.806 133.821 497.197C131.027 495.589 130.054 491.991 131.662 489.197Z" fill="url(#paint30_radial_534_286)"/>
<path d="M392.14 38.2747C393.749 35.4808 397.346 34.5072 400.14 36.1158C402.934 37.7245 403.907 41.3227 402.299 44.1166C400.69 46.9105 397.093 47.8841 394.299 46.2755C391.505 44.6669 390.532 41.0687 392.14 38.2747Z" fill="url(#paint31_radial_534_286)"/>
<path d="M172.38 509.304C173.481 506.257 176.867 504.69 179.872 505.791C182.92 506.891 184.486 510.236 183.385 513.284C182.285 516.332 178.899 517.898 175.894 516.797C172.888 515.697 171.28 512.352 172.38 509.304Z" fill="url(#paint32_radial_534_286)"/>
<path d="M350.533 20.0294C351.634 16.9815 355.02 15.4152 358.025 16.5158C361.073 17.6165 362.639 20.9607 361.538 24.0086C360.438 27.0565 357.052 28.6228 354.046 27.5222C350.999 26.4216 349.433 23.0773 350.533 20.0294Z" fill="url(#paint33_radial_534_286)"/>
<path d="M215.977 522.046C216.527 518.871 219.574 516.755 222.749 517.305C225.923 517.855 228.082 520.903 227.49 524.078C226.939 527.253 223.892 529.37 220.717 528.82C217.543 528.269 215.384 525.221 215.977 522.046Z" fill="url(#paint34_radial_534_286)"/>
<path d="M306.429 9.23494C306.979 6.06003 310.027 3.94344 313.201 4.49376C316.376 5.04408 318.534 8.09199 317.942 11.2669C317.391 14.4418 314.344 16.5584 311.169 16.0081C307.995 15.4578 305.836 12.4099 306.429 9.23494Z" fill="url(#paint35_radial_534_286)"/>
<defs>
<radialGradient id="paint0_radial_534_286" cx="0" cy="0" r="1" gradientUnits="userSpaceOnUse" gradientTransform="translate(266.98 6.31376) scale(5.84107 5.84184)">
<stop stop-color="#EB818F"/>
<stop offset="0.33" stop-color="#E56574"/>
<stop offset="0.76" stop-color="#DF4655"/>
<stop offset="1" stop-color="#DD3B4A"/>
</radialGradient>
<radialGradient id="paint1_radial_534_286" cx="0" cy="0" r="1" gradientUnits="userSpaceOnUse" gradientTransform="translate(-590.091 526.999) scale(5.84107 5.84182)">
<stop stop-color="#EB818F"/>
<stop offset="0.33" stop-color="#E56574"/>
<stop offset="0.76" stop-color="#DF4655"/>
<stop offset="1" stop-color="#DD3B4A"/>
</radialGradient>
<radialGradient id="paint2_radial_534_286" cx="0" cy="0" r="1" gradientUnits="userSpaceOnUse" gradientTransform="translate(221.733 10.2509) scale(5.84108 5.84184)">
<stop stop-color="#2C17E1"/>
<stop offset="1" stop-color="#3926E1"/>
</radialGradient>
<radialGradient id="paint3_radial_534_286" cx="0" cy="0" r="1" gradientUnits="userSpaceOnUse" gradientTransform="translate(312.185 523.062) scale(5.84105 5.84184)">
<stop stop-color="#2C17E1"/>
<stop offset="1" stop-color="#3926E1"/>
</radialGradient>
<radialGradient id="paint4_radial_534_286" cx="0" cy="0" r="1" gradientUnits="userSpaceOnUse" gradientTransform="translate(177.883 22.019) scale(5.84109 5.84185)">
<stop stop-color="#EB818F"/>
<stop offset="0.33" stop-color="#E56574"/>
<stop offset="0.76" stop-color="#DF4655"/>
<stop offset="1" stop-color="#DD3B4A"/>
</radialGradient>
<radialGradient id="paint5_radial_534_286" cx="0" cy="0" r="1" gradientUnits="userSpaceOnUse" gradientTransform="translate(356.036 511.294) scale(5.84106 5.84185)">
<stop stop-color="#EB818F"/>
<stop offset="0.33" stop-color="#E56574"/>
<stop offset="0.76" stop-color="#DF4655"/>
<stop offset="1" stop-color="#DD3B4A"/>
</radialGradient>
<radialGradient id="paint6_radial_534_286" cx="0" cy="0" r="1" gradientUnits="userSpaceOnUse" gradientTransform="translate(136.741 41.1956) scale(5.84107 5.84183)">
<stop stop-color="#2C17E1"/>
<stop offset="1" stop-color="#3926E1"/>
</radialGradient>
<radialGradient id="paint7_radial_534_286" cx="0" cy="0" r="1" gradientUnits="userSpaceOnUse" gradientTransform="translate(397.219 492.117) scale(5.84107 5.84183)">
<stop stop-color="#2C17E1"/>
<stop offset="1" stop-color="#3926E1"/>
</radialGradient>
<radialGradient id="paint8_radial_534_286" cx="0" cy="0" r="1" gradientUnits="userSpaceOnUse" gradientTransform="translate(99.5361 67.23) scale(5.8411 5.84185)">
<stop stop-color="#EB818F"/>
<stop offset="0.33" stop-color="#E56574"/>
<stop offset="0.76" stop-color="#DF4655"/>
<stop offset="1" stop-color="#DD3B4A"/>
</radialGradient>
<radialGradient id="paint9_radial_534_286" cx="0" cy="0" r="1" gradientUnits="userSpaceOnUse" gradientTransform="translate(434.382 466.083) scale(5.84109 5.84185)">
<stop stop-color="#EB818F"/>
<stop offset="0.33" stop-color="#E56574"/>
<stop offset="0.76" stop-color="#DF4655"/>
<stop offset="1" stop-color="#DD3B4A"/>
</radialGradient>
<radialGradient id="paint10_radial_534_286" cx="0" cy="0" r="1" gradientUnits="userSpaceOnUse" gradientTransform="translate(67.4526 99.3177) scale(5.84109 5.84183)">
<stop stop-color="#2C17E1"/>
<stop offset="1" stop-color="#3926E1"/>
</radialGradient>
<radialGradient id="paint11_radial_534_286" cx="0" cy="0" r="1" gradientUnits="userSpaceOnUse" gradientTransform="translate(466.508 433.996) scale(5.84107 5.84186)">
<stop stop-color="#2C17E1"/>
<stop offset="1" stop-color="#3926E1"/>
</radialGradient>
<radialGradient id="paint12_radial_534_286" cx="0" cy="0" r="1" gradientUnits="userSpaceOnUse" gradientTransform="translate(41.3793 136.485) scale(5.84107 5.84184)">
<stop stop-color="#EB818F"/>
<stop offset="0.33" stop-color="#E56574"/>
<stop offset="0.76" stop-color="#DF4655"/>
<stop offset="1" stop-color="#DD3B4A"/>
</radialGradient>
<radialGradient id="paint13_radial_534_286" cx="0" cy="0" r="1" gradientUnits="userSpaceOnUse" gradientTransform="translate(492.539 396.828) scale(5.8411 5.84184)">
<stop stop-color="#EB818F"/>
<stop offset="0.33" stop-color="#E56574"/>
<stop offset="0.76" stop-color="#DF4655"/>
<stop offset="1" stop-color="#DD3B4A"/>
</radialGradient>
<radialGradient id="paint14_radial_534_286" cx="0" cy="0" r="1" gradientUnits="userSpaceOnUse" gradientTransform="translate(22.2054 177.632) scale(5.84109 5.84182)">
<stop stop-color="#2C17E1"/>
<stop offset="1" stop-color="#3926E1"/>
</radialGradient>
<radialGradient id="paint15_radial_534_286" cx="0" cy="0" r="1" gradientUnits="userSpaceOnUse" gradientTransform="translate(511.713 355.681) scale(5.84109 5.84182)">
<stop stop-color="#2C17E1"/>
<stop offset="1" stop-color="#3926E1"/>
</radialGradient>
<radialGradient id="paint16_radial_534_286" cx="0" cy="0" r="1" gradientUnits="userSpaceOnUse" gradientTransform="translate(10.4807 221.446) scale(5.84108 5.84184)">
<stop stop-color="#EB818F"/>
<stop offset="0.33" stop-color="#E56574"/>
<stop offset="0.76" stop-color="#DF4655"/>
<stop offset="1" stop-color="#DD3B4A"/>
</radialGradient>
<radialGradient id="paint17_radial_534_286" cx="0" cy="0" r="1" gradientUnits="userSpaceOnUse" gradientTransform="translate(523.48 311.867) scale(5.84108 5.84184)">
<stop stop-color="#EB818F"/>
<stop offset="0.33" stop-color="#E56574"/>
<stop offset="0.76" stop-color="#DF4655"/>
<stop offset="1" stop-color="#DD3B4A"/>
</radialGradient>
<radialGradient id="paint18_radial_534_286" cx="0" cy="0" r="1" gradientUnits="userSpaceOnUse" gradientTransform="translate(6.5022 266.657) scale(5.84107 5.84182)">
<stop stop-color="#2C17E1"/>
<stop offset="1" stop-color="#3926E1"/>
</radialGradient>
<radialGradient id="paint19_radial_534_286" cx="0" cy="0" r="1" gradientUnits="userSpaceOnUse" gradientTransform="translate(527.459 266.657) scale(5.8411 5.84182)">
<stop stop-color="#2C17E1"/>
<stop offset="1" stop-color="#3926E1"/>
</radialGradient>
<radialGradient id="paint20_radial_534_286" cx="0" cy="0" r="1" gradientUnits="userSpaceOnUse" gradientTransform="translate(10.481 311.867) scale(5.84108 5.84184)">
<stop stop-color="#EB818F"/>
<stop offset="0.33" stop-color="#E56574"/>
<stop offset="0.76" stop-color="#DF4655"/>
<stop offset="1" stop-color="#DD3B4A"/>
</radialGradient>
<radialGradient id="paint21_radial_534_286" cx="0" cy="0" r="1" gradientUnits="userSpaceOnUse" gradientTransform="translate(523.48 221.446) scale(5.84108 5.84184)">
<stop stop-color="#EB818F"/>
<stop offset="0.33" stop-color="#E56574"/>
<stop offset="0.76" stop-color="#DF4655"/>
<stop offset="1" stop-color="#DD3B4A"/>
</radialGradient>
<radialGradient id="paint22_radial_534_286" cx="0" cy="0" r="1" gradientUnits="userSpaceOnUse" gradientTransform="translate(22.2054 355.681) scale(5.84109 5.84182)">
<stop stop-color="#2C17E1"/>
<stop offset="1" stop-color="#3926E1"/>
</radialGradient>
<radialGradient id="paint23_radial_534_286" cx="0" cy="0" r="1" gradientUnits="userSpaceOnUse" gradientTransform="translate(511.713 177.632) scale(5.84103 5.84182)">
<stop stop-color="#2C17E1"/>
<stop offset="1" stop-color="#3926E1"/>
</radialGradient>
<radialGradient id="paint24_radial_534_286" cx="0" cy="0" r="1" gradientUnits="userSpaceOnUse" gradientTransform="translate(41.3793 396.828) scale(5.84107 5.84184)">
<stop stop-color="#EB818F"/>
<stop offset="0.33" stop-color="#E56574"/>
<stop offset="0.76" stop-color="#DF4655"/>
<stop offset="1" stop-color="#DD3B4A"/>
</radialGradient>
<radialGradient id="paint25_radial_534_286" cx="0" cy="0" r="1" gradientUnits="userSpaceOnUse" gradientTransform="translate(492.539 136.485) scale(5.8411 5.84184)">
<stop stop-color="#EB818F"/>
<stop offset="0.33" stop-color="#E56574"/>
<stop offset="0.76" stop-color="#DF4655"/>
<stop offset="1" stop-color="#DD3B4A"/>
</radialGradient>
<radialGradient id="paint26_radial_534_286" cx="0" cy="0" r="1" gradientUnits="userSpaceOnUse" gradientTransform="translate(67.4526 433.996) scale(5.84109 5.84186)">
<stop stop-color="#2C17E1"/>
<stop offset="1" stop-color="#3926E1"/>
</radialGradient>
<radialGradient id="paint27_radial_534_286" cx="0" cy="0" r="1" gradientUnits="userSpaceOnUse" gradientTransform="translate(466.508 99.3177) scale(5.84107 5.84183)">
<stop stop-color="#2C17E1"/>
<stop offset="1" stop-color="#3926E1"/>
</radialGradient>
<radialGradient id="paint28_radial_534_286" cx="0" cy="0" r="1" gradientUnits="userSpaceOnUse" gradientTransform="translate(99.5361 466.083) scale(5.8411 5.84185)">
<stop stop-color="#EB818F"/>
<stop offset="0.33" stop-color="#E56574"/>
<stop offset="0.76" stop-color="#DF4655"/>
<stop offset="1" stop-color="#DD3B4A"/>
</radialGradient>
<radialGradient id="paint29_radial_534_286" cx="0" cy="0" r="1" gradientUnits="userSpaceOnUse" gradientTransform="translate(434.382 67.2299) scale(5.84109 5.84185)">
<stop stop-color="#EB818F"/>
<stop offset="0.33" stop-color="#E56574"/>
<stop offset="0.76" stop-color="#DF4655"/>
<stop offset="1" stop-color="#DD3B4A"/>
</radialGradient>
<radialGradient id="paint30_radial_534_286" cx="0" cy="0" r="1" gradientUnits="userSpaceOnUse" gradientTransform="translate(136.741 492.118) scale(5.84107 5.84183)">
<stop stop-color="#2C17E1"/>
<stop offset="1" stop-color="#3926E1"/>
</radialGradient>
<radialGradient id="paint31_radial_534_286" cx="0" cy="0" r="1" gradientUnits="userSpaceOnUse" gradientTransform="translate(397.219 41.1957) scale(5.84109 5.84183)">
<stop stop-color="#2C17E1"/>
<stop offset="1" stop-color="#3926E1"/>
</radialGradient>
<radialGradient id="paint32_radial_534_286" cx="0" cy="0" r="1" gradientUnits="userSpaceOnUse" gradientTransform="translate(177.883 511.294) scale(5.84109 5.84185)">
<stop stop-color="#EB818F"/>
<stop offset="0.33" stop-color="#E56574"/>
<stop offset="0.76" stop-color="#DF4655"/>
<stop offset="1" stop-color="#DD3B4A"/>
</radialGradient>
<radialGradient id="paint33_radial_534_286" cx="0" cy="0" r="1" gradientUnits="userSpaceOnUse" gradientTransform="translate(356.036 22.019) scale(5.84109 5.84185)">
<stop stop-color="#EB818F"/>
<stop offset="0.33" stop-color="#E56574"/>
<stop offset="0.76" stop-color="#DF4655"/>
<stop offset="1" stop-color="#DD3B4A"/>
</radialGradient>
<radialGradient id="paint34_radial_534_286" cx="0" cy="0" r="1" gradientUnits="userSpaceOnUse" gradientTransform="translate(-590.093 523.062) scale(5.84108 5.84184)">
<stop stop-color="#2C17E1"/>
<stop offset="1" stop-color="#3926E1"/>
</radialGradient>
<radialGradient id="paint35_radial_534_286" cx="0" cy="0" r="1" gradientUnits="userSpaceOnUse" gradientTransform="translate(312.185 -497.015) scale(2.11633 2.11661)">
<stop stop-color="#2C17E1"/>
<stop offset="1" stop-color="#3926E1"/>
</radialGradient>
</defs>
</svg>
