<?xml version="1.0" encoding="utf-8"?>
<!-- Generator: Adobe Illustrator 16.0.0, SVG Export Plug-In . SVG Version: 6.00 Build 0)  -->
<!DOCTYPE svg PUBLIC "-//W3C//DTD SVG 1.1//EN" "http://www.w3.org/Graphics/SVG/1.1/DTD/svg11.dtd">
<svg version="1.1" id="Layer_1" xmlns="http://www.w3.org/2000/svg" xmlns:xlink="http://www.w3.org/1999/xlink" x="0px" y="0px"
	 width="554px" height="554px" viewBox="-2.5 -1 554 554" enable-background="new -2.5 -1 554 554" xml:space="preserve">
<g>
	<linearGradient id="SVGID_1_" gradientUnits="userSpaceOnUse" x1="0.8398" y1="387.4502" x2="544.3096" y2="387.4502">
		<stop  offset="0" style="stop-color:#6951E9"/>
		<stop  offset="0.38" style="stop-color:#4735D7"/>
		<stop  offset="1" style="stop-color:#301ADF"/>
	</linearGradient>
	<path fill="url(#SVGID_1_)" d="M536.49,321.73h-0.01l-10.961-1.94l-7.619-1.35c-0.65,3.84-1.391,7.68-2.23,11.5
		c-0.02,0.1-0.04,0.189-0.07,0.279c-0.25,1.19-0.52,2.38-0.81,3.561c-2.98,12.72-7.021,25.319-12.14,37.68
		c-4.11,9.91-8.91,19.67-14.42,29.22c-1.49,2.58-3.021,5.13-4.591,7.63c-8.21,13.12-17.479,25.21-27.64,36.221
		c-11.38,12.38-23.88,23.399-37.25,33c-0.04,0.029-0.08,0.06-0.13,0.1c-6.75,4.851-13.73,9.351-20.89,13.47
		c-15.29,8.801-31.44,15.91-48.141,21.261c-1.28,0.409-2.57,0.81-3.859,1.199c-1.181,0.36-2.36,0.7-3.551,1.04
		c-1.3,0.37-2.609,0.74-3.91,1.08c-1.31,0.351-2.619,0.69-3.93,1.021c-1.229,0.31-2.46,0.609-3.7,0.899
		c-1.359,0.32-2.729,0.631-4.1,0.92c-1.08,0.23-2.16,0.461-3.24,0.681c-1.12,0.229-2.229,0.439-3.35,0.66
		c-1.11,0.21-2.22,0.409-3.33,0.6c-1.021,0.18-2.04,0.35-3.061,0.51c-1.77,0.29-3.529,0.55-5.31,0.8
		c-31.01,4.381-62.98,2.891-94.16-4.939c-0.71-0.18-1.41-0.36-2.11-0.54c-1.41-0.37-2.82-0.74-4.22-1.13
		c-0.7-0.2-1.41-0.4-2.11-0.601c-0.72-0.21-1.45-0.42-2.17-0.64c-1.54-0.46-3.08-0.939-4.62-1.43c-1.64-0.53-3.28-1.07-4.91-1.63
		c-0.84-0.29-1.69-0.58-2.53-0.88c-1.8-0.641-3.59-1.301-5.38-1.98c-1.91-0.73-3.81-1.48-5.71-2.26c-1.26-0.521-2.52-1.04-3.78-1.59
		c-1.26-0.54-2.52-1.091-3.77-1.66c-0.96-0.431-1.92-0.87-2.87-1.311c-6.54-3.05-13-6.41-19.36-10.08
		c-6.74-3.89-13.23-8.05-19.45-12.47c-14.74-10.42-28.03-22.24-39.78-35.16C81.7,432.91,73.1,421.61,65.56,409.73
		c-7.36-11.62-13.72-23.79-19.03-36.36c-5.31-12.58-9.56-25.561-12.73-38.82c-0.01-0.04-0.01-0.069-0.02-0.1
		c-0.67-2.78-1.28-5.58-1.84-8.38c-0.11-0.53-0.22-1.061-0.33-1.59c-1.99-10.171-3.34-20.471-4.05-30.841
		c-0.37-5.489-0.56-11.01-0.57-16.529c0-0.78,0-1.561,0.02-2.34c0.06-8.21,0.54-16.44,1.44-24.66c0.65-5.98,1.52-11.95,2.62-17.9
		l-7.67-1.36l-10.64-1.88l-8.07-1.43c-2.53,14.95-3.85,30.3-3.85,45.97c0,151.24,122.66,273.851,273.98,273.851
		c134.36,0,246.14-96.681,269.49-224.24L536.49,321.73z"/>
	<path fill="#4F3BE6" d="M274.18,3.31C139.82,3.31,28.04,99.98,4.69,227.54c-2.95,16.09-4.49,32.67-4.49,49.61
		C0.2,428.39,122.87,551,274.18,551c135.65,0,248.26-98.53,270.129-227.88c2.53-14.95,3.851-30.3,3.851-45.97
		C548.16,125.91,425.5,3.31,274.18,3.31z M60.09,153.59c1.02-1.76,2.05-3.5,3.11-5.22c1.7-2.79,3.45-5.54,5.25-8.24
		c3-4.51,6.12-8.88,9.38-13.13c5.23-6.86,10.78-13.38,16.62-19.55c0.19-0.22,0.4-0.43,0.61-0.64c12.63-13.3,26.58-24.97,41.51-34.94
		c4.58-3.07,9.26-5.97,14.02-8.71c73.94-42.54,167.95-45.71,247.19,0c2.84,1.64,5.63,3.32,8.38,5.06c0.85,0.53,1.689,1.07,2.53,1.61
		c16.35,10.59,31.06,22.83,44.02,36.37c0.32,0.33,0.64,0.65,0.94,0.98c6.1,6.42,11.8,13.14,17.09,20.1
		c3.17,4.15,6.189,8.38,9.05,12.7c0.03,0.04,0.06,0.09,0.09,0.13c1.53,2.28,3,4.59,4.44,6.92c10.6,17.16,19.02,35.49,25.12,54.54
		c5.01,15.58,8.46,31.65,10.31,47.95c0.98,8.63,1.51,17.31,1.56,26.03c0.021,0.53,0.021,1.07,0.021,1.601
		c0.01,5.6-0.18,11.21-0.561,16.83c-0.539,8.159-1.5,16.329-2.869,24.46c-0.65,3.84-1.391,7.68-2.23,11.5
		c-0.02,0.1-0.04,0.189-0.07,0.279c-0.25,1.19-0.52,2.38-0.81,3.561c-2.98,12.72-7.021,25.319-12.14,37.68
		c-4.11,9.91-8.91,19.67-14.42,29.22c-1.49,2.58-3.021,5.13-4.591,7.63c-8.21,13.12-17.479,25.21-27.64,36.221
		c-11.38,12.38-23.88,23.399-37.25,33c-0.04,0.029-0.08,0.06-0.13,0.1c-6.75,4.851-13.73,9.351-20.89,13.47
		c-15.29,8.801-31.44,15.91-48.141,21.261c-1.28,0.409-2.57,0.81-3.859,1.199c-1.181,0.36-2.36,0.7-3.551,1.04
		c-1.3,0.37-2.609,0.74-3.91,1.08c-1.31,0.351-2.619,0.69-3.93,1.021c-1.229,0.31-2.46,0.609-3.7,0.899
		c-1.359,0.32-2.729,0.631-4.1,0.92c-1.08,0.23-2.16,0.461-3.24,0.681c-1.12,0.229-2.229,0.439-3.35,0.66
		c-1.11,0.21-2.22,0.409-3.33,0.6c-1.021,0.18-2.04,0.35-3.061,0.51c-1.77,0.29-3.529,0.55-5.31,0.8
		c-31.01,4.381-62.98,2.891-94.16-4.939c-0.71-0.18-1.41-0.36-2.11-0.54c-1.41-0.37-2.82-0.74-4.22-1.13
		c-0.7-0.2-1.41-0.4-2.11-0.601c-0.72-0.21-1.45-0.42-2.17-0.64c-1.54-0.46-3.08-0.939-4.62-1.43c-1.64-0.53-3.28-1.07-4.91-1.63
		c-0.84-0.29-1.69-0.58-2.53-0.88c-1.8-0.641-3.59-1.301-5.38-1.98c-1.91-0.73-3.81-1.48-5.71-2.26c-1.26-0.521-2.52-1.04-3.78-1.59
		c-1.26-0.54-2.52-1.091-3.77-1.66c-0.96-0.431-1.92-0.87-2.87-1.311c-6.54-3.05-13-6.41-19.36-10.08
		c-6.74-3.89-13.23-8.05-19.45-12.47c-14.74-10.42-28.03-22.24-39.78-35.16C81.7,432.91,73.1,421.61,65.56,409.73
		c-7.36-11.62-13.72-23.79-19.03-36.36c-5.31-12.58-9.56-25.561-12.73-38.82c-0.01-0.04-0.01-0.069-0.02-0.1
		c-0.67-2.78-1.28-5.58-1.84-8.38c-0.11-0.53-0.22-1.061-0.33-1.59c-1.99-10.171-3.34-20.471-4.05-30.841
		c-0.37-5.489-0.56-11.01-0.57-16.529c0-0.78,0-1.561,0.02-2.34c0.06-8.21,0.54-16.44,1.44-24.66c0.65-5.98,1.52-11.95,2.62-17.9
		c1.88-10.24,4.43-20.43,7.67-30.5C44.01,185.28,51.1,169.15,60.09,153.59z"/>
	
		<radialGradient id="SVGID_2_" cx="-184.251" cy="551.5068" r="1" gradientTransform="matrix(5.8411 0 0 -5.8418 1350.3999 3238.7964)" gradientUnits="userSpaceOnUse">
		<stop  offset="0" style="stop-color:#EB818F"/>
		<stop  offset="0.33" style="stop-color:#E56574"/>
		<stop  offset="0.76" style="stop-color:#DF4655"/>
		<stop  offset="1" style="stop-color:#DD3B4A"/>
	</radialGradient>
	<path fill="url(#SVGID_2_)" d="M274.182,22.822c3.226,0,5.84-2.615,5.84-5.842c0-3.226-2.614-5.842-5.84-5.842
		s-5.841,2.616-5.841,5.842C268.341,20.207,270.956,22.822,274.182,22.822z"/>
	
		<radialGradient id="SVGID_3_" cx="-184.25" cy="551.5078" r="1" gradientTransform="matrix(5.8411 0 0 -5.8418 493.3296 3759.4727)" gradientUnits="userSpaceOnUse">
		<stop  offset="0" style="stop-color:#EB818F"/>
		<stop  offset="0.33" style="stop-color:#E56574"/>
		<stop  offset="0.76" style="stop-color:#DF4655"/>
		<stop  offset="1" style="stop-color:#DD3B4A"/>
	</radialGradient>
	<path fill="url(#SVGID_3_)" d="M274.182,543.507c3.226,0,5.84-2.615,5.84-5.842c0-3.226-2.614-5.841-5.84-5.841
		s-5.841,2.615-5.841,5.841C268.341,540.892,270.956,543.507,274.182,543.507z"/>
	
		<radialGradient id="SVGID_4_" cx="-184.2505" cy="551.5068" r="1.0002" gradientTransform="matrix(5.8411 0 0 -5.8418 1305.1558 3242.7339)" gradientUnits="userSpaceOnUse">
		<stop  offset="0" style="stop-color:#2C17E1"/>
		<stop  offset="1" style="stop-color:#3926E1"/>
	</radialGradient>
	<path fill="url(#SVGID_4_)" d="M234.692,19.901c0.55,3.175-1.566,6.223-4.741,6.773c-3.174,0.55-6.222-1.566-6.772-4.741
		c-0.55-3.175,1.566-6.223,4.74-6.773C231.094,14.609,234.142,16.726,234.692,19.901z"/>
	
		<radialGradient id="SVGID_5_" cx="-184.25" cy="551.5078" r="0.9995" gradientTransform="matrix(5.8411 0 0 -5.8418 1395.5989 3755.5464)" gradientUnits="userSpaceOnUse">
		<stop  offset="0" style="stop-color:#2C17E1"/>
		<stop  offset="1" style="stop-color:#3926E1"/>
	</radialGradient>
	<path fill="url(#SVGID_5_)" d="M325.187,532.712c0.55,3.175-1.566,6.223-4.74,6.774c-3.176,0.55-6.223-1.567-6.773-4.742
		c-0.55-3.174,1.566-6.222,4.741-6.773C321.588,527.421,324.636,529.538,325.187,532.712z"/>
	
		<radialGradient id="SVGID_6_" cx="-184.25" cy="551.5078" r="1" gradientTransform="matrix(5.8411 0 0 -5.8418 1261.3063 3254.509)" gradientUnits="userSpaceOnUse">
		<stop  offset="0" style="stop-color:#EB818F"/>
		<stop  offset="0.33" style="stop-color:#E56574"/>
		<stop  offset="0.76" style="stop-color:#DF4655"/>
		<stop  offset="1" style="stop-color:#DD3B4A"/>
	</radialGradient>
	<path fill="url(#SVGID_6_)" d="M190.587,30.695c1.101,3.048-0.465,6.393-3.513,7.493c-3.047,1.101-6.391-0.466-7.492-3.514
		c-1.1-3.048,0.466-6.392,3.514-7.493C186.143,26.081,189.487,27.647,190.587,30.695z"/>
	
		<radialGradient id="SVGID_7_" cx="-184.25" cy="551.5078" r="1" gradientTransform="matrix(5.8411 0 0 -5.8418 1439.4525 3743.7825)" gradientUnits="userSpaceOnUse">
		<stop  offset="0" style="stop-color:#EB818F"/>
		<stop  offset="0.33" style="stop-color:#E56574"/>
		<stop  offset="0.76" style="stop-color:#DF4655"/>
		<stop  offset="1" style="stop-color:#DD3B4A"/>
	</radialGradient>
	<path fill="url(#SVGID_7_)" d="M368.782,519.971c1.102,3.047-0.465,6.393-3.514,7.492c-3.047,1.102-6.391-0.465-7.491-3.513
		s0.466-6.393,3.514-7.493C364.338,515.356,367.683,516.923,368.782,519.971z"/>
	
		<radialGradient id="SVGID_8_" cx="-184.251" cy="551.5059" r="1.001" gradientTransform="matrix(5.8411 0 0 -5.8418 1220.1616 3273.6736)" gradientUnits="userSpaceOnUse">
		<stop  offset="0" style="stop-color:#2C17E1"/>
		<stop  offset="1" style="stop-color:#3926E1"/>
	</radialGradient>
	<path fill="url(#SVGID_8_)" d="M149.022,48.941c1.609,2.794,0.678,6.392-2.158,8c-2.794,1.609-6.392,0.678-8-2.159
		s-0.677-6.392,2.159-8.001C143.816,45.173,147.414,46.104,149.022,48.941z"/>
	
		<radialGradient id="SVGID_9_" cx="-184.25" cy="551.5059" r="1.0007" gradientTransform="matrix(5.8411 0 0 -5.8418 1480.6382 3724.5955)" gradientUnits="userSpaceOnUse">
		<stop  offset="0" style="stop-color:#2C17E1"/>
		<stop  offset="1" style="stop-color:#3926E1"/>
	</radialGradient>
	<path fill="url(#SVGID_9_)" d="M409.458,499.863c1.609,2.794,0.678,6.392-2.158,8c-2.794,1.608-6.392,0.678-8-2.158
		c-1.607-2.794-0.677-6.393,2.159-8.001C404.252,496.095,407.851,497.026,409.458,499.863z"/>
	
		<radialGradient id="SVGID_10_" cx="-184.249" cy="551.5078" r="0.999" gradientTransform="matrix(5.8411 0 0 -5.8418 1182.9607 3299.72)" gradientUnits="userSpaceOnUse">
		<stop  offset="0" style="stop-color:#EB818F"/>
		<stop  offset="0.33" style="stop-color:#E56574"/>
		<stop  offset="0.76" style="stop-color:#DF4655"/>
		<stop  offset="1" style="stop-color:#DD3B4A"/>
	</radialGradient>
	<path fill="url(#SVGID_10_)" d="M111.225,74.128c2.074,2.498,1.735,6.181-0.72,8.255c-2.497,2.074-6.18,1.736-8.254-0.72
		c-2.073-2.455-1.735-6.181,0.72-8.254C105.468,71.334,109.151,71.673,111.225,74.128z"/>
	
		<radialGradient id="SVGID_11_" cx="-184.25" cy="551.5078" r="1.001" gradientTransform="matrix(5.8411 0 0 -5.8418 1517.8063 3698.5715)" gradientUnits="userSpaceOnUse">
		<stop  offset="0" style="stop-color:#EB818F"/>
		<stop  offset="0.33" style="stop-color:#E56574"/>
		<stop  offset="0.76" style="stop-color:#DF4655"/>
		<stop  offset="1" style="stop-color:#DD3B4A"/>
	</radialGradient>
	<path fill="url(#SVGID_11_)" d="M446.071,472.982c2.074,2.496,1.734,6.18-0.72,8.255c-2.497,2.073-6.18,1.734-8.253-0.721
		c-2.074-2.454-1.736-6.18,0.719-8.255C440.314,470.188,443.997,470.527,446.071,472.982z"/>
	
		<radialGradient id="SVGID_12_" cx="-184.25" cy="551.5078" r="1" gradientTransform="matrix(5.8411 0 0 -5.8418 1150.8766 3331.7947)" gradientUnits="userSpaceOnUse">
		<stop  offset="0" style="stop-color:#2C17E1"/>
		<stop  offset="1" style="stop-color:#3926E1"/>
	</radialGradient>
	<path fill="url(#SVGID_12_)" d="M78.422,105.497c2.497,2.074,2.793,5.757,0.72,8.254c-2.074,2.498-5.757,2.794-8.254,0.72
		c-2.498-2.074-2.793-5.757-0.72-8.255C72.242,103.719,75.924,103.422,78.422,105.497z"/>
	
		<radialGradient id="SVGID_13_" cx="-184.25" cy="551.5078" r="1" gradientTransform="matrix(5.8411 0 0 -5.8419 1549.9272 3666.491)" gradientUnits="userSpaceOnUse">
		<stop  offset="0" style="stop-color:#2C17E1"/>
		<stop  offset="1" style="stop-color:#3926E1"/>
	</radialGradient>
	<path fill="url(#SVGID_13_)" d="M477.478,440.174c2.498,2.075,2.794,5.758,0.72,8.255c-2.074,2.498-5.757,2.794-8.254,0.721
		c-2.497-2.074-2.793-5.758-0.72-8.256C471.298,438.397,474.98,438.1,477.478,440.174z"/>
	
		<radialGradient id="SVGID_14_" cx="-184.25" cy="551.5078" r="1" gradientTransform="matrix(5.8411 0 0 -5.8418 1124.7983 3368.9683)" gradientUnits="userSpaceOnUse">
		<stop  offset="0" style="stop-color:#EB818F"/>
		<stop  offset="0.33" style="stop-color:#E56574"/>
		<stop  offset="0.76" style="stop-color:#DF4655"/>
		<stop  offset="1" style="stop-color:#DD3B4A"/>
	</radialGradient>
	<path fill="url(#SVGID_14_)" d="M51.544,142.072c2.793,1.608,3.767,5.206,2.159,8c-1.608,2.794-5.207,3.768-8,2.159
		c-2.793-1.608-3.767-5.206-2.159-8S48.751,140.463,51.544,142.072z"/>
	
		<radialGradient id="SVGID_15_" cx="-184.2495" cy="551.5078" r="0.9998" gradientTransform="matrix(5.8411 0 0 -5.8418 1575.9646 3629.312)" gradientUnits="userSpaceOnUse">
		<stop  offset="0" style="stop-color:#EB818F"/>
		<stop  offset="0.33" style="stop-color:#E56574"/>
		<stop  offset="0.76" style="stop-color:#DF4655"/>
		<stop  offset="1" style="stop-color:#DD3B4A"/>
	</radialGradient>
	<path fill="url(#SVGID_15_)" d="M502.662,402.414c2.793,1.609,3.767,5.207,2.159,8.001c-1.609,2.794-5.207,3.768-8,2.159
		c-2.794-1.609-3.768-5.207-2.159-8.001C496.271,401.779,499.868,400.806,502.662,402.414z"/>
	
		<radialGradient id="SVGID_16_" cx="-184.25" cy="551.5078" r="0.9995" gradientTransform="matrix(5.8411 0 0 -5.8418 1105.6305 3410.1055)" gradientUnits="userSpaceOnUse">
		<stop  offset="0" style="stop-color:#2C17E1"/>
		<stop  offset="1" style="stop-color:#3926E1"/>
	</radialGradient>
	<path fill="url(#SVGID_16_)" d="M31.397,182.795c3.047,1.101,4.614,4.445,3.513,7.493s-4.487,4.614-7.492,3.513
		c-3.005-1.1-4.613-4.445-3.513-7.493C25.005,183.261,28.392,181.694,31.397,182.795z"/>
	
		<radialGradient id="SVGID_17_" cx="-184.25" cy="551.5059" r="1.0005" gradientTransform="matrix(5.8411 0 0 -5.8418 1595.1383 3588.1523)" gradientUnits="userSpaceOnUse">
		<stop  offset="0" style="stop-color:#2C17E1"/>
		<stop  offset="1" style="stop-color:#3926E1"/>
	</radialGradient>
	<path fill="url(#SVGID_17_)" d="M520.947,360.844c3.047,1.102,4.613,4.445,3.513,7.493s-4.486,4.614-7.492,3.513
		c-3.047-1.1-4.613-4.443-3.513-7.491C514.556,361.31,517.942,359.743,520.947,360.844z"/>
	
		<radialGradient id="SVGID_18_" cx="-184.25" cy="551.5078" r="1" gradientTransform="matrix(5.8411 0 0 -5.8418 1093.9019 3453.9292)" gradientUnits="userSpaceOnUse">
		<stop  offset="0" style="stop-color:#EB818F"/>
		<stop  offset="0.33" style="stop-color:#E56574"/>
		<stop  offset="0.76" style="stop-color:#DF4655"/>
		<stop  offset="1" style="stop-color:#DD3B4A"/>
	</radialGradient>
	<path fill="url(#SVGID_18_)" d="M18.699,226.355c3.174,0.55,5.333,3.598,4.741,6.773c-0.55,3.175-3.598,5.291-6.772,4.741
		c-3.174-0.55-5.333-3.598-4.741-6.773C12.477,227.921,15.524,225.805,18.699,226.355z"/>
	
		<radialGradient id="SVGID_19_" cx="-184.25" cy="551.5078" r="1" gradientTransform="matrix(5.8411 0 0 -5.8418 1606.9019 3544.3511)" gradientUnits="userSpaceOnUse">
		<stop  offset="0" style="stop-color:#EB818F"/>
		<stop  offset="0.33" style="stop-color:#E56574"/>
		<stop  offset="0.76" style="stop-color:#DF4655"/>
		<stop  offset="1" style="stop-color:#DD3B4A"/>
	</radialGradient>
	<path fill="url(#SVGID_19_)" d="M531.698,316.776c3.174,0.551,5.333,3.598,4.74,6.772c-0.551,3.175-3.598,5.292-6.772,4.742
		c-3.174-0.551-5.333-3.599-4.741-6.774C525.477,318.342,528.523,316.226,531.698,316.776z"/>
	
		<radialGradient id="SVGID_20_" cx="-184.25" cy="551.5078" r="1" gradientTransform="matrix(5.8411 0 0 -5.8418 1089.9233 3499.1289)" gradientUnits="userSpaceOnUse">
		<stop  offset="0" style="stop-color:#2C17E1"/>
		<stop  offset="1" style="stop-color:#3926E1"/>
	</radialGradient>
	<path fill="url(#SVGID_20_)" d="M13.704,283.164c3.226,0,5.841-2.615,5.841-5.841c0-3.228-2.615-5.842-5.841-5.842
		c-3.226,0-5.841,2.615-5.841,5.842C7.863,280.549,10.479,283.164,13.704,283.164z"/>
	
		<radialGradient id="SVGID_21_" cx="-184.249" cy="551.5078" r="1" gradientTransform="matrix(5.8411 0 0 -5.8418 1610.8826 3499.1289)" gradientUnits="userSpaceOnUse">
		<stop  offset="0" style="stop-color:#2C17E1"/>
		<stop  offset="1" style="stop-color:#3926E1"/>
	</radialGradient>
	<path fill="url(#SVGID_21_)" d="M534.661,283.164c3.226,0,5.841-2.615,5.841-5.841c0-3.228-2.615-5.842-5.841-5.842
		s-5.841,2.615-5.841,5.842C528.82,280.549,531.436,283.164,534.661,283.164z"/>
	
		<radialGradient id="SVGID_22_" cx="-184.2505" cy="551.5078" r="1" gradientTransform="matrix(5.8411 0 0 -5.8418 1093.9019 3544.3511)" gradientUnits="userSpaceOnUse">
		<stop  offset="0" style="stop-color:#EB818F"/>
		<stop  offset="0.33" style="stop-color:#E56574"/>
		<stop  offset="0.76" style="stop-color:#DF4655"/>
		<stop  offset="1" style="stop-color:#DD3B4A"/>
	</radialGradient>
	<path fill="url(#SVGID_22_)" d="M16.625,316.776c3.174-0.551,6.222,1.565,6.772,4.74c0.55,3.176-1.566,6.224-4.741,6.774
		c-3.175,0.55-6.222-1.567-6.772-4.742S13.451,317.327,16.625,316.776z"/>
	
		<radialGradient id="SVGID_23_" cx="-184.25" cy="551.5078" r="1.0002" gradientTransform="matrix(5.8411 0 0 -5.8418 1606.9019 3453.9292)" gradientUnits="userSpaceOnUse">
		<stop  offset="0" style="stop-color:#EB818F"/>
		<stop  offset="0.33" style="stop-color:#E56574"/>
		<stop  offset="0.76" style="stop-color:#DF4655"/>
		<stop  offset="1" style="stop-color:#DD3B4A"/>
	</radialGradient>
	<path fill="url(#SVGID_23_)" d="M529.666,226.355c3.175-0.55,6.222,1.566,6.772,4.741c0.551,3.175-1.566,6.223-4.74,6.773
		c-3.175,0.55-6.222-1.566-6.773-4.741C524.375,229.953,526.492,226.905,529.666,226.355z"/>
	
		<radialGradient id="SVGID_24_" cx="-184.25" cy="551.5059" r="1.0005" gradientTransform="matrix(5.8411 0 0 -5.8418 1105.6305 3588.1523)" gradientUnits="userSpaceOnUse">
		<stop  offset="0" style="stop-color:#2C17E1"/>
		<stop  offset="1" style="stop-color:#3926E1"/>
	</radialGradient>
	<path fill="url(#SVGID_24_)" d="M27.418,360.844c3.048-1.101,6.392,0.466,7.492,3.515c1.101,3.048-0.466,6.392-3.513,7.491
		c-3.048,1.102-6.392-0.465-7.492-3.513C22.805,365.289,24.371,361.945,27.418,360.844z"/>
	
		<radialGradient id="SVGID_25_" cx="-184.25" cy="551.5078" r="0.9995" gradientTransform="matrix(5.841 0 0 -5.8418 1595.1221 3410.1055)" gradientUnits="userSpaceOnUse">
		<stop  offset="0" style="stop-color:#2C17E1"/>
		<stop  offset="1" style="stop-color:#3926E1"/>
	</radialGradient>
	<path fill="url(#SVGID_25_)" d="M516.926,182.795c3.048-1.101,6.392,0.466,7.492,3.513c1.101,3.048-0.466,6.393-3.514,7.493
		c-3.047,1.101-6.392-0.465-7.491-3.513C512.313,187.24,513.878,183.896,516.926,182.795z"/>
	
		<radialGradient id="SVGID_26_" cx="-184.25" cy="551.5078" r="1" gradientTransform="matrix(5.8411 0 0 -5.8418 1124.7983 3629.312)" gradientUnits="userSpaceOnUse">
		<stop  offset="0" style="stop-color:#EB818F"/>
		<stop  offset="0.33" style="stop-color:#E56574"/>
		<stop  offset="0.76" style="stop-color:#DF4655"/>
		<stop  offset="1" style="stop-color:#DD3B4A"/>
	</radialGradient>
	<path fill="url(#SVGID_26_)" d="M45.661,402.414c2.794-1.608,6.392-0.677,8,2.159c1.608,2.794,0.677,6.392-2.159,8.001
		c-2.793,1.608-6.391,0.677-8-2.159C41.894,407.621,42.825,404.023,45.661,402.414z"/>
	
		<radialGradient id="SVGID_27_" cx="-184.25" cy="551.5068" r="1" gradientTransform="matrix(5.8411 0 0 -5.8418 1575.9646 3368.9683)" gradientUnits="userSpaceOnUse">
		<stop  offset="0" style="stop-color:#EB818F"/>
		<stop  offset="0.33" style="stop-color:#E56574"/>
		<stop  offset="0.76" style="stop-color:#DF4655"/>
		<stop  offset="1" style="stop-color:#DD3B4A"/>
	</radialGradient>
	<path fill="url(#SVGID_27_)" d="M496.821,142.072c2.793-1.609,6.391-0.678,7.999,2.159c1.608,2.793,0.678,6.392-2.158,8
		c-2.836,1.609-6.392,0.678-8-2.159C493.054,147.278,493.985,143.68,496.821,142.072z"/>
	
		<radialGradient id="SVGID_28_" cx="-184.25" cy="551.5078" r="0.9995" gradientTransform="matrix(5.8411 0 0 -5.8419 1150.8766 3666.491)" gradientUnits="userSpaceOnUse">
		<stop  offset="0" style="stop-color:#2C17E1"/>
		<stop  offset="1" style="stop-color:#3926E1"/>
	</radialGradient>
	<path fill="url(#SVGID_28_)" d="M70.888,440.174c2.497-2.074,6.18-1.734,8.254,0.72c2.074,2.498,1.735,6.182-0.72,8.256
		c-2.498,2.073-6.18,1.735-8.254-0.721C68.094,445.932,68.433,442.249,70.888,440.174z"/>
	
		<radialGradient id="SVGID_29_" cx="-184.25" cy="551.5068" r="1.001" gradientTransform="matrix(5.8411 0 0 -5.8418 1549.9272 3331.7947)" gradientUnits="userSpaceOnUse">
		<stop  offset="0" style="stop-color:#2C17E1"/>
		<stop  offset="1" style="stop-color:#3926E1"/>
	</radialGradient>
	<path fill="url(#SVGID_29_)" d="M469.943,105.497c2.497-2.075,6.18-1.736,8.254,0.719c2.074,2.498,1.735,6.181-0.72,8.255
		c-2.497,2.074-6.18,1.736-8.254-0.72C467.15,111.254,467.488,107.571,469.943,105.497z"/>
	
		<radialGradient id="SVGID_30_" cx="-184.2495" cy="551.5078" r="0.9995" gradientTransform="matrix(5.8411 0 0 -5.8418 1182.9607 3698.5715)" gradientUnits="userSpaceOnUse">
		<stop  offset="0" style="stop-color:#EB818F"/>
		<stop  offset="0.33" style="stop-color:#E56574"/>
		<stop  offset="0.76" style="stop-color:#DF4655"/>
		<stop  offset="1" style="stop-color:#DD3B4A"/>
	</radialGradient>
	<path fill="url(#SVGID_30_)" d="M102.251,472.982c2.074-2.498,5.757-2.794,8.254-0.721c2.497,2.075,2.794,5.757,0.72,8.255
		c-2.074,2.498-5.757,2.794-8.254,0.721C100.474,479.162,100.178,475.479,102.251,472.982z"/>
	
		<radialGradient id="SVGID_31_" cx="-184.25" cy="551.5078" r="1" gradientTransform="matrix(5.8411 0 0 -5.8418 1517.8063 3299.72)" gradientUnits="userSpaceOnUse">
		<stop  offset="0" style="stop-color:#EB818F"/>
		<stop  offset="0.33" style="stop-color:#E56574"/>
		<stop  offset="0.76" style="stop-color:#DF4655"/>
		<stop  offset="1" style="stop-color:#DD3B4A"/>
	</radialGradient>
	<path fill="url(#SVGID_31_)" d="M437.099,74.128c2.073-2.498,5.756-2.794,8.253-0.72s2.794,5.757,0.72,8.255
		s-5.757,2.794-8.254,0.72S435.024,76.626,437.099,74.128z"/>
	
		<radialGradient id="SVGID_32_" cx="-184.251" cy="551.5059" r="1.001" gradientTransform="matrix(5.8411 0 0 -5.8418 1220.1616 3724.5955)" gradientUnits="userSpaceOnUse">
		<stop  offset="0" style="stop-color:#2C17E1"/>
		<stop  offset="1" style="stop-color:#3926E1"/>
	</radialGradient>
	<path fill="url(#SVGID_32_)" d="M138.864,499.863c1.608-2.794,5.206-3.769,8-2.159c2.793,1.608,3.767,5.207,2.158,8.001
		c-1.608,2.794-5.206,3.767-7.999,2.159C138.229,506.255,137.256,502.657,138.864,499.863z"/>
	
		<radialGradient id="SVGID_33_" cx="-184.2495" cy="551.5078" r="0.9998" gradientTransform="matrix(5.8411 0 0 -5.8418 1480.6422 3273.6736)" gradientUnits="userSpaceOnUse">
		<stop  offset="0" style="stop-color:#2C17E1"/>
		<stop  offset="1" style="stop-color:#3926E1"/>
	</radialGradient>
	<path fill="url(#SVGID_33_)" d="M399.342,48.941c1.609-2.794,5.206-3.768,8-2.159c2.794,1.608,3.768,5.207,2.159,8
		s-5.206,3.768-8,2.159C398.707,55.333,397.734,51.735,399.342,48.941z"/>
	
		<radialGradient id="SVGID_34_" cx="-184.25" cy="551.5078" r="1" gradientTransform="matrix(5.8411 0 0 -5.8418 1261.3063 3743.7825)" gradientUnits="userSpaceOnUse">
		<stop  offset="0" style="stop-color:#EB818F"/>
		<stop  offset="0.33" style="stop-color:#E56574"/>
		<stop  offset="0.76" style="stop-color:#DF4655"/>
		<stop  offset="1" style="stop-color:#DD3B4A"/>
	</radialGradient>
	<path fill="url(#SVGID_34_)" d="M179.582,519.971c1.101-3.048,4.487-4.614,7.492-3.514c3.048,1.101,4.614,4.445,3.513,7.493
		c-1.1,3.048-4.486,4.614-7.491,3.513C180.09,526.363,178.482,523.018,179.582,519.971z"/>
	
		<radialGradient id="SVGID_35_" cx="-184.25" cy="551.5078" r="1" gradientTransform="matrix(5.8411 0 0 -5.8418 1439.4586 3254.509)" gradientUnits="userSpaceOnUse">
		<stop  offset="0" style="stop-color:#EB818F"/>
		<stop  offset="0.33" style="stop-color:#E56574"/>
		<stop  offset="0.76" style="stop-color:#DF4655"/>
		<stop  offset="1" style="stop-color:#DD3B4A"/>
	</radialGradient>
	<path fill="url(#SVGID_35_)" d="M357.735,30.695c1.101-3.048,4.486-4.614,7.492-3.514c3.048,1.101,4.613,4.445,3.513,7.493
		s-4.486,4.614-7.492,3.514C358.201,37.088,356.636,33.743,357.735,30.695z"/>
	
		<radialGradient id="SVGID_36_" cx="-184.2168" cy="551.5078" r="0.9998" gradientTransform="matrix(5.8411 0 0 -5.8418 493.3276 3755.5464)" gradientUnits="userSpaceOnUse">
		<stop  offset="0" style="stop-color:#2C17E1"/>
		<stop  offset="1" style="stop-color:#3926E1"/>
	</radialGradient>
	<path fill="url(#SVGID_36_)" d="M223.179,532.712c0.55-3.174,3.597-5.291,6.772-4.741c3.174,0.552,5.333,3.6,4.741,6.773
		c-0.551,3.175-3.598,5.292-6.773,4.742C224.745,538.935,222.586,535.887,223.179,532.712z"/>
	
		<radialGradient id="SVGID_37_" cx="-147.7295" cy="542.6787" r="0.9998" gradientTransform="matrix(2.1163 0 0 -2.1166 632.0332 662.3778)" gradientUnits="userSpaceOnUse">
		<stop  offset="0" style="stop-color:#2C17E1"/>
		<stop  offset="1" style="stop-color:#3926E1"/>
	</radialGradient>
	<path fill="url(#SVGID_37_)" d="M313.632,19.901c0.549-3.175,3.598-5.292,6.771-4.741c3.175,0.55,5.333,3.598,4.74,6.773
		c-0.551,3.175-3.598,5.292-6.772,4.741C315.197,26.124,313.038,23.076,313.632,19.901z"/>
</g>
</svg>
