<?xml version="1.0" encoding="utf-8"?>
<!-- Generator: Adobe Illustrator 16.0.0, SVG Export Plug-In . SVG Version: 6.00 Build 0)  -->
<!DOCTYPE svg PUBLIC "-//W3C//DTD SVG 1.1//EN" "http://www.w3.org/Graphics/SVG/1.1/DTD/svg11.dtd">
<svg version="1.1" id="Layer_1" xmlns="http://www.w3.org/2000/svg" xmlns:xlink="http://www.w3.org/1999/xlink" x="0px" y="0px"
	 width="17px" height="17px" viewBox="0 -0.5 17 17" enable-background="new 0 -0.5 17 17" xml:space="preserve">
<path fill="#5F666E" d="M8.5,2.987c-2.812,0-5.087,2.288-5.087,5.088c0,2.813,2.287,5.087,5.087,5.087
	c2.801,0,5.088-2.287,5.088-5.087C13.588,5.275,11.313,2.987,8.5,2.987z M11.75,8.7c-0.313,0-0.574-0.188-0.676-0.463H9.5
	c-0.088,0.351-0.363,0.625-0.725,0.7v1.575C9.074,10.6,9.287,10.875,9.287,11.2c0,0.399-0.324,0.725-0.725,0.725
	c-0.4,0-0.725-0.325-0.725-0.725c0-0.3,0.188-0.563,0.462-0.675V8.925C7.975,8.838,7.712,8.563,7.625,8.237H6.012
	c-0.087,0.288-0.362,0.5-0.688,0.5c-0.4,0-0.725-0.325-0.725-0.725c0-0.4,0.325-0.725,0.725-0.725C5.637,7.288,5.9,7.487,6,7.75
	h1.612C7.7,7.413,7.95,7.15,8.288,7.063V5.475C8,5.375,7.8,5.112,7.8,4.788c0-0.4,0.325-0.725,0.726-0.725S9.25,4.388,9.25,4.788
	c0,0.313-0.199,0.575-0.475,0.675V7.05C9.125,7.125,9.412,7.4,9.5,7.75h1.563c0.1-0.288,0.375-0.5,0.688-0.5
	c0.4,0,0.725,0.325,0.725,0.725S12.15,8.7,11.75,8.7z M8.5,0c-4.412,0-8,3.587-8,8c0,4.412,3.587,8,8,8c4.413,0,8-3.588,8-8
	C16.5,3.587,12.912,0,8.5,0z M15.725,5.737l-1.225,0.5c-0.125-0.387-0.275-0.762-0.463-1.112l1.238-0.5L15.725,5.737z M13.426,2.263
	l0.861,0.85l-0.963,0.963c-0.262-0.313-0.549-0.6-0.861-0.85L13.426,2.263z M10.775,0.8L11.9,1.25l-0.514,1.263
	c-0.361-0.188-0.736-0.338-1.125-0.45L10.775,0.8z M7.925,0.487h1.212V1.85C8.926,1.825,8.713,1.813,8.5,1.813
	c-0.187,0-0.387,0.013-0.575,0.025V0.487z M6.237,0.825L6.75,2.063c-0.388,0.112-0.775,0.263-1.125,0.45L5.112,1.275L6.237,0.825z
	 M3.65,2.263l0.925,0.925C4.262,3.438,3.962,3.725,3.7,4.025L2.775,3.1L3.65,2.263z M1.837,4.55l1.175,0.488
	c-0.2,0.35-0.362,0.725-0.487,1.112L1.362,5.663L1.837,4.55z M1.025,7.4h1.237C2.237,7.625,2.225,7.85,2.225,8.087
	c0,0.175,0.012,0.35,0.025,0.525H1.025V7.4z M1.337,10.263l1.125-0.45c0.112,0.4,0.263,0.775,0.438,1.125l-1.112,0.45L1.337,10.263z
	 M3.65,13.737l-0.862-0.85l0.837-0.838c0.262,0.313,0.538,0.601,0.85,0.862L3.65,13.737z M6.3,15.2l-1.125-0.45l0.438-1.088
	C5.975,13.85,6.35,14,6.737,14.112L6.3,15.2z M9.137,15.513H7.925v-1.188C8.112,14.338,8.3,14.35,8.5,14.35
	c0.213,0,0.438-0.012,0.637-0.037V15.513z M10.838,15.175l-0.451-1.112c0.389-0.125,0.764-0.275,1.113-0.475l0.463,1.125
	L10.838,15.175z M8.5,13.65C5.387,13.65,2.85,11.125,2.85,8c0-3.112,2.537-5.65,5.649-5.65c3.114,0,5.651,2.538,5.651,5.65
	S11.613,13.65,8.5,13.65z M13.426,13.737l-0.875-0.875c0.313-0.263,0.6-0.55,0.85-0.862l0.887,0.888L13.426,13.737z M15.238,11.45
	l-1.164-0.487c0.188-0.363,0.338-0.738,0.451-1.125l1.188,0.5L15.238,11.45z M14.75,8.6c0.012-0.175,0.025-0.35,0.025-0.524
	c0-0.238-0.014-0.463-0.037-0.688h1.313V8.6H14.75z"/>
</svg>
