<svg width="17" height="16" viewBox="0 0 17 16" fill="none" xmlns="http://www.w3.org/2000/svg">
<path d="M8.09607 2.9875C5.28357 2.9875 3.00857 5.275 3.00857 8.075C3.00857 10.8875 5.29607 13.1625 8.09607 13.1625C10.8961 13.1625 13.1836 10.875 13.1836 8.075C13.1836 5.275 10.9086 2.9875 8.09607 2.9875ZM11.3461 8.7C11.0336 8.7 10.7711 8.5125 10.6711 8.2375H9.09607C9.00857 8.5875 8.73357 8.8625 8.37107 8.9375V10.5125C8.67107 10.6 8.88357 10.875 8.88357 11.2C8.88357 11.6 8.55857 11.925 8.15857 11.925C7.75857 11.925 7.43357 11.6 7.43357 11.2C7.43357 10.9 7.62107 10.6375 7.89607 10.525V8.925C7.57107 8.8375 7.30857 8.5625 7.22107 8.2375H5.60857C5.52107 8.525 5.24607 8.7375 4.92107 8.7375C4.52107 8.7375 4.19607 8.4125 4.19607 8.0125C4.19607 7.6125 4.52107 7.2875 4.92107 7.2875C5.23357 7.2875 5.49607 7.4875 5.59607 7.75H7.20857C7.29607 7.4125 7.54607 7.15 7.88357 7.0625V5.475C7.59607 5.375 7.39607 5.1125 7.39607 4.7875C7.39607 4.3875 7.72107 4.0625 8.12107 4.0625C8.52107 4.0625 8.84607 4.3875 8.84607 4.7875C8.84607 5.1 8.64607 5.3625 8.37107 5.4625V7.05C8.72107 7.125 9.00857 7.4 9.09607 7.75H10.6586C10.7586 7.4625 11.0336 7.25 11.3461 7.25C11.7461 7.25 12.0711 7.575 12.0711 7.975C12.0711 8.375 11.7461 8.7 11.3461 8.7ZM8.09607 0C3.68357 0 0.0960693 3.5875 0.0960693 8C0.0960693 12.4125 3.68357 16 8.09607 16C12.5086 16 16.0961 12.4125 16.0961 8C16.0961 3.5875 12.5086 0 8.09607 0ZM15.3211 5.7375L14.0961 6.2375C13.9711 5.85 13.8211 5.475 13.6336 5.125L14.8711 4.625L15.3211 5.7375ZM13.0211 2.2625L13.8836 3.1125L12.9211 4.075C12.6586 3.7625 12.3711 3.475 12.0586 3.225L13.0211 2.2625ZM10.3711 0.8L11.4961 1.25L10.9836 2.5125C10.6211 2.325 10.2461 2.175 9.85857 2.0625L10.3711 0.8ZM7.52107 0.4875H8.73357V1.85C8.52107 1.825 8.30857 1.8125 8.09607 1.8125C7.90857 1.8125 7.70857 1.825 7.52107 1.8375V0.4875ZM5.83357 0.825L6.34607 2.0625C5.95857 2.175 5.57107 2.325 5.22107 2.5125L4.70857 1.275L5.83357 0.825ZM3.24607 2.2625L4.17107 3.1875C3.85857 3.4375 3.55857 3.725 3.29607 4.025L2.37107 3.1L3.24607 2.2625ZM1.43357 4.55L2.60857 5.0375C2.40857 5.3875 2.24607 5.7625 2.12107 6.15L0.958569 5.6625L1.43357 4.55ZM0.621069 7.4H1.85857C1.83357 7.625 1.82107 7.85 1.82107 8.0875C1.82107 8.2625 1.83357 8.4375 1.84607 8.6125H0.621069V7.4ZM0.933569 10.2625L2.05857 9.8125C2.17107 10.2125 2.32107 10.5875 2.49607 10.9375L1.38357 11.3875L0.933569 10.2625ZM3.24607 13.7375L2.38357 12.8875L3.22107 12.05C3.48357 12.3625 3.75857 12.65 4.07107 12.9125L3.24607 13.7375ZM5.89607 15.2L4.77107 14.75L5.20857 13.6625C5.57107 13.85 5.94607 14 6.33357 14.1125L5.89607 15.2ZM8.73357 15.5125H7.52107V14.325C7.70857 14.3375 7.89607 14.35 8.09607 14.35C8.30857 14.35 8.53357 14.3375 8.73357 14.3125V15.5125ZM10.4336 15.175L9.98357 14.0625C10.3711 13.9375 10.7461 13.7875 11.0961 13.5875L11.5586 14.7125L10.4336 15.175ZM8.09607 13.65C4.98357 13.65 2.44607 11.125 2.44607 8C2.44607 4.8875 4.98357 2.35 8.09607 2.35C11.2086 2.35 13.7461 4.8875 13.7461 8C13.7461 11.1125 11.2086 13.65 8.09607 13.65ZM13.0211 13.7375L12.1461 12.8625C12.4586 12.6 12.7461 12.3125 12.9961 12L13.8836 12.8875L13.0211 13.7375ZM14.8336 11.45L13.6711 10.9625C13.8586 10.6 14.0086 10.225 14.1211 9.8375L15.3086 10.3375L14.8336 11.45ZM14.3461 8.6C14.3586 8.425 14.3711 8.25 14.3711 8.075C14.3711 7.8375 14.3586 7.6125 14.3336 7.3875H15.6461V8.6H14.3461Z" fill="#5F666E"/>
</svg>
