<svg width="16" height="16" viewBox="0 0 16 16" fill="none" xmlns="http://www.w3.org/2000/svg">
<path d="M5.01462 8.14548L2.11887 5.24973C0.978869 6.49248 0.546869 7.73748 0.539369 7.76298L0.459869 7.99998L0.538619 8.23698C0.555119 8.28723 2.27562 13.25 8.00037 13.25C8.69712 13.25 9.33162 13.1735 9.91437 13.0452L7.85487 10.9857C7.11333 10.9494 6.41183 10.6385 5.88686 10.1135C5.36188 9.58851 5.05097 8.88701 5.01462 8.14548ZM8.00037 2.74998C6.60912 2.74998 5.46912 3.05298 4.51887 3.49848L1.74012 0.719727L0.679619 1.78023L14.1796 15.2802L15.2401 14.2197L12.7666 11.7462C14.7451 10.2815 15.4509 8.26848 15.4614 8.23698L15.5401 7.99998L15.4614 7.76298C15.4449 7.71273 13.7251 2.74998 8.00037 2.74998ZM9.42987 8.40948C9.57012 7.90173 9.45087 7.33023 9.06087 6.93948C8.67087 6.54873 8.09862 6.43023 7.59087 6.57048L6.45987 5.43948C6.92334 5.15446 7.45628 5.00242 8.00037 4.99998C9.65487 4.99998 11.0004 6.34548 11.0004 7.99998C10.9981 8.54397 10.8458 9.07678 10.5601 9.53973L9.42987 8.40948Z" fill="#5F666E"/>
</svg>
