<?xml version="1.0" encoding="utf-8"?>
<!-- Generator: Adobe Illustrator 16.0.0, SVG Export Plug-In . SVG Version: 6.00 Build 0)  -->
<!DOCTYPE svg PUBLIC "-//W3C//DTD SVG 1.1//EN" "http://www.w3.org/Graphics/SVG/1.1/DTD/svg11.dtd">
<svg version="1.1" id="Layer_1" xmlns="http://www.w3.org/2000/svg" xmlns:xlink="http://www.w3.org/1999/xlink" x="0px" y="0px"
	 width="17px" height="17px" viewBox="-0.5 -0.5 17 17" enable-background="new -0.5 -0.5 17 17" xml:space="preserve">
<path fill="#5F666E" d="M4.833,8.154L1.76,5.082C0.551,6.401,0.092,7.721,0.084,7.749L0,8l0.083,0.251
	C0.101,8.305,1.926,13.57,8,13.57c0.74,0,1.413-0.081,2.031-0.218l-2.185-2.184c-0.787-0.04-1.531-0.369-2.088-0.927
	S4.871,8.94,4.833,8.154z M8,2.43c-1.477,0-2.686,0.321-3.694,0.794L1.358,0.275L0.233,1.401l14.324,14.324l1.125-1.125
	l-2.624-2.625c2.099-1.554,2.848-3.689,2.858-3.723L16,8l-0.084-0.251C15.899,7.695,14.074,2.43,8,2.43z M9.517,8.435
	c0.149-0.539,0.023-1.146-0.392-1.56C8.712,6.46,8.104,6.334,7.566,6.483l-1.2-1.2C6.857,4.98,7.423,4.82,8,4.817
	c1.754,0,3.182,1.428,3.182,3.183c-0.002,0.577-0.163,1.142-0.466,1.633L9.517,8.435z"/>
</svg>
