<?xml version="1.0" encoding="utf-8"?>
<!-- Generator: Adobe Illustrator 16.0.0, SVG Export Plug-In . SVG Version: 6.00 Build 0)  -->
<!DOCTYPE svg PUBLIC "-//W3C//DTD SVG 1.1//EN" "http://www.w3.org/Graphics/SVG/1.1/DTD/svg11.dtd">
<svg version="1.1" id="Layer_1" xmlns="http://www.w3.org/2000/svg" xmlns:xlink="http://www.w3.org/1999/xlink" x="0px" y="0px"
	 width="141px" height="141px" viewBox="0 0 141 141" enable-background="new 0 0 141 141" xml:space="preserve">
<g>
	<path fill-rule="evenodd" clip-rule="evenodd" fill="#725AF0" d="M55.891,138.791c-10.665-2.242-20.258-6.795-28.771-13.564
		c-8.663-6.891-15.383-15.352-20.029-25.426c-0.082-0.176-0.127-0.371-0.189-0.557c-0.432-1.789-1.291-3.42-1.893-5.148
		c-1.714-4.922-2.874-9.957-3.492-15.133c-0.438-3.66-0.585-7.334-0.401-11.001C1.396,62.4,2.297,56.923,3.889,51.574
		c2.032-6.828,4.991-13.229,8.964-19.144c4.77-7.102,10.653-13.123,17.635-18.084c6.987-4.965,14.633-8.504,22.92-10.621
		c4.489-1.146,9.059-1.791,13.707-2.056c8.936-0.509,17.59,0.778,26.03,3.631c7.876,2.663,15.02,6.665,21.461,11.931
		c10.696,8.744,18.097,19.736,22.36,32.841c1.598,4.911,2.533,9.963,2.952,15.131c0.292,3.589,0.089,7.166,0.176,10.748
		c-0.125,4.516-1.047,8.904-2.238,13.234c-2.139,7.773-5.546,14.967-10.235,21.527c-2.911,4.07-6.072,7.936-9.936,11.174
		c-0.377,0.316-0.63,0.801-1.102,1.043c-0.574-0.346-0.155-0.658,0.057-0.939c0.281-0.369,0.655-0.664,0.913-1.059
		c0.813-0.994,1.708-1.908,2.711-2.713c0.646-0.494,1.274-1.006,1.633-1.768c0.121-0.254,0.303-0.453,0.529-0.617
		c0.399-0.268,0.736-0.592,0.926-1.047c0.075-0.143,0.175-0.264,0.294-0.371c0.285-0.223,0.526-0.48,0.666-0.82
		c0.071-0.139,0.166-0.258,0.28-0.359c0.276-0.209,0.517-0.453,0.686-0.762c0.052-0.086,0.11-0.166,0.174-0.244
		c0.243-0.258,0.438-0.545,0.549-0.887c0.125-0.301,0.286-0.578,0.535-0.797c0.805-0.773,1.397-1.688,1.825-2.715
		c0.119-0.305,0.271-0.59,0.51-0.82c0.375-0.295,0.593-0.682,0.679-1.148c0.054-0.207,0.147-0.391,0.299-0.543
		c0.376-0.309,0.582-0.709,0.656-1.186c0.09-0.385,0.261-0.727,0.544-1.008c0.712-0.787,1.164-1.703,1.361-2.746
		c0.066-0.406,0.244-0.76,0.512-1.07c0.432-0.48,0.66-1.043,0.667-1.693c0.806-2.549,1.816-5.027,2.54-7.609
		c1.383-4.939,2.19-9.949,2.516-15.078c0.569-8.944-0.73-17.6-3.618-26.03c-2.813-8.213-7.066-15.617-12.761-22.199
		c-6.67-7.71-14.644-13.663-23.933-17.821c-6.232-2.79-12.758-4.566-19.56-5.377c-4.066-0.484-8.14-0.591-12.2-0.375
		c-6.325,0.336-12.499,1.611-18.482,3.729c-7.49,2.651-14.33,6.466-20.487,11.496c-6.283,5.132-11.483,11.197-15.605,18.18
		C7.436,44.264,4.547,52.602,3.22,61.47c-0.347,2.322-0.463,4.676-0.587,7.031C2.305,74.771,2.975,80.932,4.397,87.01
		c1.353,5.781,3.456,11.289,6.296,16.521c2.335,4.305,5.067,8.32,8.254,12.031c0.235,0.273,0.425,0.58,0.589,0.9
		c0.466,1.188,1.566,1.836,2.354,2.748c0.261,0.275,0.528,0.545,0.803,0.807c0.824,0.779,1.538,1.674,2.48,2.326
		c0.219,0.158,0.415,0.344,0.607,0.531c0.328,0.34,0.663,0.674,1.073,0.918c0.135,0.09,0.258,0.193,0.375,0.303
		c0.304,0.299,0.601,0.605,0.971,0.824c0.089,0.055,0.173,0.117,0.254,0.182c0.227,0.201,0.458,0.4,0.722,0.555
		c0.087,0.051,0.168,0.111,0.247,0.176c0.226,0.201,0.458,0.395,0.72,0.549c0.089,0.055,0.171,0.115,0.252,0.182
		c0.27,0.244,0.561,0.461,0.89,0.621c0.959,0.59,1.895,1.215,2.816,1.863c0.31,0.283,0.663,0.504,1.043,0.68
		c0.093,0.047,0.181,0.102,0.267,0.16c0.323,0.256,0.683,0.449,1.056,0.621c0.187,0.092,0.371,0.188,0.548,0.295
		c0.381,0.281,0.795,0.504,1.228,0.693c1.063,0.557,2.142,1.08,3.217,1.607c0.643,0.352,1.287,0.701,1.986,0.932
		c0.097,0.031,0.191,0.072,0.283,0.117c0.306,0.168,0.63,0.291,0.965,0.391c0.095,0.031,0.186,0.07,0.275,0.113
		c0.305,0.17,0.633,0.279,0.965,0.379c0.099,0.031,0.192,0.072,0.285,0.117c0.373,0.203,0.782,0.305,1.185,0.426
		c0.919,0.316,1.844,0.613,2.771,0.902c1.054,0.41,2.145,0.691,3.247,0.936c0.344,0.104,0.696,0.176,1.045,0.262
		c0.514,0.154,1.062,0.217,1.545,0.451C56.67,138.449,56.359,138.648,55.891,138.791z"/>
	<path fill-rule="evenodd" clip-rule="evenodd" fill="#785EF2" d="M140.095,75.951c-0.339-0.33-0.207-0.752-0.21-1.139
		c-0.013-1.799,0.014-3.6-0.009-5.399c-0.072-5.798-0.985-11.475-2.554-17.046c-2.137-7.595-5.515-14.607-10.033-21.074
		c-3.189-4.565-6.927-8.621-11.104-12.304c-4.639-4.089-9.735-7.462-15.283-10.155c-6.237-3.026-12.765-5.112-19.647-6.118
		c-3.788-0.554-7.585-0.981-11.398-0.889c-6.253,0.152-12.414,1.025-18.449,2.772c-6.685,1.935-12.949,4.781-18.733,8.608
		c-5.131,3.394-9.756,7.395-13.855,12.033c-4.531,5.126-8.21,10.776-11.078,16.953c-2.61,5.623-4.39,11.521-5.397,17.65
		c-0.718,4.373-1.078,8.769-0.937,13.196c0.196,6.186,1.13,12.258,2.955,18.182c0.751,2.438,1.537,4.863,2.618,7.18
		c0.14,0.301,0.286,0.592-0.078,0.842c-1.967-3.908-3.254-8.055-4.305-12.283c-0.747-3-1.276-6.041-1.567-9.123
		c-0.021-0.543,0.113-1.096-0.078-1.633c-0.063-0.49-0.125-0.982-0.187-1.475c0.064-2.863,0.063-5.728,0-8.591
		c0.063-0.492,0.125-0.984,0.188-1.476c0.189-0.537,0.054-1.09,0.078-1.635c0.332-3.496,0.979-6.936,1.873-10.33
		c0.661-0.878,0.789-1.965,1.106-2.967c2.685-8.472,6.804-16.159,12.451-23.028c6.548-7.965,14.437-14.229,23.723-18.721
		c7.157-3.462,14.692-5.611,22.591-6.525c3.582-0.414,7.174-0.611,10.765-0.427C81.989,1.463,90.156,3.23,97.97,6.544
		c6.261,2.655,11.984,6.192,17.251,10.477c2.453,1.995,4.579,4.338,6.831,6.546c0.339,0.333,0.615,0.742,1.071,0.944
		c4.134,4.5,7.381,9.595,10.104,15.045c3.444,6.895,5.552,14.192,6.633,21.803c0.089,0.629,0.124,1.265,0.185,1.898
		c-0.057,0.392-0.121,0.783,0.04,1.167c0.031,0.813,0.35,1.599,0.227,2.427c-0.121,1.111-0.134,2.222,0.01,3.331
		c0,0.17,0,0.338,0,0.508c-0.144,1.11-0.13,2.221-0.011,3.333C140.415,74.686,140.236,75.316,140.095,75.951z"/>
	<path fill-rule="evenodd" clip-rule="evenodd" fill="#805FF3" d="M123.123,24.512c-0.497,0.472-0.613-0.164-0.791-0.334
		c-1.272-1.213-2.503-2.471-3.746-3.715c-3.769-3.771-8.061-6.864-12.631-9.561c-4.442-2.621-9.13-4.728-14.068-6.26
		c-4.45-1.38-8.972-2.353-13.61-2.885c-3.538-0.406-7.079-0.583-10.613-0.406c-5.319,0.266-10.575,1.072-15.718,2.521
		c-4.619,1.303-9.073,3.021-13.329,5.239c-4.927,2.567-9.484,5.664-13.682,9.321c-5.667,4.939-10.471,10.592-14.298,17.044
		c-3.104,5.232-5.501,10.791-7.137,16.667c-0.036,0.128,0.227,1.083-0.596,0.556C9.454,27.505,29.715,7.956,55.168,2.237
		c2.699-0.606,5.431-0.975,8.166-1.344c0.392,0.097,0.782,0.125,1.17-0.017c0.493-0.067,0.986-0.134,1.479-0.201
		c0.869,0.046,1.737,0.125,2.603-0.042c1.369,0,2.738,0,4.106-0.001c0.785,0.167,1.575,0.093,2.364,0.044
		c0.493,0.067,0.985,0.133,1.479,0.2c0.388,0.143,0.778,0.113,1.17,0.018c9.411,1,18.273,3.737,26.569,8.315
		c6.956,3.837,13.031,8.766,18.367,14.629C122.826,24.04,122.964,24.286,123.123,24.512z"/>
	<path fill-rule="evenodd" clip-rule="evenodd" fill="#7159EF" d="M55.891,138.791c-0.013-0.148,0.545-0.254,0.056-0.428
		c-0.496-0.178-1.063-0.141-1.507-0.486c0.409-0.398,0.88-0.262,1.351-0.16c4.138,0.893,8.31,1.385,12.553,1.563
		c9.937,0.418,19.441-1.402,28.586-5.17c6.463-2.66,12.359-6.299,17.688-10.842c0.669-0.572,1.326-1.148,1.963-1.754
		c0.328-0.311,0.642-0.773,1.219-0.438c-0.242,0.725-1.355,0.877-1.215,1.854c-6.373,5.756-13.647,10.021-21.67,13.02
		c-5.37,2.006-10.883,3.445-16.627,3.871c-0.487,0.219-1.032-0.035-1.52,0.182c-0.494,0.057-0.989,0.111-1.483,0.168
		c-0.944,0.016-1.893-0.115-2.832,0.07c-1.289,0-2.578,0-3.866,0c-0.941-0.186-1.89-0.055-2.835-0.07
		c-0.416-0.059-0.831-0.115-1.247-0.172c-0.462-0.162-0.933-0.08-1.402-0.049c-0.332-0.063-0.664-0.127-0.996-0.189
		c-0.408-0.197-0.874,0.02-1.281-0.18C59.143,139.553,57.525,139.123,55.891,138.791z"/>
	<path fill-rule="evenodd" clip-rule="evenodd" fill="#7458DB" d="M0.765,66.139c0.252,2.864,0.253,5.728,0,8.591
		C0.624,71.867,0.624,69.003,0.765,66.139z"/>
	<path fill-rule="evenodd" clip-rule="evenodd" fill="#7158EB" d="M140.311,74.023c-0.298-1.113-0.319-2.223,0.011-3.333
		C140.318,71.801,140.314,72.912,140.311,74.023z"/>
	<path fill-rule="evenodd" clip-rule="evenodd" fill="#7158EB" d="M140.321,70.183c-0.329-1.109-0.31-2.22-0.01-3.331
		C140.314,67.962,140.318,69.074,140.321,70.183z"/>
	<path fill-rule="evenodd" clip-rule="evenodd" fill="#6B59D7" d="M65.751,140.17c0.949-0.162,1.898-0.309,2.835,0.07
		C67.639,140.289,66.692,140.344,65.751,140.17z"/>
	<path fill-rule="evenodd" clip-rule="evenodd" fill="#6B59D7" d="M72.452,140.24c0.935-0.379,1.883-0.234,2.832-0.07
		C74.344,140.342,73.397,140.289,72.452,140.24z"/>
	<path fill-rule="evenodd" clip-rule="evenodd" fill="#755ADA" d="M0.951,76.205c0.344,0.529,0.253,1.08,0.078,1.633
		C0.863,77.301,0.91,76.754,0.951,76.205z"/>
	<path fill-rule="evenodd" clip-rule="evenodd" fill="#755BD4" d="M1.031,63.029c0.17,0.554,0.264,1.105-0.078,1.635
		C0.909,64.115,0.863,63.567,1.031,63.029z"/>
	<path fill-rule="evenodd" clip-rule="evenodd" fill="#6A57DB" d="M63.102,139.949c0.476-0.221,0.946-0.275,1.402,0.049
		C64.037,139.982,63.569,139.967,63.102,139.949z"/>
	<path fill-rule="evenodd" clip-rule="evenodd" fill="#6D5ADB" d="M76.768,140.002c0.468-0.383,1.01-0.145,1.52-0.182
		C77.813,140.141,77.284,140.027,76.768,140.002z"/>
	<path fill-rule="evenodd" clip-rule="evenodd" fill="#725DE3" d="M140.085,64.425c-0.313-0.378-0.28-0.769-0.04-1.167
		C140.058,63.647,140.071,64.036,140.085,64.425z"/>
	<path fill-rule="evenodd" clip-rule="evenodd" fill="#6B58DA" d="M60.825,139.58c0.431,0.027,0.896-0.176,1.281,0.18
		C61.666,139.795,61.218,139.885,60.825,139.58z"/>
	<path fill-rule="evenodd" clip-rule="evenodd" fill="#6C53EF" d="M117.799,121.076c-1.357,0.576-2.164,1.824-3.267,2.715
		c-4.853,3.924-10.034,7.275-15.745,9.83c-4.158,1.861-8.432,3.338-12.865,4.346c-2.859,0.652-5.757,1.063-8.675,1.406
		c-1.861,0.221-3.727,0.193-5.581,0.34c-2.314,0.186-4.67-0.201-7.01-0.309c-3.459-0.156-6.807-1.053-10.217-1.527
		c-0.332-0.035-0.708,0.111-0.96-0.24c-1.118-0.328-2.247-0.615-3.36-0.961c-1.016-0.152-1.981-0.455-2.88-0.959
		c-0.377-0.217-0.815-0.283-1.2-0.48l0,0c-0.377-0.217-0.815-0.281-1.2-0.48l0,0c-0.377-0.217-0.815-0.281-1.2-0.479
		c-0.732-0.293-1.418-0.689-2.16-0.961c-1.199-0.4-2.316-0.967-3.36-1.68c-0.359-0.307-0.831-0.43-1.2-0.721
		c-0.198-0.004-0.377-0.047-0.48-0.24c-0.36-0.305-0.829-0.432-1.2-0.719c-0.359-0.309-0.831-0.43-1.2-0.721
		c-1.014-0.559-1.986-1.182-2.88-1.92c-0.334-0.221-0.618-0.51-0.96-0.719l0,0c-0.333-0.223-0.618-0.51-0.96-0.721l0,0
		c-0.333-0.223-0.618-0.51-0.96-0.721l0,0c-0.438-0.271-0.754-0.697-1.2-0.959c-0.08-0.08-0.16-0.16-0.24-0.24
		c-0.438-0.273-0.754-0.697-1.2-0.961c-0.229-0.09-0.389-0.25-0.48-0.479c-0.984-0.688-1.647-1.725-2.64-2.4
		c-0.323-0.156-0.563-0.396-0.72-0.721c-0.677-0.992-1.714-1.656-2.4-2.641c-2.148-2.861-4.473-5.59-6.389-8.629
		c-4.861-7.709-8.181-16.002-9.709-25.004c-0.546-3.219-0.834-6.445-0.979-9.713C1.875,63.288,3.841,53.647,7.72,44.348
		c2.614-6.268,6.129-12.013,10.493-17.189c5.255-6.234,11.421-11.425,18.546-15.464c5.38-3.05,11.042-5.383,17.023-6.892
		c3.654-0.921,7.369-1.541,11.147-1.856c2.758-0.229,5.505-0.205,8.252-0.166c5.226,0.073,10.36,0.926,15.398,2.292
		c4.711,1.278,9.227,3.064,13.563,5.323c4.686,2.441,9.042,5.345,13.032,8.809c5.027,4.365,9.432,9.266,13.021,14.887
		c4.862,7.614,8.154,15.844,9.767,24.74c0.525,2.896,0.788,5.812,0.988,8.751c0.69,10.161-1.178,19.87-4.857,29.292
		c-0.118,0.303-0.235,0.592-0.216,0.92c-0.244,0.559-0.497,1.113-0.72,1.68c-0.313,0.244-0.441,0.58-0.479,0.959
		c-0.43,0.986-0.885,1.959-1.44,2.881c-0.312,0.244-0.441,0.58-0.48,0.961c-0.307,0.359-0.431,0.828-0.72,1.199
		c-0.193,0.104-0.235,0.283-0.24,0.48c-0.307,0.359-0.431,0.83-0.72,1.199c-0.16,0.24-0.32,0.48-0.479,0.721
		c-0.617,0.975-1.237,1.949-1.921,2.879c-0.159,0.24-0.319,0.48-0.479,0.721c-0.224,0.332-0.508,0.619-0.72,0.961
		c-0.223,0.332-0.509,0.617-0.721,0.959c-0.08,0.08-0.159,0.16-0.239,0.24c-0.224,0.332-0.508,0.619-0.721,0.961
		c-0.08,0.078-0.16,0.158-0.239,0.238c-0.272,0.439-0.699,0.754-0.961,1.201c-0.229,0.09-0.389,0.25-0.479,0.479
		c-0.464,0.725-1.226,1.188-1.68,1.922C119.461,119.219,118.581,120.098,117.799,121.076z"/>
	<path fill-rule="evenodd" clip-rule="evenodd" fill="#7159EF" d="M22.519,120.117c1.172,0.479,1.832,1.52,2.64,2.4
		C23.988,122.037,23.327,120.996,22.519,120.117z"/>
	<path fill-rule="evenodd" clip-rule="evenodd" fill="#7159EF" d="M19.399,116.756c0.879,0.809,1.921,1.469,2.4,2.641
		C20.92,118.588,19.878,117.928,19.399,116.756z"/>
	<path fill-rule="evenodd" clip-rule="evenodd" fill="#7159EF" d="M126.679,110.756c0.46-1.08,1.104-2.037,1.921-2.879
		C128.218,109.008,127.584,109.973,126.679,110.756z"/>
	<path fill-rule="evenodd" clip-rule="evenodd" fill="#7159EF" d="M50.119,136.676c1.177,0.121,2.307,0.406,3.36,0.961
		C52.296,137.537,51.16,137.275,50.119,136.676z"/>
	<path fill-rule="evenodd" clip-rule="evenodd" fill="#7159EF" d="M131.239,103.316c0.325-1.037,0.805-1.998,1.44-2.881
		C132.484,101.539,132.049,102.521,131.239,103.316z"/>
	<path fill-rule="evenodd" clip-rule="evenodd" fill="#7159EF" d="M120.439,118.438c0.253-0.908,1.027-1.361,1.68-1.922
		C121.866,117.426,121.092,117.877,120.439,118.438z"/>
	<path fill-rule="evenodd" clip-rule="evenodd" fill="#7159EF" d="M41.479,133.316c0.841,0.049,1.522,0.457,2.16,0.961
		C42.799,134.227,42.118,133.82,41.479,133.316z"/>
	<path fill-rule="evenodd" clip-rule="evenodd" fill="#7159EF" d="M133.159,99.477c0-0.662,0.282-1.205,0.72-1.68
		C133.88,98.459,133.598,99.002,133.159,99.477z"/>
	<path fill-rule="evenodd" clip-rule="evenodd" fill="#7159EF" d="M27.079,124.197c0.609,0.059,0.901,0.514,1.2,0.959
		C27.67,125.098,27.378,124.643,27.079,124.197z"/>
	<path fill-rule="evenodd" clip-rule="evenodd" fill="#7159EF" d="M122.599,116.037c0.06-0.609,0.515-0.902,0.961-1.201
		C123.501,115.445,123.046,115.738,122.599,116.037z"/>
	<path fill-rule="evenodd" clip-rule="evenodd" fill="#7159EF" d="M25.639,122.996c0.609,0.059,0.901,0.514,1.2,0.961
		C26.23,123.898,25.938,123.443,25.639,122.996z"/>
	<path fill-rule="evenodd" clip-rule="evenodd" fill="#7159EF" d="M129.079,107.156c0.083-0.494,0.236-0.945,0.72-1.199
		C129.716,106.451,129.563,106.902,129.079,107.156z"/>
	<path fill-rule="evenodd" clip-rule="evenodd" fill="#7159EF" d="M35.239,129.957c0.494,0.082,0.946,0.236,1.2,0.719
		C35.945,130.594,35.493,130.439,35.239,129.957z"/>
	<path fill-rule="evenodd" clip-rule="evenodd" fill="#7159EF" d="M34.039,129.236c0.494,0.084,0.946,0.236,1.2,0.721
		C34.745,129.873,34.293,129.721,34.039,129.236z"/>
	<path fill-rule="evenodd" clip-rule="evenodd" fill="#7159EF" d="M130.039,105.477c0.083-0.494,0.236-0.945,0.72-1.199
		C130.676,104.771,130.523,105.223,130.039,105.477z"/>
	<path fill-rule="evenodd" clip-rule="evenodd" fill="#7159EF" d="M36.919,130.916c0.494,0.084,0.946,0.236,1.2,0.721
		C37.625,131.553,37.173,131.4,36.919,130.916z"/>
	<path fill-rule="evenodd" clip-rule="evenodd" fill="#7159EF" d="M124.759,113.396c0.019-0.486,0.335-0.748,0.721-0.959
		C125.461,112.924,125.145,113.186,124.759,113.396z"/>
	<path fill-rule="evenodd" clip-rule="evenodd" fill="#7159EF" d="M125.479,112.438c0.018-0.486,0.335-0.75,0.72-0.961
		C126.181,111.963,125.864,112.225,125.479,112.438z"/>
	<path fill-rule="evenodd" clip-rule="evenodd" fill="#7159EF" d="M28.279,125.156c0.486,0.02,0.749,0.336,0.96,0.721
		C28.753,125.859,28.491,125.541,28.279,125.156z"/>
	<path fill-rule="evenodd" clip-rule="evenodd" fill="#7159EF" d="M29.239,125.877c0.486,0.018,0.749,0.334,0.96,0.721
		C29.713,126.578,29.451,126.262,29.239,125.877z"/>
	<path fill-rule="evenodd" clip-rule="evenodd" fill="#7159EF" d="M123.799,114.598c0.019-0.486,0.336-0.75,0.721-0.961
		C124.501,114.123,124.185,114.385,123.799,114.598z"/>
	<path fill-rule="evenodd" clip-rule="evenodd" fill="#7159EF" d="M43.639,134.277c0.47-0.016,0.889,0.098,1.2,0.479
		C44.37,134.771,43.951,134.658,43.639,134.277z"/>
	<path fill-rule="evenodd" clip-rule="evenodd" fill="#7159EF" d="M44.839,134.756c0.47-0.014,0.889,0.1,1.2,0.48
		C45.569,135.252,45.15,135.139,44.839,134.756z"/>
	<path fill-rule="evenodd" clip-rule="evenodd" fill="#7159EF" d="M30.199,126.598c0.486,0.018,0.749,0.334,0.96,0.719
		C30.673,127.299,30.41,126.982,30.199,126.598z"/>
	<path fill-rule="evenodd" clip-rule="evenodd" fill="#7159EF" d="M46.039,135.236c0.47-0.014,0.889,0.098,1.2,0.48
		C46.77,135.73,46.351,135.619,46.039,135.236z"/>
	<path fill-rule="evenodd" clip-rule="evenodd" fill="#664BEC" d="M138.494,71.262c-0.238,19.881-7.533,36.736-22.198,50.162
		c-13.793,12.631-30.29,18.48-48.936,17.594c-18.379-0.875-34.023-8.186-46.513-21.719C7.95,103.324,2.012,86.615,2.874,67.655
		C4.416,33.726,32.653,2.139,73.11,3.293C108.235,4.295,138.65,33.374,138.494,71.262z"/>
	<path fill-rule="evenodd" clip-rule="evenodd" fill="#5D48E8" d="M137.206,64.2c1.849,17.866-2.822,35.071-15.082,49.956
		c-11.207,13.607-25.893,21.496-43.22,23.537c-18.989,2.236-36.406-2.561-51.237-15.012C13.594,110.867,5.536,95.539,3.988,77.344
		C2.408,58.767,7.507,41.856,19.78,27.498C30.695,14.727,44.729,7.293,61.203,4.819c11.086-1.665,22.11-0.434,32.689,3.473
		c15.009,5.542,26.495,15.401,34.702,29.07C133.323,45.239,135.816,53.9,137.206,64.2z"/>
	<path fill-rule="evenodd" clip-rule="evenodd" fill="#5844E7" d="M70.375,137.484c-18.044-0.193-33.797-6.602-46.575-19.455
		C10.008,104.156,3.525,87.123,4.569,67.533c0.95-17.836,8.126-32.987,21.251-45.088C39.253,10.06,55.323,4.182,73.556,4.979
		c18.283,0.8,33.765,8.137,46.117,21.662c11.565,12.663,17.337,27.808,17.236,44.87c-0.107,18.34-6.812,34.275-19.984,47.102
		C104.098,131.104,88.522,137.355,70.375,137.484z"/>
	<path fill-rule="evenodd" clip-rule="evenodd" fill="#5540E6" d="M136.024,64.876c0.097,42.159-29.179,72.901-67.635,71.764
		c-33.74-0.998-64.217-28.861-63.09-67.725C6.288,34.844,34.045,5.395,71.666,5.719c17.601,0.152,32.931,6.753,45.344,19.268
		C129.636,37.715,135.876,53.293,136.024,64.876z"/>
	<path fill-rule="evenodd" clip-rule="evenodd" fill="#503DE1" d="M115.862,39.754c0.424-0.315,0.538,0.152,0.721,0.321
		c5.254,4.875,8.774,10.897,11.517,17.435c1.86,4.434,3.06,9.062,3.565,13.814c0.777,7.303,0.379,14.541-1.869,21.615
		c-2.176,6.85-5.483,13.084-10.065,18.6c-4.651,5.6-10.193,10.164-16.555,13.744c-6.389,3.596-13.197,5.982-20.394,7.252
		c-4.805,0.848-9.68,1.014-14.537,0.742c-4.764-0.268-9.475-1.084-14.062-2.424c-3.919-1.143-7.578-2.934-11.087-5.014
		c-4.909-2.91-9.212-6.582-13.02-10.801c-4.074-4.516-7.035-9.73-9.239-15.395c-1.419-3.646-2.64-7.35-3.442-11.176
		c-0.3-1.43-0.729-2.857-0.636-4.352c0.547-0.012,0.487,0.441,0.545,0.76c1.017,5.572,2.775,10.906,5.038,16.092
		c2.925,6.701,7.081,12.475,12.555,17.342c5.45,4.848,11.5,8.674,18.433,10.949c5.611,1.842,11.408,2.693,17.335,2.809
		c6.572,0.127,12.997-0.619,19.306-2.475c8.101-2.385,15.364-6.301,21.806-11.746c7.135-6.033,12.443-13.387,15.802-22.111
		c1.747-4.539,2.735-9.25,3.134-14.111c0.847-10.328-1.349-20.017-5.969-29.205c-1.838-3.654-4.173-6.997-6.846-10.096
		c-0.312-0.36-0.615-0.743-1.069-0.947c-0.394-0.169-0.658-0.476-0.88-0.83C115.813,40.295,115.64,40.045,115.862,39.754z"/>
	<path fill-rule="evenodd" clip-rule="evenodd" fill="#4B3ADC" d="M116.815,41.208c0.536-0.311,0.674,0.245,0.882,0.471
		c2.413,2.617,4.435,5.523,6.22,8.596c3.257,5.607,5.401,11.642,6.522,18.001c0.683,3.877,1.047,7.827,0.781,11.776
		c-0.613,9.141-3.198,17.648-8.191,25.404c-2.608,4.051-5.631,7.74-9.157,10.988c-3.522,3.244-7.405,6.008-11.608,8.352
		c-4.6,2.564-9.451,4.443-14.521,5.752c-3.071,0.791-6.205,1.291-9.38,1.607c-3.556,0.352-7.12,0.359-10.648,0.146
		c-10.783-0.652-20.657-4.012-29.309-10.623c-7.03-5.371-12.583-11.943-16.147-20.1c-2.414-5.523-4.404-11.182-5.297-17.178
		c-0.016-0.104-0.132-0.191-0.202-0.285c-0.16-1.459-0.336-2.914-0.469-4.373c-0.035-0.381-0.124-0.807,0.184-1.146
		c0.489,0.316,0.534,0.844,0.598,1.34c0.146,1.125,0.542,2.201,0.604,3.34c-0.339,1.193,0.167,2.305,0.427,3.408
		c1.832,7.766,4.779,15.082,9.188,21.752c3.963,5.998,9.206,10.689,15.205,14.594c7.135,4.645,15.021,6.961,23.419,7.855
		c12.063,1.285,23.512-0.82,34.276-6.314c11.205-5.721,19.731-14.201,25.18-25.615c2.658-5.568,4.148-11.455,4.629-17.633
		c0.793-10.203-1.407-19.767-5.887-28.864c-1.555-3.159-3.47-6.114-5.695-8.856c-0.18-0.221-0.368-0.421-0.625-0.545
		c-0.109-0.046-0.212-0.107-0.308-0.177C117.182,42.357,116.59,41.946,116.815,41.208z"/>
	<path fill-rule="evenodd" clip-rule="evenodd" fill="#58E3E5" d="M17.423,83.416c-0.316-1.605-0.633-3.213-0.949-4.818
		c-0.121-0.941-0.288-1.881-0.21-2.836c-0.241-0.469,0.032-1-0.185-1.471c-0.944-14.664,3.218-27.71,12.637-38.976
		C37.675,24.6,49.177,18.153,63,16.291c15.797-2.129,29.992,1.957,42.39,12.054c3.357,2.735,6.367,5.806,8.837,9.382
		c0.103,0.241,0.19,0.484,0.048,0.741c-0.771,0.138-1-0.541-1.324-0.963c-3.813-4.971-8.388-9.105-13.663-12.46
		c-6.609-4.204-13.813-6.781-21.577-7.832c-3.181-0.431-6.374-0.607-9.563-0.433c-6.724,0.369-13.201,1.861-19.36,4.638
		c-5.934,2.674-11.256,6.281-15.835,10.88C25.52,39.762,20.547,48.662,18.42,59.001c-2.354,11.447-1.237,22.583,3.602,33.293
		c0.975,2.158,2.152,4.193,3.338,6.232c0.292,0.502,0.764,0.957,0.616,1.633c-0.238,0.352-0.579,0.479-0.989,0.461
		c-0.618-0.158-0.831-0.711-1.122-1.178c-0.655-1.051-1.244-2.143-1.869-3.213c-1.185-2.293-2.251-4.637-3.132-7.064
		C18.291,87.271,17.539,85.424,17.423,83.416z"/>
	<path fill-rule="evenodd" clip-rule="evenodd" fill="#54DFE2" d="M114.199,38.516c0.009-0.263,0.019-0.526,0.027-0.79
		c0.546,0.675,1.091,1.351,1.636,2.027c0.09,0.225,0.18,0.45,0.27,0.675c-0.081,0.501-0.1,1.036-0.672,1.279
		c-0.855-0.348-1.07-1.244-1.604-1.869c-0.139-0.243-0.248-0.496-0.23-0.786C113.699,38.75,113.945,38.629,114.199,38.516z"/>
	<path fill-rule="evenodd" clip-rule="evenodd" fill="#58E3E5" d="M16.079,74.291c0.372,0.451,0.14,0.979,0.185,1.471
		C15.961,75.301,16.067,74.791,16.079,74.291z"/>
	<path fill-rule="evenodd" clip-rule="evenodd" fill="#4DDFDE" d="M115.399,41.636c0.385-0.316,0.261-0.943,0.732-1.207
		c0.229,0.26,0.456,0.52,0.684,0.779c0.256,0.523,0.512,1.046,0.769,1.569c0.416,0.721-0.02,1.313-0.291,1.93
		c-0.101,0.153-0.231,0.273-0.397,0.352c-0.649,0.055-0.868-0.452-1.125-0.888c-0.24-0.409-0.415-0.87-0.963-0.968
		c-0.858-0.518-1.237-1.395-1.673-2.232c-0.018-0.112-0.008-0.222,0.027-0.33c0.477-0.581,0.868-0.337,1.238,0.128
		C114.679,41.12,114.78,41.676,115.399,41.636z"/>
	<path fill-rule="evenodd" clip-rule="evenodd" fill="#4336D4" d="M17.423,83.416c0.565,1.918,1.129,3.836,1.694,5.754
		c0.463,2.031,1.298,3.938,2.083,5.85c1.871,4.549,3.937,8.998,6.757,13.07c4.024,5.814,9.131,10.457,15.059,14.232
		c7.122,4.537,14.95,6.994,23.329,7.768c8.956,0.824,17.731-0.053,26.224-3.076c7.266-2.586,13.812-6.41,19.568-11.6
		c5.423-4.889,9.76-10.549,12.771-17.199c2.393-5.283,3.883-10.789,4.383-16.602c0.486-5.646-0.028-11.176-1.288-16.652
		c-1.601-6.96-4.387-13.425-8.473-19.305c-0.249-0.358-0.503-0.725-0.881-0.972c-0.551-0.491-0.931-1.063-0.854-1.845
		c1.052,0.138,1.323,1.147,1.81,1.799c5.004,6.718,8.253,14.247,9.885,22.442c0.823,4.138,1.272,8.355,1.009,12.583
		c-0.509,8.135-2.604,15.805-6.667,22.945c-2.976,5.227-6.698,9.824-11.141,13.805c-7.566,6.779-16.382,11.244-26.284,13.531
		c-3.564,0.822-7.172,1.271-10.839,1.496c-8.226,0.504-16.185-0.689-23.903-3.438c-5.375-1.914-10.142-4.938-14.583-8.523
		c-4.291-3.467-7.95-7.463-10.891-12.119c-2.435-3.855-4.227-8.02-5.89-12.252c-1.316-3.35-2.162-6.824-2.961-10.316
		C17.235,84.326,17.107,83.859,17.423,83.416z"/>
	<path fill-rule="evenodd" clip-rule="evenodd" fill="#49D5D7" d="M117.797,42.839c0.271,0.589,0.52,1.193,0.953,1.691
		c0.37,0.41,0.687,0.847,0.729,1.424c-0.048,0.565-0.253,1.061-0.661,1.464c-1.177-0.497-1.254-1.713-1.739-2.663
		c0.168-0.66,0.336-1.319,0.505-1.979C117.654,42.799,117.726,42.82,117.797,42.839z"/>
	<path fill-rule="evenodd" clip-rule="evenodd" fill="#3B31CC" d="M119.271,45.877c-0.174-0.449-0.348-0.898-0.521-1.347
		c0.756,0.043,0.883,0.763,1.197,1.211c3.043,4.34,5.339,9.075,6.965,14.102c1.392,4.304,2.3,8.717,2.687,13.258
		c0.496,5.818,0.049,11.527-1.483,17.137c-1.955,7.156-5.234,13.631-9.98,19.393c-4.051,4.916-8.816,8.961-14.17,12.326
		c-2.936,1.846-6.086,3.299-9.318,4.594c-4.761,1.91-9.678,3.045-14.754,3.684c-3.538,0.447-7.091,0.652-10.617,0.395
		c-6.188-0.453-12.293-1.352-18.109-3.813c-5.412-2.291-10.337-5.252-14.824-9.039c-6.258-5.283-10.734-11.797-13.987-19.26
		c-1.181-2.711-2.189-5.471-3.174-8.246c-0.119-0.336-0.475-0.713-0.064-1.102c1.037,2.322,2.073,4.643,3.109,6.965
		c-0.018,0.693,0.468,1.174,0.754,1.73c2.209,4.299,4.359,8.617,7.448,12.408c4.048,4.971,8.917,8.912,14.416,12.123
		c6.927,4.043,14.441,6.139,22.41,6.797c13.838,1.145,26.633-1.896,38.176-9.648c10.263-6.891,17.453-16.201,21.131-28.084
		c1.137-3.674,1.729-7.447,1.998-11.303c0.495-7.092-0.683-13.932-2.804-20.64c-1.171-3.703-2.788-7.232-4.791-10.572
		c-0.104-0.176-0.245-0.314-0.41-0.43C119.798,47.798,119.445,46.881,119.271,45.877z"/>
	<path fill-rule="evenodd" clip-rule="evenodd" fill="#55E4E4" d="M114.199,38.516c-0.091,0.229-0.251,0.389-0.48,0.48
		c-0.604,0.044-0.792-0.475-1.066-0.832c-4.193-5.453-9.231-9.968-15.164-13.435c-6.174-3.608-12.797-5.925-19.934-6.828
		c-9.215-1.166-18.096,0.021-26.669,3.486c-6.143,2.483-11.569,6.095-16.358,10.703c-5.417,5.211-9.573,11.26-12.379,18.213
		c-2.092,5.185-3.264,10.585-3.671,16.186c-0.682,9.372,1.22,18.206,5.208,26.629c1.334,2.818,2.996,5.471,4.837,7.998
		c0.326,0.445,0.754,0.838,0.843,1.428c-0.165,0.654-0.707,0.605-1.201,0.646c-1.083-0.752-1.682-1.875-2.284-2.994
		c-0.881-1.602-1.761-3.203-2.645-4.803c-3.06-5.537-4.844-11.479-5.788-17.719c-0.565-3.736-0.622-7.491-0.396-11.218
		c0.385-6.358,1.958-12.462,4.582-18.304c2.092-4.657,4.813-8.897,8.057-12.801c2.836-3.414,6.154-6.329,9.764-8.919
		c4.311-3.095,8.988-5.482,13.996-7.192c3.312-1.131,6.724-1.894,10.208-2.344c2.694-0.348,5.388-0.519,8.1-0.461
		c4.672,0.1,9.248,0.808,13.747,2.077c6.727,1.896,12.798,5.072,18.321,9.318C107.8,30.886,111.125,34.581,114.199,38.516z"/>
	<path fill-rule="evenodd" clip-rule="evenodd" fill="#332CC4" d="M120.652,48.409c0.409-0.337,0.435,0.094,0.55,0.289
		c3.638,6.185,5.952,12.854,7.109,19.914c0.494,3.017,0.837,6.079,0.746,9.14c-0.274,9.131-2.643,17.662-7.438,25.494
		c-2.177,3.555-4.72,6.826-7.66,9.74c-5.76,5.707-12.463,10.002-20.059,12.914c-4.713,1.809-9.579,2.975-14.564,3.527
		c-3.995,0.441-8.022,0.443-12.055,0.082c-4.778-0.428-9.448-1.275-13.974-2.867c-5.694-2.002-10.833-4.982-15.585-8.699
		c-6.633-5.189-11.284-11.852-14.712-19.445c-0.338-0.748-1.124-1.381-0.784-2.363c0.934,1.41,1.594,2.988,2.671,4.311
		c0.516,0.268,0.81,0.699,0.921,1.262c0.691,1.852,1.749,3.504,2.871,5.102c6.966,9.92,16.471,16.258,28.014,19.646
		c4.039,1.186,8.19,1.721,12.396,2.021c7.612,0.543,14.995-0.508,22.198-2.883c7.146-2.355,13.552-6.033,19.244-10.986
		c5.081-4.42,9.152-9.617,12.152-15.611c3.374-6.74,5.114-13.875,5.151-21.482c0.044-8.774-1.976-17.016-5.533-24.954
		c-0.083-0.185-0.182-0.355-0.339-0.486c-0.692-0.681-0.758-1.69-1.29-2.457C120.485,49.219,120.313,48.82,120.652,48.409z"/>
	<path fill-rule="evenodd" clip-rule="evenodd" fill="#58E3E5" d="M25.607,101.646c-0.236-0.4-0.472-0.801-0.708-1.201
		c0.327-0.084,0.654-0.166,0.981-0.248c0.956,0.783,1.495,1.877,2.16,2.879c-0.309,0.326-0.697,0.303-1.093,0.25
		C26.132,103.061,25.858,102.363,25.607,101.646z"/>
	<path fill-rule="evenodd" clip-rule="evenodd" fill="#51E5E3" d="M29.239,102.598c-5.596-7.32-9.225-15.479-10.594-24.623
		c-0.484-3.232-0.846-6.482-0.66-9.741c0.403-7.079,1.887-13.904,4.885-20.393c3.128-6.769,7.503-12.601,13.044-17.508
		C43.065,24,51.39,19.922,60.803,18.106c4.245-0.819,8.529-1.181,12.826-0.919c6.637,0.405,13.039,1.879,19.105,4.706
		c4.289,1.999,8.278,4.459,11.92,7.468c3.422,2.829,6.376,6.11,9.064,9.635c0.08,0.24,0.16,0.48,0.24,0.72
		c-0.812,0.468-1.168-0.182-1.533-0.671c-1.534-2.051-3.193-3.987-5.007-5.801c-6.237-6.237-13.621-10.499-22.052-13.041
		c-5.734-1.729-11.601-2.352-17.531-1.973c-11.221,0.718-21.22,4.67-29.891,11.884c-1.813,1.508-3.536,3.115-5.207,4.779
		c0.815-0.839,1.663-1.642,2.543-2.412c0.364-0.319,0.722-0.524,1.144-0.101c0.225,0.52-0.253,0.683-0.5,0.946
		c-0.998,1.07-2.256,1.86-3.209,2.98c-4.871,4.441-7.546,10.169-9.544,16.294c-0.472,1.517-0.852,3.053-1.056,4.63
		c-0.062,0.475-0.118,0.95-0.535,1.275c-0.855,0.108-0.812-0.514-0.724-1.008c0.292-1.641,0.707-3.252,1.169-4.505
		c-0.516,1.074-0.779,2.579-1.125,4.046c-1.264,5.361-1.73,10.814-1.37,16.298c0.382,5.818,1.752,11.43,4.08,16.805
		c1.709,3.947,3.888,7.604,6.483,11.021c0.265,0.35,0.576,0.678,0.507,1.172c-0.177,0.498-0.569,0.543-1.012,0.479
		C29.455,102.771,29.338,102.697,29.239,102.598z"/>
	<path fill-rule="evenodd" clip-rule="evenodd" fill="#4CE5E2" d="M36.439,32.516c-0.408-0.281-0.681-0.09-1.044,0.176
		c-1.177,0.86-2.113,1.994-3.21,2.942c-0.067-0.07-0.134-0.141-0.201-0.211c1.586-1.588,3.098-3.259,4.773-4.748
		c3.283-2.917,6.919-5.37,10.851-7.313c5.196-2.567,10.65-4.325,16.446-5.059c3.42-0.433,6.844-0.612,10.249-0.385
		c8.426,0.562,16.276,3.059,23.54,7.435c4.271,2.573,8.045,5.718,11.429,9.343c1.243,1.333,2.336,2.81,3.449,4.258
		c0.338,0.439,0.631,0.821,1.238,0.76c0.677,0.493,0.938,1.297,1.44,1.92c-0.653,0.851-0.769-0.024-0.99-0.34
		c-0.298-0.424-0.416-1.089-1.17-0.62c-0.638,0.012-0.854-0.528-1.141-0.924c-4.212-5.818-9.44-10.524-15.649-14.107
		c-6.313-3.644-13.103-5.87-20.393-6.509c-5.844-0.513-11.631-0.222-17.359,1.069c1.584-0.34,3.171-0.679,4.782-0.881
		c0.305-0.039,0.789-0.353,0.855,0.228c0.054,0.472-0.439,0.48-0.78,0.554c-0.895,0.192-1.823,0.25-2.661,0.667
		c-1.276,0.608-2.69,0.719-4.029,1.109c-5.451,1.587-10.53,3.94-15.214,7.145c-1.497,0.877-2.792,2.035-4.203,3.032
		C37.141,32.274,36.915,32.672,36.439,32.516z"/>
	<path fill-rule="evenodd" clip-rule="evenodd" fill="#49E7E1" d="M60.679,20.516c1.076-0.589,2.332-0.527,3.46-0.947
		c-2.166-0.073-4.213,0.67-6.34,0.871c1.842-0.745,3.8-0.992,5.726-1.338c3.669-0.659,7.397-0.693,11.088-0.462
		c5.589,0.35,10.985,1.68,16.174,3.837c7.162,2.979,13.251,7.46,18.455,13.158c1.442,1.58,2.671,3.355,3.997,5.041
		c0,0.081,0,0.16,0,0.24c-0.026,0.241-0.056,0.48-0.352,0.549c-0.689-0.19-0.951-0.825-1.317-1.325
		c-5.084-6.931-11.474-12.278-19.255-15.951c-3.741-1.766-7.656-2.994-11.718-3.742c-0.438-0.081-0.972-0.732-1.514,0.181
		c-0.255,0.43-1.149-0.22-1.68-0.203c0.51,0.379,1.604-0.145,1.801,1.01c-1.238,0.704-2.342,0.115-3.459-0.356
		c-1.039-0.947-2.398-0.828-3.61-0.882c-3.378-0.152-6.77-0.201-10.106,0.56C61.561,20.862,61.074,20.902,60.679,20.516z"/>
	<path fill-rule="evenodd" clip-rule="evenodd" fill="#43DFDA" d="M114.919,43.077c0.591-0.463,0.632,0.155,0.806,0.433
		c0.33,0.529,0.473,1.192,1.114,1.487c0.207,0.492-0.081,0.901-0.221,1.335c-0.289,0.475-0.238,1.187-0.946,1.374
		c-0.908-0.651-1.12-1.74-1.651-2.628c-0.023-0.117-0.027-0.236-0.019-0.354C114.221,44.126,114.284,43.441,114.919,43.077z"/>
	<path fill-rule="evenodd" clip-rule="evenodd" fill="#43D8D6" d="M116.359,46.196c0.16-0.4,0.319-0.8,0.479-1.2
		c0.08-0.081,0.16-0.161,0.24-0.241c0.902,0.662,0.919,1.888,1.68,2.64c0.158,0.289,0.04,0.566-0.031,0.847
		c-0.248,0.43-0.25,1.076-0.96,1.104C117.206,48.338,116.606,47.346,116.359,46.196z"/>
	<path fill-rule="evenodd" clip-rule="evenodd" fill="#45E4DD" d="M114.919,43.077c-0.24,0.56-0.479,1.12-0.72,1.679
		c-1.023-0.272-1.081-1.339-1.644-1.99c-0.132-0.258-0.236-0.523-0.17-0.822c0.096-0.304,0.346-0.435,0.613-0.547
		c0.005-0.198,0.047-0.376,0.24-0.48C113.923,41.54,114.149,42.52,114.919,43.077z"/>
	<path fill-rule="evenodd" clip-rule="evenodd" fill="#43D0D0" d="M118.52,48.116c0.08-0.24,0.159-0.48,0.239-0.72
		c0.171-0.506,0.342-1.012,0.513-1.518c0.46,0.843,0.921,1.687,1.381,2.531c0.026,0.397,0.011,0.805,0.306,1.129
		c-0.05,0.481-0.072,0.972-0.513,1.298c-0.657,0.163-0.821-0.365-1.018-0.776C119.121,49.415,118.865,48.745,118.52,48.116z"/>
	<path fill-rule="evenodd" clip-rule="evenodd" fill="#54E0E2" d="M29.239,102.598c0.08,0,0.16,0,0.24,0
		c0.846,0.891,1.939,1.602,2.153,2.955c-0.333,0.271-0.736,0.359-1.144,0.434c-0.465,0.021-0.919,0.178-1.392,0.121
		c-0.174-0.043-0.323-0.135-0.459-0.248c-0.736-0.84-1.707-1.527-1.841-2.768c0.415-0.006,0.829-0.01,1.244-0.016
		C28.382,102.775,28.928,102.979,29.239,102.598z"/>
	<path fill-rule="evenodd" clip-rule="evenodd" fill="#2C28BE" d="M26.795,103.092c0.646,0.879,1.292,1.758,1.937,2.637
		c7.68,10.873,18.128,17.568,31.028,20.574c5.334,1.244,10.75,1.678,16.195,1.381c7.169-0.389,14.073-2.035,20.625-5.012
		c8.468-3.848,15.537-9.473,21.092-16.939c5.17-6.951,8.28-14.746,9.184-23.377c0.793-7.574-0.083-14.991-2.332-22.25
		c-0.241-0.78-0.322-1.633-0.848-2.315c-0.12-0.023-0.213-0.083-0.279-0.186c-0.49-1.368-0.697-2.818-1.241-4.168
		c-0.1-0.474-0.415-0.938-0.061-1.43c0.404-0.278,0.371,0.181,0.429,0.307c2.305,5.014,3.938,10.224,4.918,15.67
		c0.786,4.36,0.855,8.743,0.619,13.108c-0.257,4.775-1.445,9.408-3.203,13.885c-1.999,5.094-4.769,9.734-8.249,13.92
		c-4.426,5.324-9.745,9.594-15.841,12.91c-5.361,2.916-11.018,4.986-17.015,6.074c-2.416,0.439-4.845,0.83-7.321,0.914
		c-1.467,0.049-2.936,0.262-4.409,0.195c-6.09-0.273-12.093-1.01-17.911-3.002c-6.767-2.316-12.768-5.861-18.172-10.533
		c-4.194-3.623-7.45-7.939-10.107-12.752c-0.167-0.301-0.6-0.613-0.225-1.057C26.003,102.129,26.399,102.609,26.795,103.092z"/>
	<path fill-rule="evenodd" clip-rule="evenodd" fill="#3CC6C6" d="M122.095,52.006c0.096,0.452,0.19,0.905,0.285,1.358
		c-0.001,0.621,0.066,1.273-0.706,1.541c-1.109-0.857-1.09-2.256-1.63-3.387c-0.064-0.355,0.094-0.596,0.394-0.763
		c0.116-0.431,0.145-0.898,0.521-1.217C121.337,50.361,121.716,51.184,122.095,52.006z"/>
	<path fill-rule="evenodd" clip-rule="evenodd" fill="#4DE5E2" d="M30.439,102.357c-0.961-1.402-1.941-2.791-2.881-4.207
		c-4.139-6.236-6.677-13.096-7.905-20.455c-0.64-3.834-0.661-7.715-0.452-11.568c0.254-4.687,1.221-9.271,2.869-13.824
		c0.36,0.495,0.059,0.819-0.019,1.151c-0.091,0.387-0.199,0.77-0.293,1.156c-0.217,0.887-0.47,1.768-0.628,2.666
		c-0.073,0.415-0.309,0.999,0.428,1.161c0.597,0.765,0.288,1.657,0.34,2.496c0.026,0.428-0.006,0.861,0,1.292
		c0.018,0.34,0.083,0.678,0.059,1.021c-0.212,0.618,0.181,1.567-0.923,1.702c-0.655-0.533-0.222-1.223-0.271-1.844
		c-1.036,10.254,0.568,20.049,5.193,29.292c1.451,2.9,3.191,5.633,5.203,8.186c0.386,0.49,0.906,0.936,0.799,1.67
		C31.487,102.771,30.976,102.758,30.439,102.357z"/>
	<path fill-rule="evenodd" clip-rule="evenodd" fill="#51EAE5" d="M21.56,62.516c0-1.36,0-2.72,0-4.08
		c0.32-1.608,0.633-3.219,0.966-4.824c0.086-0.415,0.146-0.853,0.474-1.176c1.274-2.996,2.337-6.08,4.023-8.897
		c1.355-2.266,2.792-4.453,4.701-6.296c0.348-0.335,0.656-0.695,0.876-1.126c1.057-1.438,2.612-2.345,3.84-3.6
		c1.666-1.219,3.148-2.696,5.04-3.6c0.165,0.884-0.586,1.159-1.096,1.517c-1.305,0.916-2.581,1.855-3.664,3.038
		c-0.269,0.294-0.571,0.557-0.671,0.966c-0.62,0.984-1.347,1.861-2.278,2.584c-1.043,0.811-1.906,1.81-2.677,2.887
		c-3.207,4.48-5.718,9.305-7.306,14.596c-0.287,0.957-0.28,1.979-0.681,2.908c-0.495,0.825-0.471,1.742-0.505,2.658
		C22.566,61.003,22.473,61.942,21.56,62.516z"/>
	<path fill-rule="evenodd" clip-rule="evenodd" fill="#56E7E4" d="M32.599,36.116c0.081,0.551-0.275,0.874-0.616,1.22
		c-3.546,3.606-5.917,7.931-7.739,12.601c-0.336,0.863-0.508,1.828-1.246,2.499c0.188-1.527,0.894-2.885,1.476-4.269
		c1.802-4.282,4.014-8.315,7.48-11.523C32.159,36.455,32.384,36.292,32.599,36.116z"/>
	<path fill-rule="evenodd" clip-rule="evenodd" fill="#4DE2E0" d="M30.439,102.357c0.48-0.078,1.019,0.195,1.439-0.24
		c0.097-0.076,0.203-0.096,0.32-0.059c0.799,0.947,1.874,1.664,2.374,2.861c-0.32,0.461-0.873,0.359-1.307,0.545
		c-0.542,0.066-1.082,0.434-1.626,0.012c-0.638-1.021-1.683-1.738-2.16-2.879C29.811,102.563,30.187,102.709,30.439,102.357z"/>
	<path fill-rule="evenodd" clip-rule="evenodd" fill="#4FE9E1" d="M35.959,34.196c0.445-1.184,1.512-1.811,2.371-2.619
		c1.001-0.942,2.445-1.364,3.149-2.661c2.291-1.942,4.963-3.261,7.656-4.498c3.604-1.656,7.341-2.975,11.264-3.696
		c0.103-0.019,0.188-0.135,0.281-0.206c3.619-0.538,7.251-0.921,10.916-0.706c1.34,0.079,2.672,0.307,4.006,0.481
		c0.574,0.075,0.292,0.424,0.198,0.705c-1.808,0.258-3.581-0.222-5.375-0.246c-0.739-0.4-1.441-0.416-2.277-0.127
		c-1.403,0.482-2.92,0.22-4.386,0.428c-6.004,0.85-11.658,2.673-16.874,5.793c-0.719,0.43-1.423,0.886-2.071,1.42
		c-1.326,0.694-2.499,1.615-3.686,2.513c-0.38,0.288-0.77,0.538-1.21,0.71c-1.229,0.71-2.265,1.67-3.342,2.579
		C36.389,34.191,36.201,34.326,35.959,34.196z"/>
	<path fill-rule="evenodd" clip-rule="evenodd" fill="#46E7DF" d="M112.999,41.396c-0.091,0.229-0.251,0.389-0.479,0.48
		c-0.728,0.078-0.914-0.569-1.211-0.982c-3.37-4.674-7.398-8.684-12.113-11.989c-4.79-3.357-10.048-5.716-15.71-7.181
		c-0.992-0.257-1.926,0.452-2.914,0.141c-0.538-0.058-1.056-0.163-1.412-0.629c-0.607-0.567-1.53-0.35-2.188-0.86
		c0.744-0.354,1.403,0.27,2.121,0.114c-0.011-0.429-0.613-0.197-0.661-0.697c1.395,0.038,2.709,0.43,4.036,0.721
		c5.825,1.276,11.213,3.606,16.19,6.868c5.491,3.599,10.063,8.158,13.853,13.512C112.645,41.082,112.835,41.229,112.999,41.396z"/>
	<path fill-rule="evenodd" clip-rule="evenodd" fill="#47ECE2" d="M79.159,21.236c0.48,0.16,0.96,0.32,1.44,0.48
		c0.291-0.103,0.462,0.047,0.594,0.28c0.076,0.342-0.052,0.59-0.354,0.755c-0.782,0.042-1.382-0.507-2.106-0.659
		c-0.198-0.042-0.175-0.05-0.314,0.253c-0.184,0.398-0.566,0.34-0.916,0.346c-1.229-0.185-2.481-0.203-3.693-0.507
		c-1.201-0.354-2.429-0.431-3.671-0.37c-0.44,0.022-0.879-0.001-1.298-0.165c-0.539-0.504-1.437-0.101-2.134-0.983
		c1.34,0.149,2.377-0.697,3.572-0.15c1.854-0.009,3.712-0.055,5.52,0.479c0.719,0.146,1.434,0.315,2.157,0.431
		C78.363,21.492,78.811,21.62,79.159,21.236z"/>
	<path fill-rule="evenodd" clip-rule="evenodd" fill="#4CE5E2" d="M65.881,19.435c-0.497,0.15-0.796,0.167-1.18,0.013
		C65.074,19.245,65.383,19.304,65.881,19.435z"/>
	<path fill-rule="evenodd" clip-rule="evenodd" fill="#3EE8DD" d="M112.759,42.596c0.531,0.686,0.803,1.545,1.44,2.16
		c0,0.08,0,0.16,0,0.24c-0.14,0.159-0.038,0.448-0.294,0.546c-0.781-0.075-0.914-0.791-1.255-1.291
		c-0.239-0.35-0.396-0.775-0.95-0.651c-0.992-0.79-1.513-1.945-2.24-2.935c-4.334-5.898-9.803-10.46-16.254-13.854
		c-2.153-1.133-4.423-2.021-6.731-2.817c-0.89-0.307-1.742,0.409-2.567-0.117c-0.462-0.254-0.968-0.457-1.212-0.98
		c0.678-0.646,1.411-0.963,2.391-0.669c6.349,1.906,12.132,4.873,17.226,9.135c3.597,3.01,6.804,6.384,9.385,10.319
		C111.971,42.099,112.306,42.406,112.759,42.596z"/>
	<path fill-rule="evenodd" clip-rule="evenodd" fill="#3ED9D4" d="M116.359,46.196c0.628,0.972,1.279,1.933,1.44,3.121
		c0.357,0.416,0.134,0.811-0.04,1.208c-0.165,0.258-0.313,0.539-0.684,0.534c-0.886-0.778-0.926-2.008-1.559-2.922
		c-0.039-0.187-0.016-0.358,0.122-0.501C116.123,47.278,116.07,46.652,116.359,46.196z"/>
	<path fill-rule="evenodd" clip-rule="evenodd" fill="#3BE1D7" d="M115.64,47.636c0,0.16,0,0.32,0,0.48
		c0.052,0.583-0.105,1.048-0.708,1.265c-0.9-0.685-1.121-1.771-1.601-2.706c-0.06-0.54,0.115-0.958,0.628-1.2
		c0.005-0.198,0.047-0.377,0.24-0.48C114.68,45.876,115.159,46.756,115.64,47.636z"/>
	<path fill-rule="evenodd" clip-rule="evenodd" fill="#3BD2CD" d="M117.559,50.516c0.08-0.4,0.161-0.799,0.241-1.199
		c0.384-0.313,0.478-0.802,0.72-1.201c0.695,0.135,0.701,0.791,0.941,1.263c0.26,0.508,0.258,1.195,0.977,1.376
		c-0.08,0.24-0.159,0.48-0.239,0.72c0.065,0.654-0.367,1.144-0.56,1.715c-0.104,0.21-0.222,0.41-0.454,0.506
		C118.004,52.963,117.853,51.703,117.559,50.516z"/>
	<path fill-rule="evenodd" clip-rule="evenodd" fill="#42E8DE" d="M112.759,42.596c-0.443,0.113-0.757,0.121-1.067-0.387
		c-1.688-2.758-3.771-5.233-6.06-7.483c-3.061-3.01-6.422-5.665-10.203-7.78c-3.215-1.798-6.562-3.229-10.071-4.311
		c-0.677-0.208-0.666-0.196-1.406,0.22c-0.37,0.208-0.817-0.478-1.191,0.062c-0.129,0.219-0.332,0.307-0.572,0.33
		c-0.114-0.014-0.207-0.067-0.278-0.158c-0.175-0.45-0.48-0.807-0.83-1.131c-0.16-0.08-0.319-0.16-0.479-0.24
		c1.762-0.54,3.454-0.26,5.171,0.304c6.313,2.076,12.111,5.053,17.171,9.419c3.457,2.983,6.558,6.273,9.147,10.039
		c0.107,0.157,0.285,0.266,0.431,0.397C112.6,42.116,112.679,42.356,112.759,42.596z"/>
	<path fill-rule="evenodd" clip-rule="evenodd" fill="#2524B4" d="M123.789,57.738c0.124-0.513,0.188-0.274,0.293,0.014
		c1.193,3.302,1.968,6.706,2.619,10.152c0.745,3.947,0.81,7.926,0.678,11.904c-0.183,5.502-1.519,10.768-3.591,15.854
		c-1.759,4.316-4.167,8.266-7.069,11.881c-2.928,3.645-6.312,6.863-10.094,9.635c-4.898,3.588-10.249,6.307-16.038,8.123
		c-4.178,1.313-8.44,2.184-12.828,2.543c-2.518,0.207-5.028,0.264-7.528,0.162c-6.763-0.277-13.312-1.619-19.582-4.256
		c-7.296-3.068-13.551-7.576-18.829-13.443c-1.166-1.297-2.135-2.771-3.188-4.17c-0.107-0.143-0.049-0.299,0.1-0.408
		c0.108,0.074,0.216,0.148,0.324,0.225c1.056,0.699,1.866,1.66,2.721,2.572c0.803,0.961,1.916,1.617,2.617,2.68
		c0.053,0.105,0.099,0.213,0.146,0.32c2.169,2.621,4.902,4.574,7.699,6.426c7.237,4.789,15.236,7.535,23.833,8.479
		c8.441,0.928,16.734,0.207,24.836-2.502c6.761-2.26,12.903-5.609,18.272-10.273c4.579-3.979,8.472-8.551,11.403-13.928
		c3.167-5.809,5.08-11.982,5.713-18.539c0.545-5.646-0.053-11.233-1.266-16.759c-0.103-0.465-0.281-0.92-0.236-1.41
		c-0.175,0.028,0.458-0.519-0.138-0.193c-0.141-0.014-0.242-0.084-0.307-0.209c-0.28-1.241-0.47-2.5-0.731-3.746
		C123.536,58.477,123.488,58.079,123.789,57.738z"/>
	<path fill-rule="evenodd" clip-rule="evenodd" fill="#4CDEDC" d="M31.639,105.477c0.56-0.08,1.12-0.16,1.68-0.24
		c0.905,0.436,1.426,1.295,2.131,1.949c0.206,0.191,0.238,0.488,0.056,0.756c-0.292,0.232-0.659,0.27-0.998,0.379
		c-0.523,0.096-1.03,0.328-1.582,0.205c-0.979-0.803-2.123-1.461-2.487-2.809C30.839,105.637,31.239,105.557,31.639,105.477z"/>
	<path fill-rule="evenodd" clip-rule="evenodd" fill="#51DBDE" d="M30.439,105.717c0.8,0.881,1.6,1.76,2.4,2.641
		c-0.364,0.404-0.792,0.516-1.294,0.275c-0.909-0.82-1.772-1.682-2.488-2.68C29.514,105.85,29.952,105.639,30.439,105.717z"/>
	<path fill-rule="evenodd" clip-rule="evenodd" fill="#33BDBC" d="M123.789,57.738c0.136,1.671,0.791,3.263,0.753,4.96
		c0.242,1.095-0.035,1.718-1.029,2.314c-0.523-0.199-0.468-0.682-0.53-1.102c-0.168-1.14-0.287-2.288-0.549-3.413
		c-0.063-0.325-0.009-0.64,0.086-0.951c0.279-0.672,0.447-1.409,1.066-1.89C123.655,57.681,123.724,57.707,123.789,57.738z"/>
	<path fill-rule="evenodd" clip-rule="evenodd" fill="#35BFBF" d="M123.586,57.658c-0.249,0.659-0.498,1.319-0.747,1.978
		c-0.646-0.063-0.649-0.617-0.742-1.046c-0.219-1.007-0.511-1.997-0.697-3.012c-0.015-0.278,0.018-0.541,0.241-0.741
		c0.49-0.368,0.432-1.012,0.739-1.473C123.005,54.733,123.361,56.177,123.586,57.658z"/>
	<path fill-rule="evenodd" clip-rule="evenodd" fill="#37C9C5" d="M121.641,54.837c-0.001,0.24-0.001,0.479-0.002,0.719
		c-0.168,0.583-0.183,1.249-0.854,1.555c-0.267,0.013-0.487-0.11-0.563-0.345c-0.375-1.176-1.021-2.3-0.742-3.611
		c-0.023-0.673,0.431-1.141,0.719-1.68C120.896,52.503,121.024,53.775,121.641,54.837z"/>
	<path fill-rule="evenodd" clip-rule="evenodd" fill="#49E6E1" d="M32.119,102.117c-0.08,0-0.16,0-0.24,0
		c-2.585-3.35-4.973-6.83-6.762-10.676c-2.346-5.043-3.955-10.303-4.536-15.861c-0.235-2.256-0.563-4.506-0.444-6.774
		c0.102-1.933,0.153-3.878,0.543-6.037c0.163,0.879,0.281,1.513,0.398,2.147c0.624,0.327,0.586,0.931,0.631,1.502
		c-0.603,9.572,1.468,18.543,6.083,26.936c1.406,2.557,3.056,4.953,4.891,7.225c0.314,0.391,0.761,0.736,0.69,1.338
		C33.025,102.416,32.595,102.408,32.119,102.117z"/>
	<path fill-rule="evenodd" clip-rule="evenodd" fill="#4EEAE3" d="M21.56,62.516c0.523-1.063,0.835-2.157,0.738-3.371
		c-0.056-0.702,0.018-1.439,0.701-1.909c0.364,0.226,0.483,0.617,0.661,0.97c0.213,0.646,0.449,1.283,0.698,1.917
		c0.041,0.173,0.042,0.347,0.015,0.521c-0.136,0.442-0.053,0.986-0.484,1.296c-0.778,0.56-0.789,0.545-0.748,1.876
		c-0.263,0.447-0.185,1.344-0.818,1.261c-0.678-0.09-0.505-0.959-0.634-1.516c-0.028-0.12,0.039-0.229,0.11-0.326
		C21.719,62.996,21.639,62.756,21.56,62.516z"/>
	<path fill-rule="evenodd" clip-rule="evenodd" fill="#4AE9E0" d="M21.799,63.236c0.01,0.606,0.232,1.145,0.581,1.827
		c0.176-0.553,0.136-1.1,0.619-1.347c0.535-0.13,0.663,0.322,0.859,0.632c0.238,0.376,0.548,0.668,0.895,0.933
		c0.169,0.171,0.283,0.368,0.281,0.618c-0.105,0.522-0.209,1.045-0.56,1.475c-0.481,0.22-0.79-0.091-1.114-0.357
		c-0.296-0.246-0.491-0.577-0.73-0.924c0.101,0.552,0.027,1.125-0.499,1.195c-0.498,0.066-0.652-0.446-0.572-0.932
		c-0.16-0.48-0.32-0.96-0.48-1.44C21.907,64.608,21.263,63.669,21.799,63.236z"/>
	<path fill-rule="evenodd" clip-rule="evenodd" fill="#51EEE7" d="M23.479,58.196c-0.313-0.244-0.441-0.579-0.48-0.959
		c0.188-2.62,1.187-5.008,2.151-7.398c1.572-3.896,3.729-7.464,6.251-10.811c0.595-0.789,1.261-1.582,2.055-2.148
		c1.037-0.739,1.708-1.754,2.503-2.684c0.16-0.08,0.32-0.16,0.48-0.24c0.143-0.131,0.299-0.151,0.47-0.06
		c0.071,0.749-0.684,0.914-0.933,1.331c0.67-0.146,0.824-1.711,2.021-0.813c-0.001,0.51-0.404,0.729-0.724,1.017
		c-1.497,1.348-2.954,2.736-4.244,4.289c-3.198,3.761-5.799,7.858-7.263,12.625c-0.267,0.869-0.112,1.848-0.707,2.621
		c-0.431,0.714-0.717,1.49-0.968,2.281C23.975,57.617,23.933,58.04,23.479,58.196z"/>
	<path fill-rule="evenodd" clip-rule="evenodd" fill="#45E4DD" d="M32.119,102.117c0.421,0.025,0.83-0.012,1.2-0.24
		c0.304-0.332,0.697-0.438,1.128-0.451c0.121,0.008,0.237,0.037,0.349,0.084c0.787,0.551,1.397,1.289,2.062,1.969
		c0.242,0.248,0.513,0.529,0.295,0.941c-0.69,0.533-1.49,0.602-2.319,0.549c-0.121-0.047-0.225-0.119-0.314-0.211
		C33.544,104.035,32.742,103.158,32.119,102.117z"/>
	<path fill-rule="evenodd" clip-rule="evenodd" fill="#47DEDB" d="M34.519,104.758c0.08,0,0.16,0,0.24,0
		c0.69,0.594,1.322,1.25,1.94,1.916c0.264,0.285,0.739,0.555,0.383,1.084c-0.522,0.213-1.051,0.326-1.604,0.119
		c-0.377-1.16-1.686-1.559-2.16-2.641C33.6,104.779,34.238,105.213,34.519,104.758z"/>
	<path fill-rule="evenodd" clip-rule="evenodd" fill="#4AECE3" d="M70.279,20.516c-1.041,0.096-2.064,0.345-3.209,0.243
		c0.55,0.581,1.497-0.264,1.77,0.717c-1.545,0.573-3.194,0.543-4.792,0.777c-3.367,0.492-6.68,1.169-9.887,2.318
		c-2.369,0.704-4.667,1.568-6.798,2.856c-0.83,0.502-1.696,1.042-2.763,0.769c1.213-1.459,2.969-2.127,4.566-2.965
		c4.618-2.424,9.571-3.791,14.738-4.532c1.629-0.234,3.337,0.212,4.915-0.616C69.225,19.87,69.949,19.844,70.279,20.516z"/>
	<path fill-rule="evenodd" clip-rule="evenodd" fill="#4BEEE6" d="M44.599,28.196c2.41-0.575,4.314-2.273,6.667-2.989
		c0.899-0.274,1.757-0.687,2.693-0.851c-0.089,0.701-0.643,0.915-1.193,1.119c-1.084,0.401-2.051,0.999-2.946,1.721
		c-1.007,0.788-2.312,1.132-3.174,2.136c-0.588,0.351-1.148,0.75-1.791,1.003c-1.901,0.343-3.136,1.819-4.691,2.749
		c-0.759,0.454-1.223,1.411-2.284,1.353c-0.971-0.438-1.214,0.735-2.139,0.96c0.477-0.583,0.828-1.011,1.179-1.44
		c0.706-1.157,1.953-1.724,2.88-2.64c1.181-0.835,2.365-1.666,3.542-2.508C43.728,28.531,44.1,28.237,44.599,28.196z"/>
	<path fill-rule="evenodd" clip-rule="evenodd" fill="#51EAE5" d="M39.799,31.316c-0.75,1.108-1.93,1.75-2.88,2.64
		c-0.16,0-0.32,0-0.48,0C37.4,32.874,38.497,31.964,39.799,31.316z"/>
	<path fill-rule="evenodd" clip-rule="evenodd" fill="#42F0E5" d="M73.879,21.956c1.28,0.16,2.561,0.32,3.84,0.48
		c1.76,0.503,3.308,1.331,4.52,2.755c1.274,1.498,1.375,3.108,0.229,4.708c-0.855,1.196-2.05,1.889-3.422,2.289
		c-1.581,0.46-3.211,0.645-4.854,0.638c-2.521-0.01-5.021,0.234-7.515,0.574c-3.749,0.512-7.146,2.041-10.396,3.856
		c-4.763,2.66-9.185,5.806-12.943,9.81c-0.328,0.349-0.688,0.671-0.899,1.114c-1.027,1.003-2.409,1.428-3.587,2.186
		c-0.166,0.106-0.381,0.047-0.541-0.101c-0.06-0.631,0.381-1.028,0.708-1.466c2.703-3.627,6.077-6.547,9.764-9.111
		c3.941-2.74,8.055-5.172,12.569-6.893c2.874-1.096,5.838-1.677,8.879-1.757c1.957-0.051,3.896-0.291,5.854-0.312
		c1.516-0.017,2.893-0.526,3.896-1.789c0.961-1.21,0.944-2.177-0.112-3.292c-0.999-1.054-2.287-1.591-3.639-1.979
		c-2.316-0.663-4.705-0.814-7.098-0.917c-0.583-0.025-1.211,0.143-1.71-0.335c0.022-0.521,0.461-0.527,0.778-0.534
		C70.094,21.84,71.993,21.492,73.879,21.956z"/>
	<path fill-rule="evenodd" clip-rule="evenodd" fill="#40EDE0" d="M42.229,48.209c-0.068-0.413,0.189-0.665,0.443-0.927
		c5.945-6.121,12.811-10.825,20.951-13.538c1.963-0.654,4.035-0.77,6.084-1.016c2.918-0.35,5.892,0.067,8.771-0.696
		c1.576-0.417,2.985-1.076,3.895-2.544c0.922-1.489,0.781-2.818-0.39-4.128c-0.983-1.101-2.157-1.88-3.518-2.396
		c-0.308-0.117-0.608-0.192-0.746-0.527c0.154-0.018,0.418,0.006,0.443-0.06c0.151-0.401-0.479-0.176-0.374-0.627
		c1.122-0.205,2.059,0.469,3.051,0.927c0.538-0.183,0.866,0.155,1.2,0.48v0c2.049,1.064,3.226,2.672,3.198,5.056
		c-0.026,2.225-1.524,3.431-3.158,4.487c-1.262,0.816-2.735,1.154-4.215,1.255c-1.354,0.093-2.699,0.34-4.057,0.312
		c-6.915-0.141-13.236,1.715-19.061,5.442c-3.552,2.273-6.833,4.857-9.81,7.837C44.068,47.901,43.252,48.481,42.229,48.209z"/>
	<path fill-rule="evenodd" clip-rule="evenodd" fill="#46EFE5" d="M73.879,21.956c-2.048-0.169-4.071,0.31-6.116,0.243
		c-0.034-0.001-0.092,0.019-0.099,0.041c-0.02,0.062-0.018,0.131-0.025,0.197c-0.079,0.652-0.622,0.528-1.012,0.554
		c-5.276,0.355-10.323,1.635-15.19,3.679c-0.557,0.234-1.113,0.7-1.797,0.327c0.94-0.747,1.903-1.427,3.093-1.769
		c0.455-0.131,0.82-0.572,1.227-0.871c2.562-1.146,5.294-1.697,8.034-2.126c2.264-0.355,4.522-0.889,6.847-0.754
		C70.526,21.563,72.256,21.197,73.879,21.956z"/>
	<path fill-rule="evenodd" clip-rule="evenodd" fill="#46E7DF" d="M82.039,23.156c-0.399-0.16-0.8-0.32-1.2-0.48
		c0.08-0.24,0.16-0.479,0.24-0.72C81.819,22.02,82.137,22.421,82.039,23.156z"/>
	<path fill-rule="evenodd" clip-rule="evenodd" fill="#3AEADC" d="M83.959,23.636c1.28,0.038,2.524-0.022,3.804,0.463
		c4.994,1.894,9.569,4.464,13.737,7.812c4.107,3.3,7.451,7.246,10.299,11.645c0.252,0.358,0.062,0.585-0.231,0.782
		c-0.546,0.018-0.729-0.42-0.961-0.782c-4.444-6.961-10.408-12.272-17.669-16.136c-1.999-1.064-4.104-1.928-6.444-2.707
		c1.149,2.14,1.483,4.176,0.229,6.173c-1.072,1.706-2.617,2.902-4.506,3.606c-1.813,0.676-3.72,0.874-5.642,0.978
		c-2.905,0.157-5.813,0.287-8.705,0.643c-5.308,0.653-9.885,3.028-14.22,5.971c-1.718,1.167-3.383,2.41-4.909,3.83
		c-0.294,0.273-0.654,0.476-0.519,0.967c-0.48,0.477-1.049,0.375-1.622,0.256c-0.799-0.592-0.078-0.994,0.242-1.316
		c1.353-1.361,2.859-2.555,4.41-3.677c3.014-2.183,6.189-4.088,9.627-5.557c2.681-1.145,5.48-1.673,8.347-1.995
		c3.289-0.37,6.612-0.248,9.895-0.722c2.088-0.302,3.912-1.107,5.338-2.694c1.638-1.825,1.751-3.738,0.44-5.813
		C84.553,24.811,83.869,24.428,83.959,23.636z"/>
	<path fill-rule="evenodd" clip-rule="evenodd" fill="#40EBDE" d="M83.959,23.636c0.955,1.131,1.934,2.278,2.135,3.8
		c0.297,2.246-0.935,3.787-2.586,5.06c-1.85,1.425-4.058,1.77-6.293,1.93c-2.854,0.205-5.722,0.239-8.566,0.524
		c-2.892,0.29-5.711,0.976-8.374,2.213c-4.916,2.285-9.359,5.269-13.31,8.978c-0.188,0.177-0.763,0.292-0.4,0.796
		c-0.437,0.72-1.04,0.74-1.726,0.41c3.367-3.749,7.418-6.615,11.778-9.073c3.067-1.729,6.261-3.148,9.776-3.697
		c2.476-0.387,4.966-0.558,7.474-0.662c2.284-0.095,4.603-0.112,6.826-0.892c1.504-0.528,2.651-1.488,3.589-2.688
		c1.336-1.711,0.691-4.774-1.232-6.182c-0.393-0.287-0.77-0.566-1.01-0.996c0.24-0.08,0.48-0.16,0.721-0.24
		C83.159,23.156,83.56,23.396,83.959,23.636z"/>
	<path fill-rule="evenodd" clip-rule="evenodd" fill="#3AE6DA" d="M111.559,44.276c0.08-0.24,0.16-0.48,0.24-0.72
		c0.271-0.263,0.44-0.461,0.775,0.037c0.432,0.643,0.598,1.5,1.385,1.883c-0.16,0.4-0.32,0.8-0.479,1.2
		c-0.042,0.31-0.127,0.575-0.525,0.533c-0.772-0.652-0.988-1.65-1.523-2.452C111.394,44.575,111.416,44.409,111.559,44.276z"/>
	<path fill-rule="evenodd" clip-rule="evenodd" fill="#34DCD0" d="M114.919,49.316c0.24-0.4,0.48-0.8,0.721-1.2
		c0.915,0.743,0.921,1.94,1.439,2.881c0.359,0.416,0.13,0.816-0.029,1.22c-0.379,0.521-0.409,1.315-1.188,1.527
		c-0.791-0.375-0.712-1.228-1.01-1.87c-0.195-0.42-0.409-0.839-0.521-1.296C114.314,50.059,114.488,49.627,114.919,49.316z"/>
	<path fill-rule="evenodd" clip-rule="evenodd" fill="#35D4CA" d="M116.839,52.196c0.08-0.4,0.16-0.799,0.24-1.199
		c0.16-0.161,0.319-0.321,0.479-0.482c0.789,0.917,0.736,2.287,1.68,3.12c0.185,0.711-0.361,1.186-0.57,1.77
		c-0.181,0.243-0.333,0.538-0.724,0.412C117.196,54.727,116.678,53.565,116.839,52.196z"/>
	<path fill-rule="evenodd" clip-rule="evenodd" fill="#32E3D4" d="M114.919,49.316c-0.159,0.4-0.319,0.8-0.479,1.2
		c0.139,0.562-0.17,1.005-0.404,1.458c-1.248,2.413-2.617,4.754-4.122,7.016c-0.289,0.434-0.578,0.892-1.226,0.755
		c-0.725-0.879-1.258-1.858-1.548-2.965c1.935-2.997,3.837-6.013,5.462-9.195c0.092-0.178,0.214-0.333,0.397-0.429
		c0.16-0.16,0.32-0.32,0.48-0.48C114.134,47.46,114.418,48.447,114.919,49.316z"/>
	<path fill-rule="evenodd" clip-rule="evenodd" fill="#33CBC2" d="M118.519,55.316c0.077-0.629,0.492-1.115,0.72-1.68
		c0.006-0.197,0.048-0.376,0.241-0.48c0.261,0.99,0.497,1.988,0.798,2.966c0.104,0.337,0.078,0.843,0.641,0.874
		c0.149,0.844-0.474,1.407-0.759,2.095c-0.157,0.196-0.312,0.399-0.608,0.351C118.851,58.155,118.459,56.792,118.519,55.316z"/>
	<path fill-rule="evenodd" clip-rule="evenodd" fill="#1E20AC" d="M124.746,62.787c0.007-0.04,0.008-0.081,0.021-0.118
		c0.038-0.105,0.167-0.23,0.199-0.083c0.347,1.59,0.673,3.185,0.985,4.782c0.581,2.969,0.879,5.997,0.894,8.995
		c0.015,2.879-0.209,5.787-0.725,8.656c-0.767,4.264-2.046,8.365-3.901,12.256c-1.785,3.744-3.989,7.244-6.719,10.412
		c-3.56,4.127-7.52,7.77-12.137,10.688c-4.785,3.021-9.909,5.232-15.358,6.775c-6.253,1.77-12.635,2.293-19.052,1.879
		c-9.354-0.604-18.142-3.221-26.112-8.311c-2.966-1.893-5.757-3.994-8.199-6.535c-0.172-0.18-0.636-0.295-0.328-0.721
		c1.27,0.271,1.966,1.389,2.992,2.02c1.19,0.99,2.484,1.83,3.792,2.654c1.295,0.902,2.638,1.725,4.082,2.375
		c1.471,0.859,3.015,1.563,4.605,2.17c5.328,2.199,10.861,3.465,16.612,3.949c8.543,0.719,16.741-0.664,24.647-3.832
		c5.877-2.355,11.125-5.738,15.845-9.986c7.28-6.555,12.353-14.512,15.386-23.779c1.385-4.23,2.107-8.592,2.46-13.045
		c0.254-3.217,0.055-6.379-0.227-9.561C124.457,63.863,124.618,63.327,124.746,62.787z"/>
	<path fill-rule="evenodd" clip-rule="evenodd" fill="#2EBAB7" d="M124.746,62.787c0.156,2.267,0.435,4.533,0.448,6.801
		c0.078,13.618-4.148,25.762-12.94,36.17c-8.534,10.104-19.436,16.316-32.464,18.6c-10.09,1.77-19.944,0.658-29.487-3.096
		c-0.255-0.1-0.487-0.26-0.729-0.395c1.522-0.6,3.093-0.949,4.736-0.938c2.106,1.152,4.451,1.523,6.76,1.949
		c2.345,0.432,4.699,0.979,7.123,0.592c0.436-0.07,0.872,0.076,1.293,0.207c0.384,0.119,0.779,0.271,1.174,0.215
		c3.735-0.541,7.541-0.322,11.252-1.244c3.661-0.91,7.243-1.998,10.673-3.561c4.316-1.967,8.335-4.426,11.947-7.504
		c4.993-4.254,9.188-9.18,12.424-14.912c3.165-5.605,5.074-11.621,6.048-17.961c0.35-2.279,0.295-4.592,0.693-6.868
		c0.302-1.726-0.331-3.403-0.516-5.106c-0.015-0.338,0.104-0.616,0.378-0.821c0.517-0.655,0.923-1.359,0.982-2.217
		C124.609,62.729,124.678,62.759,124.746,62.787z"/>
	<path fill-rule="evenodd" clip-rule="evenodd" fill="#43D0D0" d="M37.144,113.645c-0.943-0.727-1.886-1.453-2.829-2.18
		c-0.017-0.074-0.036-0.146-0.057-0.219c0.542-0.834,1.439-0.689,2.238-0.814c0.356,0.012,0.711-0.154,1.07-0.016
		c0.59,0.762,1.375,1.297,2.134,1.869c0.349,0.262,0.912,0.49,0.485,1.117C39.204,113.902,38.204,114.164,37.144,113.645z"/>
	<path fill-rule="evenodd" clip-rule="evenodd" fill="#49D6D8" d="M36.679,110.756c-0.849-0.041-1.646,0.17-2.421,0.49
		c-0.968-0.803-1.919-1.627-2.712-2.613c0.431-0.092,0.862-0.184,1.294-0.275c0.56-0.082,1.12-0.16,1.679-0.24
		c0.974,0.41,1.499,1.34,2.273,1.982C37.078,110.336,36.961,110.578,36.679,110.756z"/>
	<path fill-rule="evenodd" clip-rule="evenodd" fill="#43D8D6" d="M36.679,110.756c0.311-0.564-0.303-0.605-0.512-0.854
		c-0.522-0.617-1.096-1.193-1.649-1.785c0.253-0.352,0.629-0.207,0.96-0.24c0.524-0.332,1.111-0.223,1.68-0.24
		c0.099-0.078,0.208-0.096,0.328-0.061c0.832,0.465,1.502,1.137,2.212,1.756c0.253,0.219,0.598,0.457,0.263,0.875
		c-0.739,0.373-1.468,0.813-2.323,0.311C37.319,110.598,36.999,110.676,36.679,110.756z"/>
	<path fill-rule="evenodd" clip-rule="evenodd" fill="#2DC0BA" d="M123.56,64.917c-0.08,0.24-0.16,0.48-0.24,0.72
		c0.125,0.694-0.341,1.201-0.56,1.788c-0.376,0.52-0.438,1.368-1.366,1.313c-0.522-0.97-0.454-2.051-0.563-3.096
		c-0.054-0.508-0.016-1.025-0.129-1.529c-0.042-0.399,0.071-0.767,0.234-1.123c0.318-0.584,0.485-1.24,0.818-1.814
		c0.198-0.342,0.258-0.865,0.846-0.818c0.602,1.113,0.5,2.37,0.715,3.562C123.375,64.258,123.219,64.646,123.56,64.917z"/>
	<path fill-rule="evenodd" clip-rule="evenodd" fill="#2FC3BD" d="M122.6,60.356c-0.759,0.728-0.765,1.867-1.44,2.64
		c-0.629-0.044-0.535-0.595-0.627-0.964c-0.254-1.025-0.354-2.082-0.573-3.115c0.32-0.64,0.64-1.28,0.959-1.92
		c0.104-0.548,0.322-1.039,0.721-1.44c0.612,1.298,0.45,2.823,1.2,4.08C122.76,59.876,122.679,60.116,122.6,60.356z"/>
	<path fill-rule="evenodd" clip-rule="evenodd" fill="#46E7DF" d="M34.519,101.637c-0.4,0.08-0.8,0.16-1.2,0.24
		c-2.866-3.434-5.358-7.109-7.257-11.168c-2.133-4.559-3.565-9.316-4.31-14.311c-0.455-3.055-0.409-6.102-0.432-9.16
		c-0.002-0.312-0.063-0.648,0.238-0.882c0.153,0.268,0.306,0.537,0.498,0.874c0.393-0.437,0.406-0.942,0.548-1.495
		c0.342,0.431,0.608,0.766,0.874,1.101c0.268,0.789,0.877,1.653-0.591,1.958c-0.448,0.093-0.297,0.608-0.28,0.935
		c0.16,3.068,0.397,6.126,1.039,9.142c1.721,8.078,5.154,15.32,10.522,21.625C34.44,100.814,34.843,101.123,34.519,101.637z"/>
	<path fill-rule="evenodd" clip-rule="evenodd" fill="#4DF0E8" d="M23.479,58.196c0.324-0.978,0.661-1.953,0.963-2.938
		c0.082-0.267,0.219-0.392,0.477-0.422c0.405,0.017,0.874-0.596,1.209,0.123c0.402,0.589,0.74,1.211,0.959,1.894
		c0.069,0.639,0.053,1.251-0.551,1.666c-0.321,0.062-0.688-0.018-0.841,0.442c-0.128,0.387-0.335,0.613-0.879,0.428
		c-0.418-0.143-0.242,0.61-0.617,0.727C23.686,59.579,23.552,58.899,23.479,58.196z"/>
	<path fill-rule="evenodd" clip-rule="evenodd" fill="#47ECE2" d="M24.679,65.396c-1.062-0.058-0.918-1.321-1.679-1.68
		c-0.287-0.515-0.35-1.068-0.127-1.601c0.078-0.185-0.041-1.041,0.641-0.346c0.274,0.279,0.372-0.099,0.423-0.305
		c0.074-0.294-0.063-0.649,0.262-0.869c0.837,0.34,1.218,1.16,1.829,1.738c0.188,0.816,0.291,1.596-0.733,1.971
		C24.793,64.488,25.077,65.14,24.679,65.396z"/>
	<path fill-rule="evenodd" clip-rule="evenodd" fill="#47EFE5" d="M25.879,62.276c-0.852-0.269-1.171-1.068-1.68-1.68
		c0-0.16,0-0.32,0-0.48c-0.036-0.456,0.167-0.847,0.365-1.346c0.513,0.684,0.868,0.565,0.999-0.197
		c0.145-0.847,0.509-0.223,0.795-0.137c0.247,0.122,0.611,0.127,0.554,0.554c-0.417,1.03-0.241,2.224-0.883,3.192
		C25.98,62.214,25.929,62.245,25.879,62.276z"/>
	<path fill-rule="evenodd" clip-rule="evenodd" fill="#42E8DE" d="M34.519,101.637c-0.262-1.025-1.186-1.561-1.782-2.332
		c-5.152-6.684-8.436-14.154-9.762-22.492c-0.405-2.547-0.649-5.105-0.7-7.684c-0.018-0.896,0.048-1.565,1.203-0.278
		c0-0.867,0-1.44,0-2.014c0.333,0.135,0.543,0.515,0.96,0.48c0.101,0.081,0.173,0.183,0.219,0.304
		c0.051,0.758,0.41,1.585-0.649,2.035c-0.364,0.154-0.212,0.651-0.208,0.997c0.045,4.147,0.827,8.176,2.014,12.131
		c1.911,6.367,5.097,12.041,9.386,17.109c0.372,0.439,0.872,0.854,0.799,1.543c-0.362,0.385-0.766,0.51-1.24,0.201
		C34.679,101.637,34.599,101.637,34.519,101.637z"/>
	<path fill-rule="evenodd" clip-rule="evenodd" fill="#40EDE0" d="M24.679,65.396c0.001-0.358-0.001-0.717,0.004-1.076
		c0.003-0.196,0.016-0.519,0.224-0.483c1.653,0.286,0.688-1.021,0.972-1.561h0c1.386,0.239,2.811,0.253,4.162,0.708
		c0.106,1.267,0.277,2.543-0.498,3.693c-1.676,0.512-3.244,0.396-4.624-0.801C24.839,65.716,24.759,65.556,24.679,65.396z"/>
	<path fill-rule="evenodd" clip-rule="evenodd" fill="#41EBDD" d="M24.919,65.876c1.468,0.616,2.993,0.869,4.582,0.721
		c0.415,0.517,0.339,1.076,0.141,1.646c-0.655,0.851-1.558,0.6-2.408,0.514c-0.51-0.052-1.009-0.203-1.49-0.39
		c-0.501-0.162-0.956-0.401-1.305-0.81c0-0.08,0-0.16,0-0.24C24.46,66.79,24.566,66.292,24.919,65.876z"/>
	<path fill-rule="evenodd" clip-rule="evenodd" fill="#53F2EB" d="M25.879,55.076c-0.201-0.351-0.385-0.554-0.525,0.038
		c-0.036,0.151-0.198,0.341-0.306,0.25c-0.111-0.096-0.092-0.345-0.129-0.527c0.413-2.146,0.962-4.256,1.922-6.226
		c1.607-3.298,3.545-6.387,5.998-9.134c0.682-0.255,0.559,0.158,0.412,0.524c-0.226,0.566-0.712,0.958-1.044,1.453
		c-0.464,0.691-1.014,1.342-1.141,2.208c-0.933,1.511-1.53,3.216-2.684,4.604c-1.098,1.32-1.482,2.839-1.123,4.531
		c0.151,0.588-0.161,1.084-0.324,1.61C26.667,54.76,26.451,55.2,25.879,55.076z"/>
	<path fill-rule="evenodd" clip-rule="evenodd" fill="#50F2EA" d="M30.919,43.556c-0.089-1.175,0.853-1.826,1.377-2.686
		c0.226-0.371,0.537-0.689,0.783-1.048c0.19-0.277-0.028-0.321-0.24-0.345c1.409-1.565,2.834-3.111,4.492-4.424
		c0.212-0.168,0.367-0.409,0.548-0.616c1.629-1.187,3.257-2.375,4.888-3.561c0.618-0.449,1.261-0.835,2.072-0.759
		c0.061,0.576-0.457,0.692-0.781,0.926c-1.032,0.743-2.131,1.39-3.152,2.148c-0.412,0.306-0.814,0.645-0.985,1.166
		c-0.798,1.043-1.809,1.886-2.804,2.709c-1.573,1.302-2.891,2.815-4.135,4.41C32.212,42.088,32,43.253,30.919,43.556z"/>
	<path fill-rule="evenodd" clip-rule="evenodd" fill="#42DFD9" d="M37.399,107.637c-0.08,0-0.16,0-0.24,0
		c-0.64-1.094-1.969-1.613-2.399-2.879c0.824-0.041,1.624-0.201,2.4-0.48c0.098-0.078,0.206-0.098,0.324-0.061
		c0.788,0.529,1.389,1.275,2.151,1.84c0.286,0.213,0.663,0.502,0.351,0.98C39.176,107.465,38.342,107.785,37.399,107.637z"/>
	<path fill-rule="evenodd" clip-rule="evenodd" fill="#3EE5DB" d="M37.399,104.277c-0.08,0-0.16,0-0.24,0
		c-0.8-0.881-1.6-1.76-2.4-2.641c0.4-0.08,0.8-0.16,1.2-0.24c0.23-0.518,0.729-0.514,1.179-0.611
		c0.12-0.004,0.235,0.016,0.348,0.057c0.794,0.551,1.409,1.291,2.072,1.979c0.274,0.285,0.547,0.615,0.249,1.057
		c-0.299,0.221-0.666,0.26-1.004,0.373C38.336,104.324,37.872,104.592,37.399,104.277z"/>
	<path fill-rule="evenodd" clip-rule="evenodd" fill="#48F3E9" d="M26.839,58.916c-0.16-0.16-0.32-0.32-0.48-0.48
		c0.553-0.448,0.481-1.074,0.48-1.68c0.154-1.627,0.289-1.734,1.919-1.374c1.191,0.263,2.111-0.282,2.956-0.985
		c1.574-1.31,2.941-2.828,4.156-4.469c3.094-4.181,6.703-7.85,10.975-10.809c5.141-3.562,10.511-6.732,16.545-8.58
		c2.028-0.621,4.137-0.957,6.259-0.958c1.963-0.001,3.909-0.159,5.861-0.282c0.49-0.031,0.942-0.176,1.384-0.363
		c0.947-0.401,1.657-1.031,1.655-2.133c-0.002-1.072-0.738-1.628-1.639-1.999c-2.905-1.194-5.908-1.442-9.032-1.195
		c-3.12,0.246-6.195,0.661-9.196,1.524c-3.421,0.984-6.777,2.154-9.934,3.835c-0.705,0.375-1.433,0.772-2.229,0.187
		c0.733-1.164,2.146-1.344,3.12-2.16c3.024-1.097,5.959-2.456,9.13-3.12c2.717-0.569,5.423-1.22,8.226-1.201
		c0.245,0.002,0.48-0.022,0.644-0.239c2.996-0.042,5.968,0.159,8.865,0.969c1.51,0.423,2.911,1.096,3.935,2.356
		c0.625,0.769,0.853,1.591,0.356,2.539c-1.021,1.954-2.745,2.657-4.817,2.776c-3.252,0.188-6.516,0.196-9.747,0.7
		c-2.583,0.403-5,1.317-7.355,2.382c-4.195,1.896-8.105,4.314-11.751,7.102c-3.355,2.566-6.49,5.408-8.75,9.06
		c0.055,0.444-0.291,0.637-0.567,0.845c-2.61,1.953-4.605,4.417-6.117,7.29c-0.15,0.286-0.349,0.537-0.626,0.717
		C29.368,60.02,27.967,59.934,26.839,58.916z"/>
	<path fill-rule="evenodd" clip-rule="evenodd" fill="#4EF5EC" d="M46.519,29.156c1.457,0.289,2.491-0.723,3.657-1.25
		c4.968-2.248,10.123-3.842,15.54-4.481c3.005-0.354,6.036-0.41,9.02,0.249c1.089,0.24,2.148,0.656,3.099,1.246
		c1.479,0.917,1.48,2.924,0.022,3.906c-0.63,0.424-1.347,0.777-2.11,0.79c-1.834,0.03-3.646,0.307-5.489,0.287
		c-3.964-0.043-7.69,1.015-11.305,2.616c-4.067,1.801-7.891,4.038-11.521,6.558c-3.898,2.706-7.418,5.883-10.273,9.737
		c-1.561,2.107-3.209,4.16-5.241,5.843c-1.101,0.912-2.321,1.614-3.824,0.815c-0.391-0.208-0.653-0.155-0.815,0.327
		c-0.11,0.327-0.121,0.721-0.438,0.959c-0.32-0.56-0.64-1.12-0.96-1.68c0.32-0.24,0.64-0.48,0.96-0.72
		c0.832-0.768,1.783-0.971,2.914-0.834c0.978,0.118,1.701-0.543,2.391-1.185c2.025-1.883,3.819-3.98,5.576-6.101
		c2.605-3.144,5.742-5.67,9.056-7.977c4.972-3.461,10.257-6.356,16.041-8.254c2.292-0.752,4.663-1.119,7.07-1.147
		c1.759-0.021,3.513-0.042,5.261-0.259c0.442-0.054,0.865-0.14,1.258-0.356c1.52-0.838,1.575-2.31,0.068-3.162
		c-1.307-0.739-2.759-1.036-4.251-1.132c-8.873-0.569-16.958,1.998-24.655,6.156c-2.28,1.231-4.328,2.873-6.768,3.821
		c-0.325,0.126-0.602,0.42-1,0.271c0.076-0.789,0.738-1.086,1.271-1.467c1.243-0.89,2.511-1.744,3.769-2.613
		C45.399,29.796,45.959,29.476,46.519,29.156z"/>
	<path fill-rule="evenodd" clip-rule="evenodd" fill="#DE4B64" d="M31.135,58.916c1.643-3.513,4.179-6.274,7.238-8.595
		c1.285-0.704,2.57-1.408,3.855-2.113c0.87-0.287,1.74-0.574,2.61-0.862c0.575-0.137,1.151-0.273,1.726-0.41
		c0.579-0.023,1.168,0.039,1.716-0.221c0.937-0.683,2.015-0.399,3.008-0.33c4.13,0.289,7.872,1.701,11.197,4.176
		c2.13,1.585,2.401,3.225,0.978,5.498c-0.622,0.993-1.375,1.864-2.246,2.641c-1.245,1.111-2.62,1.287-4.109,0.558
		c-0.791-0.387-1.512-0.9-2.286-1.318c-4.955-2.677-12.554-0.63-14.637,5.819c-1.913,5.918,1.652,12.526,7.682,14.04
		c2.14,0.539,4.368,0.395,6.519-0.273c0.624-0.191,0.905-0.604,0.911-1.242c0.01-1.16,0.001-2.32,0.003-3.479
		c0.001-0.764-0.374-1.074-1.112-1.072c-1.24,0.002-2.479,0.016-3.719-0.008c-1.884-0.033-2.814-0.836-3.026-2.693
		c-0.123-1.072-0.137-2.16,0.034-3.231c0.285-1.786,1.063-2.481,2.87-2.635c0.199-0.017,0.399-0.02,0.599-0.021
		c3.44-0.005,6.879-0.025,10.319,0.006c2.987,0.026,4.274,1.291,4.298,4.249c0.035,4.239-0.008,8.479,0.017,12.718
		c0.011,1.863-0.997,3.158-2.265,4.314c-1.469,1.338-3.172,2.334-5.06,2.914c-5.715,1.758-11.448,2.086-16.932-0.691
		c-6.726-3.404-10.719-8.918-11.901-16.409c-0.04-0.665-0.094-1.332,0.099-1.986c-0.007-0.554-0.013-1.108-0.02-1.663
		c0.137-1.2,0.273-2.4,0.41-3.601C29.671,61.441,30.236,60.129,31.135,58.916z"/>
	<path fill-rule="evenodd" clip-rule="evenodd" fill="#36EADB" d="M29.698,70.197c0.616,3.594,1.865,6.917,4.106,9.842
		c6.737,8.795,16.843,9.986,25.707,6.459c1.192-0.475,2.243-1.215,3.246-2.018c1.722-1.381,2.646-3.039,2.557-5.369
		c-0.144-3.793-0.018-7.594-0.054-11.392c-0.031-3.24-1.039-4.225-4.263-4.257c-3.317-0.032-6.634-0.048-9.951-0.061
		c-2.363-0.009-3.258,0.848-3.323,3.231c-0.025,0.916-0.04,1.848,0.098,2.749c0.208,1.361,0.881,1.952,2.263,2.024
		c1.475,0.078,2.957,0.092,4.435,0.057c0.794-0.02,1.159,0.154,1.113,1.047c-0.072,1.396-0.04,2.799-0.009,4.197
		c0.012,0.559-0.141,0.879-0.713,1.047c-4.334,1.268-8.38,1.045-11.843-2.242c-3.461-3.289-4.508-7.305-3.207-11.823
		c1.786-6.199,9.81-9.225,15.374-5.913c0.618,0.368,1.213,0.776,1.849,1.109c1.688,0.885,2.704,0.736,4.122-0.577
		c0.945-0.875,1.756-1.865,2.333-3.021c0.901-1.804,0.614-3.083-1.007-4.294c-3.867-2.89-8.187-4.428-13.054-4.287
		c-0.398,0.011-0.797,0.006-1.196,0.009c-0.164-0.154-1.056,0.064-0.418-0.489c5.222-4.525,10.826-8.45,17.688-10.043
		c2.543-0.591,5.188-0.674,7.812-0.839c2.915-0.184,5.922,0.009,8.707-1.139c2.479-1.021,4.515-2.518,5.079-5.385
		c0.254-1.287-0.162-2.419-0.72-3.525c-0.138-0.273-0.426-0.478-0.324-0.931c1.373,0.113,2.566,0.798,3.784,1.311
		c4.774,2.011,9.057,4.796,12.926,8.263c3.292,2.949,6.088,6.275,8.379,10.042c0.077,0.126,0.242,0.199,0.366,0.296
		c0,0.16,0,0.32,0.001,0.48c-1.423,3.218-3.32,6.158-5.307,9.045c-0.237,0.344-0.563,0.571-1.025,0.404
		c-1.583-1.336-3.019-2.847-4.807-3.941c-6.34-3.879-12.888-4.152-19.362-0.631c-7.003,3.809-10.236,10.05-10.461,17.921
		c-0.162,5.732,1.807,10.637,5.835,14.715c0.308,0.311,0.641,0.613,0.707,1.084c-0.09,0.801-0.78,1.064-1.324,1.438
		c-6.856,4.705-14.272,8.324-22.001,11.34c-4.584,1.789-9.275,3.242-14.01,4.563c-0.308,0.086-0.618,0.166-0.942,0.166
		c-0.129-0.008-0.251-0.039-0.369-0.09c-2.475-2.135-4.335-4.775-6.065-7.502c-4.071-6.416-6.346-13.451-7.079-20.998
		c-0.016-0.158-0.02-0.318-0.024-0.479c-0.061-1.969,0.03-2.099,1.935-1.87C28.071,70.019,28.945,69.617,29.698,70.197z"/>
	<path fill-rule="evenodd" clip-rule="evenodd" fill="#34E7D8" d="M105.385,54.113c1.258-0.859,1.827-2.252,2.597-3.467
		c1.106-1.748,2.062-3.591,3.095-5.385c0.113-0.196,0.32-0.338,0.483-0.505c0.788,0.615,0.938,1.613,1.439,2.4
		c-1.507,3.433-3.397,6.638-5.7,9.598C106.314,56.125,105.61,55.292,105.385,54.113z"/>
	<path fill-rule="evenodd" clip-rule="evenodd" fill="#2EDDCE" d="M108.729,59.636c0.45-0.037,0.682-0.352,0.897-0.695
		c1.722-2.741,3.413-5.499,4.813-8.425c0.858,0.866,0.769,2.169,1.44,3.12c0.142,0.14,0.169,0.312,0.142,0.499
		c-1.466,3.198-3.325,6.168-5.302,9.069c-0.216,0.316-0.442,0.7-0.952,0.527C109.131,62.44,108.665,61.104,108.729,59.636z"/>
	<path fill-rule="evenodd" clip-rule="evenodd" fill="#2FD5C8" d="M115.879,54.116c0.001-0.16,0.001-0.32,0.001-0.48
		c0.319-0.48,0.64-0.96,0.959-1.44c0.4,1.2,0.801,2.4,1.2,3.601c0.229,0.947-0.143,1.601-0.99,2.021
		C116.095,56.763,115.927,55.458,115.879,54.116z"/>
	<path fill-rule="evenodd" clip-rule="evenodd" fill="#2CCDC0" d="M117.08,57.717c0.479-0.561,0.778-1.21,0.959-1.919
		c0.16-0.161,0.32-0.321,0.479-0.481c0.4,1.36,0.8,2.72,1.2,4.08c0.377,0.963-0.575,1.454-0.782,2.21
		c-0.171,0.249-0.324,0.525-0.693,0.497c-0.547-0.243-0.846-0.667-0.908-1.26c-0.094-0.892-0.447-1.737-0.488-2.64
		C116.865,58.013,116.942,57.85,117.08,57.717z"/>
	<path fill-rule="evenodd" clip-rule="evenodd" fill="#DE4B64" d="M108.729,59.636c0.386,1.359,0.771,2.72,1.156,4.08
		c0.695,1.147,0.563,2.428,0.596,3.682c0.013,0.475-0.033,0.949-0.03,1.422c-0.253,2.565-0.648,5.096-1.74,7.463
		c-2.003,4.373-5.013,7.844-9.208,10.252c-2.198,1.266-4.616,1.811-7.093,2.17c-1.732,0.135-3.462,0.191-5.177-0.168
		c-1.358-0.141-2.661-0.512-3.938-0.982c-1.185-0.537-2.395-1.029-3.479-1.768c-0.944-0.791-2.223-1.197-2.811-2.406
		c-2.877-2.861-5.139-6.096-6.118-10.105c-2.584-10.568,2.59-22.589,14.427-25.677c6.955-1.815,13.104-0.023,18.378,4.82
		c0.588,0.54,1.129,1.129,1.691,1.695c0.638,0.88,1.275,1.761,1.914,2.641C107.775,57.714,108.253,58.675,108.729,59.636z"/>
	<path fill-rule="evenodd" clip-rule="evenodd" fill="#2AC4BA" d="M118.759,61.556c0.044-0.843,0.917-1.317,0.96-2.16
		c0.08-0.16,0.16-0.32,0.24-0.479c0.953,0.971,0.533,2.322,0.946,3.445c0.079,0.215,0.027,0.478,0.254,0.635
		c-0.08,0.32-0.16,0.64-0.24,0.96c-0.104,0.452-0.246,0.884-0.597,1.217c-0.395,0.374-0.737,0.365-1.024-0.125
		C119.084,63.89,119.056,62.702,118.759,61.556z"/>
	<path fill-rule="evenodd" clip-rule="evenodd" fill="#32BEBC" d="M54.439,120.117c-1.651,0.061-3.189,0.852-4.865,0.75
		c-1.608-0.537-3.144-1.227-4.566-2.156c0.858-0.898,2.106-0.586,3.118-1.008c0.881-0.053,1.727-0.402,2.625-0.332
		c0.923,0.715,2.043,1.018,3.092,1.469c0.465,0.199,1.004,0.314,1.146,0.92C54.92,120.057,54.696,120.111,54.439,120.117z"/>
	<path fill-rule="evenodd" clip-rule="evenodd" fill="#36C0BF" d="M48.199,117.957c-1.006,0.492-2.153,0.393-3.191,0.754
		c-1.467-0.619-2.829-1.418-4.083-2.398c0.595-0.629,1.428-0.613,2.183-0.809c0.387-0.039,0.775-0.039,1.163-0.004
		c1.263,0.369,2.333,1.139,3.501,1.709C48.045,117.342,48.314,117.561,48.199,117.957z"/>
	<path fill-rule="evenodd" clip-rule="evenodd" fill="#3DC7C6" d="M43.159,115.797c-0.744,0.172-1.489,0.344-2.233,0.516
		c-1.365-0.742-2.631-1.623-3.782-2.668c1.076,0.033,2.122-0.125,3.136-0.488c0.095-0.074,0.193-0.074,0.293-0.01
		c0.372,0.752,1.135,1.051,1.749,1.527C42.698,114.967,43.272,115.131,43.159,115.797z"/>
	<path fill-rule="evenodd" clip-rule="evenodd" fill="#2BBBB6" d="M54.439,120.117c0.104-0.193,0.282-0.236,0.48-0.24
		c0.491-0.549,1.091-0.705,1.793-0.502c0.567,0.586,1.354,0.645,2.075,0.84c2.506,0.682,5.092,0.893,7.655,1.236
		c0.549,0.074,1.117,0.057,1.66-0.123c0.394-0.08,0.785-0.088,1.173,0.031c1.132,0.525,2.267,0.537,3.404,0.016
		c0.378-0.127,0.761-0.123,1.147-0.049c1.89,0.43,3.714-0.156,5.552-0.396c4.413-0.574,8.639-1.865,12.66-3.744
		c2.19-1.023,4.429-1.994,6.388-3.459c0.086-0.074,0.18-0.141,0.276-0.201c0.524-0.256,1.05-0.514,1.44-0.973
		c0.226-0.217,0.463-0.416,0.75-0.549c0.331-0.123,0.614-0.318,0.87-0.561c0.076-0.066,0.159-0.125,0.244-0.18
		c0.265-0.156,0.497-0.354,0.727-0.557c0.082-0.07,0.169-0.133,0.26-0.191c1.033-0.584,1.867-1.387,2.581-2.324
		c0.225-0.326,0.496-0.602,0.862-0.771c0.958-0.547,1.704-1.305,2.258-2.256c0.169-0.363,0.439-0.635,0.766-0.855
		c0.488-0.332,0.915-0.721,1.165-1.271c0.077-0.146,0.18-0.271,0.303-0.381c0.34-0.268,0.652-0.559,0.874-0.936
		c0.053-0.09,0.115-0.174,0.181-0.254c0.198-0.225,0.396-0.449,0.55-0.709c0.052-0.086,0.111-0.168,0.174-0.244
		c0.288-0.293,0.496-0.631,0.611-1.027c0.397-0.82,0.88-1.58,1.521-2.23c1.391-1.822,2.372-3.877,3.314-5.939
		c1.916-4.191,3.284-8.561,4.001-13.125c0.071-0.455,0.028-0.867-0.069-1.295c0.25-3.189,0.401-6.385,0.515-9.58
		c0.077-0.63,0.491-1.115,0.72-1.68c0.696,2.262,0.952,4.529,0.486,6.899c-0.272,1.391-0.165,2.852-0.329,4.27
		c-0.165,1.426-0.395,2.852-0.7,4.256c-1.647,7.574-4.705,14.531-9.404,20.705c-1.654,2.174-3.443,4.283-5.408,6.176
		c-6.953,6.693-15.093,11.33-24.5,13.662c-2.661,0.658-5.399,1.428-8.073,1.262c-2.273-0.139-4.488,0.885-6.816-0.014
		c-1.062-0.41-2.46,0.09-3.744-0.057c-3.328-0.385-6.565-1.139-9.778-2.035C54.744,120.674,54.451,120.514,54.439,120.117z"/>
	<path fill-rule="evenodd" clip-rule="evenodd" fill="#3BD1CD" d="M40.519,113.158c-0.08,0-0.16,0-0.24-0.002
		c-0.79-0.633-1.56-1.293-2.378-1.887c-0.31-0.227-0.463-0.398-0.262-0.752c0.839,0.037,1.597-0.338,2.4-0.48
		c0.54-0.445,1.157-0.559,1.831-0.426c0.827,0.521,1.537,1.207,2.384,1.709c0.427,0.252,0.709,0.643,0.382,1.184
		c-0.204,0.182-0.458,0.24-0.711,0.301c-0.722,0.201-1.462,0.328-2.183,0.537C41.32,113.463,40.883,113.508,40.519,113.158z"/>
	<path fill-rule="evenodd" clip-rule="evenodd" fill="#3DDAD3" d="M41.958,109.797c-0.64,0.08-1.28,0.16-1.919,0.24
		c-0.88-0.801-1.76-1.602-2.64-2.4c0.88-0.24,1.76-0.48,2.64-0.721c0.097-0.076,0.204-0.102,0.324-0.07
		c0.882,0.453,1.608,1.125,2.396,1.709c0.284,0.211,0.569,0.441,0.498,0.867C42.941,109.953,42.44,109.84,41.958,109.797z"/>
	<path fill-rule="evenodd" clip-rule="evenodd" fill="#28BBB5" d="M111.079,102.836c-0.08,0.08-0.16,0.16-0.24,0.24
		c-0.329,0.539-0.881,0.893-1.199,1.441c-0.324,0.156-0.564,0.395-0.721,0.719c-0.709,0.891-1.509,1.691-2.399,2.4
		c-0.324,0.156-0.564,0.396-0.721,0.721c-0.973,0.783-1.824,1.715-2.88,2.398c-0.342,0.213-0.626,0.498-0.96,0.721
		c-0.341,0.213-0.627,0.496-0.96,0.721c-0.24,0.16-0.479,0.32-0.72,0.479c-0.447,0.369-0.96,0.641-1.44,0.961
		c-7.113,4.584-14.901,7.186-23.323,7.904c-0.536,0.047-1.09,0.328-1.637,0.016c-0.399,0-0.8,0-1.199,0
		c-1.12,0.371-2.24,0.371-3.36,0c-0.399,0-0.8,0-1.2,0c-2.079,0.189-4.101-0.311-6.14-0.555c-1.261-0.15-2.507-0.461-3.734-0.82
		c-0.417-0.121-0.884-0.154-1.032-0.68c0.456-0.998,1.4-0.848,2.236-0.949c1.46,0.865,3.133,0.879,4.735,1.148
		c2.324,0.393,4.7,0.551,7.029,0.51c4.304-0.076,8.594-0.533,12.782-1.674c7.24-1.969,13.786-5.26,19.531-10.111
		c0.581-0.49,1.199-0.932,1.673-1.533c0.168-0.254,0.381-0.463,0.632-0.631c0.869-0.414,1.517-1.055,1.935-1.926
		c0.163-0.25,0.375-0.453,0.614-0.629c2.525-2.434,4.483-5.299,6.279-8.281c3.401-5.654,5.611-11.758,6.563-18.271
		c0.395-2.703,0.895-5.445,0.421-8.212c-0.002-0.062-0.003-0.124-0.004-0.186c0.319-0.48,0.64-0.96,0.96-1.44
		c0.49,1.766,0.23,3.562,0.164,5.344c-0.057,1.502-0.264,2.998-0.404,4.496c-0.339,3.949-1.509,7.693-2.89,11.373
		c-1.188,3.17-2.734,6.17-4.551,9.027c-0.572,0.658-1.044,1.385-1.439,2.16c-0.224,0.332-0.508,0.619-0.721,0.959
		c-0.222,0.334-0.509,0.619-0.72,0.961C111.769,102.076,111.34,102.389,111.079,102.836z"/>
	<path fill-rule="evenodd" clip-rule="evenodd" fill="#28C2B7" d="M119.479,65.156c1.036,0.269,0.845-0.938,1.439-1.2
		c0.436,1.237,0.165,2.562,0.472,3.817c0.08,0.328-0.088,0.717,0.249,0.983l0,0c0.226,0.27,0.118,0.54,0.003,0.811
		c-0.259,0.449-0.562,0.874-0.786,1.345c-0.36,0.364-0.427,1.163-1.246,0.842c-0.386-0.707-0.272-1.483-0.239-2.225
		C119.435,68.071,119.14,66.605,119.479,65.156z"/>
	<path fill-rule="evenodd" clip-rule="evenodd" fill="#42F0E4" d="M31.135,58.916c-0.408,1.36-0.816,2.72-1.225,4.08
		c-1.393,0.034-2.79,0.093-4.031-0.719c0.16-0.835,0.347-1.667,0.469-2.507c0.054-0.374,0.123-0.685,0.491-0.854
		C28.271,59.569,29.703,59.58,31.135,58.916z"/>
	<path fill-rule="evenodd" clip-rule="evenodd" fill="#3EE8DD" d="M37.159,100.916c-0.311,0.383-0.857,0.178-1.2,0.48
		c-2.911-3.545-5.628-7.221-7.65-11.363c-1.932-3.959-3.295-8.109-4.094-12.436c-0.469-2.541-0.864-5.098-0.732-7.7
		c0.017-0.343-0.187-0.912,0.564-0.639c0.354,0.128,0.392-0.119,0.392-0.383c-0.001-0.44,0-0.879,0.001-1.319
		c0.4,0.16,0.8,0.32,1.2,0.48c0.488,0.809,0.461,1.504-0.44,2.011c-0.323,0.181-0.38,0.476-0.358,0.819
		c0.376,6.073,1.74,11.899,4.318,17.428c1.883,4.039,4.254,7.754,7.216,11.092C36.751,99.811,37.271,100.219,37.159,100.916z"/>
	<path fill-rule="evenodd" clip-rule="evenodd" fill="#3AE9DC" d="M37.159,100.916c-3.273-3.867-6.253-7.924-8.342-12.582
		c-1.963-4.379-3.298-8.92-3.944-13.686c-0.176-1.299,0.014-2.629-0.401-3.903c-0.098-0.299-0.175-0.896,0.242-0.934
		c1.336-0.115,0.822-1.084,0.925-1.775c1.282,0.285,2.548,0.847,3.882,0.223c0.227,0.63,0.184,1.285,0.177,1.938
		c-1.025-0.016-2.072,0.262-3.068-0.027c-1.027-0.299-1.033,0.227-0.995,0.958c0.256,4.889,1.352,9.592,3.105,14.152
		c2.233,5.809,5.628,10.869,9.859,15.396c-0.328,0.443-0.724,0.541-1.2,0.24C37.319,100.916,37.239,100.916,37.159,100.916z"/>
	<path fill-rule="evenodd" clip-rule="evenodd" fill="#52F6EE" d="M39.799,34.196c6.267-3.49,12.313-7.455,19.396-9.209
		c3.464-0.858,6.949-1.521,10.57-1.395c1.989,0.069,3.953,0.048,5.847,0.746c0.112,0.042,0.232,0.063,0.343,0.107
		c1.426,0.569,2.18,1.531,1.976,2.515c-0.217,1.043-1.51,1.823-2.854,1.975c-3.552,0.403-7.167-0.005-10.679,0.925
		c-2.208,0.585-4.333,1.383-6.39,2.337C52.31,34.842,47,38.102,42.197,42.195c-2.601,2.217-4.696,4.858-6.924,7.402
		c-1.104,1.261-2.324,2.428-3.558,3.566c-0.854,0.787-1.959,0.9-3.045,0.621c-0.553-0.142-0.791-0.071-0.967,0.475
		c-0.181,0.56-0.5,0.746-0.864,0.097c-0.348-0.551,0.445-0.913,0.24-1.44c0.548-0.076,0.883-0.27,1.126-0.886
		c2.428-6.159,4.994-10.351,8.126-13.713c-0.531,0.627-1.52,1.772-2.486,2.938c-0.204,0.246-0.385,0.547-0.71,0.61
		c-0.393,0.076-0.524-0.106-0.296-0.469c0.964-1.713,2.372-3.031,3.822-4.316C37.724,36.137,38.754,35.159,39.799,34.196z"/>
	<path fill-rule="evenodd" clip-rule="evenodd" fill="#56F5EF" d="M32.839,41.396c0.466,0.665,0.539-0.054,0.705-0.229
		c1.278-1.342,2.374-2.859,3.857-4.015c-1.049,1.552-2.285,2.954-3.377,4.467c-2.396,3.319-4.201,6.943-5.65,10.743
		c-0.332,0.869-0.652,0.859-1.295,0.554c-0.558-0.879-0.264-3.342,0.74-4.407c1.375-1.46,1.843-3.446,3.101-4.953
		C31.637,42.905,31.953,41.897,32.839,41.396z"/>
	<path fill-rule="evenodd" clip-rule="evenodd" fill="#3DE1D7" d="M40.279,106.916c-0.08,0-0.16,0-0.241,0
		c-0.708-1.051-2.009-1.51-2.639-2.639c0.48-0.08,0.933-0.326,1.44-0.24c0.935,0.32,1.571,1.027,2.214,1.721
		c0.244,0.264,0.447,0.568,0.236,0.959C40.993,106.986,40.637,106.957,40.279,106.916z"/>
	<path fill-rule="evenodd" clip-rule="evenodd" fill="#37E2D6" d="M41.239,106.676c-0.197-0.887-0.97-1.299-1.568-1.836
		c-0.288-0.26-0.655-0.428-0.832-0.803c0.252-0.352,0.628-0.207,0.96-0.24c0.306-0.547,0.842-0.648,1.393-0.725
		c0.185-0.004,0.363,0.029,0.534,0.1c0.719,0.477,1.271,1.154,1.973,1.658c0.315,0.225,0.59,0.527,0.522,0.984
		c-0.552,0.648-1.379,0.684-2.106,0.945C41.816,106.805,41.51,106.92,41.239,106.676z"/>
	<path fill-rule="evenodd" clip-rule="evenodd" fill="#38E6D9" d="M41.239,103.316c-0.48,0.16-0.96,0.32-1.44,0.48
		c-0.431-1.268-1.76-1.787-2.4-2.881c0.4-0.08,0.8-0.16,1.2-0.24c0.08,0,0.16,0,0.24,0C39.84,101.375,40.9,102.018,41.239,103.316z"
		/>
	<path fill-rule="evenodd" clip-rule="evenodd" fill="#34E7D8" d="M41.239,103.316c-0.8-0.879-1.6-1.76-2.4-2.641
		c3.386-1.035,6.805-1.975,10.152-3.127c9.575-3.293,18.715-7.492,27.064-13.293c0.362-0.252,0.764-0.443,0.951-0.875
		c0.954,0.732,1.908,1.465,2.862,2.197c0.082,0.625-0.453,0.791-0.818,1.053c-5.867,4.199-12.198,7.566-18.792,10.461
		c-5.639,2.477-11.462,4.424-17.375,6.121c-0.382,0.109-0.758,0.271-1.164,0.104C41.559,103.316,41.399,103.316,41.239,103.316z"/>
	<path fill-rule="evenodd" clip-rule="evenodd" fill="#2AD6C7" d="M110.132,68.994c-0.082-1.759-0.164-3.519-0.246-5.278
		c1.634-1.889,2.792-4.09,4.06-6.218c0.664-1.115,1.291-2.253,1.934-3.381c0.4,1.2,0.801,2.4,1.201,3.601
		c0,0.16-0.001,0.319-0.001,0.479c-0.266,1.144-0.938,2.099-1.505,3.089c-1.312,2.286-2.744,4.5-4.259,6.656
		C111.016,68.368,110.816,68.973,110.132,68.994z"/>
	<path fill-rule="evenodd" clip-rule="evenodd" fill="#26CDBE" d="M110.132,68.994c2.523-3.235,4.578-6.77,6.598-10.327
		c0.096-0.168,0.232-0.314,0.35-0.471c0.486,1.253,0.18,2.755,1.2,3.841c0.354,0.53-0.082,0.894-0.273,1.309
		c-2.465,4.424-5.274,8.617-8.445,12.566c-0.246,0.309-0.45,0.678-0.873,0.775c-0.229,0.053-0.392-0.027-0.281-0.314
		C109.31,73.99,109.86,71.525,110.132,68.994z"/>
	<path fill-rule="evenodd" clip-rule="evenodd" fill="#24C3B7" d="M117.8,63.236c0.16-0.4,0.319-0.799,0.479-1.199
		c0.16-0.161,0.32-0.321,0.479-0.481c0.881,0.515,0.451,1.462,0.693,2.188c0.143,0.426,0.026,0.938,0.027,1.412
		c0.48,1.768,0.13,3.573,0.245,5.357c0.029,0.459-0.179,0.967,0.234,1.364c0.018,0.059,0.036,0.119,0.055,0.178
		c-0.382,0.596-0.262,1.736-1.512,1.389c-0.495-0.768-0.329-1.604-0.225-2.422c0.114-0.905,0.265-1.803-0.035-2.7
		C117.661,66.664,117.572,64.964,117.8,63.236z"/>
	<path fill-rule="evenodd" clip-rule="evenodd" fill="#21C6B7" d="M117.8,63.236c0.563,1.202-0.038,2.542,0.453,3.763
		c0.159,0.397,0.181,0.85,0.266,1.277c-0.763,1.909-1.994,3.544-3.146,5.212c-3.406,4.939-7.264,9.502-11.319,13.928
		c-7.339,8.008-15.91,14.391-25.286,19.754c-4.828,2.76-9.922,4.971-15.12,6.938c-0.299,0.113-0.601,0.221-0.929,0.219
		c-1.391-0.422-2.797-0.791-4.201-1.168c-0.386-0.104-0.748-0.252-0.977-0.607c-0.032-0.836,0.715-0.754,1.171-0.916
		c5.049-1.791,10.008-3.801,14.752-6.293c7.552-3.967,14.701-8.531,21.059-14.277c1.718-1.553,3.339-3.197,4.993-4.811
		c3.965-2.393,6.866-5.742,8.89-9.881c0.533,0.398,0.568-0.197,0.738-0.406C112.389,71.969,115.194,67.67,117.8,63.236z"/>
	<path fill-rule="evenodd" clip-rule="evenodd" fill="#36EADB" d="M84.845,76.951c-3.485-2.164-4.918-5.436-4.908-9.395
		c0.012-5.309,3.472-9.64,8.406-10.669c4.183-0.873,9.063,1.669,10.751,5.602c0.123,0.644-0.325,1.042-0.687,1.431
		c-1.491,1.602-2.965,3.219-4.483,4.795c-2.596,2.693-5.258,5.31-8.056,7.791C85.587,76.756,85.328,77.133,84.845,76.951z"/>
	<path fill-rule="evenodd" clip-rule="evenodd" fill="#26CDBE" d="M99.517,86.254c0.269,0.188,0.082,0.334-0.05,0.473
		c-1.877,1.955-3.808,3.863-5.886,5.6c-2.161,1.807-4.362,3.574-6.65,5.215c-2.745,1.967-5.623,3.744-8.544,5.447
		c-5.07,2.951-10.363,5.432-15.832,7.547c-1.662,0.643-3.331,1.268-4.997,1.9c-0.751,0.561-1.59,0.855-2.532,0.834
		c-0.694-0.686-1.678-0.791-2.488-1.24c-0.585-0.326-1.417-0.387-1.523-1.287c0.185-0.369,0.535-0.471,0.894-0.561
		c12.601-3.746,24.233-9.449,34.82-17.258c1.316-0.971,2.604-1.986,3.837-3.064c0.633-0.553,1.296-1.047,2.025-1.457
		C95,88.01,97.322,87.336,99.517,86.254z"/>
	<path fill-rule="evenodd" clip-rule="evenodd" fill="#2AD6C7" d="M92.591,88.402c-1.276,1.428-2.815,2.559-4.319,3.713
		c-5.893,4.518-12.188,8.396-18.869,11.645c-5.389,2.619-10.991,4.689-16.694,6.502c-0.227,0.072-0.446,0.168-0.669,0.254
		c-0.936-0.404-1.888-0.779-2.745-1.338c-0.408-0.264-0.958-0.451-0.911-1.105c0.335-0.531,0.921-0.609,1.444-0.764
		c6.213-1.83,12.249-4.141,18.058-6.992c6.818-3.346,13.306-7.246,19.202-12.074C88.916,88.498,90.754,88.443,92.591,88.402z"/>
	<path fill-rule="evenodd" clip-rule="evenodd" fill="#2EDDCE" d="M87.087,88.242c-0.176,1.131-1.274,1.422-1.984,1.949
		c-4.311,3.205-8.855,6.041-13.599,8.588c-6.334,3.402-12.971,6.031-19.775,8.285c-1.093,0.361-2.193,0.701-3.29,1.053
		c-0.194,0.197-0.428,0.219-0.682,0.158c-0.926-0.477-1.745-1.119-2.606-1.695c-0.315-0.211-0.721-0.416-0.565-0.934
		c1.584-0.895,3.382-1.174,5.083-1.717c11.583-3.701,22.438-8.855,32.304-16.01c0.391-0.283,0.773-0.568,1.262-0.658
		C84.519,87.59,85.803,87.916,87.087,88.242z"/>
	<path fill-rule="evenodd" clip-rule="evenodd" fill="#32E3D4" d="M83.234,87.262c-2.969,2.484-6.265,4.482-9.583,6.447
		c-4.674,2.77-9.557,5.121-14.585,7.162c-4.718,1.914-9.531,3.572-14.467,4.846c-0.16,0.148-0.32,0.146-0.48,0
		c-0.606-0.994-1.852-1.35-2.4-2.4c3.366-1.082,6.753-2.105,10.095-3.26c6.818-2.354,13.377-5.287,19.61-8.939
		c2.91-1.705,5.828-3.391,8.444-5.539C80.991,86.139,82.113,86.701,83.234,87.262z"/>
	<path fill-rule="evenodd" clip-rule="evenodd" fill="#34E7D8" d="M84.845,76.951c0.986-0.734,1.932-1.512,2.8-2.389
		c2.707-2.736,5.482-5.407,8.14-8.191c1.17-1.225,2.413-2.413,3.31-3.883c0.6,0.939,0.926,1.965,0.968,3.081
		c0.263,0.735-0.051,1.273-0.515,1.837c-3.069,3.742-6.615,7.025-10.007,10.455c-0.366,0.371-0.752,0.744-1.356,0.525
		C86.919,78.262,85.823,77.742,84.845,76.951z"/>
	<path fill-rule="evenodd" clip-rule="evenodd" fill="#32E3D4" d="M88.184,78.387c0.494-0.004,0.778-0.352,1.087-0.662
		c2.363-2.363,4.753-4.699,7.078-7.1c1.183-1.221,2.238-2.563,3.379-3.827c0.338-0.375,0.294-0.8,0.334-1.228
		c0.489,2.338,0.317,4.613-0.648,6.813c-1.615,1.855-3.135,3.805-5.118,5.305C92.352,78.738,90.309,78.916,88.184,78.387z"/>
	<path fill-rule="evenodd" clip-rule="evenodd" fill="#32DACC" d="M94.295,77.688c1.69-1.783,3.132-3.807,5.118-5.305
		C98.447,74.865,96.698,76.592,94.295,77.688z"/>
	<path fill-rule="evenodd" clip-rule="evenodd" fill="#2FC3BD" d="M48.199,117.957c-1.115-1.014-2.55-1.457-3.84-2.16
		c0.751-1.023,1.942-0.814,2.969-1.063c0.938-0.053,1.784-0.58,2.743-0.527c1.075,0.576,2.181,1.084,3.32,1.525
		c0.458,0.178,1.013,0.289,1.102,0.928c-1.119,0.713-2.299,1.156-3.653,0.816C49.985,117.775,49.11,117.967,48.199,117.957z"/>
	<path fill-rule="evenodd" clip-rule="evenodd" fill="#2CC0BA" d="M50.839,117.477c1.224-0.232,2.451-0.449,3.6-0.959
		c0.262-0.277,0.586-0.262,0.921-0.199c1.378,0.537,2.8,0.926,4.238,1.27c0.458,0.109,0.975,0.133,1.144,0.711
		c-0.011,0.137-0.075,0.24-0.191,0.313c-0.348,0.168-0.696,0.35-1.072,0.066c-0.72,0.238-1.44,0.479-2.16,0.719
		c-0.24,0.207-0.48,0.191-0.72,0c-0.56,0.16-1.12,0.32-1.68,0.48c-0.886-1.002-2.246-1.035-3.339-1.623
		C51.215,118.059,50.852,117.965,50.839,117.477z"/>
	<path fill-rule="evenodd" clip-rule="evenodd" fill="#38C9C5" d="M47.479,115.076c-1.102-0.029-2.1,0.395-3.12,0.721
		c-0.4,0-0.8,0-1.2,0c-0.496-0.82-1.421-1.092-2.121-1.65c-0.33-0.264-0.824-0.406-0.519-0.988c1.177,0.027,2.244-0.467,3.361-0.721
		c1.063,0.33,1.942,1.01,2.895,1.545C47.16,114.199,47.614,114.477,47.479,115.076z"/>
	<path fill-rule="evenodd" clip-rule="evenodd" fill="#2ABBB5" d="M73.879,121.557c7.828-0.59,15.241-2.611,22.149-6.391
		c0.936-0.512,1.741-1.266,2.811-1.529c-0.624,0.943-1.673,1.363-2.585,1.846c-4.788,2.529-9.782,4.559-15.141,5.529
		c-1.98,0.359-3.993,0.547-5.996,0.77C74.71,121.828,74.231,121.951,73.879,121.557z"/>
	<path fill-rule="evenodd" clip-rule="evenodd" fill="#2ABBB5" d="M114.919,97.557c0.374-1.188,1.152-2.156,1.731-3.232
		c2.634-4.895,4.322-10.119,5.434-15.545c0.109-0.535-0.058-1.121,0.275-1.623c0.465,1.195-0.104,2.322-0.332,3.428
		c-1.188,5.766-3.429,11.135-6.37,16.221C115.473,97.123,115.256,97.395,114.919,97.557z"/>
	<path fill-rule="evenodd" clip-rule="evenodd" fill="#2ABBB5" d="M56.599,119.396c0.24,0,0.48,0,0.72,0
		c0.847,0.947,2.089,0.879,3.166,1.137c2.502,0.598,5.083,0.721,7.634,1.023c-1.316,0.689-2.64,0.037-3.934-0.063
		c-2.113-0.164-4.211-0.58-6.259-1.164C57.403,120.18,56.665,120.238,56.599,119.396z"/>
	<path fill-rule="evenodd" clip-rule="evenodd" fill="#2ABBB5" d="M69.319,121.557c1.12,0,2.24,0,3.36,0
		C71.863,122.242,70.135,122.242,69.319,121.557z"/>
	<path fill-rule="evenodd" clip-rule="evenodd" fill="#2ABBB5" d="M102.919,110.756c0.852-0.93,1.749-1.805,2.88-2.398
		C104.984,109.332,104.2,110.342,102.919,110.756z"/>
	<path fill-rule="evenodd" clip-rule="evenodd" fill="#2ABBB5" d="M106.52,107.637c0.701-0.898,1.502-1.697,2.399-2.4
		C108.409,106.326,107.609,107.127,106.52,107.637z"/>
	<path fill-rule="evenodd" clip-rule="evenodd" fill="#2ABBB5" d="M109.64,104.518c0.112-0.721,0.688-1.053,1.199-1.441
		C110.726,103.795,110.15,104.129,109.64,104.518z"/>
	<path fill-rule="evenodd" clip-rule="evenodd" fill="#2ABBB5" d="M98.839,113.637c0.354-0.508,0.85-0.807,1.44-0.961
		C99.97,113.254,99.468,113.539,98.839,113.637z"/>
	<path fill-rule="evenodd" clip-rule="evenodd" fill="#2ABBB5" d="M111.079,102.836c0.059-0.607,0.514-0.9,0.96-1.199
		C111.98,102.246,111.525,102.537,111.079,102.836z"/>
	<path fill-rule="evenodd" clip-rule="evenodd" fill="#2ABBB5" d="M112.039,101.637c0.019-0.486,0.335-0.748,0.72-0.961
		C112.741,101.162,112.424,101.426,112.039,101.637z"/>
	<path fill-rule="evenodd" clip-rule="evenodd" fill="#2ABBB5" d="M100.999,112.197c0.212-0.385,0.474-0.703,0.96-0.721
		C101.748,111.861,101.485,112.178,100.999,112.197z"/>
	<path fill-rule="evenodd" clip-rule="evenodd" fill="#2ABBB5" d="M101.959,111.477c0.212-0.385,0.474-0.701,0.96-0.721
		C102.708,111.143,102.445,111.459,101.959,111.477z"/>
	<path fill-rule="evenodd" clip-rule="evenodd" fill="#2ABBB5" d="M112.759,100.676c0.019-0.486,0.335-0.748,0.721-0.959
		C113.461,100.203,113.145,100.465,112.759,100.676z"/>
	<path fill-rule="evenodd" clip-rule="evenodd" fill="#35D4CA" d="M41.958,109.797c0.282-0.457,0.919-0.023,1.201-0.48
		c0.447-0.482,1.079-0.492,1.653-0.648c0.183-0.025,0.36-0.004,0.529,0.074c0.737,0.719,1.677,1.135,2.519,1.697
		c0.39,0.262,0.968,0.432,0.813,1.111c-0.341,0.287-0.768,0.367-1.176,0.492c-0.971,0.09-1.861,0.787-2.898,0.393
		c0.069-0.779-0.586-0.967-1.076-1.236C42.884,110.848,42.348,110.412,41.958,109.797z"/>
	<path fill-rule="evenodd" clip-rule="evenodd" fill="#33CBC2" d="M44.599,112.436c0.96-0.24,1.92-0.479,2.88-0.719
		c1.065,0.414,2.081,0.934,3.086,1.471c0.394,0.211,0.912,0.377,0.75,1.018c-0.362,0.34-0.753,0.451-1.197,0.152
		c-0.88,0.24-1.761,0.479-2.641,0.719c-0.535-1.053-1.748-1.182-2.553-1.869c-0.328-0.281-0.696-0.514-1.045-0.77
		C44.12,112.438,44.359,112.438,44.599,112.436z"/>
	<path fill-rule="evenodd" clip-rule="evenodd" fill="#38DBD1" d="M44.84,108.838c-0.514,0.322-1.088,0.43-1.68,0.479
		c-0.96-0.799-1.92-1.6-2.88-2.4c0.252-0.35,0.628-0.205,0.96-0.24c0.24-0.08,0.48-0.158,0.72-0.238
		C42.922,107.234,44.155,107.707,44.84,108.838z"/>
	<path fill-rule="evenodd" clip-rule="evenodd" fill="#26BCB4" d="M60.439,118.438c0.08,0,0.16,0,0.24-0.002
		c0.278-0.541,0.753-0.633,1.298-0.568c1.899,0.721,3.921,0.826,5.897,0.926c5.452,0.277,10.867-0.078,16.162-1.551
		c12.653-3.518,22.514-10.809,29.481-21.943c4.055-6.48,6.407-13.555,7.125-21.174c0.108-1.156,0.31-2.295,0.037-3.45
		c0.239-0.398,0.479-0.799,0.72-1.199c0.733,0.139,0.464,0.736,0.464,1.139c0.002,4.7-0.781,9.282-2.161,13.762
		c-2.143,6.959-5.61,13.176-10.446,18.629c-0.289,0.326-0.592,0.65-0.816,1.031c-0.229,0.09-0.389,0.25-0.48,0.48
		c-0.663,0.615-1.303,1.256-1.92,1.92c-0.229,0.09-0.389,0.25-0.479,0.479c-2.654,2.174-5.291,4.359-8.263,6.113
		c-6.923,4.086-14.355,6.486-22.385,7.107c-4.447,0.344-8.833,0.047-13.2-0.758C61.17,119.279,60.451,119.305,60.439,118.438z"/>
	<path fill-rule="evenodd" clip-rule="evenodd" fill="#27BBB4" d="M60.439,118.438c0.965,1.148,2.41,0.963,3.641,1.145
		c2.751,0.406,5.532,0.652,8.33,0.539c6.38-0.26,12.539-1.516,18.417-4.045c4.863-2.094,9.4-4.707,13.313-8.324
		c0.401-0.371,0.836-0.744,1.419-0.836c-1.386,1.672-3.174,2.867-4.902,4.129c-6.286,4.586-13.339,7.375-20.958,8.744
		c-1.822,0.326-3.686,0.494-5.553,0.609c-2.226,0.137-4.434,0.049-6.646-0.057c-2.455-0.115-4.882-0.518-7.293-0.988
		c-0.345-0.068-0.703-0.219-0.729-0.676C59.799,118.598,60.119,118.518,60.439,118.438z"/>
	<path fill-rule="evenodd" clip-rule="evenodd" fill="#27BBB4" d="M108.439,104.037c0.676-1.713,2.143-2.834,3.212-4.25
		c4.741-6.285,7.764-13.309,9.255-21.01c0.521-2.695,0.871-5.418,0.729-8.176c-0.019-0.385,0.131-0.812-0.236-1.125
		c0.08-0.24,0.16-0.479,0.24-0.72c0.963,0.978,0.505,2.212,0.43,3.279c-0.265,3.799-0.776,7.568-1.844,11.252
		c-1.635,5.643-4.064,10.887-7.511,15.652C111.412,100.74,110.188,102.609,108.439,104.037z"/>
	<path fill-rule="evenodd" clip-rule="evenodd" fill="#27BBB4" d="M106.039,106.438c0.354-0.928,0.993-1.568,1.92-1.92
		C107.574,105.412,106.934,106.051,106.039,106.438z"/>
	<path fill-rule="evenodd" clip-rule="evenodd" fill="#24BDB2" d="M120.68,70.675c0.893,0.625,0.519,1.573,0.438,2.319
		c-0.345,3.193-0.75,6.383-1.641,9.486c-1.867,6.508-4.813,12.453-9.034,17.777c-4.788,6.041-10.641,10.738-17.569,14.061
		c-4.649,2.229-9.537,3.699-14.68,4.412c-3.503,0.484-6.996,0.449-10.494,0.389c-1.69-0.027-3.373-0.443-5.062-0.67
		c-0.345-0.047-0.611-0.166-0.758-0.492c0.726-0.699,1.66-0.785,2.591-0.883c1.334,0.098,2.618,0.697,4.003,0.361
		c0.423-0.102,0.878,0.016,1.294,0.18c0.568,0.227,1.167,0.338,1.765,0.262c4.923-0.625,9.854-1.008,14.658-2.553
		c6.128-1.967,11.55-5.051,16.523-9.033c4.094-3.277,7.313-7.32,10.104-11.721c3.165-4.988,5.185-10.412,6.319-16.215
		c0.421-2.156,0.698-4.301,0.822-6.479l0,0C120.199,71.477,120.439,71.076,120.68,70.675z"/>
	<path fill-rule="evenodd" clip-rule="evenodd" fill="#32DCCF" d="M44.84,108.838c-0.982-0.773-2.19-1.277-2.88-2.4
		c0.788-0.037,1.443-0.471,2.16-0.721c0.16,0,0.32,0,0.48,0c0.861,1.033,2.259,1.367,3.12,2.4c-0.616,0.852-1.435,1.029-2.4,0.721
		C45.16,108.838,45,108.838,44.84,108.838z"/>
	<path fill-rule="evenodd" clip-rule="evenodd" fill="#20C3B4" d="M62.839,114.117c4.061-1.541,8.083-3.182,11.952-5.154
		c6.791-3.463,13.189-7.564,19.1-12.381c3.053-2.488,6.039-5.078,8.724-7.975c5.739-6.189,11.204-12.6,15.477-19.933
		c0.094-0.161,0.283-0.267,0.428-0.398c0.438,0.856,0.266,1.745,0.121,2.624c-0.147,0.899-0.272,1.788,0.119,2.657
		c0.296,0.359,0.067,0.68-0.072,1.008c-5.246,7.947-11.444,15.098-18.411,21.561c-4.427,4.109-9.244,7.738-14.365,10.979
		c-4.847,3.066-9.92,5.664-15.141,8.004c-0.438,0.197-0.885,0.369-1.339,0.525c-0.408,0.125-0.796,0.377-1.252,0.199
		c-1.433-0.363-2.933-0.332-4.352-0.74C63.368,114.959,62.611,114.998,62.839,114.117z"/>
	<path fill-rule="evenodd" clip-rule="evenodd" fill="#22BDB1" d="M118.519,74.518c0.08-0.32,0.16-0.641,0.24-0.961
		c0.642-0.387,0.718-1.178,1.2-1.68c0.314,0.156,0.485,0.375,0.437,0.76c-0.477,3.717-1.164,7.389-2.231,10.984
		c-1.617,5.445-4.236,10.385-7.688,14.877c-1.47,1.914-2.87,3.951-4.656,5.533c-2.393,2.119-4.828,4.238-7.571,5.938
		c-3.396,2.104-6.854,4.031-10.727,5.189c-2.463,0.736-4.884,1.701-7.425,2.025c-1.863,0.238-3.708,0.939-5.645,0.543
		c-0.475-0.098-0.929,0.092-1.391,0.254c-1.038,0.367-2.129,0.389-3.156,0.002c-0.791-0.297-1.527-0.266-2.336-0.141
		c-1.063,0.164-2.055-0.287-3.051-0.605c-0.039-0.529,0.441-0.506,0.729-0.689c1.042-0.23,1.928-1.107,3.111-0.75
		c0.32-0.16,0.641-0.32,0.96-0.48c1.528,0.377,3.089,0.217,4.617,0.129c5.384-0.307,10.623-1.381,15.602-3.484
		c10.557-4.457,18.545-11.736,23.875-21.91c2.286-4.365,3.736-8.992,4.577-13.828C118.093,75.631,118.239,75.053,118.519,74.518z"/>
	<path fill-rule="evenodd" clip-rule="evenodd" fill="#24C3B7" d="M68.359,115.797c-1.041,0.32-2.08,0.641-3.12,0.961
		c-2.345-0.033-4.582-0.613-6.784-1.357c-1.134-0.23-2.188-0.705-3.276-1.076c-0.441-0.15-0.947-0.293-0.879-0.941
		c0.127-0.293,0.313-0.426,0.62-0.227c0.905-0.146,1.703-0.688,2.639-0.721c0.906,0.527,1.941,0.686,2.929,0.924
		c0.812,0.193,1.579,0.471,2.352,0.758c0.152,0.672,0.755,0.623,1.222,0.701c1.2,0.203,2.41,0.35,3.62,0.492
		C68.021,115.35,68.316,115.375,68.359,115.797z"/>
	<path fill-rule="evenodd" clip-rule="evenodd" fill="#2DCCC0" d="M54.919,113.156c-0.197,0.006-0.377,0.047-0.481,0.24
		c-0.986,0.475-1.944,1.066-3.119,0.721c-0.614-0.789-1.613-0.934-2.396-1.439c-0.486-0.313-1.14-0.375-1.444-0.961
		c0.4-0.08,0.799-0.16,1.199-0.242c0.635-0.791,1.448-0.988,2.4-0.717c0.935,1.068,2.373,1.186,3.524,1.846
		C54.874,112.76,55.112,112.795,54.919,113.156z"/>
	<path fill-rule="evenodd" clip-rule="evenodd" fill="#2FD5C8" d="M51.079,110.758c-0.8,0.238-1.6,0.479-2.4,0.717
		c-0.698-0.859-1.757-1.191-2.637-1.785c-0.333-0.225-0.726-0.359-0.722-0.852c0.84-0.107,1.629-0.383,2.4-0.721
		c0.24,0,0.48,0,0.72,0c0.609,0.783,1.535,1.08,2.355,1.543c0.438,0.246,0.998,0.328,1.245,0.855
		C51.69,110.48,51.378,110.594,51.079,110.758z"/>
	<path fill-rule="evenodd" clip-rule="evenodd" fill="#29C4BA" d="M51.319,114.117c1.062-0.143,2.021-0.734,3.119-0.721
		c0.722,1.01,2.014,0.828,2.954,1.4c0.316,0.191,0.748,0.191,1.127,0.279c0.279,0.473-0.083,0.66-0.402,0.787
		c-0.872,0.346-1.735,0.76-2.718,0.654c-0.32,0-0.64,0-0.96,0c-1.131-0.486-2.268-0.959-3.392-1.461
		c-0.354-0.158-0.761-0.277-0.928-0.699C50.52,114.277,50.919,114.197,51.319,114.117z"/>
	<path fill-rule="evenodd" clip-rule="evenodd" fill="#28C2B7" d="M55.399,116.518c0.758-0.264,1.526-0.504,2.271-0.801
		c0.326-0.129,0.827-0.086,0.849-0.641c2.149,0.922,4.521,0.955,6.72,1.682c-0.24,0.16-0.48,0.318-0.72,0.479
		c-0.88,0.24-1.76,0.48-2.64,0.721c-0.4,0.16-0.8,0.32-1.2,0.479c-1.042-0.855-2.429-0.666-3.588-1.184
		C56.53,117.004,55.856,117.014,55.399,116.518z"/>
	<path fill-rule="evenodd" clip-rule="evenodd" fill="#1CBFAF" d="M118.519,74.518c-0.427,4.059-1.466,7.969-3.008,11.734
		c-1.99,4.857-4.698,9.275-8.156,13.26c-7.221,8.316-16.306,13.352-27.023,15.502c-3.311,0.664-6.692,0.908-10.083,0.781
		c-0.38-0.014-0.844,0.115-0.929-0.479c2.796-0.947,5.378-2.365,8.022-3.646c3.902-1.891,7.582-4.17,11.159-6.596
		c3.619-2.455,7.068-5.141,10.322-8.08c6.794-6.139,12.909-12.863,18.101-20.42C117.409,75.867,117.797,75.053,118.519,74.518z"/>
</g>
</svg>
