<svg width="128" height="50" viewBox="0 0 128 50" fill="none" xmlns="http://www.w3.org/2000/svg">
<path d="M34.1138 16.1097C33.9709 12.8282 33.1858 9.55593 31.0569 6.99083C29.1618 4.706 26.1234 3.53853 23.1982 3.54225C17.7729 3.54967 12.1082 6.88318 9.97555 11.9428C7.55894 17.6781 8.50554 22.89 8.50554 22.89C8.50554 22.89 9.69157 22.1327 9.73797 20.1411C9.78623 18.1514 10.3542 15.9241 12.2028 15.4508C13.2367 15.1854 14.3577 15.0406 15.4398 15.1668C15.9967 15.2318 16.5442 15.3654 17.062 15.577C17.5984 15.7942 18.0699 16.2359 18.6824 16.1097C18.9552 16.054 19.191 15.8907 19.436 15.7571C20.7334 15.0443 22.5078 15.1798 23.8608 15.7125C25.4868 16.3547 26.6802 17.7264 27.5563 19.1945C29.7372 22.8436 29.4996 27.0606 29.4049 27.4392C29.3103 27.8197 28.7887 29.0039 32.0591 24.5957C33.8298 22.2088 34.24 19.0033 34.1138 16.1097ZM26.515 12.3549C24.0186 10.6807 20.544 10.6492 18.4263 11.5958C16.3103 12.5442 14.8886 13.4927 14.2872 14.1553C13.6877 14.8179 13.1828 14.6601 14.2872 13.3961C14.9944 12.5906 16.7836 10.87 19.4063 10.3633C22.0289 9.85847 24.5866 10.2687 26.1976 11.5326C27.8087 12.7966 29.0096 14.0291 26.515 12.3549ZM32.8907 19.4748C32.8517 19.6511 32.7106 19.8701 32.5473 19.794C32.4433 19.7476 32.4248 19.6103 32.4174 19.4971C32.3561 18.3686 32.3208 17.2326 32.0684 16.1264C31.6731 14.3836 30.8601 12.7539 29.6926 11.4009C28.4416 9.95127 26.8473 8.76338 24.9745 8.27523C23.0961 7.78709 21.1194 7.99868 19.2485 8.40516C14.8886 9.35361 12.7392 12.8597 11.349 14.8179C11.349 14.8179 9.70642 17.0934 11.7611 13.2031C12.8562 11.1262 14.4802 9.16801 16.5553 8.02652C19.822 6.22984 24.362 5.87904 27.6064 7.9133C27.9572 8.13417 28.2932 8.37917 28.6105 8.64459C31.1534 10.7661 32.4378 14.094 32.8888 17.2995C32.9909 18.0215 33.0466 18.7621 32.8907 19.4748Z" fill="white"/>
<path d="M21.0488 24.2653C21.0488 24.2653 23.1016 22.1178 25.7874 22.0547C28.4731 21.9916 28.0629 22.528 27.6824 22.528C27.3019 22.528 26.3553 22.4018 25.535 22.812C24.7127 23.2222 21.743 24.3284 21.3959 24.2969C21.0488 24.2653 21.0488 24.2653 21.0488 24.2653Z" fill="white"/>
<path d="M22.0363 26.6188C22.1216 26.4295 22.4799 26.294 22.6655 26.2197C22.9439 26.1084 23.2798 26.0657 23.5787 26.0657C24.7461 26.0657 25.5368 26.2866 26.5465 25.7817C27.237 25.4365 27.6435 25.1209 27.8309 24.9558C27.8551 24.9353 27.8903 24.9632 27.8736 24.991C27.5358 25.5998 27.0922 26.2439 26.4314 26.5297C26.0491 26.6949 25.6222 26.6819 25.2139 26.6652C24.7443 26.6448 24.2765 26.5873 23.8069 26.5705C23.2613 26.5501 22.5745 26.693 22.0363 26.6188Z" fill="white"/>
<path d="M16.3325 24.2653C16.3325 24.2653 14.2797 22.1178 11.594 22.0547C8.90821 21.9916 9.31841 22.528 9.6989 22.528C10.0775 22.528 11.026 22.4018 11.8464 22.812C12.6668 23.2222 15.6383 24.3284 15.9854 24.2969C16.3325 24.2653 16.3325 24.2653 16.3325 24.2653Z" fill="white"/>
<path d="M15.3451 26.6188C15.2597 26.4295 14.9015 26.294 14.7159 26.2197C14.4375 26.1084 14.1015 26.0657 13.8027 26.0657C12.6352 26.0657 11.8446 26.2866 10.8348 25.7817C10.1444 25.4365 9.73791 25.1209 9.55044 24.9558C9.52632 24.9353 9.49105 24.9632 9.50776 24.991C9.84556 25.5998 10.2892 26.2439 10.9499 26.5297C11.3323 26.6949 11.7592 26.6819 12.1675 26.6652C12.6371 26.6448 13.1048 26.5873 13.5744 26.5705C14.1182 26.5501 14.8068 26.693 15.3451 26.6188Z" fill="white"/>
<path d="M26.088 44.7376C24.2747 43.7037 22.6859 42.1149 21.9286 40.1457C21.8766 40.0083 21.7021 39.9638 21.5871 40.0547C21.0822 40.4538 20.5736 40.8584 19.9426 41.0347C19.3059 41.2129 18.634 41.1294 17.9844 41.0885C16.468 40.9939 13.6709 39.097 10.5434 33.7905C8.85067 30.9191 7.86138 27.426 8.25487 24.0832C8.279 23.8809 8.30869 23.6767 8.27714 23.4762C8.20475 22.977 7.93562 22.5426 7.81869 22.0545C7.68505 21.4902 7.5774 20.9204 7.49573 20.3469C6.97603 16.6774 7.18205 12.6999 9.39264 9.59652C10.8627 7.53257 12.9062 5.93078 14.9367 4.4552C20.0873 0.711496 27.1312 3.22462 27.1312 3.22462C27.1312 3.22462 26.5613 2.51374 23.4339 0.997332C20.3064 -0.519081 12.9136 -0.899576 7.60524 4.21948C2.29872 9.33667 0.54473 15.1183 0.923369 20.2374C1.30386 25.3546 7.30641 29.0036 7.30641 29.0036C7.24145 30.6852 7.30085 32.1979 7.4549 33.5603C7.64793 33.7867 7.90036 33.9167 8.17505 33.9167C9.11237 33.9167 8.89521 31.1437 9.00101 31.1437C9.03999 31.1474 9.06597 31.1827 9.08453 31.2161C9.44647 31.8119 9.59124 32.532 9.49844 33.2225C9.42419 33.7738 9.19218 34.5663 8.58339 34.7408C8.30498 34.8206 8.00801 34.6739 7.80013 34.4735C7.70547 34.3825 7.61638 34.286 7.531 34.1839C8.01729 37.7105 9.13279 40.1735 10.2594 41.8941C11.8705 44.3571 16.3251 49.903 24.503 49.9977C32.6827 50.0924 35.5652 47.2488 35.5652 47.2488C30.8266 47.0113 29.4995 46.679 26.088 44.7376ZM6.70504 25.5606C5.99417 24.486 3.89309 21.0893 4.05086 14.7861C4.17707 9.80812 7.79642 5.30899 10.3541 3.54201C12.9136 1.77503 13.8621 2.08685 13.8621 2.08685C13.8621 2.08685 8.03214 4.54986 5.75845 12.0391C3.4829 19.5265 7.60524 26.2084 7.60524 26.2084C8.08782 27.1049 7.41592 26.6334 6.70504 25.5606Z" fill="white"/>
<path d="M30.1863 29.1468C30.1863 29.1468 29.9969 30.4033 30.4238 31.2553C30.8081 32.0237 30.9807 33.4547 30.4962 34.2157C30.086 34.8598 29.132 34.9953 28.5288 34.5498C28.0945 34.2287 27.8792 33.6737 27.8476 33.1355C27.8161 32.5953 27.9441 32.0608 28.0778 31.5355C28.1353 31.3128 28.2615 31.04 28.4898 31.0604C28.4545 31.0622 28.436 31.9049 28.4323 31.9699C28.41 32.4153 28.3952 32.8552 28.5993 33.2672C28.6995 33.4696 28.8517 33.6533 29.0522 33.7591C29.2527 33.8649 29.5069 33.8816 29.7037 33.7684C29.8299 33.696 29.9246 33.5791 29.9932 33.451C30.448 32.5916 29.919 31.7434 29.8151 30.8915C29.7761 30.5722 29.7965 30.2363 29.8299 29.917C29.8373 29.8038 30.0452 28.6122 30.1863 29.1468Z" fill="white"/>
<path d="M19.2725 32.3132C19.2762 32.3095 19.2799 32.3058 19.2837 32.3002C19.3245 32.2575 19.3802 32.2334 19.4247 32.1963C19.4953 32.1387 19.5379 32.0534 19.5992 31.9847C19.7031 31.8696 19.8665 31.8752 20.0038 31.929C20.0279 31.9383 20.0539 31.9531 20.0651 31.9773C20.0762 32.0051 20.0632 32.0385 20.0502 32.0645C19.9426 32.2761 19.7031 32.5879 19.4377 32.5879C19.2948 32.5898 19.1649 32.4394 19.2725 32.3132Z" fill="white"/>
<path d="M18.1793 32.3132C18.1756 32.3095 18.1719 32.3058 18.1682 32.3002C18.1274 32.2575 18.0717 32.2334 18.0271 32.1963C17.9566 32.1387 17.9139 32.0534 17.8527 31.9847C17.7487 31.8696 17.5854 31.8752 17.448 31.929C17.4239 31.9383 17.3979 31.9531 17.3868 31.9773C17.3757 32.0051 17.3886 32.0385 17.4016 32.0645C17.5093 32.2761 17.7487 32.5879 18.0141 32.5879C18.1571 32.5898 18.287 32.4394 18.1793 32.3132Z" fill="white"/>
<path d="M20.3138 34.9433C19.7848 34.4774 19.6976 34.5331 19.421 34.5405C19.1445 34.5479 18.931 34.9823 18.7176 34.9823C18.5041 34.9823 18.2907 34.5479 18.0141 34.5405C17.7376 34.5331 17.6503 34.4774 17.1213 34.9433C16.5924 35.4092 16.2211 35.5744 16.158 35.6857C16.0949 35.7971 17.1844 36.5228 17.3663 36.6249C17.5482 36.727 17.8879 37.0035 18.7176 36.972C19.5472 37.0035 19.8869 36.727 20.0688 36.6249C20.2507 36.5228 21.3402 35.7952 21.2771 35.6857C21.214 35.5744 20.8428 35.4092 20.3138 34.9433Z" fill="white"/>
<path d="M54.1891 18.0735L48.6283 30.1732L43.0694 18.0735H41.4564V32.1314H42.7204V20.0632L48.1865 32.1314H48.6283H49.0719L54.5362 20.0632V32.1314H55.8002V18.0735H54.1891Z" fill="white"/>
<path d="M65.2792 21.6353C63.2171 21.6353 59.3082 21.7058 59.3082 21.7058V22.6227H64.4254C64.4254 22.6227 66.0049 22.3684 66.0049 24.2969C66.0049 26.2235 66.0049 26.4128 66.0049 26.4128H64.03C63.0482 26.4128 62.0663 26.3887 61.0844 26.4146C60.587 26.4276 59.9931 26.4852 59.5699 26.771C59.0335 27.1329 58.7699 27.9051 58.7699 28.5306C58.7699 30.9936 59.2451 32.1314 61.2032 32.1314C63.1614 32.1314 63.1614 32.1314 63.1614 32.1314C63.1614 32.1314 65.1566 32.3207 66.0049 30.6149V32.085H67.1389V23.8496C67.1389 23.8496 67.3394 21.6353 65.2792 21.6353ZM65.2792 30.678C64.4105 31.4019 63.0667 31.311 61.5503 31.311C60.0339 31.311 59.7499 30.2679 59.7499 29.5718C59.7499 28.8777 59.6163 27.1311 61.2348 27.0457C62.9071 26.9548 66.0049 27.0457 66.0049 27.0457C66.0049 29.5403 65.6578 30.3625 65.2792 30.678Z" fill="white"/>
<path d="M88.12 21.6353C86.0579 21.6353 82.149 21.7058 82.149 21.7058V22.6227H87.2662C87.2662 22.6227 88.8457 22.3684 88.8457 24.2969C88.8457 26.2235 88.8457 26.4128 88.8457 26.4128H86.8708C85.889 26.4128 84.9071 26.3887 83.9252 26.4146C83.4278 26.4276 82.8339 26.4852 82.4107 26.771C81.8743 27.1329 81.6107 27.9051 81.6107 28.5306C81.6107 30.9936 82.0859 32.1314 84.044 32.1314C86.0022 32.1314 86.0022 32.1314 86.0022 32.1314C86.0022 32.1314 87.9975 32.3207 88.8457 30.6149V32.085H89.9798V23.8496C89.9798 23.8496 90.1802 21.6353 88.12 21.6353ZM88.12 30.678C87.2513 31.4019 85.9075 31.311 84.3911 31.311C82.8747 31.311 82.5907 30.2679 82.5907 29.5718C82.5907 28.8777 82.4571 27.1311 84.0756 27.0457C85.7479 26.9548 88.8457 27.0457 88.8457 27.0457C88.8457 29.5403 88.4986 30.3625 88.12 30.678Z" fill="white"/>
<path d="M77.7222 17.0136V23.1832C77.0986 22.1976 75.9998 21.5387 74.747 21.5387H73.2046C71.471 21.5387 70.0641 22.9456 70.0641 24.6792V29.2748C70.0641 31.0084 71.4691 32.4134 73.2027 32.4134H74.4853C75.8588 32.4134 77.0596 31.6784 77.7222 30.5815V32.1294H78.8118V17.0117H77.7222V17.0136ZM77.481 28.8293C77.481 30.2028 76.4249 31.1847 75.0532 31.1847H73.7038C72.4324 31.1847 71.3448 30.2864 71.3448 29.015V24.7905C71.3448 23.5711 72.3341 22.5837 73.5516 22.5837H74.8101C76.2838 22.5837 77.4791 23.779 77.4791 25.2527V28.8293H77.481Z" fill="white"/>
<path d="M107.544 24.7755C107.546 24.4879 107.553 24.1965 107.533 23.9106C107.509 23.5728 107.444 23.2424 107.282 22.9306C107.126 22.6299 106.907 22.3645 106.644 22.1548C105.977 21.6258 105.163 21.6184 104.346 21.6258C103.533 21.6332 102.757 21.687 102.063 22.1455C101.56 22.4777 101.163 22.9566 100.927 23.5079C100.888 23.3111 100.829 23.1162 100.732 22.9306C100.576 22.6299 100.357 22.3645 100.094 22.1548C99.4272 21.6258 98.6124 21.6184 97.7957 21.6258C96.9828 21.6332 96.2069 21.687 95.5128 22.1455C94.9652 22.5074 94.542 23.0438 94.3175 23.66L94.1411 21.7167H93.343V23.9125V32.1405H94.4567V24.6122C94.4882 24.4749 94.5439 24.2521 94.555 24.2243C94.6126 24.061 94.6868 23.905 94.7778 23.7584C94.9578 23.467 95.1972 23.2146 95.4794 23.0216C96.1865 22.539 97.096 22.565 97.922 22.5854C98.4268 22.5984 98.9484 22.5817 99.3586 22.9139C99.6908 23.183 99.8857 23.5932 99.8857 24.0201V24.718V32.1405H100.999C100.999 31.5539 100.999 30.9656 100.999 30.379C100.999 29.2468 100.999 28.1146 100.999 26.9824C100.999 26.5091 100.999 26.0377 100.999 25.5644C100.999 25.3027 100.992 25.0428 100.994 24.7793C100.994 24.7421 100.994 24.7069 100.996 24.6698C101.02 24.551 101.094 24.2577 101.105 24.2243C101.163 24.061 101.237 23.905 101.328 23.7584C101.508 23.467 101.747 23.2146 102.029 23.0216C102.737 22.539 103.646 22.565 104.472 22.5854C104.977 22.5984 105.498 22.5817 105.909 22.9139C106.241 23.183 106.436 23.5932 106.436 24.0201V24.718V32.1405H107.549C107.549 31.5539 107.549 30.9656 107.549 30.379C107.549 29.2468 107.549 28.1146 107.549 26.9824C107.549 26.5091 107.549 26.0377 107.549 25.5644C107.549 25.2971 107.542 25.0373 107.544 24.7755Z" fill="white"/>
<path d="M112.574 18.0103V26.2085V28.5064C112.574 29.2915 111.937 29.9281 111.152 29.9281H109.541V32.1368H112.251C113.906 32.1368 115.25 30.7949 115.25 29.1374V28.6251V26.2085V18.0103H112.574Z" fill="white"/>
<path d="M123.987 21.6221C123.987 21.6221 120.683 21.6221 120.681 21.6221C119.391 21.6221 118.207 22.4554 117.773 23.6712C117.5 24.434 117.598 25.3528 117.587 26.1565C117.574 27.1216 117.593 28.0868 117.593 29.0519C117.593 30.7558 118.974 32.1386 120.679 32.1386C120.679 32.1386 123.983 32.1386 123.985 32.1386C125.238 32.1386 126.68 31.2625 126.938 29.9688C127.122 29.0427 127.111 28.0255 127.124 27.0845C127.137 26.1119 127.099 25.1393 127.012 24.1723C126.903 22.9454 125.719 21.8949 124.56 21.6778C124.373 21.6406 124.18 21.6221 123.987 21.6221ZM124.538 29.0315C124.538 29.709 123.989 30.2602 123.309 30.2602H121.31C120.633 30.2602 120.082 29.7108 120.082 29.0315V24.8535C120.082 24.176 120.631 23.6248 121.31 23.6248H123.309C123.987 23.6248 124.538 24.1742 124.538 24.8535V29.0315Z" fill="white"/>
</svg>
