<?xml version="1.0" encoding="utf-8"?>
<!-- Generator: Adobe Illustrator 16.0.0, SVG Export Plug-In . SVG Version: 6.00 Build 0)  -->
<!DOCTYPE svg PUBLIC "-//W3C//DTD SVG 1.1//EN" "http://www.w3.org/Graphics/SVG/1.1/DTD/svg11.dtd">
<svg version="1.1" id="Layer_1" xmlns="http://www.w3.org/2000/svg" xmlns:xlink="http://www.w3.org/1999/xlink" x="0px" y="0px"
	 width="17px" height="17px" viewBox="-0.5 -1.5 17 17" enable-background="new -0.5 -1.5 17 17" xml:space="preserve">
<path fill="#5F666E" d="M3.453,1.089c-0.067-0.068-0.146-0.123-0.234-0.16C3.131,0.892,3.037,0.872,2.941,0.871
	C2.846,0.87,2.751,0.888,2.663,0.923S2.494,1.012,2.426,1.079c-0.77,0.766-1.381,1.676-1.797,2.679C0.212,4.76-0.001,5.836,0,6.922
	c-0.001,1.127,0.229,2.243,0.677,3.277c0.448,1.035,1.104,1.967,1.927,2.737c0.139,0.128,0.321,0.197,0.51,0.192
	c0.188-0.004,0.368-0.082,0.5-0.217c0.316-0.316,0.277-0.819-0.027-1.11c-0.661-0.63-1.186-1.387-1.545-2.226
	C1.684,8.737,1.499,7.834,1.5,6.922c0-1.846,0.741-3.521,1.943-4.738C3.733,1.889,3.763,1.398,3.453,1.089z M5.214,2.852
	c-0.131-0.135-0.312-0.213-0.5-0.216s-0.372,0.069-0.507,0.2C3.665,3.37,3.235,4.006,2.942,4.707C2.65,5.409,2.5,6.162,2.5,6.922
	c0,1.691,0.73,3.213,1.893,4.265c0.137,0.121,0.316,0.185,0.499,0.178s0.356-0.084,0.484-0.216c0.328-0.328,0.267-0.844-0.041-1.134
	C4.913,9.617,4.577,9.139,4.347,8.606C4.117,8.074,3.999,7.501,4,6.922c0-1.15,0.457-2.194,1.2-2.96
	C5.486,3.667,5.533,3.169,5.214,2.852z M10.786,2.852c0.132-0.135,0.312-0.213,0.501-0.216c0.188-0.003,0.371,0.069,0.507,0.2
	c0.541,0.534,0.971,1.17,1.264,1.872C13.35,5.409,13.5,6.162,13.5,6.922c0,1.691-0.73,3.213-1.893,4.265
	c-0.138,0.121-0.316,0.185-0.5,0.178c-0.183-0.007-0.355-0.084-0.483-0.216c-0.328-0.328-0.267-0.844,0.041-1.134
	c0.423-0.397,0.759-0.876,0.988-1.408S12.001,7.501,12,6.922c0-1.15-0.457-2.194-1.2-2.96C10.514,3.667,10.467,3.169,10.786,2.852z
	 M12.547,1.09c0.066-0.068,0.146-0.123,0.234-0.16c0.088-0.037,0.182-0.057,0.277-0.058c0.096-0.001,0.189,0.017,0.278,0.052
	s0.169,0.088,0.237,0.155c0.77,0.766,1.381,1.676,1.797,2.678c0.416,1.003,0.63,2.078,0.629,3.164
	c0.002,1.127-0.229,2.243-0.678,3.277c-0.447,1.035-1.104,1.967-1.926,2.737c-0.139,0.128-0.322,0.197-0.511,0.192
	c-0.188-0.004-0.368-0.082-0.499-0.217c-0.316-0.316-0.277-0.819,0.027-1.11c0.66-0.63,1.186-1.387,1.545-2.226
	c0.357-0.84,0.542-1.742,0.541-2.654c0-1.846-0.741-3.521-1.943-4.738C12.268,1.889,12.236,1.398,12.547,1.09L12.547,1.09z M8,5.422
	c-0.398,0-0.779,0.158-1.061,0.439S6.5,6.524,6.5,6.922c0,0.397,0.158,0.779,0.439,1.061S7.602,8.422,8,8.422
	s0.779-0.158,1.061-0.439S9.5,7.319,9.5,6.922c0-0.398-0.158-0.78-0.439-1.061S8.398,5.422,8,5.422z"/>
</svg>
