<?xml version="1.0" encoding="utf-8"?>
<!-- Generator: Adobe Illustrator 16.0.0, SVG Export Plug-In . SVG Version: 6.00 Build 0)  -->
<!DOCTYPE svg PUBLIC "-//W3C//DTD SVG 1.1//EN" "http://www.w3.org/Graphics/SVG/1.1/DTD/svg11.dtd">
<svg version="1.1" id="Layer_1" xmlns="http://www.w3.org/2000/svg" xmlns:xlink="http://www.w3.org/1999/xlink" x="0px" y="0px"
	 width="17px" height="17px" viewBox="-0.406 -0.531 17 17" enable-background="new -0.406 -0.531 17 17" xml:space="preserve">
<path fill="#5F666E" d="M8.458,10.969v-0.113h-0.7v0.113l-1.163-0.45v1.399l1.163-0.537v0.162h0.7v-0.162l1.137,0.524v-1.387
	L8.458,10.969z M11.658,10.731l-3.562,2.623l-3.563-2.623c0,0-4.438,0.749-4.438,3.048c0,2.961,16,2.961,16,0
	C16.096,11.48,11.658,10.731,11.658,10.731z M12.996,4.46c-0.063-0.013-0.125,0.087-0.188,0.237c-0.1-1.337-0.7-2.511-1.6-3.348
	C10.396,0.512,9.296,0,8.083,0C7.659,0,7.259,0.063,6.871,0.175c-0.05,0.013-0.1,0.025-0.138,0.05
	c-0.725,0.25-1.375,0.688-1.887,1.274C4.108,2.236,3.608,3.223,3.434,4.322c-0.1-0.1-0.188-0.15-0.3-0.137
	C2.759,4.21,2.496,4.972,2.546,5.909c0.05,0.924,0.4,1.661,0.775,1.649c0.137-0.013,0.275-0.112,0.375-0.3
	c0.05,0.05,0.112,0.087,0.188,0.137c0.775,1.624,2.375,2.749,4.212,2.749c2.038,0,3.788-1.375,4.437-3.311
	c0.025,0.188,0.075,0.3,0.138,0.313c0.15,0.012,0.351-0.563,0.438-1.299C13.196,5.084,13.146,4.472,12.996,4.46z M8.096,9.632
	c-1.375,0-2.6-0.712-3.363-1.812c0.813,0.35,1.775,0.662,1.975,0.662C6.771,8.77,7.271,8.957,7.858,8.92
	c0.625-0.037,1.113-0.3,1.1-0.6c-0.012-0.3-0.538-0.512-1.163-0.487c-0.412,0.025-0.775,0.15-0.962,0.325
	C6.571,8.17,5.246,7.67,4.396,7.246C4.083,6.608,3.909,5.896,3.909,5.134c0-0.362,0.038-0.712,0.112-1.049
	c0.2,0.075,0.413,0.112,0.625,0.112c0.988,0,1.825-0.812,2.163-1.961c0.638,1.149,2.275,1.961,4.2,1.961
	c0.412,0,0.8-0.037,1.175-0.1c0.075,0.337,0.112,0.687,0.112,1.037C12.296,7.608,10.408,9.632,8.096,9.632z"/>
</svg>
