<svg width="17" height="16" viewBox="0 0 17 16" fill="none" xmlns="http://www.w3.org/2000/svg">
<path d="M8.45857 10.9686V10.8561H7.75857V10.9686L6.59607 10.5188V11.918L7.75857 11.3808V11.5432H8.45857V11.3808L9.59607 11.9055V10.5188L8.45857 10.9686ZM11.6586 10.7312L8.09607 13.3547L4.53357 10.7312C4.53357 10.7312 0.0960693 11.4808 0.0960693 13.7794C0.0960693 16.7402 16.0961 16.7402 16.0961 13.7794C16.0961 11.4808 11.6586 10.7312 11.6586 10.7312ZM12.9961 4.45989C12.9336 4.44739 12.8711 4.54734 12.8086 4.69725C12.7086 3.36053 12.1086 2.18622 11.2086 1.34921C10.3961 0.5122 9.29607 0 8.08357 0C7.65857 0 7.25857 0.0624634 6.87107 0.174898C6.82107 0.18739 6.77107 0.199883 6.73357 0.224868C6.00857 0.474722 5.35857 0.911966 4.84607 1.49912C4.10857 2.23619 3.60857 3.22311 3.43357 4.32247C3.33357 4.22253 3.24607 4.17256 3.13357 4.18505C2.75857 4.21003 2.49607 4.97209 2.54607 5.90904C2.59607 6.8335 2.94607 7.57056 3.32107 7.55807C3.45857 7.54558 3.59607 7.44564 3.69607 7.25825C3.74607 7.30822 3.80857 7.3457 3.88357 7.39567C4.65857 9.01972 6.25857 10.1441 8.09607 10.1441C10.1336 10.1441 11.8836 8.76986 12.5336 6.8335C12.5586 7.02089 12.6086 7.13332 12.6711 7.14581C12.8211 7.15831 13.0211 6.58364 13.1086 5.84657C13.1961 5.08452 13.1461 4.47238 12.9961 4.45989ZM8.09607 9.63186C6.72107 9.63186 5.49607 8.91977 4.73357 7.82042C5.54607 8.17021 6.50857 8.48253 6.70857 8.48253C6.77107 8.76986 7.27107 8.95725 7.85857 8.91977C8.48357 8.8823 8.97107 8.61995 8.95857 8.32012C8.94607 8.0203 8.42107 7.80793 7.79607 7.83291C7.38357 7.8579 7.02107 7.98282 6.83357 8.15772C6.57107 8.17021 5.24607 7.67051 4.39607 7.24575C4.08357 6.60863 3.90857 5.89654 3.90857 5.13449C3.90857 4.7722 3.94607 4.42241 4.02107 4.08511C4.22107 4.16006 4.43357 4.19754 4.64607 4.19754C5.63357 4.19754 6.47107 3.38552 6.80857 2.23619C7.44607 3.38552 9.08357 4.19754 11.0086 4.19754C11.4211 4.19754 11.8086 4.16006 12.1836 4.0976C12.2586 4.4349 12.2961 4.7847 12.2961 5.13449C12.2961 7.60804 10.4086 9.63186 8.09607 9.63186Z" fill="#5F666E"/>
</svg>
