<?xml version="1.0" encoding="utf-8"?>
<!-- Generator: Adobe Illustrator 16.0.0, SVG Export Plug-In . SVG Version: 6.00 Build 0)  -->
<!DOCTYPE svg PUBLIC "-//W3C//DTD SVG 1.1//EN" "http://www.w3.org/Graphics/SVG/1.1/DTD/svg11.dtd">
<svg version="1.1" id="Layer_1" xmlns="http://www.w3.org/2000/svg" xmlns:xlink="http://www.w3.org/1999/xlink" x="0px" y="0px"
	 width="106.7px" height="106.7px" viewBox="0 0 106.7 106.7" enable-background="new 0 0 106.7 106.7" xml:space="preserve">
<radialGradient id="SVGID_1_" cx="53.335" cy="53.335" r="53.335" gradientUnits="userSpaceOnUse">
	<stop  offset="0" style="stop-color:#2AD0D1"/>
	<stop  offset="1" style="stop-color:#0FA7D2"/>
</radialGradient>
<polygon fill="url(#SVGID_1_)" points="53.3,0 56.8,4.2 60.9,0.6 63.8,5.2 68.4,2.2 70.5,7.2 75.5,4.8 76.9,10.1 82.2,8.5 
	82.8,13.9 88.3,13 88.1,18.5 93.6,18.4 92.7,23.8 98.2,24.5 96.5,29.8 101.9,31.2 99.5,36.1 104.5,38.3 101.4,42.9 106.1,45.8 
	102.4,49.8 106.7,53.3 102.4,56.9 106.1,60.9 101.4,63.8 104.5,68.4 99.5,70.5 101.9,75.5 96.5,76.9 98.2,82.2 92.7,82.8 93.6,88.3 
	88.1,88.1 88.3,93.6 82.8,92.7 82.2,98.2 76.9,96.5 75.5,101.9 70.5,99.5 68.4,104.5 63.8,101.4 60.9,106.1 56.8,102.4 53.3,106.7 
	49.8,102.4 45.7,106.1 42.9,101.4 38.3,104.5 36.1,99.5 31.2,101.9 29.8,96.5 24.5,98.2 23.8,92.7 18.4,93.6 18.5,88.1 13,88.3 
	13.9,82.8 8.5,82.2 10.1,76.9 4.8,75.5 7.2,70.5 2.2,68.4 5.2,63.8 0.5,60.9 4.2,56.9 0,53.3 4.2,49.8 0.5,45.8 5.2,42.9 2.2,38.3 
	7.2,36.1 4.8,31.2 10.1,29.8 8.5,24.5 13.9,23.8 13,18.4 18.5,18.5 18.4,13 23.8,13.9 24.5,8.5 29.8,10.1 31.2,4.8 36.1,7.2 
	38.3,2.2 42.9,5.2 45.7,0.6 49.8,4.2 "/>
<path fill-rule="evenodd" clip-rule="evenodd" fill="#FFFFFF" d="M53.3,8.2C28.5,8.2,8.2,28.5,8.2,53.3c0,24.9,20.2,45.1,45.1,45.1
	s45.1-20.2,45.1-45.1C98.5,28.5,78.2,8.2,53.3,8.2z M53.3,99C28.2,99,7.7,78.5,7.7,53.3c0-25.2,20.5-45.6,45.6-45.6
	C78.5,7.7,99,28.2,99,53.3C99,78.5,78.5,99,53.3,99z"/>
<path fill-rule="evenodd" clip-rule="evenodd" fill="#FFFFFF" d="M53.3,18.4c-19.3,0-34.9,15.7-34.9,34.9
	c0,19.3,15.7,34.9,34.9,34.9c19.3,0,34.9-15.7,34.9-34.9C88.3,34.1,72.6,18.4,53.3,18.4z M53.3,88.8c-19.5,0-35.4-15.9-35.4-35.4
	c0-19.5,15.9-35.4,35.4-35.4c19.5,0,35.4,15.9,35.4,35.4C88.8,72.9,72.9,88.8,53.3,88.8z"/>
<path fill="#FFFFFF" d="M14.9,53.3c0,1-0.8,1.8-1.8,1.8s-1.8-0.8-1.8-1.8c0-1,0.8-1.8,1.8-1.8S14.9,52.3,14.9,53.3z"/>
<path fill="#FFFFFF" d="M94.9,53.3c0,1-0.8,1.8-1.8,1.8c-1,0-1.8-0.8-1.8-1.8c0-1,0.8-1.8,1.8-1.8C94.1,51.5,94.9,52.3,94.9,53.3z"
	/>
<path fill-rule="evenodd" clip-rule="evenodd" fill="#FFFFFF" d="M28.7,21.4l1.4-0.9c0.8-0.5,1.4-0.5,1.7,0c0.2,0.3,0.2,0.6,0.1,0.8
	c-0.1,0.2-0.3,0.5-0.7,0.7l-1.5,1L28.7,21.4z M27.1,19.1l1.2-0.8c0.3-0.2,0.6-0.3,0.9-0.3c0.2,0,0.4,0.1,0.6,0.4
	c0.3,0.5,0.1,0.9-0.6,1.4l-1.2,0.8L27.1,19.1z M33.1,21.2c0-0.5-0.1-0.9-0.3-1.3c-0.2-0.3-0.5-0.6-0.9-0.7c-0.4-0.1-0.8-0.1-1.1,0.1
	c0.1-0.1,0.1-0.2,0.1-0.2c0,0,0.1-0.1,0.1-0.3c0.1-0.4,0-0.8-0.3-1.3c-0.3-0.4-0.6-0.6-1-0.7c-0.3,0-0.5,0-0.9,0.1
	c-0.3,0.1-0.7,0.3-1.1,0.5l-2.2,1.4l3.8,5.6l2.4-1.6C32.6,22.3,33,21.8,33.1,21.2z"/>
<path fill-rule="evenodd" clip-rule="evenodd" fill="#FFFFFF" d="M39.8,14.8c-0.4-0.9-1.1-1.5-2-1.9C36.9,12.6,36,12.6,35,13
	c-0.9,0.4-1.6,1.1-2,2c-0.4,0.9-0.3,1.8,0.1,2.8c0.4,0.9,1.1,1.6,2,1.9c0.9,0.4,1.8,0.3,2.8-0.1c0.9-0.4,1.6-1.1,1.9-2
	C40.2,16.6,40.2,15.7,39.8,14.8z M38.7,15.3c0.3,0.6,0.3,1.3,0.1,1.9c-0.2,0.6-0.7,1.1-1.3,1.4c-0.6,0.3-1.3,0.3-1.9,0
	c-0.6-0.3-1.1-0.7-1.4-1.3C34,16.6,34,16,34.2,15.4c0.2-0.6,0.7-1.1,1.3-1.4c0.6-0.3,1.3-0.3,1.9,0C38,14.2,38.4,14.6,38.7,15.3z"/>
<path fill-rule="evenodd" clip-rule="evenodd" fill="#FFFFFF" d="M43,14.7l0.6-3.2l1.9,2.6L43,14.7z M46.2,15.1l1.1,1.4l1.3-0.3
	L43.9,10l-1.3,0.3L41.1,18l1.3-0.3l0.3-1.8L46.2,15.1z"/>
<path fill-rule="evenodd" clip-rule="evenodd" fill="#FFFFFF" d="M51.2,12.9l-1.5,0l-0.1-2.5l1.5,0c0.6,0,1.1,0.1,1.3,0.2
	c0.3,0.2,0.4,0.5,0.4,0.9c0,0.4-0.1,0.8-0.3,1C52.3,12.7,51.9,12.8,51.2,12.9z M53.4,9.8c-0.5-0.4-1.3-0.5-2.3-0.5l-2.6,0.1l0.2,7
	l1.2,0L49.8,14l1.6,0l1.7,2.3l1.5,0l-1.9-2.5c1-0.3,1.5-1.1,1.4-2.2C54.1,10.7,53.8,10.1,53.4,9.8z"/>
<path fill-rule="evenodd" clip-rule="evenodd" fill="#FFFFFF" d="M60.1,15.4c-0.5,0.3-1.2,0.4-2.1,0.3l-1.3-0.2l0.9-4.8l1.2,0.2
	c1.8,0.3,2.6,1.3,2.3,2.9C61,14.5,60.6,15.1,60.1,15.4z M59,9.7l-2.4-0.4l-1.3,7l2.3,0.4c1.4,0.2,2.4,0.1,3.2-0.4
	c0.8-0.5,1.3-1.3,1.4-2.4c0.2-1.1,0-2-0.5-2.7C61.2,10.4,60.3,10,59,9.7z"/>
<path fill-rule="evenodd" clip-rule="evenodd" fill="#FFFFFF" d="M73.4,18.7c0.5-0.9,0.5-1.8,0.2-2.8c-0.3-0.9-0.9-1.6-1.9-2.1
	c-0.9-0.5-1.9-0.5-2.8-0.2c-0.9,0.3-1.6,0.9-2.1,1.8c-0.5,0.9-0.5,1.9-0.2,2.8c0.3,0.9,1,1.6,1.9,2.1c0.9,0.5,1.9,0.5,2.8,0.2
	C72.2,20.2,72.9,19.6,73.4,18.7z M72.3,18.1c-0.3,0.6-0.8,1.1-1.4,1.3c-0.6,0.2-1.3,0.2-1.9-0.1c-0.6-0.3-1.1-0.8-1.3-1.4
	c-0.2-0.7-0.1-1.3,0.2-1.9c0.3-0.6,0.8-1.1,1.4-1.3c0.6-0.2,1.3-0.2,1.9,0.1c0.6,0.3,1,0.8,1.3,1.4C72.6,16.9,72.6,17.5,72.3,18.1z"
	/>
<polygon fill-rule="evenodd" clip-rule="evenodd" fill="#FFFFFF" points="79.3,20.1 79.9,19.3 76.2,16.8 72.4,22.4 73.4,23 
	74.9,20.7 77.4,22.4 78,21.5 75.5,19.8 76.6,18.3 "/>
<path fill-rule="evenodd" clip-rule="evenodd" fill="#FFFFFF" d="M28.3,46l1.4,3.9h-2.9L28.3,46z M32.8,53.1l-3.6-9h-1.7l-3.7,9h1.7
	l0.8-1.7h4.1l0.8,1.7H32.8z"/>
<path fill-rule="evenodd" clip-rule="evenodd" fill="#FFFFFF" d="M37.3,51.7c-0.6,0-1-0.2-1.3-0.6c-0.3-0.4-0.5-0.9-0.5-1.5
	c0-0.6,0.2-1.1,0.5-1.5c0.3-0.4,0.8-0.6,1.3-0.6c0.5,0,0.9,0.2,1.3,0.6c0.3,0.4,0.5,0.9,0.5,1.5s-0.2,1.1-0.5,1.5
	C38.2,51.5,37.8,51.7,37.3,51.7z M37.6,46.1c-0.5,0-0.9,0.1-1.3,0.3c-0.4,0.2-0.7,0.5-0.9,0.9v-1.2h-1.6v10h1.6v-4.2
	c0.2,0.4,0.5,0.7,0.9,0.9c0.4,0.2,0.8,0.3,1.3,0.3c0.6,0,1.1-0.1,1.6-0.4c0.5-0.3,0.8-0.7,1.1-1.2c0.3-0.5,0.4-1.1,0.4-1.8
	c0-0.7-0.1-1.3-0.4-1.8c-0.3-0.5-0.6-0.9-1.1-1.2C38.8,46.2,38.2,46.1,37.6,46.1z"/>
<path fill-rule="evenodd" clip-rule="evenodd" fill="#FFFFFF" d="M45.3,51.7c-0.6,0-1-0.2-1.3-0.6c-0.3-0.4-0.5-0.9-0.5-1.5
	c0-0.6,0.2-1.1,0.5-1.5c0.3-0.4,0.8-0.6,1.3-0.6c0.5,0,0.9,0.2,1.3,0.6c0.3,0.4,0.5,0.9,0.5,1.5s-0.2,1.1-0.5,1.5
	C46.2,51.5,45.8,51.7,45.3,51.7z M45.6,46.1c-0.5,0-0.9,0.1-1.3,0.3c-0.4,0.2-0.7,0.5-0.9,0.9v-1.2h-1.6v10h1.6v-4.2
	c0.2,0.4,0.5,0.7,0.9,0.9c0.4,0.2,0.8,0.3,1.3,0.3c0.6,0,1.1-0.1,1.6-0.4c0.5-0.3,0.8-0.7,1.1-1.2c0.3-0.5,0.4-1.1,0.4-1.8
	c0-0.7-0.1-1.3-0.4-1.8c-0.3-0.5-0.6-0.9-1.1-1.2C46.8,46.2,46.2,46.1,45.6,46.1z"/>
<path fill-rule="evenodd" clip-rule="evenodd" fill="#FFFFFF" d="M51.4,47.3v-1.2h-1.6v7h1.6v-3.4c0-0.6,0.2-1.2,0.6-1.6
	c0.4-0.4,0.9-0.6,1.6-0.6v-1.4c-0.5,0-0.9,0.1-1.3,0.3C51.9,46.6,51.6,46.9,51.4,47.3z"/>
<path fill-rule="evenodd" clip-rule="evenodd" fill="#FFFFFF" d="M57.6,47.5c0.5,0,1,0.2,1.3,0.6c0.3,0.4,0.5,0.9,0.5,1.5
	c0,0.6-0.2,1.1-0.5,1.5c-0.4,0.4-0.8,0.6-1.3,0.6c-0.5,0-1-0.2-1.3-0.6c-0.3-0.4-0.5-0.9-0.5-1.5c0-0.6,0.2-1.1,0.5-1.5
	C56.7,47.7,57.1,47.5,57.6,47.5z M57.6,46.1c-0.7,0-1.3,0.2-1.8,0.4c-0.5,0.3-0.9,0.7-1.2,1.2c-0.3,0.5-0.4,1.1-0.4,1.8
	c0,0.7,0.1,1.3,0.4,1.9c0.3,0.5,0.7,0.9,1.2,1.2c0.5,0.3,1.1,0.4,1.8,0.4c0.7,0,1.3-0.1,1.8-0.4c0.5-0.3,0.9-0.7,1.2-1.2
	c0.3-0.5,0.4-1.1,0.4-1.9c0-0.7-0.2-1.3-0.4-1.8c-0.3-0.5-0.7-0.9-1.2-1.2C58.9,46.2,58.3,46.1,57.6,46.1z"/>
<polygon fill-rule="evenodd" clip-rule="evenodd" fill="#FFFFFF" points="64.3,53.1 65.9,53.1 68.4,46.1 66.8,46.1 65.2,51.4 
	63.5,46.1 61.9,46.1 "/>
<path fill-rule="evenodd" clip-rule="evenodd" fill="#FFFFFF" d="M69.8,49c0.1-0.5,0.3-0.8,0.6-1.1c0.3-0.3,0.7-0.4,1.2-0.4
	c0.5,0,0.9,0.1,1.2,0.4c0.3,0.3,0.4,0.6,0.5,1.1H69.8z M71.5,46.1c-0.6,0-1.2,0.2-1.7,0.5c-0.5,0.3-0.9,0.7-1.2,1.2
	c-0.3,0.5-0.4,1.1-0.4,1.8c0,0.7,0.1,1.3,0.4,1.8c0.3,0.5,0.7,0.9,1.2,1.2c0.5,0.3,1.1,0.4,1.7,0.4c0.6,0,1.1-0.1,1.5-0.3
	c0.4-0.2,0.8-0.5,1.2-0.9L73.4,51c-0.2,0.2-0.5,0.4-0.8,0.5s-0.6,0.1-0.9,0.1c-0.5,0-0.9-0.1-1.2-0.3c-0.3-0.2-0.5-0.5-0.6-1h4.7
	c0-0.1,0-0.3,0-0.5c0-1.2-0.3-2.1-0.8-2.8C73.3,46.4,72.5,46.1,71.5,46.1z"/>
<path fill-rule="evenodd" clip-rule="evenodd" fill="#FFFFFF" d="M78.6,51.7c-0.5,0-1-0.2-1.3-0.6c-0.3-0.4-0.5-0.9-0.5-1.5
	c0-0.6,0.2-1.1,0.5-1.5c0.3-0.4,0.8-0.6,1.3-0.6c0.5,0,1,0.2,1.3,0.6c0.4,0.4,0.5,0.9,0.5,1.5c0,0.6-0.2,1.1-0.5,1.5
	C79.6,51.5,79.2,51.7,78.6,51.7z M80.5,43.1v4.2c-0.3-0.4-0.5-0.7-0.9-0.9c-0.4-0.2-0.8-0.3-1.3-0.3c-0.6,0-1.1,0.2-1.6,0.4
	c-0.5,0.3-0.8,0.7-1.1,1.2c-0.3,0.5-0.4,1.1-0.4,1.8c0,0.7,0.1,1.3,0.4,1.8c0.3,0.5,0.6,1,1.1,1.3c0.5,0.3,1,0.4,1.6,0.4
	c0.5,0,0.9-0.1,1.3-0.3c0.4-0.2,0.7-0.5,0.9-0.9v1.2H82v-10H80.5z"/>
<path fill-rule="evenodd" clip-rule="evenodd" fill="#FFFFFF" d="M39.5,61.1l0.9-1.3c-0.4-0.4-0.9-0.7-1.5-1
	c-0.6-0.2-1.2-0.4-1.8-0.4c-0.8,0-1.6,0.2-2.3,0.6c-0.7,0.4-1.2,0.9-1.6,1.6c-0.4,0.7-0.6,1.5-0.6,2.3c0,0.9,0.2,1.6,0.6,2.3
	c0.4,0.7,0.9,1.2,1.6,1.6c0.7,0.4,1.4,0.6,2.2,0.6c0.6,0,1.2-0.1,1.8-0.3c0.6-0.2,1.1-0.6,1.5-1l-1-1.2c-0.3,0.3-0.7,0.6-1.1,0.8
	c-0.4,0.2-0.8,0.3-1.2,0.3c-0.5,0-1-0.1-1.4-0.4c-0.4-0.3-0.8-0.7-1-1.1c-0.3-0.5-0.4-1-0.4-1.6s0.1-1.1,0.4-1.6
	c0.3-0.5,0.6-0.8,1-1.1c0.4-0.3,0.9-0.4,1.4-0.4c0.4,0,0.8,0.1,1.2,0.3C38.8,60.4,39.2,60.8,39.5,61.1z"/>
<path fill-rule="evenodd" clip-rule="evenodd" fill="#FFFFFF" d="M44.1,61.9c0.5,0,1,0.2,1.3,0.6c0.3,0.4,0.5,0.9,0.5,1.5
	c0,0.6-0.2,1.1-0.5,1.5c-0.4,0.4-0.8,0.6-1.3,0.6c-0.5,0-1-0.2-1.3-0.6c-0.3-0.4-0.5-0.9-0.5-1.5c0-0.6,0.2-1.1,0.5-1.5
	C43.2,62.1,43.6,61.9,44.1,61.9z M44.1,60.5c-0.7,0-1.3,0.2-1.8,0.4c-0.5,0.3-0.9,0.7-1.2,1.2c-0.3,0.5-0.4,1.1-0.4,1.8
	c0,0.7,0.1,1.3,0.4,1.9c0.3,0.5,0.7,1,1.2,1.2c0.5,0.3,1.1,0.4,1.8,0.4c0.7,0,1.3-0.1,1.8-0.4c0.5-0.3,0.9-0.7,1.2-1.2
	c0.3-0.5,0.4-1.1,0.4-1.9c0-0.7-0.2-1.3-0.4-1.8c-0.3-0.5-0.7-0.9-1.2-1.2C45.4,60.6,44.8,60.5,44.1,60.5z"/>
<path fill-rule="evenodd" clip-rule="evenodd" fill="#FFFFFF" d="M53.7,60.5V64c0,0.6-0.2,1.1-0.4,1.4C53,65.8,52.6,66,52.1,66
	c-0.4,0-0.8-0.1-1-0.4c-0.3-0.3-0.4-0.7-0.4-1.2v-3.9h-1.6v4.3c0,0.8,0.2,1.5,0.6,2c0.4,0.5,1,0.7,1.7,0.7c1.1,0,1.8-0.4,2.2-1.3
	v1.3h1.6v-7H53.7z"/>
<path fill-rule="evenodd" clip-rule="evenodd" fill="#FFFFFF" d="M58.9,61.7v-1.2h-1.6v7h1.6V64c0-0.6,0.2-1.2,0.6-1.6
	c0.4-0.4,0.9-0.6,1.6-0.6v-1.4c-0.5,0-0.9,0.1-1.3,0.3C59.4,61,59.1,61.3,58.9,61.7z"/>
<path fill-rule="evenodd" clip-rule="evenodd" fill="#FFFFFF" d="M66.1,62.5l0.6-1.3c-0.3-0.3-0.7-0.4-1.1-0.6
	c-0.4-0.1-0.8-0.2-1.3-0.2c-0.7,0-1.3,0.2-1.7,0.5c-0.5,0.3-0.7,0.8-0.7,1.5c0,0.4,0.1,0.8,0.3,1c0.2,0.3,0.4,0.5,0.7,0.6
	c0.3,0.1,0.6,0.3,1.1,0.4c0.4,0.1,0.8,0.3,1,0.4c0.2,0.1,0.3,0.3,0.3,0.5c0,0.2-0.1,0.4-0.3,0.5c-0.2,0.1-0.4,0.2-0.7,0.2
	c-0.4,0-0.8-0.1-1.1-0.2c-0.4-0.1-0.8-0.3-1-0.6l-0.5,1.2c0.3,0.3,0.7,0.6,1.2,0.8c0.5,0.2,1,0.3,1.5,0.3c0.7,0,1.3-0.2,1.8-0.5
	c0.5-0.3,0.7-0.9,0.7-1.5c0-0.4-0.1-0.8-0.3-1.1c-0.2-0.3-0.5-0.5-0.8-0.6c-0.3-0.1-0.6-0.3-1.1-0.4c-0.4-0.1-0.8-0.2-0.9-0.4
	c-0.2-0.1-0.3-0.3-0.3-0.5c0-0.2,0.1-0.3,0.2-0.4c0.1-0.1,0.4-0.1,0.6-0.1c0.3,0,0.6,0.1,0.9,0.2C65.5,62.2,65.8,62.3,66.1,62.5z"/>
<path fill-rule="evenodd" clip-rule="evenodd" fill="#FFFFFF" d="M69.3,63.4c0.1-0.5,0.3-0.8,0.6-1.1c0.3-0.3,0.7-0.4,1.2-0.4
	c0.5,0,0.9,0.1,1.2,0.4c0.3,0.3,0.4,0.6,0.5,1.1H69.3z M71,60.5c-0.6,0-1.2,0.2-1.7,0.5c-0.5,0.3-0.9,0.7-1.2,1.2
	c-0.3,0.5-0.4,1.1-0.4,1.8c0,0.7,0.1,1.3,0.4,1.8c0.3,0.5,0.7,0.9,1.2,1.2c0.5,0.3,1.1,0.4,1.7,0.4c0.6,0,1.1-0.1,1.5-0.3
	c0.4-0.2,0.8-0.5,1.2-0.9l-0.8-0.9c-0.2,0.2-0.5,0.4-0.8,0.5c-0.3,0.1-0.6,0.2-0.9,0.2c-0.5,0-0.9-0.1-1.2-0.3
	c-0.3-0.2-0.5-0.5-0.6-0.9h4.7c0-0.1,0-0.3,0-0.5c0-1.2-0.3-2.1-0.8-2.8C72.8,60.8,72,60.5,71,60.5z"/>
<path fill-rule="evenodd" clip-rule="evenodd" fill="#FFFFFF" d="M24,83.5c-0.1-0.7,0-1.3,0.5-1.8c0.4-0.6,0.9-0.9,1.6-1
	c0.6-0.1,1.2,0.1,1.8,0.5c0.3,0.2,0.5,0.5,0.7,0.7c0.2,0.3,0.3,0.6,0.4,1.1l1.1-0.2c-0.1-1.1-0.6-1.9-1.5-2.5
	c-0.9-0.6-1.8-0.9-2.8-0.7c-1,0.1-1.7,0.6-2.3,1.5c-0.6,0.8-0.8,1.7-0.6,2.6c0.2,0.9,0.7,1.7,1.5,2.3c0.8,0.6,1.8,0.8,2.9,0.5
	L27,85.5c-0.4,0.1-0.8,0.1-1.1,0c-0.3-0.1-0.6-0.2-0.9-0.4C24.4,84.6,24.1,84.1,24,83.5z"/>
<path fill-rule="evenodd" clip-rule="evenodd" fill="#FFFFFF" d="M33.9,88.5c0.4-0.7,0.5-1.4,0.3-2.2c-0.2-0.8-0.7-1.3-1.4-1.7
	c-0.7-0.4-1.5-0.5-2.2-0.3c-0.8,0.2-1.3,0.7-1.7,1.4c-0.4,0.7-0.5,1.4-0.3,2.1s0.7,1.3,1.4,1.7c0.7,0.4,1.4,0.5,2.2,0.3
	C33,89.6,33.5,89.2,33.9,88.5z M29.9,86.2c0.3-0.5,0.6-0.8,1.1-0.9c0.4-0.1,0.9-0.1,1.3,0.2s0.7,0.6,0.8,1c0.1,0.4,0,0.9-0.2,1.4
	c-0.3,0.5-0.6,0.8-1.1,0.9c-0.5,0.1-0.9,0.1-1.3-0.2c-0.4-0.3-0.7-0.6-0.8-1.1C29.6,87.1,29.6,86.7,29.9,86.2z"/>
<path fill-rule="evenodd" clip-rule="evenodd" fill="#FFFFFF" d="M38.4,90.5c-0.1-0.2-0.3-0.3-0.4-0.4l-0.4-0.4
	c-0.1-0.1-0.3-0.2-0.5-0.4c-0.2-0.1-0.3-0.2-0.4-0.3c-0.1-0.1-0.2-0.3-0.1-0.4c0.1-0.2,0.2-0.3,0.4-0.3c0.2,0,0.4,0,0.6,0.1
	c0.4,0.2,0.8,0.5,1.1,0.9l0.7-0.6c-0.4-0.5-0.8-0.9-1.4-1.1c-0.6-0.2-1.1-0.3-1.5-0.2c-0.5,0.1-0.8,0.4-1,0.9c-0.3,0.6,0,1.3,0.9,2
	c0,0,0,0.1,0.1,0.1c0.5,0.5,0.8,0.8,0.7,1c-0.1,0.1-0.2,0.3-0.4,0.3c-0.2,0-0.4,0-0.6-0.1c-0.5-0.2-1-0.7-1.4-1.3l-0.8,0.6
	c0.2,0.4,0.4,0.7,0.8,1c0.3,0.3,0.6,0.5,1,0.6c0.5,0.2,1,0.3,1.4,0.1c0.4-0.1,0.8-0.4,1-0.9C38.6,91.3,38.6,90.9,38.4,90.5z"/>
<path fill-rule="evenodd" clip-rule="evenodd" fill="#FFFFFF" d="M42.2,90.3c0.4-0.2,0.7-0.2,1.1-0.1c0.4,0.1,0.6,0.3,0.8,0.6
	c0.1,0.3,0.1,0.7,0,1.2l-0.7,2.9l1.1,0.3l0.7-3c0.1-0.5,0.4-0.8,0.7-1c0.3-0.2,0.7-0.2,1.1-0.1c0.8,0.2,1.1,0.8,0.9,1.8l-0.7,2.9
	l1.1,0.3l0.8-3.3c0.1-0.7,0.1-1.3-0.2-1.7c-0.3-0.5-0.7-0.8-1.3-0.9c-0.8-0.2-1.5,0-2.2,0.6c-0.1-0.8-0.6-1.3-1.4-1.5
	c-0.4-0.1-0.8-0.1-1.1,0c-0.4,0.1-0.7,0.3-0.9,0.6l0.2-1l-1.1-0.3L39.6,94l1.1,0.3l0.7-2.9C41.6,90.9,41.8,90.5,42.2,90.3z"/>
<path fill-rule="evenodd" clip-rule="evenodd" fill="#FFFFFF" d="M51.6,92.1c0.3-0.2,0.7-0.3,1.1-0.3c0.4,0,0.8,0.1,1,0.4
	c0.3,0.3,0.4,0.6,0.4,1l-3-0.1C51.1,92.7,51.3,92.4,51.6,92.1z M55.3,93.4c0-0.8-0.2-1.4-0.7-1.8c-0.5-0.5-1.1-0.7-1.8-0.7
	c-0.7,0-1.4,0.2-1.9,0.7c-0.5,0.5-0.8,1.1-0.9,2c0,0.9,0.2,1.5,0.7,2c0.5,0.5,1.1,0.8,1.9,0.8c0.9,0,1.7-0.2,2.3-0.8l-0.6-0.7
	c-0.4,0.4-0.9,0.6-1.6,0.6c-0.4,0-0.8-0.1-1.1-0.4c-0.3-0.3-0.5-0.6-0.5-0.9l4.2,0.1L55.3,93.4z"/>
<path fill-rule="evenodd" clip-rule="evenodd" fill="#FFFFFF" d="M59.1,91.4L59,90.5l-1.4,0.2L57.4,89l-1.1,0.1l0.2,1.7l-0.6,0.1
	l0.1,0.9l0.7-0.1l0.3,2.7c0.1,0.6,0.3,1,0.7,1.3c0.4,0.3,0.8,0.4,1.3,0.4c0.5-0.1,0.9-0.3,1.2-0.7l-0.5-0.7
	c-0.2,0.3-0.4,0.4-0.6,0.4c-0.3,0-0.4,0-0.6-0.2c-0.1-0.1-0.2-0.3-0.3-0.6l-0.3-2.7L59.1,91.4z"/>
<path fill-rule="evenodd" clip-rule="evenodd" fill="#FFFFFF" d="M66,91.5c-0.2-0.8-0.6-1.3-1.3-1.7c-0.7-0.4-1.4-0.5-2.2-0.3
	c-0.8,0.2-1.4,0.7-1.8,1.3c-0.4,0.7-0.5,1.4-0.3,2.2c0.2,0.8,0.6,1.3,1.3,1.7c0.7,0.4,1.4,0.5,2.2,0.3c0.8-0.2,1.4-0.7,1.8-1.3
	C66.1,93,66.2,92.3,66,91.5z M61.5,92.7c-0.1-0.5-0.1-1,0.1-1.4c0.2-0.4,0.6-0.7,1.1-0.8c0.5-0.1,0.9-0.1,1.3,0.2
	c0.4,0.2,0.7,0.6,0.8,1.1c0.1,0.5,0.1,1-0.1,1.4c-0.2,0.4-0.6,0.7-1.1,0.8c-0.5,0.1-0.9,0.1-1.3-0.2C61.9,93.6,61.6,93.2,61.5,92.7z
	"/>
<polygon fill-rule="evenodd" clip-rule="evenodd" fill="#FFFFFF" points="67.3,86.5 66.3,86.9 69.2,93.6 70.2,93.1 "/>
<path fill-rule="evenodd" clip-rule="evenodd" fill="#FFFFFF" d="M75.2,86.7c-0.4-0.7-1-1.1-1.8-1.3c-0.8-0.2-1.5-0.1-2.2,0.3
	c-0.7,0.4-1.2,1-1.4,1.8c-0.2,0.8-0.1,1.5,0.3,2.2c0.4,0.7,1,1.1,1.8,1.3c0.8,0.2,1.5,0.1,2.2-0.4c0.7-0.4,1.2-1,1.4-1.8
	C75.7,88.1,75.6,87.4,75.2,86.7z M71.1,89c-0.3-0.5-0.3-0.9-0.2-1.4c0.1-0.5,0.4-0.8,0.8-1.1c0.4-0.3,0.9-0.3,1.3-0.2
	c0.4,0.1,0.8,0.4,1.1,0.9c0.3,0.5,0.4,0.9,0.3,1.4c-0.1,0.5-0.4,0.8-0.8,1.1c-0.4,0.3-0.9,0.3-1.4,0.2C71.8,89.8,71.4,89.5,71.1,89z
	"/>
<path fill-rule="evenodd" clip-rule="evenodd" fill="#FFFFFF" d="M76.6,83.8c0-0.4,0.2-0.8,0.5-1.1c0.4-0.3,0.8-0.4,1.2-0.4
	c0.4,0.1,0.8,0.3,1.1,0.6c0.3,0.4,0.4,0.8,0.4,1.2c0,0.4-0.2,0.8-0.6,1.1c-0.4,0.3-0.8,0.4-1.2,0.3c-0.4-0.1-0.8-0.3-1.1-0.6
	C76.8,84.6,76.6,84.2,76.6,83.8z M77.9,81l0.5,0.6c-0.7-0.2-1.4,0-1.9,0.5s-0.9,1-0.9,1.7c0,0.7,0.2,1.3,0.7,1.9
	c0.5,0.6,1.1,0.9,1.8,1c0.7,0.1,1.3-0.1,1.9-0.5c0.3-0.3,0.5-0.5,0.7-0.9c0.1-0.4,0.1-0.7,0.1-1.1l0.4,0.5c0.4,0.5,0.5,0.9,0.5,1.4
	c-0.1,0.4-0.3,0.8-0.7,1.2c-0.4,0.3-1,0.5-1.6,0.5l0.1,1c0.8,0,1.6-0.3,2.2-0.8c0.6-0.5,1-1.1,1.1-1.9c0.1-0.7-0.2-1.4-0.8-2.2
	l-3-3.7L77.9,81z"/>
<path fill-rule="evenodd" clip-rule="evenodd" fill="#FFFFFF" d="M86.3,83c0-0.3,0-0.7-0.1-1l-2.7-6l-0.8,0.9l1.7,3.7L80.6,79
	l-0.8,0.8c3.4,1.4,5.2,2.1,5.3,2.2c0.1,0.1,0.2,0.3,0.3,0.5c0,0.2-0.1,0.4-0.2,0.6c-0.2,0.2-0.4,0.3-0.7,0.3l0.3,1
	c0.5,0,0.9-0.2,1.3-0.6C86.1,83.6,86.2,83.3,86.3,83z"/>
</svg>
