<?xml version="1.0" encoding="utf-8"?>
<!-- Generator: Adobe Illustrator 16.0.0, SVG Export Plug-In . SVG Version: 6.00 Build 0)  -->
<!DOCTYPE svg PUBLIC "-//W3C//DTD SVG 1.1//EN" "http://www.w3.org/Graphics/SVG/1.1/DTD/svg11.dtd">
<svg version="1.1" id="Layer_1" xmlns="http://www.w3.org/2000/svg" xmlns:xlink="http://www.w3.org/1999/xlink" x="0px" y="0px"
	 width="351.1px" height="44px" viewBox="0 0 351.1 44" enable-background="new 0 0 351.1 44" xml:space="preserve">
<path fill="#FFFFFF" d="M68.1,9.4c0,2.3-1.7,2.7-3.1,2.7h-2V6.9h2.3C66.5,6.9,68.1,7.3,68.1,9.4z M72.8,21.9l-4.2-7.6
	C70.7,13.5,72,11.6,72,9c0-3.9-3.102-5-6.4-5H59.2v17.9H63.1v-7h1.5l3.8,7H72.8z"/>
<polygon fill="#FFFFFF" points="87.3,22 87.3,19.1 79.4,19.1 79.4,14.9 86.5,14.9 86.5,12.1 79.4,12.1 79.4,6.9 86.9,6.9 86.9,4 
	75.5,4 75.5,22 "/>
<polygon fill="#FFFFFF" points="105.9,21.9 105.9,4.1 102,4.1 102.1,15.7 102,15.7 95.6,4.1 91,4.1 91,21.9 94.9,21.9 94.9,10.3 
	94.9,10.3 101.4,21.9 "/>
<polygon fill="#FFFFFF" points="122.3,22 122.3,19.1 114.4,19.1 114.4,14.9 121.4,14.9 121.4,12.1 114.4,12.1 114.4,6.9 121.8,6.9 
	121.8,4 110.5,4 110.5,22 "/>
<polygon fill="#FFFFFF" points="148.6,4.1 144.3,4.1 141.5,16 141.5,16 138.4,4.1 134.1,4.1 131.1,16 131,16 128.3,4.1 123.9,4.1 
	128.7,21.9 132.8,21.9 136.2,9.8 136.3,9.8 139.6,21.9 143.7,21.9 "/>
<path fill="#FFFFFF" d="M172.1,19.2l-2.898-2.7c-0.7,1-2,1.7-3.602,1.7c-2.8,0-4.8-2.1-4.8-5.3c0-3,2-5.3,4.9-5.3
	c1.3,0,2.698,0.5,3.398,1.6l2.8-2.8c-1.398-1.6-4-2.5-6.398-2.5c-5.102,0-8.602,3.5-8.602,9c0,5.4,3.4,9,8.602,9
	C168.4,22,170.6,20.9,172.1,19.2z"/>
<path fill="#FFFFFF" d="M188.4,12.9c0,3.1-2.1,5.3-5.1,5.3s-5.1-2.2-5.1-5.3c0-3,2.1-5.2,5.1-5.2S188.4,9.9,188.4,12.9z M192.3,12.9
	c0-5.5-3.5-8.9-8.9-8.9c-5.5,0-8.898,3.4-8.898,8.9c0,5.4,3.5,9.1,8.898,9.1C188.8,22,192.3,18.4,192.3,12.9z"/>
<path fill="#FFFFFF" d="M206.9,5.8C205.5,4.6,203.5,4,201.5,4c-3.4,0-6.602,1.3-6.602,5c0,3.4,2.102,4.6,4.102,5.4
	c2.5,0.8,3.898,1.2,3.898,2.7s-1.198,2-2.6,2c-1.5,0-2.9-0.9-3.7-2l-2.6,2.8c1.398,1.3,3.8,2.1,6.3,2.1c3.5,0,6.5-1.5,6.5-5.4
	c0-3.7-2.8-4.8-5.1-5.6c-1.802-0.6-2.9-1-2.9-2.2c0-1.5,1.5-1.9,2.6-1.9c1.2,0,2.4,0.6,3.102,1.6L206.9,5.8z"/>
<polygon fill="#FFFFFF" points="229.3,21.9 229.3,4.1 223.5,4.1 220,15.5 219.9,15.5 216.2,4.1 210.4,4.1 210.4,21.9 214.3,21.9 
	214.2,8.9 214.3,8.9 218.4,21.9 221.1,21.9 225.4,8.9 225.4,8.9 225.3,21.9 "/>
<polygon fill="#FFFFFF" points="245.6,22 245.6,19.1 237.7,19.1 237.7,14.9 244.8,14.9 244.8,12.1 237.7,12.1 237.7,6.9 245.2,6.9 
	245.2,4 233.9,4 233.9,22 "/>
<polygon fill="#FFFFFF" points="261,6.9 261,4 247.5,4 247.5,6.9 252.3,6.9 252.3,21.9 256.2,21.9 256.2,6.9 "/>
<path fill="#FFFFFF" d="M276.8,12.9c0,3.1-2.1,5.3-5.1,5.3s-5-2.2-5-5.3c0-3,2-5.2,5-5.2S276.8,9.9,276.8,12.9z M280.7,12.9
	c0-5.5-3.5-8.9-9-8.9s-8.9,3.4-8.9,8.9c0,5.4,3.5,9.1,8.9,9.1C277.2,22,280.7,18.4,280.7,12.9z"/>
<polygon fill="#FFFFFF" points="294.8,22 294.8,19.1 288.2,19.1 288.2,4.1 284.3,4.1 284.3,22 "/>
<path fill="#FFFFFF" d="M310.8,12.9c0,3.1-2.1,5.3-5.1,5.3s-5-2.2-5-5.3c0-3,2-5.2,5-5.2S310.8,9.9,310.8,12.9z M314.7,12.9
	c0-5.5-3.5-8.9-9-8.9s-8.9,3.4-8.9,8.9c0,5.4,3.5,9.1,8.9,9.1C311.2,22,314.7,18.4,314.7,12.9z"/>
<path fill="#FFFFFF" d="M333.1,20.8v-8.7h-7.2V15h3.4v3.6c-0.8,0.4-1.7,0.5-2.7,0.5c-3.5,0-5.5-2.6-5.5-5.7s2.2-5.7,5.3-5.7
	c1.802,0,3.2,0.8,4,1.8L333,6.3c-1.4-1.4-3.9-2.3-6.7-2.3c-5.4,0-9,3.5-9,9.4c0,5.7,3.5,8.6,9.1,8.6C329.1,22,331.4,21.5,333.1,20.8
	z"/>
<polygon fill="#FFFFFF" points="351.1,4.1 346.4,4.1 342.8,10.7 339.3,4.1 334.4,4.1 340.7,14.4 340.7,21.9 344.6,21.9 344.6,14.4 
	"/>
<path fill="#FFFFFF" d="M61.8,34.8c0.2-0.6,0.4-1.1,0.5-1.5c0,0.101,0.1,0.3,0.2,0.601l1.2,3.199H61L61.8,34.8z M63.1,32h-1.7L58,41
	h1.6l0.9-2.8h3.6L65,41h1.6L63.1,32z"/>
<path fill="#FFFFFF" d="M74.2,39.8c-0.602,0-1.102-0.2-1.302-0.5C72.6,38.9,72.5,38.4,72.5,37.5v-0.2c0-0.7,0.1-1.3,0.398-1.6
	c0.302-0.3,0.7-0.5,1.302-0.5c0.6,0,1,0.2,1.3,0.6c0.3,0.4,0.398,1,0.398,1.7s-0.1,1.3-0.398,1.7C75.2,39.6,74.8,39.8,74.2,39.8z
	 M72.4,35.1C72.3,34.6,72.2,34.2,72.2,34H71v10h1.5v-2.9c0-0.1,0-0.5-0.102-1.1H72.5c0.5,0.6,1.2,0.9,2.1,0.9
	c0.9,0,1.602-0.301,2.102-0.9s0.8-1.5,0.8-2.6c0-1.102-0.3-2-0.7-2.602c-0.5-0.6-1.2-0.898-2.1-0.898C73.7,34,73,34.4,72.4,35.1
	L72.4,35.1z"/>
<path fill="#FFFFFF" d="M85.2,39.8c-0.602,0-1.102-0.2-1.302-0.5C83.6,38.9,83.5,38.4,83.5,37.5v-0.2c0-0.7,0.1-1.3,0.398-1.6
	c0.302-0.3,0.7-0.5,1.302-0.5c0.6,0,1,0.2,1.3,0.6c0.3,0.4,0.398,1,0.398,1.7s-0.1,1.3-0.398,1.7C86.1,39.6,85.7,39.8,85.2,39.8z
	 M83.4,35.1C83.3,34.6,83.2,34.2,83.2,34H82v10h1.5v-2.9c0-0.1,0-0.5-0.102-1.1H83.5c0.5,0.6,1.2,0.9,2.1,0.9
	c0.9,0,1.602-0.301,2.102-0.9s0.8-1.5,0.8-2.6c0-1.102-0.3-2-0.7-2.602c-0.5-0.6-1.2-0.898-2.1-0.898C84.6,34,83.9,34.4,83.4,35.1
	L83.4,35.1z"/>
<path fill="#FFFFFF" d="M95.3,34.3c-0.4,0.2-0.7,0.5-0.9,0.9h-0.1L94.1,34h-1.2v7h1.5v-3.7c0-0.6,0.2-1.1,0.602-1.5
	c0.398-0.399,0.8-0.6,1.398-0.6c0.2,0,0.4,0,0.7,0.1L97.2,34c-0.2,0-0.4,0-0.7,0C96,34,95.6,34.1,95.3,34.3z"/>
<path fill="#FFFFFF" d="M102.3,40c0.6,0.7,1.4,1,2.4,1s1.898-0.3,2.5-0.9c0.6-0.6,0.898-1.5,0.898-2.6s-0.3-1.9-0.898-2.6
	c-0.602-0.602-1.4-1-2.5-1c-1,0-1.9,0.3-2.4,0.898c-0.6,0.602-0.9,1.5-0.9,2.602C101.4,38.5,101.7,39.4,102.3,40z M106.5,37.5
	c0,1.5-0.602,2.3-1.8,2.3c-1.2,0-1.802-0.8-1.802-2.3s0.602-2.3,1.802-2.3C105.9,35.2,106.5,36,106.5,37.5z"/>
<path fill="#FFFFFF" d="M118.7,34H117.1l-1.398,4.1c-0.302,0.801-0.4,1.4-0.4,1.7h-0.1c-0.102-0.399-0.2-1-0.4-1.7l-1.4-4.1h-1.6
	l2.7,7h1.6L118.7,34z"/>
<path fill="#FFFFFF" d="M128.2,40.5v-1.1c-0.802,0.3-1.5,0.398-2.302,0.398c-0.6,0-1.1-0.1-1.5-0.398c-0.3-0.301-0.5-0.7-0.5-1.2
	h4.7v-0.9c0-1-0.3-1.899-0.8-2.399c-0.6-0.601-1.3-0.899-2.3-0.899s-1.7,0.3-2.3,1c-0.602,0.601-0.9,1.5-0.9,2.601
	s0.3,1.899,0.9,2.601c0.6,0.6,1.5,0.899,2.6,0.899C126.7,41,127.5,40.8,128.2,40.5z M127.1,37h-3.2c0.102-0.6,0.2-1,0.5-1.3
	c0.302-0.3,0.7-0.5,1.102-0.5c0.5,0,0.898,0.2,1.1,0.5C126.9,36,127,36.4,127.1,37z"/>
<path fill="#FFFFFF" d="M136.4,35.2c0.602,0,1.102,0.2,1.4,0.5c0.3,0.399,0.4,1,0.4,1.8v0.2c0,0.7-0.2,1.3-0.4,1.6s-0.7,0.5-1.3,0.5
	c-0.602,0-1-0.2-1.3-0.6c-0.302-0.4-0.4-0.9-0.4-1.7s0.1-1.3,0.4-1.7C135.5,35.4,135.9,35.2,136.4,35.2z M138.2,40l0.3,1h1.2V31
	h-1.5v2.7c0,0.3,0,0.8,0.1,1.3h-0.1c-0.5-0.7-1.2-1-2.102-1c-0.898,0-1.6,0.3-2.1,0.9c-0.5,0.6-0.7,1.5-0.7,2.6s0.2,2,0.7,2.6
	c0.5,0.602,1.2,0.9,2.1,0.9C137,41,137.6,40.7,138.2,40L138.2,40z"/>
<path fill="#FFFFFF" d="M157.8,33.7l0.5-1.2c-0.8-0.4-1.7-0.6-2.6-0.6c-0.9,0-1.7,0.199-2.4,0.6s-1.2,0.9-1.6,1.6
	c-0.4,0.7-0.5,1.5-0.5,2.4c0,1.4,0.398,2.5,1.1,3.3s1.8,1.2,3.1,1.2c0.9,0,1.802-0.1,2.5-0.4V39.4c-0.898,0.3-1.6,0.398-2.3,0.398
	c-0.898,0-1.6-0.3-2.1-0.8c-0.5-0.601-0.7-1.399-0.7-2.399c0-1.101,0.3-1.899,0.8-2.5s1.2-0.899,2.102-0.899
	C156.2,33.2,156.9,33.4,157.8,33.7z"/>
<path fill="#FFFFFF" d="M163,40c0.6,0.7,1.398,1,2.398,1s1.9-0.3,2.4-0.9c0.6-0.6,0.9-1.5,0.9-2.6s-0.302-1.9-0.9-2.6
	c-0.6-0.602-1.4-1-2.4-1c-1.1,0-1.898,0.3-2.398,0.898c-0.602,0.602-0.9,1.5-0.9,2.602C162,38.5,162.3,39.4,163,40z M167.2,37.5
	c0,1.5-0.602,2.3-1.802,2.3c-1.198,0-1.8-0.8-1.8-2.3s0.602-2.3,1.8-2.3C166.6,35.2,167.2,36,167.2,37.5z"/>
<path fill="#FFFFFF" d="M177.1,34c-0.5,0-0.898,0.1-1.3,0.3s-0.7,0.4-0.9,0.8h-0.1l-0.2-1h-1.2v7h1.5V37.7c0-0.9,0.102-1.4,0.4-1.8
	c0.3-0.4,0.8-0.602,1.4-0.602c0.5,0,0.8,0.102,1,0.4c0.198,0.3,0.3,0.699,0.3,1.199V41h1.5v-4.5C179.6,34.8,178.8,34,177.1,34z"/>
<path fill="#FFFFFF" d="M186,35.2h2V34h-2v-1.5h-0.9l-0.5,1.5l-1,0.5v0.7h1v3.6c0,1.4,0.7,2.2,2.102,2.2c0.6,0,1-0.1,1.5-0.2v-1.1
	c-0.4,0.1-0.7,0.2-1.102,0.2c-0.3,0-0.6-0.102-0.8-0.301S186,39.2,186,38.799V35.2z"/>
<path fill="#FFFFFF" d="M193.7,31.2c-0.2-0.101-0.4-0.2-0.602-0.2c-0.3,0-0.5,0.1-0.6,0.2c-0.102,0.1-0.2,0.3-0.2,0.399
	c0,0.101,0.1,0.301,0.2,0.399c0.1,0.101,0.398,0.2,0.6,0.2c0.3,0,0.5,0,0.602-0.2c0.1-0.101,0.198-0.3,0.198-0.399
	C193.9,31.5,193.8,31.3,193.7,31.2z M192.3,34v7h1.5v-7H192.3z"/>
<path fill="#FFFFFF" d="M202.9,34c-0.5,0-0.898,0.1-1.3,0.3c-0.398,0.2-0.7,0.4-0.898,0.8H200.6l-0.2-1H199.2v7h1.5V37.7
	c0-0.9,0.1-1.4,0.398-1.8c0.3-0.4,0.8-0.602,1.4-0.602c0.5,0,0.8,0.102,1.1,0.4c0.2,0.3,0.3,0.699,0.3,1.199V41h1.5v-4.5
	C205.4,34.8,204.6,34,202.9,34z"/>
<path fill="#FFFFFF" d="M216.3,34h-1.5v3.5c0,0.9-0.2,1.5-0.4,1.9C214.1,39.8,213.6,40,213,40c-0.5,0-0.8-0.1-1.102-0.4
	c-0.198-0.3-0.3-0.699-0.3-1.199V34h-1.5v4.5c0,0.9,0.2,1.5,0.602,1.9C211.1,40.8,211.8,41,212.6,41c0.5,0,0.9-0.1,1.3-0.2
	c0.4-0.2,0.7-0.399,0.9-0.7h0.1l0.2,0.9h1.2V34z"/>
<path fill="#FFFFFF" d="M222.5,31.2c-0.2-0.101-0.4-0.2-0.602-0.2c-0.3,0-0.5,0.1-0.6,0.2c-0.2,0.1-0.2,0.3-0.2,0.399
	c0,0.101,0.102,0.301,0.2,0.399s0.3,0.2,0.6,0.2c0.302,0,0.5,0,0.602-0.2c0.1-0.101,0.2-0.3,0.2-0.399S222.6,31.3,222.5,31.2z
	 M221.1,34v7h1.5v-7H221.1z"/>
<path fill="#FFFFFF" d="M231.7,34c-0.5,0-0.9,0.1-1.302,0.3c-0.398,0.2-0.698,0.4-0.898,0.8H229.4l-0.198-1H228v7h1.5V37.7
	c0-0.9,0.1-1.4,0.398-1.8c0.302-0.4,0.802-0.602,1.4-0.602c0.5,0,0.8,0.102,1,0.4s0.3,0.699,0.3,1.199V41h1.5v-4.5
	C234.3,34.8,233.4,34,231.7,34z"/>
<path fill="#FFFFFF" d="M242.6,36.1c0,0.602-0.398,0.9-1.3,0.9c-0.4,0-0.8-0.1-1-0.2c-0.2-0.2-0.3-0.399-0.3-0.7
	c0-0.3,0.1-0.5,0.3-0.699s0.6-0.199,1-0.199C242.2,35.2,242.6,35.5,242.6,36.1z M242.5,34H242H241.4c-0.898,0-1.6,0.2-2.1,0.5
	c-0.5,0.4-0.7,0.9-0.7,1.5c0,0.4,0.102,0.8,0.3,1.1c0.2,0.301,0.5,0.5,0.9,0.7c-0.3,0.2-0.6,0.5-0.7,0.7c-0.1,0.2-0.2,0.5-0.2,0.8
	s0.102,0.5,0.2,0.8c0.102,0.2,0.3,0.4,0.5,0.5c-0.5,0.102-0.898,0.301-1.1,0.602c-0.3,0.3-0.4,0.6-0.4,1c0,0.6,0.3,1,0.8,1.398
	c0.5,0.301,1.2,0.5,2.2,0.5c1.3,0,2.2-0.199,2.9-0.6s1-1,1-1.8c0-0.601-0.2-1-0.602-1.4c-0.398-0.3-1-0.5-1.8-0.5h-1.2
	c-0.398,0-0.698,0-0.8-0.2c-0.2-0.1-0.2-0.3-0.2-0.5c0-0.398,0.2-0.699,0.5-1C241,38.2,241.3,38.2,241.5,38.2
	c0.898,0,1.6-0.2,2.1-0.5s0.8-0.8,0.8-1.4c0-0.399-0.1-0.7-0.398-1l1.2-0.2V34H242.5z M241.9,41c0.602,0,1,0,1.2,0.2
	c0.2,0.1,0.3,0.3,0.3,0.6s-0.198,0.601-0.6,0.8c-0.4,0.2-1,0.301-1.8,0.301c-0.5,0-1-0.101-1.2-0.199c-0.3-0.2-0.4-0.4-0.4-0.602
	c0-0.3,0.102-0.5,0.4-0.699c0.3-0.199,0.6-0.301,1-0.301h1.1V41z"/>
<polygon fill="#FFFFFF" points="257.5,39.8 257.5,37.2 261.1,37.2 261.1,36 257.5,36 257.5,33.2 261.3,33.2 261.3,32 256,32 256,41 
	261.3,41 261.3,39.8 "/>
<path fill="#FFFFFF" d="M268.6,35.2c0.602,0,1,0.2,1.4,0.5c0.3,0.399,0.398,1,0.398,1.8v0.2c0,0.7-0.1,1.3-0.398,1.6
	s-0.7,0.5-1.3,0.5c-0.602,0-1-0.2-1.302-0.6c-0.3-0.4-0.398-0.9-0.398-1.7s0.1-1.3,0.398-1.7C267.6,35.4,268,35.2,268.6,35.2z
	 M270.4,40l0.302,1h1.198V31h-1.5v2.7c0,0.3,0,0.8,0.102,1.3H270.4c-0.5-0.7-1.198-1-2.1-1s-1.6,0.3-2.1,0.9
	c-0.5,0.6-0.7,1.5-0.7,2.6s0.2,2,0.7,2.6c0.5,0.602,1.198,0.9,2.1,0.9C269.1,41,269.8,40.7,270.4,40L270.4,40z"/>
<path fill="#FFFFFF" d="M282.9,34h-1.5v3.5c0,0.9-0.198,1.5-0.398,1.9c-0.3,0.398-0.8,0.6-1.4,0.6c-0.5,0-0.8-0.1-1-0.4
	c-0.2-0.3-0.3-0.699-0.3-1.199V34h-1.5v4.5c0,0.9,0.2,1.5,0.6,1.9c0.4,0.398,1.102,0.6,1.9,0.6c0.5,0,0.9-0.1,1.3-0.2
	c0.4-0.2,0.7-0.399,0.9-0.7h0.1l0.2,0.9h1.2v-7H282.9z"/>
<path fill="#FFFFFF" d="M292.5,40.6v-1.3c-0.602,0.3-1.2,0.5-1.9,0.5c-0.6,0-1-0.2-1.3-0.6c-0.3-0.4-0.4-1-0.4-1.7
	c0-1.5,0.602-2.3,1.802-2.3c0.398,0,0.898,0.1,1.6,0.399l0.4-1.199c-0.602-0.301-1.302-0.4-2-0.4c-1.102,0-1.9,0.3-2.5,0.9
	c-0.602,0.6-0.9,1.5-0.9,2.6s0.3,2,0.8,2.6c0.602,0.602,1.4,0.9,2.4,0.9C291.3,41,292,40.9,292.5,40.6z"/>
<path fill="#FFFFFF" d="M298.2,38.4c0.3-0.102,0.8-0.2,1.5-0.2h0.898V38.6c0,0.4-0.2,0.7-0.5,0.9s-0.8,0.3-1.3,0.3
	c-0.4,0-0.7,0-0.8-0.2c-0.2-0.1-0.3-0.3-0.3-0.5C297.7,38.8,297.8,38.6,298.2,38.4z M302.1,36.4c0-0.801-0.2-1.4-0.7-1.801
	c-0.398-0.399-1.1-0.601-2-0.601c-0.898,0-1.8,0.2-2.5,0.601l0.5,1.101c0.802-0.3,1.4-0.5,2-0.5c0.4,0,0.802,0.1,1,0.3
	c0.2,0.2,0.302,0.6,0.302,1V37h-1.2c-2.2,0-3.3,0.7-3.3,2c0,0.6,0.198,1.2,0.6,1.5c0.4,0.4,0.9,0.5,1.6,0.5c0.5,0,1-0.1,1.302-0.3
	c0.398-0.2,0.698-0.5,1-0.9h0.1L301,41h1.1V36.4z"/>
<path fill="#FFFFFF" d="M309.2,35.2h2V34h-2v-1.5h-0.9l-0.5,1.5l-1,0.5v0.7h1v3.6c0,1.4,0.7,2.2,2.1,2.2c0.602,0,1.102-0.1,1.5-0.2
	v-1.1c-0.398,0.1-0.698,0.2-1.1,0.2c-0.3,0-0.6-0.102-0.8-0.301s-0.3-0.399-0.3-0.801V35.2L309.2,35.2z"/>
<path fill="#FFFFFF" d="M316.9,31.2C316.7,31.1,316.5,31,316.3,31c-0.3,0-0.5,0.1-0.6,0.2c-0.102,0.1-0.2,0.3-0.2,0.399
	c0,0.101,0.1,0.301,0.2,0.399c0.1,0.101,0.398,0.2,0.6,0.2c0.3,0,0.5,0,0.6-0.2c0.102-0.101,0.2-0.3,0.2-0.399S317,31.3,316.9,31.2z
	 M315.5,34v7h1.5v-7H315.5z"/>
<path fill="#FFFFFF" d="M322.9,40c0.602,0.7,1.4,1,2.4,1s1.9-0.3,2.4-0.9c0.6-0.6,0.898-1.5,0.898-2.6s-0.3-1.9-0.898-2.6
	c-0.602-0.602-1.4-1-2.4-1c-1.1,0-1.9,0.3-2.4,0.898C322.3,35.4,322,36.3,322,37.4C322,38.5,322.3,39.4,322.9,40z M327.2,37.5
	c0,1.5-0.602,2.3-1.802,2.3c-1.198,0-1.8-0.8-1.8-2.3s0.602-2.3,1.8-2.3C326.5,35.2,327.2,36,327.2,37.5z"/>
<path fill="#FFFFFF" d="M337,34c-0.5,0-0.9,0.1-1.3,0.3c-0.4,0.2-0.7,0.4-0.9,0.8h-0.1l-0.2-1h-1.2v7h1.5V37.7
	c0-0.9,0.1-1.4,0.4-1.8c0.3-0.4,0.8-0.602,1.398-0.602c0.5,0,0.8,0.102,1,0.4s0.3,0.699,0.3,1.199V41h1.5v-4.5
	C339.6,34.8,338.7,34,337,34z"/>
<linearGradient id="SVGID_1_" gradientUnits="userSpaceOnUse" x1="-187.9998" y1="567" x2="-187.9998" y2="611" gradientTransform="matrix(1 0 0 1 208 -567)">
	<stop  offset="0" style="stop-color:#1CC0EF"/>
	<stop  offset="1" style="stop-color:#35E1D0"/>
</linearGradient>
<path fill="url(#SVGID_1_)" d="M26.9,0c0.5,0.1,0.9,0.1,1.302,0.1c1.898,0.3,4,1.1,5.898,2.6c2.602,2,4.102,5,4.7,7.3
	c0.2,0.7,0.4,1.9,0.4,2.1v1.5C39.1,14,39,14.3,39,14.6c-0.4,5.6-6.102,10.6-10.5,11.1c-0.5,0.1-1.2,0.2-1.8,0.3L40,44H24.7
	c-4.4-0.4-10-2.8-13.4-7.5c-0.5-0.8-1.3-1.9-1.7-2.8c-0.5-1.2-1.3-3.101-1.3-4.4c0-0.2-0.1-0.1-0.1-0.2C8.1,28.4,8,27.1,8,27v-1.7
	c0.1-0.899,0.2-2,0.398-2.9c0.2-0.9,0.5-2,0.9-2.9c0.2-0.5,0.5-1.2,0.9-1.8c2.6-4.8,7.698-8.1,12.1-9c0.9-0.2,2.6-0.4,2.8-0.4h4.5
	c0.2,0,0.2,0.2,0.3,0.3c0.802,0.6,2,2.5,2,3.7v0.6h-7.3c-7.7,1.1-12,7.4-12,13.2c0,7,5.9,13.4,13.2,13.4h5c0,0,0.1-0.1,0.1-0.2
	L17.7,21.3H26.9c4.802-0.6,7.7-4.7,7.7-8.5c0-4.8-4.398-8.4-8.3-8.4H4.7V44H0V0H26.9z"/>
</svg>
