<?xml version="1.0" encoding="utf-8"?>
<!-- Generator: Adobe Illustrator 16.0.0, SVG Export Plug-In . SVG Version: 6.00 Build 0)  -->
<!DOCTYPE svg PUBLIC "-//W3C//DTD SVG 1.1//EN" "http://www.w3.org/Graphics/SVG/1.1/DTD/svg11.dtd">
<svg version="1.1" id="Layer_1" xmlns="http://www.w3.org/2000/svg" xmlns:xlink="http://www.w3.org/1999/xlink" x="0px" y="0px"
	 width="1492px" height="270.025px" viewBox="0 0 1492 270.025" enable-background="new 0 0 1492 270.025" xml:space="preserve">
<g>
	<path fill="#933233" d="M128.485,92.611c-0.27-0.01-0.55-0.01-0.82-0.01h-0.38c0.15-0.011,0.311-0.011,0.46-0.011
		C127.995,92.59,128.235,92.59,128.485,92.611z"/>
	<path fill="#A91F23" d="M133.285,164.49l-2.3,0.3C131.796,164.68,132.565,164.58,133.285,164.49z"/>
	<path fill="#A91F23" d="M150.806,154.861c-0.88,1.069-1.82,2.09-2.811,3.05c-0.29,0.28-0.58,0.55-0.88,0.82
		c-1.319,1.239-2.72,2.359-4.21,3.35c0.09-0.06,0.18-0.13,0.271-0.2c0.359-0.27,0.76-0.569,1.18-0.899
		C146.186,159.54,148.516,157.49,150.806,154.861z"/>
	<g>
		<path fill="#231F20" d="M237.148,128.265c0-8.1-0.3-16.2,0-24.3c23.1-3.601,47.701-9.301,51.3-9.301c2.4,0,9.3,5.101,12.9,10.801
			c-0.9,6.6-2.4,16.2-3.9,24.9l3,0.6c22.5-28.2,44.7-36,54.9-36.301c8.4,0.9,17.7,8.4,22.2,15.9c1.5,2.4,2.1,6.3,2.1,8.4
			c0,2.1-0.3,6.3-0.6,9.9l2.4,0.6c21.3-27.601,41.701-33.9,50.701-34.2c7.8,0.899,18.6,8.1,24.3,18.9c1.5,3,2.4,6.6,2.4,10.5
			c0,12-6.9,41.4-17.4,78.601c-0.6,0.9,0,1.8,0.9,1.8c3,0,9.9-1.2,17.1-3c0.9,7.8,1.5,15.3,2.1,23.101
			c-13.8,4.5-29.4,7.5-54.901,7.5c-1.8,0-8.7-6.601-11.1-12.601c4.5-16.5,10.2-40.8,12.6-50.101c1.5-6.3,6.3-24.6,6.3-31.5
			c0-3.3-2.1-6-5.7-6c-12.9,0-34.8,31.801-39.3,50.101c-3.6,15.3-7.5,31.8-10.8,47.101c-14.1,0.3-28.2,0.3-42,0.3
			c3.9-16.8,10.5-46.801,12.9-57.301c1.8-8.1,6.6-29.1,6.6-35.101c0-2.699-2.1-5.399-5.1-5.399c-13.8,0-36,33.9-40.5,51.9
			c-3.3,12.6-7.5,32.7-10.2,45.601c-14.1,0.3-28.2,0.3-42.3,0.3c5.1-25.2,15.9-76.501,21-102.601L237.148,128.265z"/>
		<path fill="#231F20" d="M562.348,201.165c-24.6,25.201-42.3,32.701-54,33.001c-7.2-1.2-21.6-9.9-26.4-20.7
			c-2.4-4.5-3.6-9.601-3.6-15.601c0-8.1,2.7-24.9,7.8-39.3c8.1-23.101,31.5-63.901,64.501-63.901c12.3,0,22.5,3.9,31.8,12.001h1.5
			l7.8-14.7c12,3,24,6.6,35.4,10.199c-7.8,28.501-19.2,75.301-24.3,100.201c-0.301,1.2,0.6,1.801,1.8,1.801c1.8,0,8.1-0.9,15.6-2.7
			c1.2,7.8,2.4,15.6,3,23.7c-13.8,4.5-33,7.5-49.2,7.5c-1.5,0-9-4.8-11.1-9c0.3-4.5,1.2-13.2,2.399-21.301L562.348,201.165z
			 M559.648,122.865c-10.801,0-19.2,15.001-24.001,26.4c-6.6,15.601-10.8,32.4-10.8,41.4c0,5.4,2.4,9.601,6.3,9.601
			c8.7,0,31.801-23.7,35.4-35.101c1.5-5.1,5.7-22.5,8.4-34.8c-2.4-4.2-8.4-7.501-15-7.501H559.648z"/>
		<path fill="#231F20" d="M640.94,127.365c0-8.4,0-16.501,0.3-24.601c22.801-2.7,53.101-8.101,58.501-8.101
			c2.399,0,11.4,7.801,14.1,12.301c-5.399,25.2-18.6,85.2-21,96.301c-0.3,1.2-0.3,2.4,0.9,2.4c3,0,10.8-1.2,19.2-3
			c0.6,7.8,1.5,15.6,2.1,23.399c-13.5,3.9-30,6.601-55.801,6.601c-2.399,0-12-8.4-14.1-13.5c6.3-29.4,14.4-68.401,19.2-91.201
			L640.94,127.365z M701.841,28.064c18,0,24.301,12.301,24.301,22.501c0,16.8-12.601,26.7-26.4,26.7
			c-15.601,0-25.2-12.301-25.2-24.301c0-13.5,11.7-24.9,27-24.9H701.841z"/>
		<path fill="#231F20" d="M739.639,52.065c-0.301-8.4-0.301-16.501-0.301-24.301c36.001-2.7,58.801-7.8,63.001-7.8
			c2.1,0,11.4,7.2,13.8,12.3c-4.8,22.5-30.9,147.602-35.7,170.702c-0.6,1.5-0.3,2.399,0.9,2.399c3.6,0,13.5-0.899,22.8-2.699
			c0.9,7.8,1.8,15.899,2.4,24c-16.801,3.899-35.4,6-58.801,6c-2.1,0-11.4-7.2-15-12.601c6.3-30.3,26.101-129.001,33.9-168.001
			H739.639z"/>
		<path fill="#FFFFFF" d="M832.338,52.964c-0.3-8.1-0.3-16.2,0-24.3c29.101-3,57.301-8.7,59.7-8.7c2.101,0,11.101,7.5,13.801,12.6
			c-3.301,12.9-17.7,72.001-23.4,97.201l2.1,0.9c24.001-27.9,45.301-35.7,57.001-36.001c7.8,1.5,18.6,9,23.101,17.4
			c2.1,3.601,2.699,7.2,2.699,11.7c0,10.8-6.6,42.001-18.899,79.201c-0.601,1.2-0.301,2.399,1.199,2.399
			c3.301,0,9.301-1.199,16.501-2.399c0.899,7.5,1.5,15.3,1.8,23.1c-12.301,3.9-34.801,6.601-55.501,6.601c-2.1,0-11.1-7.2-12.6-13.2
			c4.5-15.3,11.7-41.101,13.8-49.801c1.8-6.6,6.9-25.2,6.9-30c0-3-2.4-5.7-5.4-5.7c-14.101,0-37.2,31.5-41.7,49.801
			c-2.7,11.1-8.101,34.2-11.101,45.9c-14.7,0.3-29.1,0.3-44.101,0.3c6.301-27.9,30.001-141.001,37.801-178.202L832.338,52.964z"/>
		<path fill="#FFFFFF" d="M988.934,129.465c-0.601-8.4-0.9-16.5-1.5-24.601c17.1-2.7,53.4-10.2,56.4-10.2s12.601,8.4,14.7,14.4
			c-5.1,16.801-8.7,30.601-10.8,39.001c-2.7,9.6-9,34.2-9,42.6c0,3.301,1.8,6.9,5.399,6.9c12,0,34.501-33.601,38.4-49.801
			c2.7-10.8,7.801-36.3,10.5-49.5c14.7-0.3,29.4-0.3,44.101-0.3c-3.3,17.1-15.9,81.301-20.1,103.501c-0.301,1.5,0.6,2.399,1.5,2.399
			c3.6,0,10.2-1.5,17.1-2.7c1.5,7.501,2.4,15.301,3.3,23.101c-14.1,5.4-35.7,8.4-51.9,8.4c-2.1,0-8.399-5.4-10.5-9.3
			c0-5.101,1.5-15.601,3-25.201l-3.3-0.899c-23.7,26.7-40.5,36.3-52.801,36.9c-8.7-1.8-19.8-9-25.8-17.4c-3-4.2-4.2-9.3-4.2-14.4
			c0-12.899,6.6-44.101,14.7-74.4L988.934,129.465z"/>
		<path fill="#FFFFFF" d="M1155.132,128.865c-0.3-8.4-0.3-16.501,0-24.601c22.501-3.3,48.901-9.601,52.201-9.601
			c2.399,0,11.4,6.601,14.4,11.4c-1.2,6.3-2.7,15.3-4.5,24.601l3.3,0.6c21.9-26.7,44.4-36.3,56.4-36.601
			c8.1,1.2,18.3,7.801,24.3,17.7c1.801,3.301,2.7,8.101,2.7,11.4c0,12-6.6,40.801-18.9,79.501c-0.6,1.5-0.3,2.4,0.9,2.4
			c3,0,10.5-1.2,17.101-2.7c0.899,7.8,1.8,15.6,2.1,23.4c-13.2,3.899-29.101,6.3-55.501,6.3c-2.699,0-10.5-6.601-13.199-12
			c4.199-16.5,11.699-43.201,13.8-51.301c1.5-6.3,6.6-23.4,6.6-29.7c0-3.3-2.399-6-5.399-6c-13.801,0-36.301,30-41.101,49.5
			c-3,11.7-8.7,34.801-11.4,46.501c-15,0.3-29.101,0.3-44.101,0.3c6.301-27,17.101-79.201,21.601-102.001L1155.132,128.865z"/>
		<path fill="#FFFFFF" d="M1381.03,157.066c29.4-36.301,58.5-62.701,77.101-62.701c5.7,0,17.7,16.2,18.3,33.001
			c-22.2,2.1-35.7,8.699-52.801,22.8v2.1c10.801,3.301,17.101,12.301,21.001,30.001c2.1,9.3,3,17.1,4.5,21.3
			c0.6,1.5,1.8,2.101,3,2.101c3.3,0,9.6-0.601,15.9-1.801c0.6,7.2,0.899,15.301,0.6,22.801c-9.601,3-36.9,6-57.9,6
			c-2.7-4.8-5.7-18.9-7.801-33.9c-2.399-17.4-5.399-24.601-10.199-24.601c-2.4,0-3.9,0.9-6.301,3c-3.6,3-8.7,8.101-12.6,12.9
			c-3.601,13.8-6.601,27.9-9,39.601c-15,0.3-29.101,0.3-44.101,0.3c6-27.9,29.4-141.001,36.601-177.901l-23.4-0.301
			c-0.3-8.399-0.3-16.2,0-24.3c26.7-2.4,56.101-7.5,59.4-7.5s11.1,7.5,13.8,12.6c-5.1,22.501-18,80.401-28.2,123.901
			L1381.03,157.066z"/>
	</g>
	<linearGradient id="SVGID_1_" gradientUnits="userSpaceOnUse" x1="145.3154" y1="99.7502" x2="145.3154" y2="99.7502">
		<stop  offset="0" style="stop-color:#6ABC45"/>
		<stop  offset="1" style="stop-color:#015437"/>
	</linearGradient>
	<path fill="url(#SVGID_1_)" d="M145.315,99.75"/>
	<linearGradient id="SVGID_2_" gradientUnits="userSpaceOnUse" x1="132.1353" y1="164.7903" x2="132.1353" y2="164.4905">
		<stop  offset="0" style="stop-color:#6ABC45"/>
		<stop  offset="1" style="stop-color:#015437"/>
	</linearGradient>
	<path fill="url(#SVGID_2_)" d="M133.285,164.49l-2.3,0.3C131.796,164.68,132.565,164.58,133.285,164.49z"/>
	<linearGradient id="SVGID_3_" gradientUnits="userSpaceOnUse" x1="147.5806" y1="160.9807" x2="147.5806" y2="154.8606">
		<stop  offset="0" style="stop-color:#6ABC45"/>
		<stop  offset="1" style="stop-color:#015437"/>
	</linearGradient>
	<path fill="url(#SVGID_3_)" d="M150.806,154.861c-0.88,1.069-1.82,2.09-2.811,3.05c-0.29,0.28-0.58,0.55-0.88,0.82
		c-0.88,0.79-1.81,1.55-2.76,2.25C146.186,159.54,148.516,157.49,150.806,154.861z"/>
	<linearGradient id="SVGID_4_" gradientUnits="userSpaceOnUse" x1="49.9355" y1="216.4602" x2="210.4756" y2="216.4602">
		<stop  offset="0.032" style="stop-color:#D1E9D8"/>
		<stop  offset="0.1335" style="stop-color:#C4E5CF"/>
		<stop  offset="0.3209" style="stop-color:#A2DCB9"/>
		<stop  offset="0.5733" style="stop-color:#6BCC94"/>
		<stop  offset="0.8779" style="stop-color:#20B762"/>
		<stop  offset="1" style="stop-color:#00AE4D"/>
	</linearGradient>
	<path fill="url(#SVGID_4_)" d="M210.476,235.111c-24.22,10.939-51.43,16.41-81.641,16.41c-16.789,0-32.13-2.58-45.989-7.721
		c-4.061-1.51-7.96-3.18-11.69-5.04c-7.74-3.04-14.89-7.27-21.22-12.449c11.68,8.819,26.22,14.05,41.979,14.05
		c30.19,0,55.891-19.181,65.591-46.021c5.75-0.8,11.639-2.029,17.659-3.689c8.271-2.271,16.78-5.36,25.551-9.25l1.659,9.149
		L210.476,235.111z"/>
	<linearGradient id="SVGID_5_" gradientUnits="userSpaceOnUse" x1="127.8853" y1="92.6106" x2="127.8853" y2="92.5901">
		<stop  offset="0" style="stop-color:#6ABC45"/>
		<stop  offset="1" style="stop-color:#015437"/>
	</linearGradient>
	<path fill="url(#SVGID_5_)" d="M128.485,92.611c-0.27-0.01-0.55-0.01-0.82-0.01h-0.38c0.15-0.011,0.311-0.011,0.46-0.011
		C127.995,92.59,128.235,92.59,128.485,92.611z"/>
	<linearGradient id="SVGID_6_" gradientUnits="userSpaceOnUse" x1="160.1943" y1="144.0549" x2="77.8154" y2="144.0549">
		<stop  offset="0.032" style="stop-color:#D1E9D8"/>
		<stop  offset="0.1335" style="stop-color:#C4E5CF"/>
		<stop  offset="0.3209" style="stop-color:#A2DCB9"/>
		<stop  offset="0.5733" style="stop-color:#6BCC94"/>
		<stop  offset="0.8779" style="stop-color:#20B762"/>
		<stop  offset="1" style="stop-color:#00AE4D"/>
	</linearGradient>
	<path fill="url(#SVGID_6_)" d="M150.915,154.74c-0.029,0.04-0.069,0.08-0.109,0.12c-2.29,2.63-4.62,4.68-6.45,6.12
		c-0.42,0.33-0.82,0.63-1.18,0.899c-0.091,0.07-0.181,0.141-0.271,0.2s-0.17,0.12-0.26,0.18c-0.16,0.12-0.32,0.23-0.469,0.33
		c-0.101,0.07-0.19,0.13-0.281,0.19c-0.12,0.08-0.23,0.149-0.33,0.22c-0.14,0.08-0.26,0.16-0.36,0.23
		c-0.09,0.05-0.17,0.1-0.26,0.159c-0.139,0.091-0.219,0.131-0.219,0.131s-0.84,0.109-2.351,0.31c-0.21,0.021-0.439,0.05-0.68,0.09
		c-1.179,0.15-2.669,0.34-4.41,0.57c-0.72,0.09-1.489,0.189-2.3,0.3c-0.81,0.1-1.66,0.21-2.541,0.33
		c-0.889,0.11-1.809,0.23-2.759,0.36c-0.95,0.12-1.93,0.25-2.93,0.38c-11.091,1.43-25.4,3.27-37.23,4.77
		c-0.03-0.05-0.06-0.09-0.09-0.14c-4.83-7.83-7.62-17.101-7.62-27.03c0-2.16,0.129-4.29,0.39-6.38l42.091-10.38l36.47-9l0.91-0.22
		C163.855,134.561,157.525,147.101,150.915,154.74z"/>
	<linearGradient id="SVGID_7_" gradientUnits="userSpaceOnUse" x1="15.5557" y1="121.7854" x2="218.6855" y2="121.7854">
		<stop  offset="0.032" style="stop-color:#D1E9D8"/>
		<stop  offset="0.1335" style="stop-color:#C4E5CF"/>
		<stop  offset="0.3209" style="stop-color:#A2DCB9"/>
		<stop  offset="0.5733" style="stop-color:#6BCC94"/>
		<stop  offset="0.8779" style="stop-color:#20B762"/>
		<stop  offset="1" style="stop-color:#00AE4D"/>
	</linearGradient>
	<path fill="url(#SVGID_7_)" d="M218.686,143.311c0,1.829-0.07,3.59-0.2,5.279c-0.13,1.69-0.33,3.32-0.59,4.88l-38.719,5.04
		l-4.04,0.53l-34.41,4.48c0,0,0.08-0.04,0.219-0.131c0.09-0.06,0.17-0.109,0.26-0.159c0.101-0.07,0.221-0.15,0.36-0.23
		c0.1-0.07,0.21-0.14,0.33-0.22c0.09-0.061,0.18-0.12,0.281-0.19c0.149-0.1,0.31-0.21,0.469-0.33c0.09-0.06,0.17-0.12,0.26-0.18
		c1.49-0.99,2.891-2.11,4.21-3.35c0.3-0.271,0.59-0.54,0.88-0.82c0.99-0.96,1.931-1.98,2.811-3.05c0.04-0.04,0.08-0.08,0.109-0.12
		c6.301-7.28,11.86-19.69,7.471-35c0-0.01,0-0.021-0.011-0.04c-2.71-10.99-10.699-20.09-21.329-24.86
		c-0.03-0.02-0.07-0.029-0.101-0.05c-0.03-0.01-0.04-0.02-0.04-0.02c-1.99-1.181-3.29-1.761-3.43-1.82l-0.01-0.01
		c-10.131-4.69-21.431-7.32-33.32-7.32c-2.07,0-4.12,0.08-6.14,0.23c-40.931,3.14-73.16,37.35-73.16,79.069
		c0,12,2.66,23.38,7.439,33.58c-1.609-2.86-3.08-5.83-4.43-8.899c-5.53-12.631-8.3-26.37-8.3-41.211
		c0-15.619,2.899-29.779,8.689-42.479s13.7-23.57,23.73-32.62c10.03-9.05,21.75-16.01,35.16-20.9
		c13.41-4.88,27.729-7.319,42.97-7.319c12.71,0,24.13,1.76,34.25,5.29c2.12,0.729,4.18,1.54,6.18,2.43
		c11.59,5.14,21.25,12.17,29,21.09s13.54,19.33,17.38,31.25C216.756,117.04,218.686,129.771,218.686,143.311z"/>
	<linearGradient id="SVGID_8_" gradientUnits="userSpaceOnUse" x1="127.8853" y1="92.6106" x2="127.8853" y2="92.5901">
		<stop  offset="0" style="stop-color:#6ABC45"/>
		<stop  offset="1" style="stop-color:#015437"/>
	</linearGradient>
	<path fill="url(#SVGID_8_)" d="M128.485,92.611c-0.27-0.01-0.55-0.01-0.82-0.01h-0.38c0.15-0.011,0.311-0.011,0.46-0.011
		C127.995,92.59,128.235,92.59,128.485,92.611z"/>
	<linearGradient id="SVGID_9_" gradientUnits="userSpaceOnUse" x1="89.1758" y1="240.3606" x2="89.1758" y2="85.6208">
		<stop  offset="0.032" style="stop-color:#D1E9D8"/>
		<stop  offset="0.1335" style="stop-color:#C4E5CF"/>
		<stop  offset="0.3209" style="stop-color:#A2DCB9"/>
		<stop  offset="0.5733" style="stop-color:#6BCC94"/>
		<stop  offset="0.8779" style="stop-color:#20B762"/>
		<stop  offset="1" style="stop-color:#00AE4D"/>
	</linearGradient>
	<path fill="url(#SVGID_9_)" d="M157.506,194.34c-9.7,26.84-35.4,46.021-65.591,46.021c-15.76,0-30.3-5.23-41.979-14.05
		c-9.14-7.49-16.59-16.98-21.65-27.811c-1.18-2.52-2.239-5.12-3.149-7.78c-0.011-0.029-0.021-0.06-0.03-0.08
		c-2.76-8.069-4.26-16.72-4.26-25.72c0-41.72,32.229-75.93,73.16-79.069c2.02-0.15,4.069-0.23,6.14-0.23
		c11.89,0,23.189,2.63,33.32,7.32l0.01,0.01c0.14,0.06,1.439,0.64,3.43,1.82c-1.07-0.54-2.2-1-3.37-1.33
		c-0.05-0.03-0.109-0.051-0.17-0.061c-1.46-0.42-2.99-0.68-4.569-0.76c-0.11-0.01-0.211-0.01-0.311-0.01
		c-0.25-0.021-0.49-0.021-0.74-0.021c-0.149,0-0.31,0-0.46,0.011c-10.21,0.079-19.7,3.279-27.569,8.739
		c-8.78,6.07-15.551,14.92-19.11,25.311c-0.01,0.01,0,0.02,0,0.02c-1.15,3.33-1.96,6.811-2.4,10.41c-0.26,2.09-0.39,4.22-0.39,6.38
		c0,9.93,2.79,19.2,7.62,27.03c0.03,0.05,0.06,0.09,0.09,0.14c16.26,24.76,55.76,24.83,56.2,24.83
		C146.875,195.46,152.136,195.09,157.506,194.34z"/>
</g>
</svg>
