<?xml version="1.0" encoding="utf-8"?>
<!-- Generator: Adobe Illustrator 16.0.0, SVG Export Plug-In . SVG Version: 6.00 Build 0)  -->
<!DOCTYPE svg PUBLIC "-//W3C//DTD SVG 1.1//EN" "http://www.w3.org/Graphics/SVG/1.1/DTD/svg11.dtd">
<svg version="1.1" id="Layer_1" xmlns="http://www.w3.org/2000/svg" xmlns:xlink="http://www.w3.org/1999/xlink" x="0px" y="0px"
	 width="1483px" height="261px" viewBox="0 0 1483 261" enable-background="new 0 0 1483 261" xml:space="preserve">
<g display="none">
	<path display="inline" fill="#933233" d="M123.991,88.869c-0.27-0.01-0.55-0.01-0.82-0.01h-0.38c0.15-0.011,0.311-0.011,0.46-0.011
		C123.5,88.848,123.741,88.848,123.991,88.869z"/>
	<path display="inline" fill="#A91F23" d="M128.791,160.748l-2.3,0.301C127.301,160.938,128.071,160.838,128.791,160.748z"/>
	<path display="inline" fill="#A91F23" d="M146.311,151.119c-0.88,1.068-1.82,2.09-2.811,3.049c-0.29,0.281-0.58,0.551-0.88,0.82
		c-1.319,1.24-2.72,2.359-4.21,3.35c0.09-0.059,0.18-0.129,0.271-0.199c0.359-0.27,0.76-0.57,1.18-0.899
		C141.691,155.799,144.021,153.748,146.311,151.119z"/>
	<g display="inline">
		<path fill="#231F20" d="M232.654,124.523c0-8.1,0-16.2,0-24.3c23.4-3.301,48-9,51.3-9c2.7,0,9.6,5.1,13.2,10.8
			c-0.9,6.6-2.7,16.2-4.2,24.6l3.3,0.6c22.5-28.2,44.4-35.7,54.9-36c8.1,0.899,17.4,8.1,21.9,15.899c1.5,2.4,2.1,6,2.1,8.4
			c0,1.8-0.3,6.3-0.6,9.901l2.4,0.299c21.601-27.3,41.701-33.6,50.701-33.9c8.1,0.9,18.6,7.8,24.3,18.601c1.5,3.3,2.7,6.6,2.7,10.5
			c0,12-7.2,41.7-17.7,78.601c-0.3,1.201,0,2.1,0.9,2.1c3,0,9.899-1.199,17.1-3c0.9,7.5,1.8,15.301,2.1,23.102
			c-13.5,4.5-29.399,7.2-54.601,7.2c-1.8,0-9-6.602-11.1-12.601c4.2-16.5,10.2-40.5,12.3-50.102c1.8-6.3,6.3-24.601,6.3-31.5
			c0-3.3-2.101-6-5.7-6c-12.9,0-34.8,31.801-39,50.102c-3.9,15.299-7.8,32.1-11.1,47.398c-13.8,0.301-27.9,0.301-42,0.301
			c3.9-16.799,10.5-47.101,12.9-57.601c1.8-7.801,6.6-29.1,6.6-35.103c0-2.698-2.1-5.397-5.1-5.397c-13.8,0-36,33.9-40.5,51.9
			c-3.3,12.899-7.5,33.299-10.2,45.899c-14.1,0.301-28.2,0.301-42.6,0.301c5.4-25.2,16.5-76.502,21.3-102.901L232.654,124.523z"/>
		<path fill="#231F20" d="M557.854,197.725c-24.601,24.899-42.301,31.801-54,32.1c-7.2-1.199-21.601-9.299-26.4-19.801
			c-2.4-4.799-3.6-9.6-3.6-15.6c0-8.4,2.699-24.9,7.8-39.301c8.1-23.1,31.5-63.9,64.801-63.9c12,0,22.5,3.899,31.8,12h1.5
			l7.801-15.301c12,3.301,23.699,6.601,35.101,10.5c-7.799,28.501-18.9,75.301-24.299,100.201c-0.302,1.201,0.6,1.801,1.799,1.801
			c1.801,0,8.1-0.9,15.6-2.699c1.5,7.799,2.4,15.601,3,23.7c-13.799,4.5-33,7.5-49.199,7.5c-1.5,0-9-4.801-11.101-9
			c0.3-4.501,1.2-13.2,2.398-21.302L557.854,197.725z M531.153,145.824c-6.601,15.299-10.8,32.1-10.8,41.1
			c0,5.699,2.399,9.9,6.3,9.9c8.7,0,31.8-23.701,35.4-35.4c1.5-4.801,5.699-22.201,8.399-34.5c-2.399-4.201-8.399-7.5-15-7.5
			C544.654,119.423,535.954,134.424,531.153,145.824z"/>
		<path fill="#231F20" d="M636.447,123.923c0-8.4,0-16.5,0.301-24.601c22.801-2.7,53.1-8.1,58.5-8.1c2.4,0,11.4,7.5,14.1,12
			c-5.397,25.5-18.6,85.5-21,96.601c-0.6,1.198-0.299,2.1,0.9,2.1c3,0,10.801-0.899,19.201-3c0.6,7.802,1.5,15.9,2.1,23.7
			c-13.5,3.6-30,6.301-55.801,6.301c-2.4,0-12-8.4-14.1-13.501c6.299-29.399,14.399-68.399,18.899-91.201L636.447,123.923z
			 M721.648,46.522c0,17.101-12.601,27.001-26.4,27.001c-15.9,0-25.199-12.301-25.199-24.301c0-13.5,11.4-24.9,27-24.9
			C715.347,24.322,721.648,36.322,721.648,46.522z"/>
		<path fill="#231F20" d="M735.146,48.323c-0.302-8.4-0.302-16.501-0.302-24.301c36.302-2.7,58.802-7.8,63-7.8
			c2.101,0,11.4,7.2,13.802,12.3c-4.802,22.5-30.9,147.601-35.701,171.001c-0.601,1.201-0.299,2.399,0.899,2.399
			c3.9,0,13.5-0.899,22.802-2.698c0.899,7.799,1.799,15.897,2.399,23.699c-16.801,3.898-35.399,6-58.801,6
			c-2.1,0-11.401-6.9-15-12.601c6.299-30.302,26.401-129.001,33.901-168.302L735.146,48.323z"/>
		<path fill="#37B34A" d="M827.846,49.222c-0.301-8.1-0.301-16.2,0-24.3c29.101-3.301,57.302-8.7,59.699-8.7
			c2.102,0,11.102,7.5,13.801,12.6c-3.301,12.9-17.698,72.301-23.399,97.202l2.1,0.9c24.002-27.901,45.301-35.401,57.002-35.701
			c8.101,1.199,18.9,8.699,23.101,17.1c2.1,3.601,2.698,7.5,2.698,11.7c0,10.799-6.6,42.301-18.897,79.202
			c-0.301,1.199,0,2.398,1.199,2.398c3.6,0,9.301-0.898,16.5-2.398c0.899,7.5,1.5,15.601,1.801,23.399
			c-12.301,3.601-34.802,6.301-55.502,6.301c-2.101,0-11.101-7.2-12.601-13.2c4.5-15.301,11.701-41.102,13.802-49.801
			c1.799-6.6,6.899-25.201,6.899-30c0-2.701-2.399-5.701-5.399-5.701c-14.103,0-37.201,31.5-41.701,49.8
			c-2.699,11.101-8.4,34.5-11.101,46.201c-15,0.301-29.399,0.301-44.102,0.301c6.301-28.2,30.002-141.301,37.801-178.502
			L827.846,49.222z"/>
		<path fill="#37B34A" d="M984.141,126.023c-0.301-8.401-0.899-16.5-1.198-24.6c17.1-2.7,53.399-10.2,56.1-10.2
			c3.301,0,12.6,8.399,14.701,14.1c-4.801,16.801-8.701,30.899-10.801,39.001c-2.4,9.299-9,34.199-9,42.6
			c0,3.301,1.801,6.9,5.698,6.9c11.701,0,34.201-33.602,38.4-49.801c2.4-10.801,7.801-36.601,10.201-49.8
			c15-0.301,29.699-0.301,44.4-0.301c-3.601,17.101-16.201,81.301-20.101,103.803c-0.301,1.5,0.601,2.397,1.5,2.397
			c3.601,0,10.199-1.5,16.799-2.699c1.5,7.5,2.701,15.302,3.302,23.101c-13.802,5.4-35.701,8.4-51.603,8.4
			c-2.1,0-8.397-5.4-10.799-9c0.299-5.4,1.799-15.601,3-25.501l-3.301-0.899c-23.4,26.699-40.199,35.699-52.5,36.3
			c-8.701-1.8-19.802-8.398-25.802-16.8c-3-3.9-4.198-9-4.198-14.4c0-12.898,6.299-44.1,14.698-74.1L984.141,126.023z"/>
		<path fill="#37B34A" d="M1150.639,125.123c-0.299-8.4-0.299-16.5,0-24.6c22.802-3.3,48.902-9.3,52.502-9.3
			c2.4,0,11.4,6.3,14.101,11.399c-0.9,6-2.699,15-4.5,24.301l3.6,0.898c21.9-27,44.103-36.299,56.103-36.599
			c8.399,0.899,18.6,7.5,24.6,17.7c1.801,3.3,2.4,8.1,2.4,11.399c0,11.701-6.302,40.501-18.9,79.501c-0.301,1.199-0.301,2.4,0.9,2.4
			c3,0,10.799-1.201,17.399-2.701c0.898,7.5,1.5,15.6,1.799,23.4c-12.899,3.6-29.1,6-55.5,6c-2.399,0-10.198-6.301-13.198-12.001
			c4.5-16.198,11.698-43.2,13.799-51.301c1.801-6.3,6.6-23.399,6.6-29.699c0-3-2.1-6-5.397-6c-13.5,0-36.302,30-41.103,49.5
			c-3,11.699-8.699,35.101-11.1,46.8c-15,0.301-29.4,0.301-44.4,0.301c6-27,17.4-79.5,21.6-102.3L1150.639,125.123z"/>
		<path fill="#37B34A" d="M1376.539,153.324c29.699-36.301,58.5-62.702,77.1-62.702c5.701,0,18,16.2,18.301,33.001
			c-21.899,2.099-35.7,8.699-52.801,22.8v2.101c10.801,3.301,17.101,12.6,21,30c2.101,9.301,3.301,17.1,4.5,21.301
			c0.601,1.5,1.801,2.1,3,2.1c3.301,0,9.9-0.6,16.201-1.5c0.6,7.199,0.898,15.301,0.6,22.501c-9.899,3.3-37.2,6-58.2,6
			c-2.4-4.801-5.699-18.601-7.802-33.901c-2.397-17.399-5.397-24.6-10.198-24.6c-2.4,0-3.9,0.9-6,3c-3.601,3-9,8.1-12.9,12.9
			c-3.6,14.1-6.6,28.199-9.301,39.898c-14.699,0.301-29.101,0.301-43.799,0.301c6-28.199,29.698-141.3,36.6-178.501h-23.4
			c-0.299-8.399-0.299-16.2,0-24.3c26.701-2.4,56.103-7.5,59.4-7.5c3.301,0,11.1,7.5,14.103,12.6
			c-5.103,22.501-18.302,80.401-28.502,123.9L1376.539,153.324z"/>
	</g>
	
		<linearGradient id="SVGID_1_" gradientUnits="userSpaceOnUse" x1="56.8208" y1="139.9922" x2="56.8208" y2="139.9922" gradientTransform="matrix(1 0 0 -1 84 236)">
		<stop  offset="0" style="stop-color:#6ABC45"/>
		<stop  offset="1" style="stop-color:#015437"/>
	</linearGradient>
	<path display="inline" fill="url(#SVGID_1_)" d="M140.821,96.008"/>
	
		<linearGradient id="SVGID_2_" gradientUnits="userSpaceOnUse" x1="43.6406" y1="74.9517" x2="43.6406" y2="75.2524" gradientTransform="matrix(1 0 0 -1 84 236)">
		<stop  offset="0" style="stop-color:#6ABC45"/>
		<stop  offset="1" style="stop-color:#015437"/>
	</linearGradient>
	<path display="inline" fill="url(#SVGID_2_)" d="M128.791,160.748l-2.3,0.301C127.301,160.938,128.071,160.838,128.791,160.748z"/>
	
		<linearGradient id="SVGID_3_" gradientUnits="userSpaceOnUse" x1="59.085" y1="78.7622" x2="59.085" y2="84.8813" gradientTransform="matrix(1 0 0 -1 84 236)">
		<stop  offset="0" style="stop-color:#6ABC45"/>
		<stop  offset="1" style="stop-color:#015437"/>
	</linearGradient>
	<path display="inline" fill="url(#SVGID_3_)" d="M146.311,151.119c-0.88,1.068-1.82,2.09-2.811,3.049
		c-0.29,0.281-0.58,0.551-0.88,0.82c-0.88,0.791-1.81,1.551-2.76,2.25C141.691,155.799,144.021,153.748,146.311,151.119z"/>
	
		<linearGradient id="SVGID_4_" gradientUnits="userSpaceOnUse" x1="-38.5591" y1="23.2822" x2="121.981" y2="23.2822" gradientTransform="matrix(1 0 0 -1 84 236)">
		<stop  offset="0" style="stop-color:#6ABC45"/>
		<stop  offset="1" style="stop-color:#015437"/>
	</linearGradient>
	<path display="inline" fill="url(#SVGID_4_)" d="M205.981,231.368c-24.22,10.938-51.43,16.409-81.641,16.409
		c-16.789,0-32.13-2.579-45.989-7.721c-4.061-1.51-7.96-3.18-11.69-5.039c-7.74-3.041-14.89-7.27-21.22-12.449
		c11.68,8.818,26.22,14.05,41.979,14.05c30.19,0,55.891-19.181,65.591-46.021c5.75-0.8,11.64-2.029,17.659-3.689
		c8.271-2.27,16.78-5.359,25.551-9.25l1.659,9.15L205.981,231.368z"/>
	
		<linearGradient id="SVGID_5_" gradientUnits="userSpaceOnUse" x1="39.3906" y1="147.1309" x2="39.3906" y2="147.1515" gradientTransform="matrix(1 0 0 -1 84 236)">
		<stop  offset="0" style="stop-color:#6ABC45"/>
		<stop  offset="1" style="stop-color:#015437"/>
	</linearGradient>
	<path display="inline" fill="url(#SVGID_5_)" d="M123.991,88.869c-0.27-0.01-0.55-0.01-0.82-0.01h-0.38
		c0.15-0.011,0.311-0.011,0.46-0.011C123.5,88.848,123.741,88.848,123.991,88.869z"/>
	
		<linearGradient id="SVGID_6_" gradientUnits="userSpaceOnUse" x1="71.6987" y1="95.687" x2="-10.6816" y2="95.687" gradientTransform="matrix(1 0 0 -1 84 236)">
		<stop  offset="0" style="stop-color:#6ABC45"/>
		<stop  offset="1" style="stop-color:#015437"/>
	</linearGradient>
	<path display="inline" fill="url(#SVGID_6_)" d="M146.42,150.998c-0.029,0.041-0.069,0.08-0.109,0.121
		c-2.29,2.629-4.62,4.68-6.45,6.119c-0.42,0.33-0.82,0.631-1.18,0.9c-0.091,0.069-0.181,0.141-0.271,0.198
		c-0.09,0.062-0.17,0.121-0.26,0.181c-0.16,0.121-0.32,0.229-0.47,0.33c-0.101,0.069-0.19,0.131-0.28,0.19
		c-0.12,0.08-0.23,0.147-0.33,0.219c-0.14,0.08-0.26,0.16-0.36,0.229c-0.09,0.052-0.17,0.101-0.26,0.16
		c-0.14,0.09-0.22,0.131-0.22,0.131s-0.84,0.109-2.351,0.31c-0.21,0.021-0.439,0.052-0.68,0.09c-1.18,0.15-2.67,0.341-4.41,0.57
		c-0.72,0.09-1.489,0.188-2.3,0.301c-0.81,0.101-1.66,0.209-2.54,0.33c-0.89,0.108-1.81,0.229-2.76,0.358
		c-0.95,0.121-1.93,0.25-2.93,0.382c-11.091,1.43-25.4,3.271-37.23,4.771c-0.03-0.052-0.06-0.091-0.09-0.142
		c-4.83-7.83-7.62-17.101-7.62-27.029c0-2.159,0.13-4.291,0.39-6.381l42.091-10.379l36.47-9l0.91-0.22
		C159.361,130.818,153.031,143.359,146.42,150.998z"/>
	
		<linearGradient id="SVGID_7_" gradientUnits="userSpaceOnUse" x1="-72.9399" y1="117.958" x2="130.1909" y2="117.958" gradientTransform="matrix(1 0 0 -1 84 236)">
		<stop  offset="0" style="stop-color:#6ABC45"/>
		<stop  offset="1" style="stop-color:#015437"/>
	</linearGradient>
	<path display="inline" fill="url(#SVGID_7_)" d="M214.191,139.568c0,1.83-0.07,3.59-0.2,5.279c-0.13,1.69-0.33,3.319-0.59,4.881
		l-38.72,5.039l-4.04,0.53l-34.41,4.479c0,0,0.08-0.041,0.22-0.131c0.09-0.061,0.17-0.108,0.26-0.16
		c0.101-0.069,0.221-0.149,0.36-0.229c0.1-0.069,0.21-0.139,0.33-0.219c0.09-0.062,0.18-0.121,0.28-0.19
		c0.149-0.101,0.31-0.209,0.47-0.33c0.09-0.06,0.17-0.119,0.26-0.181c1.49-0.989,2.891-2.108,4.21-3.351
		c0.3-0.27,0.59-0.538,0.88-0.819c0.99-0.959,1.931-1.979,2.811-3.049c0.04-0.041,0.08-0.08,0.109-0.121
		c6.301-7.279,11.86-19.688,7.471-35c0-0.01,0-0.021-0.011-0.04c-2.71-10.99-10.699-20.09-21.329-24.86
		c-0.03-0.02-0.07-0.029-0.101-0.05c-0.03-0.01-0.04-0.02-0.04-0.02c-1.99-1.181-3.29-1.761-3.43-1.82l-0.01-0.01
		c-10.131-4.69-21.431-7.32-33.32-7.32c-2.07,0-4.12,0.08-6.14,0.23c-40.931,3.14-73.16,37.35-73.16,79.069
		c0,12,2.66,23.381,7.439,33.58c-1.609-2.859-3.08-5.83-4.43-8.898c-5.53-12.631-8.3-26.371-8.3-41.211
		c0-15.619,2.899-29.779,8.689-42.479s13.7-23.57,23.73-32.62c10.03-9.05,21.75-16.01,35.16-20.9
		c13.41-4.88,27.729-7.319,42.97-7.319c12.71,0,24.13,1.76,34.25,5.29c2.12,0.729,4.18,1.54,6.18,2.43
		c11.59,5.14,21.25,12.17,29,21.09c7.75,8.92,13.54,19.33,17.38,31.25C212.261,113.298,214.191,126.029,214.191,139.568z"/>
	
		<linearGradient id="SVGID_8_" gradientUnits="userSpaceOnUse" x1="39.3906" y1="147.1309" x2="39.3906" y2="147.1515" gradientTransform="matrix(1 0 0 -1 84 236)">
		<stop  offset="0" style="stop-color:#6ABC45"/>
		<stop  offset="1" style="stop-color:#015437"/>
	</linearGradient>
	<path display="inline" fill="url(#SVGID_8_)" d="M123.991,88.869c-0.27-0.01-0.55-0.01-0.82-0.01h-0.38
		c0.15-0.011,0.311-0.011,0.46-0.011C123.5,88.848,123.741,88.848,123.991,88.869z"/>
	
		<linearGradient id="SVGID_9_" gradientUnits="userSpaceOnUse" x1="0.6812" y1="-0.6191" x2="0.681" y2="154.1211" gradientTransform="matrix(1 0 0 -1 84 236)">
		<stop  offset="0" style="stop-color:#6ABC45"/>
		<stop  offset="1" style="stop-color:#015437"/>
	</linearGradient>
	<path display="inline" fill="url(#SVGID_9_)" d="M153.011,190.598c-9.7,26.84-35.4,46.021-65.591,46.021
		c-15.76,0-30.3-5.23-41.979-14.049c-9.14-7.491-16.59-16.981-21.65-27.813c-1.18-2.52-2.239-5.119-3.149-7.779
		c-0.011-0.028-0.021-0.061-0.03-0.08c-2.76-8.069-4.26-16.721-4.26-25.721c0-41.719,32.229-75.929,73.16-79.069
		c2.02-0.15,4.069-0.23,6.14-0.23c11.89,0,23.189,2.63,33.32,7.32l0.01,0.01c0.14,0.06,1.439,0.64,3.43,1.82
		c-1.07-0.54-2.2-1-3.37-1.33c-0.05-0.03-0.109-0.051-0.17-0.061c-1.46-0.42-2.99-0.68-4.569-0.76c-0.11-0.01-0.211-0.01-0.311-0.01
		c-0.25-0.021-0.49-0.021-0.74-0.021c-0.149,0-0.31,0-0.46,0.011c-10.21,0.079-19.7,3.279-27.569,8.739
		c-8.78,6.07-15.551,14.92-19.11,25.311c-0.01,0.01,0,0.02,0,0.02c-1.15,3.33-1.96,6.81-2.4,10.41c-0.26,2.09-0.39,4.221-0.39,6.381
		c0,9.93,2.79,19.199,7.62,27.029c0.03,0.051,0.06,0.09,0.09,0.141c16.26,24.76,55.76,24.83,56.2,24.83
		C142.38,191.719,147.641,191.348,153.011,190.598z"/>
</g>
<g>
	<path fill="#933233" d="M123.992,88.83c-0.27-0.01-0.55-0.01-0.82-0.01h-0.38c0.15-0.011,0.311-0.011,0.46-0.011
		C123.501,88.81,123.742,88.81,123.992,88.83z"/>
	<path fill="#A91F23" d="M128.792,160.71l-2.3,0.3C127.302,160.899,128.072,160.8,128.792,160.71z"/>
	<path fill="#A91F23" d="M146.312,151.08c-0.88,1.069-1.82,2.09-2.811,3.05c-0.29,0.28-0.58,0.55-0.88,0.82
		c-1.319,1.239-2.72,2.359-4.21,3.35c0.09-0.06,0.18-0.13,0.271-0.2c0.359-0.27,0.76-0.569,1.18-0.899
		C141.692,155.76,144.022,153.71,146.312,151.08z"/>
	<g>
		<path fill="#231F20" d="M232.655,124.484c0-8.1,0-16.2,0-24.3c23.4-3.301,48-9,51.3-9c2.7,0,9.6,5.1,13.2,10.8
			c-0.9,6.6-2.7,16.2-4.2,24.601l3.3,0.6c22.5-28.2,44.4-35.7,54.9-36c8.1,0.899,17.4,8.1,21.9,15.899c1.5,2.4,2.1,6,2.1,8.4
			c0,1.8-0.3,6.3-0.6,9.9l2.4,0.3c21.601-27.301,41.701-33.601,50.701-33.9c8.1,0.9,18.6,7.8,24.3,18.601c1.5,3.3,2.7,6.6,2.7,10.5
			c0,12-7.2,41.7-17.7,78.601c-0.3,1.2,0,2.1,0.9,2.1c3,0,9.9-1.199,17.1-3c0.9,7.5,1.8,15.301,2.1,23.101
			c-13.5,4.5-29.4,7.2-54.601,7.2c-1.8,0-9-6.601-11.1-12.601c4.2-16.5,10.2-40.5,12.3-50.101c1.8-6.3,6.3-24.6,6.3-31.5
			c0-3.3-2.1-6-5.7-6c-12.9,0-34.8,31.801-39,50.101c-3.9,15.3-7.8,32.101-11.1,47.4c-13.8,0.3-27.9,0.3-42,0.3
			c3.9-16.8,10.5-47.101,12.9-57.601c1.8-7.8,6.6-29.1,6.6-35.101c0-2.699-2.1-5.399-5.1-5.399c-13.8,0-36,33.9-40.5,51.9
			c-3.3,12.9-7.5,33.3-10.2,45.9c-14.1,0.3-28.2,0.3-42.6,0.3c5.4-25.2,16.5-76.501,21.3-102.9L232.655,124.484z"/>
		<path fill="#231F20" d="M557.854,197.686c-24.6,24.9-42.3,31.8-54,32.1c-7.2-1.199-21.6-9.3-26.4-19.8
			c-2.4-4.8-3.6-9.6-3.6-15.601c0-8.399,2.7-24.899,7.8-39.3c8.1-23.101,31.5-63.9,64.801-63.9c12,0,22.5,3.899,31.8,12h1.5
			l7.801-15.301c12,3.301,23.699,6.601,35.1,10.5c-7.799,28.501-18.9,75.301-24.299,100.201c-0.301,1.2,0.6,1.801,1.799,1.801
			c1.801,0,8.1-0.9,15.6-2.7c1.5,7.8,2.4,15.6,3,23.7c-13.799,4.5-33,7.5-49.199,7.5c-1.5,0-9-4.8-11.101-9
			c0.3-4.5,1.2-13.2,2.399-21.301L557.854,197.686z M531.154,145.785c-6.6,15.3-10.8,32.1-10.8,41.1c0,5.7,2.4,9.9,6.3,9.9
			c8.7,0,31.8-23.7,35.401-35.4c1.5-4.8,5.699-22.2,8.399-34.5c-2.399-4.2-8.399-7.5-15-7.5
			C544.655,119.385,535.955,134.385,531.154,145.785z"/>
		<path fill="#231F20" d="M636.448,123.885c0-8.4,0-16.5,0.299-24.601c22.801-2.7,53.102-8.1,58.502-8.1c2.398,0,11.401,7.5,14.1,12
			c-5.401,25.5-18.6,85.501-21,96.601c-0.6,1.2-0.301,2.101,0.9,2.101c3,0,10.799-0.9,19.2-3c0.6,7.8,1.5,15.899,2.1,23.7
			c-13.5,3.6-30,6.3-55.801,6.3c-2.398,0-12-8.4-14.1-13.5c6.301-29.4,14.4-68.401,18.9-91.201L636.448,123.885z M721.649,46.483
			c0,17.101-12.602,27.001-26.401,27.001c-15.9,0-25.201-12.301-25.201-24.301c0-13.5,11.4-24.9,27-24.9
			C715.349,24.283,721.649,36.283,721.649,46.483z"/>
		<path fill="#231F20" d="M735.146,48.284c-0.301-8.4-0.301-16.501-0.301-24.301c36.301-2.7,58.801-7.8,63.002-7.8
			c2.1,0,11.4,7.2,13.799,12.3c-4.799,22.5-30.9,147.602-35.699,171.002c-0.6,1.2-0.301,2.4,0.9,2.4c3.898,0,13.5-0.9,22.799-2.7
			c0.9,7.8,1.801,15.899,2.4,23.7c-16.801,3.899-35.4,6-58.801,6c-2.1,0-11.4-6.9-15-12.601c6.301-30.3,26.4-129.001,33.9-168.302
			L735.146,48.284z"/>
		<path fill="#FFFFFF" d="M827.845,49.184c-0.299-8.1-0.299-16.2,0-24.3c29.102-3.301,57.301-8.7,59.701-8.7
			c2.1,0,11.1,7.5,13.801,12.6c-3.301,12.9-17.701,72.301-23.4,97.201l2.1,0.9c24-27.9,45.301-35.4,57-35.7
			c8.1,1.199,18.9,8.699,23.102,17.1c2.1,3.601,2.699,7.5,2.699,11.7c0,10.8-6.6,42.301-18.9,79.201c-0.301,1.2,0,2.399,1.199,2.399
			c3.602,0,9.301-0.899,16.502-2.399c0.898,7.5,1.5,15.6,1.799,23.4c-12.301,3.6-34.801,6.3-55.5,6.3c-2.1,0-11.1-7.2-12.6-13.2
			c4.5-15.3,11.699-41.101,13.799-49.801c1.801-6.6,6.9-25.2,6.9-30c0-2.7-2.4-5.7-5.4-5.7c-14.1,0-37.199,31.5-41.699,49.801
			c-2.701,11.1-8.4,34.5-11.102,46.2c-15,0.3-29.4,0.3-44.1,0.3c6.301-28.2,30-141.301,37.801-178.502L827.845,49.184z"/>
		<path fill="#FFFFFF" d="M984.142,125.984c-0.301-8.4-0.9-16.5-1.201-24.6c17.1-2.7,53.4-10.2,56.102-10.2
			c3.299,0,12.6,8.399,14.699,14.1c-4.799,16.801-8.699,30.9-10.801,39.001c-2.398,9.3-9,34.2-9,42.6c0,3.301,1.801,6.9,5.701,6.9
			c11.699,0,34.199-33.601,38.4-49.801c2.4-10.8,7.801-36.6,10.199-49.8c15-0.301,29.701-0.301,44.4-0.301
			c-3.6,17.101-16.199,81.301-20.1,103.802c-0.301,1.5,0.6,2.399,1.5,2.399c3.6,0,10.201-1.5,16.801-2.7
			c1.5,7.501,2.699,15.301,3.299,23.101c-13.799,5.4-35.699,8.4-51.6,8.4c-2.1,0-8.4-5.4-10.801-9c0.301-5.4,1.801-15.601,3-25.501
			l-3.299-0.899c-23.4,26.7-40.201,35.7-52.502,36.3c-8.699-1.8-19.799-8.399-25.799-16.8c-3-3.9-4.201-9-4.201-14.4
			c0-12.899,6.301-44.101,14.701-74.101L984.142,125.984z"/>
		<path fill="#FFFFFF" d="M1150.64,125.085c-0.301-8.4-0.301-16.501,0-24.601c22.801-3.3,48.9-9.3,52.5-9.3
			c2.4,0,11.4,6.3,14.102,11.399c-0.9,6-2.701,15-4.5,24.301l3.6,0.899c21.9-27,44.1-36.3,56.1-36.6
			c8.4,0.899,18.602,7.5,24.602,17.7c1.799,3.3,2.398,8.1,2.398,11.399c0,11.7-6.299,40.501-18.9,79.501
			c-0.299,1.2-0.299,2.4,0.9,2.4c3,0,10.801-1.2,17.4-2.7c0.9,7.5,1.5,15.6,1.801,23.4c-12.9,3.6-29.102,6-55.502,6
			c-2.398,0-10.199-6.3-13.199-12c4.5-16.2,11.699-43.201,13.801-51.301c1.799-6.3,6.6-23.4,6.6-29.7c0-3-2.1-6-5.4-6
			c-13.5,0-36.301,30-41.1,49.5c-3,11.7-8.701,35.101-11.102,46.801c-15,0.3-29.4,0.3-44.4,0.3c6-27,17.4-79.501,21.602-102.301
			L1150.64,125.085z"/>
		<path fill="#FFFFFF" d="M1376.538,153.285c29.699-36.301,58.5-62.701,77.1-62.701c5.701,0,18,16.2,18.301,33.001
			c-21.9,2.1-35.701,8.699-52.801,22.8v2.1c10.801,3.301,17.1,12.601,21,30.001c2.1,9.3,3.301,17.1,4.5,21.3
			c0.6,1.5,1.801,2.101,3,2.101c3.301,0,9.9-0.601,16.201-1.5c0.6,7.199,0.898,15.3,0.6,22.5c-9.9,3.3-37.201,6-58.201,6
			c-2.4-4.8-5.699-18.601-7.801-33.9c-2.398-17.4-5.398-24.601-10.199-24.601c-2.4,0-3.9,0.9-6,3c-3.6,3-9,8.101-12.9,12.9
			c-3.6,14.101-6.6,28.2-9.301,39.9c-14.699,0.3-29.1,0.3-43.799,0.3c6-28.2,29.699-141.301,36.6-178.502h-23.4
			c-0.299-8.399-0.299-16.2,0-24.3c26.701-2.4,56.102-7.5,59.4-7.5c3.301,0,11.1,7.5,14.102,12.6
			c-5.102,22.501-18.301,80.401-28.502,123.901L1376.538,153.285z"/>
	</g>
	<linearGradient id="SVGID_10_" gradientUnits="userSpaceOnUse" x1="140.8218" y1="95.9697" x2="140.8218" y2="95.9697">
		<stop  offset="0" style="stop-color:#6ABC45"/>
		<stop  offset="1" style="stop-color:#015437"/>
	</linearGradient>
	<path fill="url(#SVGID_10_)" d="M140.822,95.97"/>
	<linearGradient id="SVGID_11_" gradientUnits="userSpaceOnUse" x1="127.6416" y1="161.0098" x2="127.6416" y2="160.71">
		<stop  offset="0" style="stop-color:#6ABC45"/>
		<stop  offset="1" style="stop-color:#015437"/>
	</linearGradient>
	<path fill="url(#SVGID_11_)" d="M128.792,160.71l-2.3,0.3C127.302,160.899,128.072,160.8,128.792,160.71z"/>
	<linearGradient id="SVGID_12_" gradientUnits="userSpaceOnUse" x1="143.0869" y1="157.2002" x2="143.0869" y2="151.0801">
		<stop  offset="0" style="stop-color:#6ABC45"/>
		<stop  offset="1" style="stop-color:#015437"/>
	</linearGradient>
	<path fill="url(#SVGID_12_)" d="M146.312,151.08c-0.88,1.069-1.82,2.09-2.811,3.05c-0.29,0.28-0.58,0.55-0.88,0.82
		c-0.88,0.79-1.81,1.55-2.76,2.25C141.692,155.76,144.022,153.71,146.312,151.08z"/>
	<linearGradient id="SVGID_13_" gradientUnits="userSpaceOnUse" x1="45.4419" y1="212.6797" x2="205.9819" y2="212.6797">
		<stop  offset="0.032" style="stop-color:#6ABC45"/>
		<stop  offset="0.2075" style="stop-color:#5DB044"/>
		<stop  offset="0.5309" style="stop-color:#3B9142"/>
		<stop  offset="0.9637" style="stop-color:#055F3E"/>
		<stop  offset="1" style="stop-color:#005A3E"/>
	</linearGradient>
	<path fill="url(#SVGID_13_)" d="M205.982,231.33c-24.22,10.939-51.43,16.41-81.641,16.41c-16.789,0-32.13-2.58-45.989-7.721
		c-4.061-1.51-7.96-3.18-11.69-5.04c-7.74-3.04-14.89-7.27-21.22-12.449c11.68,8.819,26.22,14.05,41.979,14.05
		c30.19,0,55.891-19.181,65.591-46.021c5.75-0.8,11.64-2.029,17.659-3.689c8.271-2.271,16.78-5.36,25.551-9.25l1.659,9.149
		L205.982,231.33z"/>
	<linearGradient id="SVGID_14_" gradientUnits="userSpaceOnUse" x1="123.3916" y1="88.8301" x2="123.3916" y2="88.8096">
		<stop  offset="0" style="stop-color:#6ABC45"/>
		<stop  offset="1" style="stop-color:#015437"/>
	</linearGradient>
	<path fill="url(#SVGID_14_)" d="M123.992,88.83c-0.27-0.01-0.55-0.01-0.82-0.01h-0.38c0.15-0.011,0.311-0.011,0.46-0.011
		C123.501,88.81,123.742,88.81,123.992,88.83z"/>
	<linearGradient id="SVGID_15_" gradientUnits="userSpaceOnUse" x1="155.7007" y1="140.2744" x2="73.3218" y2="140.2744">
		<stop  offset="0" style="stop-color:#86C440"/>
		<stop  offset="1" style="stop-color:#019548"/>
	</linearGradient>
	<path fill="url(#SVGID_15_)" d="M146.421,150.96c-0.029,0.04-0.069,0.08-0.109,0.12c-2.29,2.63-4.62,4.68-6.45,6.12
		c-0.42,0.33-0.82,0.63-1.18,0.899c-0.091,0.07-0.181,0.141-0.271,0.2s-0.17,0.12-0.26,0.18c-0.16,0.12-0.32,0.23-0.47,0.33
		c-0.101,0.07-0.19,0.13-0.28,0.19c-0.12,0.08-0.23,0.149-0.33,0.22c-0.14,0.08-0.26,0.16-0.36,0.23c-0.09,0.05-0.17,0.1-0.26,0.159
		c-0.14,0.091-0.22,0.131-0.22,0.131s-0.84,0.109-2.351,0.31c-0.21,0.021-0.439,0.05-0.68,0.09c-1.18,0.15-2.67,0.34-4.41,0.57
		c-0.72,0.09-1.489,0.189-2.3,0.3c-0.81,0.1-1.66,0.21-2.54,0.33c-0.89,0.11-1.81,0.23-2.76,0.36c-0.95,0.12-1.93,0.25-2.93,0.38
		c-11.091,1.43-25.4,3.27-37.23,4.77c-0.03-0.05-0.06-0.09-0.09-0.14c-4.83-7.83-7.62-17.101-7.62-27.03c0-2.16,0.13-4.29,0.39-6.38
		l42.091-10.38l36.47-9l0.91-0.22C159.362,130.78,153.032,143.32,146.421,150.96z"/>
	<linearGradient id="SVGID_16_" gradientUnits="userSpaceOnUse" x1="11.062" y1="118.0049" x2="214.1919" y2="118.0049">
		<stop  offset="0.032" style="stop-color:#6ABC45"/>
		<stop  offset="0.2075" style="stop-color:#5DB044"/>
		<stop  offset="0.5309" style="stop-color:#3B9142"/>
		<stop  offset="0.9637" style="stop-color:#055F3E"/>
		<stop  offset="1" style="stop-color:#005A3E"/>
	</linearGradient>
	<path fill="url(#SVGID_16_)" d="M214.192,139.53c0,1.829-0.07,3.59-0.2,5.279c-0.13,1.69-0.33,3.32-0.59,4.88l-38.72,5.04
		l-4.04,0.53l-34.41,4.48c0,0,0.08-0.04,0.22-0.131c0.09-0.06,0.17-0.109,0.26-0.159c0.101-0.07,0.221-0.15,0.36-0.23
		c0.1-0.07,0.21-0.14,0.33-0.22c0.09-0.061,0.18-0.12,0.28-0.19c0.149-0.1,0.31-0.21,0.47-0.33c0.09-0.06,0.17-0.12,0.26-0.18
		c1.49-0.99,2.891-2.11,4.21-3.35c0.3-0.271,0.59-0.54,0.88-0.82c0.99-0.96,1.931-1.98,2.811-3.05c0.04-0.04,0.08-0.08,0.109-0.12
		c6.301-7.28,11.86-19.69,7.471-35c0-0.01,0-0.021-0.011-0.04c-2.71-10.99-10.699-20.09-21.329-24.86
		c-0.03-0.02-0.07-0.029-0.101-0.05c-0.03-0.01-0.04-0.02-0.04-0.02c-1.99-1.181-3.29-1.761-3.43-1.82l-0.01-0.01
		c-10.131-4.69-21.431-7.32-33.32-7.32c-2.07,0-4.12,0.08-6.14,0.23c-40.931,3.14-73.16,37.35-73.16,79.069
		c0,12,2.66,23.38,7.439,33.58c-1.609-2.86-3.08-5.83-4.43-8.899c-5.53-12.631-8.3-26.37-8.3-41.211
		c0-15.619,2.899-29.779,8.689-42.479s13.7-23.57,23.73-32.62s21.75-16.01,35.16-20.9c13.41-4.88,27.729-7.319,42.97-7.319
		c12.71,0,24.13,1.76,34.25,5.29c2.12,0.729,4.18,1.54,6.18,2.43c11.59,5.14,21.25,12.17,29,21.09s13.54,19.33,17.38,31.25
		C212.262,113.26,214.192,125.99,214.192,139.53z"/>
	<linearGradient id="SVGID_17_" gradientUnits="userSpaceOnUse" x1="123.3916" y1="88.8301" x2="123.3916" y2="88.8096">
		<stop  offset="0" style="stop-color:#6ABC45"/>
		<stop  offset="1" style="stop-color:#015437"/>
	</linearGradient>
	<path fill="url(#SVGID_17_)" d="M123.992,88.83c-0.27-0.01-0.55-0.01-0.82-0.01h-0.38c0.15-0.011,0.311-0.011,0.46-0.011
		C123.501,88.81,123.742,88.81,123.992,88.83z"/>
	<linearGradient id="SVGID_18_" gradientUnits="userSpaceOnUse" x1="84.6821" y1="236.5801" x2="84.6821" y2="81.8403">
		<stop  offset="0" style="stop-color:#6ABC45"/>
		<stop  offset="1" style="stop-color:#005A3E"/>
	</linearGradient>
	<path fill="url(#SVGID_18_)" d="M153.012,190.56c-9.7,26.84-35.4,46.021-65.591,46.021c-15.76,0-30.3-5.23-41.979-14.05
		c-9.14-7.49-16.59-16.98-21.65-27.811c-1.18-2.52-2.239-5.12-3.149-7.78c-0.011-0.029-0.021-0.06-0.03-0.08
		c-2.76-8.069-4.26-16.72-4.26-25.72c0-41.72,32.229-75.93,73.16-79.069c2.02-0.15,4.069-0.23,6.14-0.23
		c11.89,0,23.189,2.63,33.32,7.32l0.01,0.01c0.14,0.06,1.439,0.64,3.43,1.82c-1.07-0.54-2.2-1-3.37-1.33
		c-0.05-0.03-0.109-0.051-0.17-0.061c-1.46-0.42-2.99-0.68-4.569-0.76c-0.11-0.01-0.211-0.01-0.311-0.01
		c-0.25-0.021-0.49-0.021-0.74-0.021c-0.149,0-0.31,0-0.46,0.011c-10.21,0.079-19.7,3.279-27.569,8.739
		c-8.78,6.07-15.551,14.92-19.11,25.311c-0.01,0.01,0,0.02,0,0.02c-1.15,3.33-1.96,6.811-2.4,10.41c-0.26,2.09-0.39,4.22-0.39,6.38
		c0,9.93,2.79,19.2,7.62,27.03c0.03,0.05,0.06,0.09,0.09,0.14c16.26,24.76,55.76,24.83,56.2,24.83
		C142.381,191.68,147.642,191.31,153.012,190.56z"/>
</g>
</svg>
