<?xml version="1.0" encoding="utf-8"?>
<!-- Generator: Adobe Illustrator 16.0.0, SVG Export Plug-In . SVG Version: 6.00 Build 0)  -->
<!DOCTYPE svg PUBLIC "-//W3C//DTD SVG 1.1//EN" "http://www.w3.org/Graphics/SVG/1.1/DTD/svg11.dtd">
<svg version="1.1" id="Layer_1" xmlns="http://www.w3.org/2000/svg" xmlns:xlink="http://www.w3.org/1999/xlink" x="0px" y="0px"
	 width="1483px" height="261px" viewBox="0 0 1483 261" enable-background="new 0 0 1483 261" xml:space="preserve">
<g>
	<path fill="#933233" d="M123.991,88.869c-0.27-0.01-0.55-0.01-0.82-0.01h-0.38c0.15-0.011,0.311-0.011,0.46-0.011
		C123.5,88.848,123.741,88.848,123.991,88.869z"/>
	<path fill="#A91F23" d="M128.791,160.748l-2.3,0.301C127.301,160.938,128.071,160.838,128.791,160.748z"/>
	<path fill="#A91F23" d="M146.311,151.119c-0.88,1.068-1.82,2.09-2.811,3.049c-0.29,0.281-0.58,0.551-0.88,0.82
		c-1.319,1.24-2.72,2.359-4.21,3.35c0.09-0.059,0.18-0.129,0.271-0.199c0.359-0.27,0.76-0.57,1.18-0.9
		C141.691,155.799,144.021,153.748,146.311,151.119z"/>
	<g>
		<path fill="#231F20" d="M232.654,124.523c0-8.1,0-16.2,0-24.3c23.4-3.301,48-9,51.3-9c2.7,0,9.6,5.1,13.2,10.8
			c-0.9,6.6-2.7,16.2-4.2,24.6l3.3,0.6c22.5-28.2,44.4-35.7,54.9-36c8.1,0.899,17.4,8.1,21.9,15.899c1.5,2.4,2.1,6,2.1,8.4
			c0,1.8-0.3,6.3-0.6,9.901l2.4,0.299c21.601-27.3,41.701-33.6,50.701-33.9c8.1,0.9,18.6,7.8,24.3,18.601c1.5,3.3,2.7,6.6,2.7,10.5
			c0,12-7.2,41.7-17.7,78.6c-0.3,1.201,0,2.1,0.9,2.1c3,0,9.9-1.199,17.1-3c0.9,7.5,1.8,15.301,2.1,23.101
			c-13.5,4.5-29.4,7.201-54.601,7.201c-1.8,0-9-6.602-11.1-12.601c4.2-16.5,10.2-40.5,12.3-50.102c1.8-6.299,6.3-24.6,6.3-31.5
			c0-3.299-2.1-6-5.7-6c-12.9,0-34.8,31.801-39,50.102c-3.9,15.299-7.8,32.1-11.1,47.399c-13.8,0.301-27.9,0.301-42,0.301
			c3.9-16.8,10.5-47.101,12.9-57.601c1.8-7.801,6.6-29.1,6.6-35.102c0-2.699-2.1-5.398-5.1-5.398c-13.8,0-36,33.9-40.5,51.9
			c-3.3,12.9-7.5,33.299-10.2,45.899c-14.1,0.301-28.2,0.301-42.6,0.301c5.4-25.2,16.5-76.501,21.3-102.901L232.654,124.523z"/>
		<path fill="#231F20" d="M557.853,197.725c-24.6,24.899-42.3,31.8-54,32.099c-7.2-1.199-21.6-9.299-26.4-19.8
			c-2.4-4.799-3.6-9.6-3.6-15.6c0-8.4,2.7-24.9,7.8-39.301c8.1-23.1,31.5-63.9,64.801-63.9c12,0,22.5,3.899,31.8,12h1.5
			l7.801-15.301c12,3.301,23.699,6.601,35.1,10.5c-7.799,28.501-18.9,75.3-24.299,100.201c-0.301,1.201,0.6,1.801,1.799,1.801
			c1.801,0,8.1-0.9,15.6-2.699c1.5,7.799,2.4,15.6,3,23.7c-13.799,4.5-33,7.5-49.199,7.5c-1.5,0-9-4.801-11.101-9
			c0.3-4.501,1.2-13.2,2.399-21.302L557.853,197.725z M531.153,145.824c-6.6,15.299-10.8,32.1-10.8,41.1c0,5.699,2.4,9.9,6.3,9.9
			c8.7,0,31.8-23.701,35.401-35.4c1.5-4.801,5.699-22.201,8.399-34.5c-2.399-4.201-8.399-7.5-15-7.5
			C544.654,119.423,535.954,134.424,531.153,145.824z"/>
		<path fill="#231F20" d="M636.447,123.923c0-8.4,0-16.5,0.301-24.601c22.801-2.7,53.1-8.1,58.5-8.1c2.4,0,11.4,7.5,14.1,12
			c-5.398,25.5-18.6,85.501-21,96.601c-0.6,1.199-0.299,2.1,0.9,2.1c3,0,10.801-0.9,19.201-3c0.6,7.801,1.5,15.9,2.1,23.7
			c-13.5,3.6-30,6.301-55.801,6.301c-2.4,0-12-8.4-14.1-13.501c6.299-29.4,14.4-68.4,18.9-91.201L636.447,123.923z M721.648,46.522
			c0,17.101-12.6,27.001-26.4,27.001c-15.9,0-25.199-12.301-25.199-24.301c0-13.5,11.4-24.9,27-24.9
			C715.347,24.322,721.648,36.322,721.648,46.522z"/>
		<path fill="#231F20" d="M735.146,48.323c-0.301-8.4-0.301-16.501-0.301-24.301c36.301-2.7,58.801-7.8,63-7.8
			c2.1,0,11.4,7.2,13.801,12.3c-4.801,22.5-30.9,147.601-35.701,171.001c-0.6,1.201-0.299,2.4,0.9,2.4c3.9,0,13.5-0.9,22.801-2.699
			c0.9,7.799,1.799,15.898,2.4,23.7c-16.801,3.898-35.4,6-58.801,6c-2.1,0-11.401-6.9-15-12.601
			c6.299-30.301,26.401-129.001,33.901-168.302L735.146,48.323z"/>
		<path fill="#37B34A" d="M827.846,49.222c-0.301-8.1-0.301-16.2,0-24.3c29.1-3.301,57.301-8.7,59.699-8.7
			c2.102,0,11.102,7.5,13.801,12.6c-3.301,12.9-17.699,72.301-23.4,97.202l2.1,0.9c24.002-27.901,45.301-35.401,57.002-35.701
			c8.1,1.199,18.9,8.699,23.1,17.1c2.1,3.601,2.699,7.5,2.699,11.7c0,10.799-6.6,42.301-18.898,79.202
			c-0.301,1.199,0,2.398,1.199,2.398c3.6,0,9.301-0.898,16.5-2.398c0.9,7.5,1.5,15.6,1.801,23.399
			c-12.301,3.6-34.801,6.301-55.502,6.301c-2.1,0-11.1-7.201-12.6-13.2c4.5-15.301,11.701-41.102,13.801-49.801
			c1.799-6.6,6.9-25.201,6.9-30c0-2.701-2.4-5.701-5.4-5.701c-14.102,0-37.201,31.5-41.701,49.801c-2.699,11.1-8.4,34.5-11.1,46.2
			c-15,0.301-29.4,0.301-44.102,0.301c6.301-28.2,30.002-141.301,37.801-178.502L827.846,49.222z"/>
		<path fill="#37B34A" d="M984.141,126.023c-0.301-8.401-0.9-16.5-1.199-24.6c17.1-2.7,53.4-10.2,56.1-10.2
			c3.301,0,12.6,8.399,14.701,14.1c-4.801,16.801-8.701,30.9-10.801,39.001c-2.4,9.299-9,34.199-9,42.6c0,3.301,1.801,6.9,5.699,6.9
			c11.701,0,34.201-33.602,38.4-49.801c2.4-10.801,7.801-36.6,10.201-49.8c15-0.301,29.699-0.301,44.4-0.301
			c-3.6,17.101-16.201,81.3-20.1,103.802c-0.301,1.5,0.6,2.398,1.5,2.398c3.6,0,10.199-1.5,16.799-2.699
			c1.5,7.5,2.701,15.301,3.301,23.101c-13.801,5.4-35.701,8.4-51.602,8.4c-2.1,0-8.398-5.4-10.799-9
			c0.299-5.401,1.799-15.601,3-25.501l-3.301-0.9c-23.4,26.7-40.199,35.7-52.5,36.3c-8.701-1.799-19.801-8.398-25.801-16.8
			c-3-3.9-4.199-9-4.199-14.4c0-12.898,6.299-44.1,14.699-74.1L984.141,126.023z"/>
		<path fill="#37B34A" d="M1150.639,125.123c-0.299-8.4-0.299-16.5,0-24.6c22.801-3.3,48.902-9.3,52.502-9.3
			c2.4,0,11.4,6.3,14.1,11.399c-0.9,6-2.699,15-4.5,24.301l3.6,0.898c21.9-27,44.102-36.299,56.102-36.599
			c8.4,0.899,18.6,7.5,24.6,17.7c1.801,3.3,2.4,8.1,2.4,11.399c0,11.701-6.301,40.501-18.9,79.501c-0.301,1.199-0.301,2.4,0.9,2.4
			c3,0,10.799-1.201,17.4-2.701c0.898,7.5,1.5,15.6,1.799,23.401c-12.9,3.6-29.1,6-55.5,6c-2.4,0-10.199-6.301-13.199-12.001
			c4.5-16.199,11.699-43.201,13.799-51.301c1.801-6.299,6.6-23.4,6.6-29.699c0-3-2.1-6-5.398-6c-13.5,0-36.301,30-41.102,49.5
			c-3,11.699-8.699,35.1-11.1,46.8c-15,0.301-29.4,0.301-44.4,0.301c6-27.001,17.4-79.501,21.6-102.301L1150.639,125.123z"/>
		<path fill="#37B34A" d="M1376.539,153.324c29.699-36.301,58.5-62.702,77.1-62.702c5.701,0,18,16.2,18.301,33.001
			c-21.9,2.099-35.701,8.699-52.801,22.8v2.1c10.801,3.301,17.1,12.6,21,30c2.1,9.301,3.301,17.1,4.5,21.301
			c0.6,1.5,1.801,2.1,3,2.1c3.301,0,9.9-0.6,16.201-1.5c0.6,7.199,0.898,15.301,0.6,22.501c-9.9,3.299-37.201,6-58.201,6
			c-2.4-4.801-5.699-18.601-7.801-33.901c-2.398-17.4-5.398-24.6-10.199-24.6c-2.4,0-3.9,0.9-6,3c-3.6,3-9,8.1-12.9,12.9
			c-3.6,14.1-6.6,28.199-9.301,39.899c-14.699,0.301-29.1,0.301-43.799,0.301c6-28.2,29.699-141.301,36.6-178.502h-23.4
			c-0.299-8.399-0.299-16.2,0-24.3c26.701-2.4,56.102-7.5,59.4-7.5c3.301,0,11.1,7.5,14.102,12.6
			c-5.102,22.501-18.301,80.401-28.502,123.901L1376.539,153.324z"/>
	</g>
	<linearGradient id="SVGID_1_" gradientUnits="userSpaceOnUse" x1="140.8208" y1="96.0083" x2="140.8208" y2="96.0083">
		<stop  offset="0" style="stop-color:#6ABC45"/>
		<stop  offset="1" style="stop-color:#015437"/>
	</linearGradient>
	<path fill="url(#SVGID_1_)" d="M140.821,96.008"/>
	<linearGradient id="SVGID_2_" gradientUnits="userSpaceOnUse" x1="127.6406" y1="161.0488" x2="127.6406" y2="160.748">
		<stop  offset="0" style="stop-color:#6ABC45"/>
		<stop  offset="1" style="stop-color:#015437"/>
	</linearGradient>
	<path fill="url(#SVGID_2_)" d="M128.791,160.748l-2.3,0.301C127.301,160.938,128.071,160.838,128.791,160.748z"/>
	<linearGradient id="SVGID_3_" gradientUnits="userSpaceOnUse" x1="143.0859" y1="157.2383" x2="143.0859" y2="151.1191">
		<stop  offset="0" style="stop-color:#6ABC45"/>
		<stop  offset="1" style="stop-color:#015437"/>
	</linearGradient>
	<path fill="url(#SVGID_3_)" d="M146.311,151.119c-0.88,1.068-1.82,2.09-2.811,3.049c-0.29,0.281-0.58,0.551-0.88,0.82
		c-0.88,0.791-1.81,1.551-2.76,2.25C141.691,155.799,144.021,153.748,146.311,151.119z"/>
	<linearGradient id="SVGID_4_" gradientUnits="userSpaceOnUse" x1="45.4409" y1="212.7188" x2="205.981" y2="212.7188">
		<stop  offset="0" style="stop-color:#6ABC45"/>
		<stop  offset="1" style="stop-color:#015437"/>
	</linearGradient>
	<path fill="url(#SVGID_4_)" d="M205.981,231.368c-24.22,10.939-51.43,16.41-81.641,16.41c-16.789,0-32.13-2.58-45.989-7.721
		c-4.061-1.51-7.96-3.18-11.69-5.039c-7.74-3.041-14.89-7.27-21.22-12.449c11.68,8.818,26.22,14.049,41.979,14.049
		c30.19,0,55.891-19.181,65.591-46.021c5.75-0.799,11.64-2.029,17.659-3.689c8.271-2.27,16.78-5.359,25.551-9.25l1.659,9.15
		L205.981,231.368z"/>
	<linearGradient id="SVGID_5_" gradientUnits="userSpaceOnUse" x1="123.3906" y1="88.8687" x2="123.3906" y2="88.8481">
		<stop  offset="0" style="stop-color:#6ABC45"/>
		<stop  offset="1" style="stop-color:#015437"/>
	</linearGradient>
	<path fill="url(#SVGID_5_)" d="M123.991,88.869c-0.27-0.01-0.55-0.01-0.82-0.01h-0.38c0.15-0.011,0.311-0.011,0.46-0.011
		C123.5,88.848,123.741,88.848,123.991,88.869z"/>
	<linearGradient id="SVGID_6_" gradientUnits="userSpaceOnUse" x1="155.6997" y1="140.3135" x2="73.3208" y2="140.3135">
		<stop  offset="0" style="stop-color:#6ABC45"/>
		<stop  offset="1" style="stop-color:#015437"/>
	</linearGradient>
	<path fill="url(#SVGID_6_)" d="M146.42,150.998c-0.029,0.041-0.069,0.08-0.109,0.121c-2.29,2.629-4.62,4.68-6.45,6.119
		c-0.42,0.33-0.82,0.631-1.18,0.9c-0.091,0.07-0.181,0.141-0.271,0.199c-0.09,0.061-0.17,0.121-0.26,0.18
		c-0.16,0.121-0.32,0.23-0.47,0.33c-0.101,0.07-0.19,0.131-0.28,0.191c-0.12,0.08-0.23,0.148-0.33,0.219
		c-0.14,0.08-0.26,0.16-0.36,0.23c-0.09,0.051-0.17,0.1-0.26,0.16c-0.14,0.09-0.22,0.131-0.22,0.131s-0.84,0.109-2.351,0.309
		c-0.21,0.021-0.439,0.051-0.68,0.09c-1.18,0.15-2.67,0.34-4.41,0.57c-0.72,0.09-1.489,0.189-2.3,0.301
		c-0.81,0.1-1.66,0.209-2.54,0.33c-0.89,0.109-1.81,0.23-2.76,0.359c-0.95,0.121-1.93,0.25-2.93,0.381
		c-11.091,1.43-25.4,3.27-37.23,4.77c-0.03-0.051-0.06-0.09-0.09-0.141c-4.83-7.83-7.62-17.1-7.62-27.029
		c0-2.16,0.13-4.291,0.39-6.381l42.091-10.379l36.47-9l0.91-0.22C159.361,130.818,153.031,143.359,146.42,150.998z"/>
	<linearGradient id="SVGID_7_" gradientUnits="userSpaceOnUse" x1="11.061" y1="118.043" x2="214.1909" y2="118.043">
		<stop  offset="0" style="stop-color:#6ABC45"/>
		<stop  offset="1" style="stop-color:#015437"/>
	</linearGradient>
	<path fill="url(#SVGID_7_)" d="M214.191,139.568c0,1.83-0.07,3.59-0.2,5.279c-0.13,1.691-0.33,3.32-0.59,4.881l-38.72,5.039
		l-4.04,0.531l-34.41,4.48c0,0,0.08-0.041,0.22-0.131c0.09-0.061,0.17-0.109,0.26-0.16c0.101-0.07,0.221-0.15,0.36-0.23
		c0.1-0.07,0.21-0.139,0.33-0.219c0.09-0.061,0.18-0.121,0.28-0.191c0.149-0.1,0.31-0.209,0.47-0.33
		c0.09-0.059,0.17-0.119,0.26-0.18c1.49-0.99,2.891-2.109,4.21-3.35c0.3-0.27,0.59-0.539,0.88-0.82
		c0.99-0.959,1.931-1.98,2.811-3.049c0.04-0.041,0.08-0.08,0.109-0.121c6.301-7.279,11.86-19.689,7.471-35
		c0-0.01,0-0.021-0.011-0.04c-2.71-10.99-10.699-20.09-21.329-24.86c-0.03-0.02-0.07-0.029-0.101-0.05
		c-0.03-0.01-0.04-0.02-0.04-0.02c-1.99-1.181-3.29-1.761-3.43-1.82l-0.01-0.01c-10.131-4.69-21.431-7.32-33.32-7.32
		c-2.07,0-4.12,0.08-6.14,0.23c-40.931,3.14-73.16,37.35-73.16,79.069c0,12,2.66,23.381,7.439,33.58
		c-1.609-2.859-3.08-5.83-4.43-8.898c-5.53-12.631-8.3-26.371-8.3-41.211c0-15.619,2.899-29.78,8.689-42.48s13.7-23.57,23.73-32.62
		s21.75-16.01,35.16-20.9c13.41-4.88,27.729-7.319,42.97-7.319c12.71,0,24.13,1.76,34.25,5.29c2.12,0.729,4.18,1.54,6.18,2.43
		c11.59,5.14,21.25,12.17,29,21.09s13.54,19.33,17.38,31.25C212.261,113.298,214.191,126.029,214.191,139.568z"/>
	<linearGradient id="SVGID_8_" gradientUnits="userSpaceOnUse" x1="123.3906" y1="88.8687" x2="123.3906" y2="88.8481">
		<stop  offset="0" style="stop-color:#6ABC45"/>
		<stop  offset="1" style="stop-color:#015437"/>
	</linearGradient>
	<path fill="url(#SVGID_8_)" d="M123.991,88.869c-0.27-0.01-0.55-0.01-0.82-0.01h-0.38c0.15-0.011,0.311-0.011,0.46-0.011
		C123.5,88.848,123.741,88.848,123.991,88.869z"/>
	<linearGradient id="SVGID_9_" gradientUnits="userSpaceOnUse" x1="84.6812" y1="236.6182" x2="84.6811" y2="81.8789">
		<stop  offset="0" style="stop-color:#6ABC45"/>
		<stop  offset="1" style="stop-color:#015437"/>
	</linearGradient>
	<path fill="url(#SVGID_9_)" d="M153.011,190.598c-9.7,26.84-35.4,46.021-65.591,46.021c-15.76,0-30.3-5.23-41.979-14.049
		c-9.14-7.491-16.59-16.981-21.65-27.812c-1.18-2.52-2.239-5.119-3.149-7.779c-0.011-0.029-0.021-0.061-0.03-0.08
		c-2.76-8.07-4.26-16.721-4.26-25.721c0-41.719,32.229-75.929,73.16-79.069c2.02-0.15,4.069-0.23,6.14-0.23
		c11.89,0,23.189,2.63,33.32,7.32l0.01,0.01c0.14,0.06,1.439,0.64,3.43,1.82c-1.07-0.54-2.2-1-3.37-1.33
		c-0.05-0.03-0.109-0.051-0.17-0.061c-1.46-0.42-2.99-0.68-4.569-0.76c-0.11-0.01-0.211-0.01-0.311-0.01
		c-0.25-0.021-0.49-0.021-0.74-0.021c-0.149,0-0.31,0-0.46,0.011c-10.21,0.079-19.7,3.279-27.569,8.739
		c-8.78,6.07-15.551,14.92-19.11,25.311c-0.01,0.01,0,0.02,0,0.02c-1.15,3.33-1.96,6.81-2.4,10.41c-0.26,2.09-0.39,4.221-0.39,6.381
		c0,9.93,2.79,19.199,7.62,27.029c0.03,0.051,0.06,0.09,0.09,0.141c16.26,24.76,55.76,24.83,56.2,24.83
		C142.38,191.719,147.641,191.348,153.011,190.598z"/>
</g>
</svg>
