<?xml version="1.0" encoding="utf-8"?>
<!-- Generator: Adobe Illustrator 16.0.0, SVG Export Plug-In . SVG Version: 6.00 Build 0)  -->
<!DOCTYPE svg PUBLIC "-//W3C//DTD SVG 1.1//EN" "http://www.w3.org/Graphics/SVG/1.1/DTD/svg11.dtd">
<svg version="1.1" id="Layer_1" xmlns="http://www.w3.org/2000/svg" xmlns:xlink="http://www.w3.org/1999/xlink" x="0px" y="0px"
	 width="264px" height="48px" viewBox="0 0 264 48" enable-background="new 0 0 264 48" xml:space="preserve">
<g>
	<g>
		<path fill="#2DB674" d="M47.244,23.888c0,12.76-10.12,23.148-22.78,23.58c1.44-2.279,2.28-4.989,2.28-7.891
			c0-0.398-0.02-0.791-0.04-1.183c-0.01-0.028-0.01-0.05-0.01-0.077c-0.18-2.013-0.75-3.91-1.64-5.611
			c-0.02-0.021-0.03-0.049-0.04-0.068c-0.32-0.602-0.68-1.17-1.07-1.709c0.03-0.01,0.05-0.021,0.07-0.03v-0.011
			c3.25-1.489,6.1-3.688,8.37-6.398c0.04-0.039,0.07-0.067,0.1-0.107s0.06-0.07,0.08-0.11c1.75-2.13,3.13-4.569,4.05-7.22
			c0.02-0.04,0.04-0.08,0.04-0.13c0.02-0.03,0.04-0.07,0.04-0.11c0.83-2.41,1.27-5,1.27-7.689c0-1.41-0.12-2.8-0.37-4.141
			c0.01-0.05,0-0.09-0.02-0.13C43.434,9.127,47.244,16.069,47.244,23.888z"/>
		<path fill="#2DB674" d="M37.552,4.728c0.02,0.04,0.02,0.08,0.02,0.12c0.02,0.04,0.03,0.08,0.02,0.13
			c6.01,4.41,9.56,11.42,9.56,18.91c0,12.689-9.88,22.979-22.53,23.49c1.44-2.342,2.21-5.029,2.21-7.801
			c0-0.381-0.02-0.771-0.06-1.199v-0.08c-0.02-0.239-0.05-0.479-0.08-0.721c-0.23-1.711-0.75-3.353-1.56-4.881
			c-0.01-0.029-0.03-0.052-0.04-0.08c0-0.012-0.01-0.012-0.01-0.021c-0.01-0.021-0.02-0.04-0.03-0.063
			c-0.31-0.568-0.65-1.107-1.04-1.642c-0.02,0.011-0.04,0.021-0.07,0.03c-0.02,0.01-0.05,0.021-0.08,0.027
			c0.39,0.553,0.75,1.121,1.07,1.723l0.03,0.05c0.92,1.75,1.47,3.63,1.64,5.603l0.01,0.102c0.03,0.398,0.04,0.777,0.04,1.148
			c0,2.789-0.78,5.5-2.27,7.84l-0.08,0.142h0.16c6.15-0.21,11.91-2.763,16.2-7.2c4.3-4.438,6.67-10.289,6.67-16.47
			C47.333,16.288,43.684,9.167,37.552,4.728z"/>
	</g>
	<g>
		<path fill="#53C180" d="M38.402,23.888c0,7.068-4.98,12.979-11.63,14.41c-0.03,0.011-0.05,0.011-0.08,0.021
			c-0.18-2.013-0.75-3.91-1.64-5.609c-0.02-0.021-0.03-0.051-0.04-0.07c-0.32-0.6-0.68-1.17-1.07-1.709
			c0.03-0.01,0.05-0.021,0.07-0.029V30.89c3.25-1.488,6.1-3.689,8.37-6.398c0.04-0.041,0.07-0.067,0.1-0.107s0.06-0.07,0.08-0.11
			c1.75-2.13,3.13-4.569,4.05-7.22c0.02-0.04,0.04-0.08,0.04-0.13C37.763,18.989,38.402,21.369,38.402,23.888z"/>
		<path fill="#53C180" d="M36.693,16.808c0,0.04-0.02,0.08-0.04,0.11c0,0.05-0.02,0.09-0.04,0.13c1.12,2.1,1.7,4.44,1.7,6.84
			c0,6.871-4.85,12.88-11.54,14.33c-0.02-0.209-0.05-0.432-0.08-0.641c-0.23-1.711-0.75-3.353-1.56-4.881
			c-0.01-0.027-0.03-0.052-0.04-0.08c0-0.012-0.01-0.012-0.01-0.021c-0.01-0.021-0.02-0.04-0.03-0.063
			c-0.31-0.568-0.65-1.107-1.04-1.642c-0.02,0.011-0.04,0.021-0.07,0.03c-0.02,0.01-0.05,0.021-0.08,0.027
			c0.39,0.553,0.75,1.121,1.07,1.723l0.03,0.05c0.92,1.75,1.47,3.63,1.64,5.603l0.01,0.102l0.09-0.03h0.01
			c0.02,0,0.04-0.011,0.06-0.021c6.79-1.438,11.71-7.528,11.71-14.489C38.483,21.397,37.862,18.968,36.693,16.808z"/>
	</g>
	<g>
		<path fill="#2DB674" d="M32.483,24.377c-0.22,4.17-3.35,7.579-7.39,8.239c-0.03,0.014-0.05,0.021-0.08,0.021
			c-0.32-0.602-0.68-1.17-1.07-1.709c0.03-0.01,0.05-0.021,0.07-0.03v-0.011c3.25-1.489,6.1-3.688,8.37-6.398
			C32.422,24.448,32.454,24.418,32.483,24.377z"/>
		<path fill="#2DB674" d="M32.483,24.377c-0.03,0.041-0.06,0.069-0.1,0.11c-0.27,4.01-3.33,7.398-7.33,8.049
			c-0.31-0.566-0.65-1.105-1.04-1.64c-0.02,0.011-0.04,0.021-0.07,0.03c-0.02,0.01-0.05,0.02-0.08,0.029
			c0.39,0.551,0.75,1.121,1.07,1.721l0.03,0.05l0.06-0.011c0.01,0,0.02,0,0.03-0.01c0.03,0,0.05,0,0.08-0.01
			c4.13-0.689,7.26-4.264,7.43-8.434C32.543,24.308,32.513,24.338,32.483,24.377z"/>
	</g>
	<g>
		<path fill="#2DB674" d="M0.572,23.973c0-12.76,10.12-23.149,22.78-23.58c-1.44,2.28-2.28,4.99-2.28,7.891
			c0,0.399,0.02,0.79,0.04,1.18c0.01,0.03,0.01,0.05,0.01,0.08c0.18,2.01,0.75,3.91,1.64,5.61c0.02,0.02,0.03,0.05,0.04,0.069
			c0.32,0.601,0.68,1.17,1.07,1.71c-0.03,0.011-0.05,0.021-0.07,0.03v0.01c-3.25,1.49-6.1,3.69-8.37,6.4
			c-0.04,0.04-0.07,0.07-0.1,0.11c-0.03,0.039-0.06,0.069-0.08,0.109c-1.75,2.13-3.13,4.569-4.05,7.22
			c-0.02,0.04-0.04,0.08-0.04,0.131c-0.02,0.029-0.04,0.068-0.04,0.109c-0.83,2.41-1.27,5-1.27,7.689c0,1.41,0.12,2.801,0.37,4.141
			c-0.01,0.05,0,0.09,0.021,0.129C4.382,38.732,0.572,31.792,0.572,23.973z"/>
		<path fill="#2DB674" d="M10.262,43.133c-0.02-0.041-0.02-0.08-0.02-0.121c-0.021-0.039-0.03-0.079-0.021-0.129
			c-6.01-4.41-9.56-11.42-9.56-18.91c0-12.689,9.88-22.979,22.53-23.489c-1.44,2.34-2.21,5.029-2.21,7.8c0,0.38,0.02,0.77,0.06,1.2
			v0.079c0.02,0.24,0.05,0.48,0.08,0.721c0.23,1.71,0.75,3.35,1.56,4.88c0.01,0.03,0.03,0.05,0.04,0.08c0,0.01,0.01,0.01,0.01,0.02
			c0.01,0.021,0.02,0.04,0.03,0.061c0.31,0.569,0.65,1.109,1.04,1.64c0.02-0.01,0.04-0.02,0.07-0.03c0.02-0.01,0.05-0.02,0.08-0.029
			c-0.39-0.551-0.75-1.12-1.07-1.721l-0.03-0.05c-0.92-1.75-1.47-3.63-1.64-5.6l-0.01-0.101c-0.03-0.399-0.04-0.779-0.04-1.149
			c0-2.79,0.78-5.5,2.27-7.84l0.08-0.141h-0.16c-6.15,0.21-11.91,2.76-16.2,7.2c-4.3,4.44-6.67,10.29-6.67,16.47
			C0.482,31.573,4.132,38.694,10.262,43.133z"/>
	</g>
	<g>
		<path fill="#53C180" d="M9.413,23.973c0-7.069,4.98-12.979,11.63-14.41c0.03-0.01,0.05-0.01,0.08-0.02
			c0.18,2.01,0.75,3.91,1.64,5.61c0.02,0.02,0.03,0.05,0.04,0.069c0.32,0.601,0.68,1.17,1.07,1.71c-0.03,0.011-0.05,0.021-0.07,0.03
			v0.01c-3.25,1.49-6.1,3.69-8.37,6.4c-0.04,0.04-0.07,0.07-0.1,0.11c-0.03,0.039-0.06,0.069-0.08,0.109
			c-1.75,2.13-3.13,4.568-4.05,7.22c-0.02,0.04-0.04,0.08-0.04,0.131C10.052,28.872,9.413,26.493,9.413,23.973z"/>
		<path fill="#53C180" d="M11.123,31.053c0-0.041,0.02-0.08,0.04-0.108c0-0.052,0.02-0.092,0.04-0.132c-1.12-2.1-1.7-4.438-1.7-6.84
			c0-6.87,4.85-12.88,11.54-14.33c0.02,0.21,0.05,0.431,0.08,0.641c0.23,1.71,0.75,3.35,1.56,4.88c0.01,0.03,0.03,0.05,0.04,0.08
			c0,0.01,0.01,0.01,0.01,0.02c0.01,0.021,0.02,0.04,0.03,0.061c0.31,0.569,0.65,1.109,1.04,1.64c0.02-0.01,0.04-0.02,0.07-0.03
			c0.02-0.01,0.05-0.02,0.08-0.029c-0.39-0.551-0.75-1.12-1.07-1.721l-0.03-0.05c-0.92-1.75-1.47-3.63-1.64-5.6l-0.01-0.101
			l-0.09,0.03h-0.01c-0.02,0-0.04,0.01-0.06,0.021c-6.79,1.439-11.71,7.529-11.71,14.489C9.333,26.463,9.953,28.893,11.123,31.053z"
			/>
	</g>
	<g>
		<path fill="#2DB674" d="M15.333,23.484c0.22-4.171,3.35-7.58,7.39-8.24c0.03-0.01,0.05-0.021,0.08-0.021
			c0.32,0.601,0.68,1.17,1.07,1.71c-0.03,0.011-0.05,0.021-0.07,0.03v0.01c-3.25,1.49-6.1,3.69-8.37,6.4
			C15.393,23.413,15.362,23.444,15.333,23.484z"/>
		<path fill="#2DB674" d="M15.333,23.484c0.03-0.04,0.06-0.07,0.1-0.11c0.27-4.01,3.33-7.4,7.33-8.05
			c0.31,0.569,0.65,1.109,1.04,1.64c0.02-0.01,0.04-0.02,0.07-0.03c0.02-0.01,0.05-0.02,0.08-0.029
			c-0.39-0.551-0.75-1.12-1.07-1.721l-0.03-0.05l-0.06,0.01c-0.01,0-0.02,0-0.03,0.011c-0.03,0-0.05,0-0.08,0.01
			c-4.13,0.689-7.26,4.26-7.43,8.43C15.272,23.553,15.302,23.522,15.333,23.484z"/>
	</g>
	<path fill="#FFFFFF" d="M53.17,16.645c0-1.29,1.02-2.31,2.31-2.31s2.31,1.02,2.31,2.31v6.18h8.52v-6.18c0-1.29,1.02-2.31,2.31-2.31
		s2.31,1.02,2.31,2.31v16.739c0,1.29-1.02,2.311-2.31,2.311s-2.31-1.021-2.31-2.311v-6.301h-8.52v6.301
		c0,1.29-1.02,2.311-2.31,2.311s-2.31-1.021-2.31-2.311V16.645L53.17,16.645z"/>
	<path fill="#FFFFFF" d="M75.969,33.202V16.823c0-1.29,1.02-2.31,2.31-2.31h11.64c1.14,0,2.07,0.93,2.07,2.069
		c0,1.141-0.93,2.039-2.07,2.039h-9.359v4.261h8.009c1.14,0,2.07,0.931,2.07,2.068c0,1.141-0.93,2.041-2.07,2.041h-8.009v4.41h9.509
		c1.14,0,2.07,0.93,2.07,2.066c0,1.143-0.93,2.04-2.07,2.04h-11.79C76.989,35.514,75.969,34.493,75.969,33.202z"/>
	<path fill="#FFFFFF" d="M96.069,16.645c0-1.29,1.02-2.31,2.31-2.31s2.31,1.02,2.31,2.31v14.67h8.55c1.17,0,2.1,0.931,2.1,2.101
		s-0.93,2.103-2.1,2.103h-10.86c-1.29,0-2.31-1.021-2.31-2.312V16.645z"/>
	<path fill="#FFFFFF" d="M113.469,32.544l7.319-16.529c0.51-1.14,1.44-1.83,2.7-1.83h0.27c1.26,0,2.16,0.69,2.67,1.83l7.32,16.529
		c0.15,0.328,0.24,0.63,0.24,0.93c0,1.229-0.961,2.221-2.191,2.221c-1.08,0-1.8-0.63-2.22-1.591l-1.41-3.3h-9.24l-1.47,3.45
		c-0.39,0.897-1.17,1.438-2.13,1.438c-1.2,0-2.13-0.961-2.13-2.159C113.199,33.202,113.318,32.872,113.469,32.544z M126.458,26.724
		l-2.91-6.93l-2.91,6.93H126.458z"/>
	<path fill="#FFFFFF" d="M137.619,16.645c0-1.29,1.021-2.31,2.311-2.31s2.311,1.02,2.311,2.31v14.67h8.553
		c1.17,0,2.102,0.931,2.102,2.101s-0.932,2.103-2.102,2.103h-10.859c-1.289,0-2.313-1.021-2.313-2.312L137.619,16.645
		L137.619,16.645z"/>
	<path fill="#FFFFFF" d="M164.859,26.514v-9.869c0-1.29,1.02-2.31,2.311-2.31c1.289,0,2.311,1.02,2.311,2.31v9.75
		c0,3.42,1.709,5.188,4.527,5.188c2.82,0,4.531-1.711,4.531-5.039v-9.899c0-1.29,1.021-2.31,2.311-2.31
		c1.291,0,2.313,1.02,2.313,2.31v9.722c0,6.357-3.57,9.479-9.213,9.479C168.311,35.844,164.859,32.694,164.859,26.514z"/>
	<path fill="#FFFFFF" d="M187.869,16.824c0-1.29,1.02-2.31,2.309-2.31h5.881c6.6,0,11.158,4.529,11.158,10.438v0.061
		c0,5.91-4.559,10.5-11.158,10.5h-5.881c-1.289,0-2.309-1.021-2.309-2.311V16.824z M196.059,31.344c3.779,0,6.328-2.55,6.328-6.271
		v-0.063c0-3.72-2.549-6.329-6.328-6.329h-3.57v12.659L196.059,31.344L196.059,31.344z"/>
	<path fill="#FFFFFF" d="M211.328,16.824c0-1.29,1.021-2.31,2.311-2.31h5.881c6.602,0,11.158,4.529,11.158,10.438v0.061
		c0,5.91-4.561,10.5-11.158,10.5h-5.881c-1.289,0-2.311-1.021-2.311-2.311V16.824z M219.52,31.344c3.777,0,6.328-2.55,6.328-6.271
		v-0.063c0-3.72-2.551-6.329-6.328-6.329h-3.57v12.659L219.52,31.344L219.52,31.344z"/>
	<path fill="#FFFFFF" d="M234.998,16.645c0-1.29,1.021-2.31,2.311-2.31c1.291,0,2.313,1.02,2.313,2.31v16.739
		c0,1.29-1.02,2.311-2.313,2.311c-1.289,0-2.311-1.021-2.311-2.311V16.645z"/>
	<path fill="#FFFFFF" d="M244.867,16.703c0-1.29,1.02-2.31,2.311-2.31h0.48c1.109,0,1.77,0.54,2.396,1.35l8.908,11.7v-10.83
		c0-1.26,1.021-2.278,2.281-2.278c1.258,0,2.275,1.02,2.275,2.278v16.71c0,1.289-1.02,2.311-2.311,2.311h-0.148
		c-1.107,0-1.771-0.54-2.396-1.352l-9.24-12.122v11.25c0,1.262-1.02,2.278-2.275,2.278c-1.262,0-2.281-1.021-2.281-2.278V16.703
		L244.867,16.703z"/>
	<g>
		<g>
			<g>
				<path fill="#2DB674" d="M241.855,14.507c0,2.484-1.967,4.508-4.438,4.591c0.281-0.441,0.443-0.969,0.443-1.538
					c0-0.078-0.004-0.152-0.008-0.228c0-0.007,0-0.011,0-0.018c-0.037-0.391-0.148-0.762-0.322-1.093
					c-0.004-0.001-0.006-0.009-0.008-0.012c-0.063-0.117-0.131-0.229-0.207-0.334c0.004-0.002,0.008-0.004,0.014-0.005v-0.004
					c0.639-0.288,1.193-0.72,1.635-1.246c0.01-0.007,0.016-0.014,0.021-0.022c0.004-0.009,0.01-0.013,0.018-0.021
					c0.346-0.417,0.607-0.891,0.793-1.409c0.004-0.007,0.008-0.016,0.008-0.026c0.002-0.005,0.006-0.013,0.006-0.021
					c0.164-0.469,0.25-0.974,0.25-1.501c0-0.273-0.025-0.544-0.072-0.807c0.002-0.009,0-0.017-0.004-0.028
					C241.109,11.629,241.855,12.982,241.855,14.507z"/>
				<path fill="#2DB674" d="M239.965,10.774c0.004,0.007,0.004,0.015,0.004,0.023c0.004,0.008,0.006,0.017,0.004,0.026
					c1.17,0.86,1.863,2.225,1.863,3.685c0,2.472-1.924,4.476-4.389,4.576c0.279-0.456,0.432-0.979,0.432-1.518
					c0-0.073-0.008-0.148-0.016-0.234v-0.014c-0.002-0.044-0.006-0.095-0.014-0.141c-0.047-0.332-0.145-0.653-0.303-0.95
					c-0.004-0.004-0.008-0.01-0.012-0.015c0-0.002,0-0.002,0-0.003c-0.008-0.004-0.008-0.007-0.012-0.011
					c-0.053-0.112-0.121-0.216-0.197-0.319c-0.002,0.002-0.006,0.003-0.014,0.005c-0.004,0.002-0.014,0.003-0.02,0.005
					c0.076,0.107,0.146,0.217,0.207,0.335l0.006,0.01c0.186,0.343,0.283,0.707,0.32,1.091l0.002,0.022
					c0.006,0.078,0.008,0.153,0.008,0.224c0,0.542-0.152,1.071-0.438,1.526l-0.021,0.03h0.041c1.191-0.041,2.316-0.539,3.154-1.403
					c0.836-0.866,1.297-2.007,1.297-3.208C241.869,13.024,241.16,11.636,239.965,10.774z"/>
			</g>
			<g>
				<path fill="#49BA7B" d="M240.133,14.507c0,1.377-0.971,2.529-2.27,2.808c-0.002,0.002-0.006,0.002-0.014,0.004
					c-0.039-0.391-0.145-0.763-0.326-1.093c-0.004-0.002-0.006-0.009-0.008-0.013c-0.063-0.116-0.123-0.229-0.203-0.333
					c0.008-0.003,0.012-0.004,0.014-0.006v-0.005c0.635-0.288,1.191-0.72,1.631-1.246c0.01-0.007,0.016-0.014,0.021-0.022
					c0.006-0.009,0.01-0.013,0.014-0.022c0.344-0.417,0.611-0.89,0.793-1.409c0.004-0.007,0.008-0.016,0.008-0.026
					C240.01,13.551,240.133,14.014,240.133,14.507z"/>
				<path fill="#49BA7B" d="M239.797,13.126c0,0.007-0.004,0.015-0.008,0.022c0,0.01-0.004,0.017-0.008,0.026
					c0.217,0.41,0.332,0.866,0.332,1.335c0,1.338-0.943,2.507-2.25,2.791c-0.002-0.039-0.006-0.083-0.014-0.124
					c-0.047-0.332-0.145-0.653-0.303-0.951c-0.004-0.004-0.008-0.009-0.016-0.015c0-0.001,0-0.001,0-0.003
					c-0.004-0.004-0.004-0.007-0.008-0.011c-0.053-0.113-0.121-0.216-0.197-0.32c-0.002,0.003-0.006,0.005-0.014,0.006
					c-0.004,0.002-0.014,0.004-0.02,0.005c0.076,0.106,0.146,0.217,0.207,0.335l0.006,0.01c0.186,0.344,0.283,0.707,0.32,1.091
					l0.002,0.022l0.021-0.005h0.004c0.004,0,0.008-0.002,0.01-0.004c1.324-0.28,2.275-1.467,2.275-2.822
					C240.146,14.02,240.023,13.547,239.797,13.126z"/>
			</g>
			<g>
				<path fill="#60BF80" d="M238.979,14.601c-0.039,0.813-0.652,1.478-1.439,1.604c-0.004,0.002-0.01,0.004-0.016,0.004
					c-0.063-0.117-0.131-0.229-0.207-0.334c0.004-0.002,0.008-0.004,0.014-0.007l0,0c0.639-0.288,1.193-0.72,1.635-1.246
					C238.967,14.616,238.973,14.61,238.979,14.601z"/>
				<path fill="#60BF80" d="M238.979,14.601c-0.006,0.007-0.012,0.014-0.021,0.022c-0.051,0.781-0.65,1.439-1.426,1.569
					c-0.061-0.112-0.125-0.216-0.201-0.32c-0.006,0.002-0.01,0.003-0.014,0.006c-0.004,0.002-0.012,0.003-0.016,0.005
					c0.074,0.106,0.145,0.215,0.207,0.335l0.004,0.01l0.014-0.002c0.002,0,0.004,0,0.006-0.002c0.008,0,0.012,0,0.016-0.002
					c0.809-0.132,1.422-0.828,1.445-1.641C238.988,14.588,238.984,14.594,238.979,14.601z"/>
			</g>
		</g>
		<g>
			<g>
				<path fill="#2DB674" d="M232.762,14.521c0-2.484,1.971-4.508,4.438-4.592c-0.279,0.442-0.443,0.971-0.443,1.538
					c0,0.078,0.004,0.153,0.008,0.229c0,0.005,0,0.009,0,0.016c0.037,0.393,0.146,0.763,0.322,1.095
					c0.004,0.002,0.006,0.009,0.006,0.013c0.066,0.116,0.133,0.227,0.209,0.333c-0.004,0.002-0.008,0.003-0.014,0.005v0.002
					c-0.635,0.289-1.189,0.722-1.629,1.247c-0.012,0.01-0.016,0.016-0.021,0.023c-0.004,0.007-0.012,0.012-0.016,0.021
					c-0.348,0.416-0.609,0.891-0.797,1.407c-0.004,0.007-0.006,0.015-0.006,0.026c-0.004,0.005-0.008,0.014-0.008,0.021
					c-0.166,0.469-0.252,0.976-0.252,1.499c0,0.275,0.027,0.544,0.072,0.809c-0.004,0.009,0,0.017,0.002,0.026
					C233.506,17.397,232.762,16.045,232.762,14.521z"/>
				<path fill="#2DB674" d="M234.652,18.252c-0.008-0.007-0.008-0.016-0.008-0.023c-0.004-0.008-0.004-0.017-0.004-0.026
					c-1.168-0.86-1.859-2.225-1.859-3.685c0-2.472,1.922-4.476,4.387-4.576c-0.279,0.456-0.43,0.98-0.43,1.52
					c0,0.074,0.004,0.149,0.012,0.232v0.015c0.004,0.046,0.01,0.096,0.014,0.141c0.047,0.333,0.146,0.653,0.305,0.953
					c0.002,0.005,0.006,0.009,0.01,0.014c0,0.002,0,0.002,0,0.004c0.004,0.003,0.004,0.007,0.008,0.011
					c0.059,0.111,0.125,0.216,0.201,0.32c0.006-0.002,0.01-0.004,0.014-0.006c0.004-0.001,0.012-0.003,0.016-0.005
					c-0.076-0.106-0.145-0.217-0.201-0.335l-0.012-0.01c-0.18-0.343-0.281-0.708-0.32-1.092v-0.019
					c-0.008-0.078-0.008-0.153-0.008-0.224c0-0.544,0.15-1.073,0.439-1.527l0.018-0.028h-0.033c-1.195,0.039-2.32,0.539-3.154,1.403
					c-0.84,0.866-1.301,2.005-1.301,3.208C232.744,16.004,233.457,17.391,234.652,18.252z"/>
			</g>
			<g>
				<path fill="#49BA7B" d="M234.482,14.521c0-1.377,0.967-2.529,2.268-2.808c0.006-0.002,0.01-0.002,0.014-0.004
					c0.037,0.393,0.146,0.763,0.322,1.095c0.004,0.002,0.006,0.009,0.006,0.013c0.066,0.116,0.133,0.227,0.209,0.333
					c-0.004,0.002-0.008,0.004-0.014,0.005v0.002c-0.635,0.29-1.189,0.722-1.629,1.248c-0.012,0.009-0.016,0.015-0.021,0.022
					c-0.004,0.007-0.012,0.013-0.016,0.021c-0.348,0.416-0.609,0.891-0.797,1.407c-0.004,0.007-0.006,0.014-0.006,0.026
					C234.609,15.474,234.482,15.013,234.482,14.521z"/>
				<path fill="#49BA7B" d="M234.818,15.9c0-0.007,0.002-0.014,0.006-0.021c0-0.012,0.004-0.019,0.008-0.026
					c-0.217-0.41-0.33-0.866-0.33-1.333c0-1.338,0.945-2.508,2.248-2.791c0.004,0.039,0.01,0.083,0.014,0.122
					c0.047,0.333,0.146,0.654,0.305,0.953c0.002,0.005,0.006,0.009,0.01,0.014c0,0.002,0,0.002,0,0.003
					c0.004,0.004,0.004,0.007,0.008,0.011c0.059,0.111,0.125,0.216,0.201,0.32c0.006-0.002,0.01-0.004,0.014-0.006
					s0.012-0.003,0.016-0.005c-0.076-0.106-0.145-0.217-0.205-0.335l-0.008-0.01c-0.18-0.343-0.281-0.708-0.32-1.092v-0.019
					l-0.02,0.004h-0.002c-0.004,0-0.008,0.002-0.012,0.004c-1.322,0.28-2.279,1.465-2.279,2.822
					C234.471,15.007,234.59,15.479,234.818,15.9z"/>
			</g>
			<g>
				<path fill="#60BF80" d="M235.637,14.428c0.037-0.812,0.652-1.478,1.434-1.604c0.012-0.002,0.016-0.003,0.021-0.003
					c0.063,0.116,0.125,0.227,0.203,0.333c-0.006,0.002-0.01,0.003-0.016,0.005v0.002c-0.633,0.289-1.193,0.722-1.629,1.247
					C235.646,14.413,235.643,14.418,235.637,14.428z"/>
				<path fill="#60BF80" d="M235.637,14.428c0.006-0.007,0.01-0.014,0.021-0.022c0.051-0.781,0.648-1.439,1.428-1.569
					c0.051,0.113,0.119,0.216,0.193,0.32c0.006-0.001,0.01-0.003,0.016-0.005c0.004-0.002,0.014-0.004,0.021-0.006
					c-0.076-0.106-0.148-0.217-0.209-0.335l-0.004-0.01l-0.014,0.003c0,0-0.004,0-0.004,0.002c-0.016,0-0.02,0-0.023,0.001
					c-0.811,0.133-1.424,0.827-1.441,1.641C235.629,14.44,235.633,14.435,235.637,14.428z"/>
			</g>
		</g>
	</g>
</g>
</svg>
